<svg xmlns="http://www.w3.org/2000/svg" version="1.1" width="461" height="396"
    xmlns:xlink="http://www.w3.org/1999/xlink" xmlns:ev="http://www.w3.org/2001/xml-events"
    style="overflow: hidden; touch-action: none; user-select: none; -webkit-user-drag: none; -webkit-tap-highlight-color: rgba(0, 0, 0, 0);">
    <g class="svg-pan-zoom_viewport"
        transform="matrix(0.31283929911929576,0,0,0.31283929911929576,17.941340361491672,37.17148783667326)">
        <g>
            <path fill="#050505" stroke="#000000"
                d="M 973.062 347.060 Q 973.062 342.592 969.777 339.438 Q 966.360 336.283 961.628 336.283 L 398.860 336.283 Q 393.997 336.283 390.580 339.438 Q 387.294 342.592 387.294 347.060 L 387.294 665.244 Q 387.294 669.844 390.580 672.998 Q 393.997 676.152 398.860 676.152 L 961.628 676.152 Q 966.360 676.152 969.777 672.998 Q 973.062 669.844 973.062 665.244 L 973.062 347.060 z"
                fill-opacity="0.19000000000000003"></path>
            <path stroke-width="1.8" fill="#050505" stroke="#000000"
                d="M 973.062 347.060 L 973.062 665.244 Q 973.062 669.844 969.777 672.998 Q 966.360 676.152 961.628 676.152 L 398.860 676.152 Q 393.997 676.152 390.580 672.998 Q 387.294 669.844 387.294 665.244 L 387.294 347.060 Q 387.294 342.592 390.580 339.438 Q 393.997 336.283 398.860 336.283 L 961.628 336.283 Q 966.360 336.283 969.777 339.438 Q 973.062 342.592 973.062 347.060 z"
                fill-opacity="0.19000000000000003"></path>
            <path stroke-width="2.25" fill="#050505" stroke="#000000"
                d="M 950.983 655.124 L 411.083 655.124 L 411.083 357.312 L 950.983 357.312 L 950.983 655.124 z"
                fill-opacity="0.19000000000000003"></path>
            <path stroke-width="2.25" fill="#050505" stroke="#000000" d="M 681.033 357.574 L 681.033 654.730"
                fill-opacity="0.19000000000000003"></path>
            <path stroke-width="2.25" fill="#050505" stroke="#000000"
                d="M 724.403 506.086 Q 724.403 523.172 711.655 535.394 Q 699.038 547.354 680.901 547.354 Q 663.027 547.354 650.279 535.394 Q 637.530 523.172 637.530 506.086 Q 637.530 489.001 650.279 477.041 Q 663.027 464.950 680.901 464.950 Q 699.038 464.950 711.655 477.041 Q 724.403 489.001 724.403 506.086 z"
                fill-opacity="0.19000000000000003"></path>
            <path stroke-width="2.25" fill="#050505" stroke="#000000"
                d="M 497.693 471.915 L 497.693 408.831 L 411.477 408.831 L 411.477 603.473 L 497.693 603.473 L 497.693 540.520"
                fill-opacity="0.19000000000000003"></path>
            <path stroke-width="2.25" fill="#050505" stroke="#000000"
                d="M 517.012 506.086 Q 517.012 495.572 511.755 486.504 Q 506.630 477.567 497.693 471.915 L 497.693 540.520 Q 506.630 534.869 511.755 525.800 Q 517.012 516.600 517.012 506.086 z"
                fill-opacity="0.19000000000000003"></path>
            <path stroke-width="2.25" fill="#050505" stroke="#000000"
                d="M 863.847 471.915 L 863.847 408.831 L 950.983 408.831 L 950.983 603.473 L 863.847 603.473 L 863.847 540.520"
                fill-opacity="0.19000000000000003"></path>
            <path stroke-width="2.25" fill="#050505" stroke="#000000"
                d="M 863.847 540.520 Q 854.779 534.869 849.653 525.800 Q 844.264 516.600 844.264 506.086 Q 844.264 495.572 849.653 486.504 Q 854.779 477.698 863.847 471.915 L 863.847 540.520 z"
                fill-opacity="0.19000000000000003"></path>
            <path stroke-width="2.25" fill="#050505" stroke="#000000"
                d="M 412.397 467.578 L 445.516 467.578 L 445.516 544.463 L 412.397 544.463 L 412.397 467.578 z"
                fill-opacity="0.19000000000000003"></path>
            <path stroke-width="2.25" fill="#050505" stroke="#000000"
                d="M 949.406 467.578 L 949.406 544.463 L 916.286 544.463 L 916.286 467.578 L 949.406 467.578 z"
                fill-opacity="0.19000000000000003"></path>
        </g>
        <g sprite-identifier="s199363">
            <path fill="#f1f1f1" stroke="#000000"
                d="M 581.454 142.738 L 582.955 154.581 Q 614.314 150.411 640.335 148.409 L 639.835 138.068 Q 611.312 139.569 581.454 142.738 z"
                fill-opacity="0.19000000000000003" style="opacity: 1;"></path>
        </g>
        <g sprite-identifier="s199362">
            <path fill="#f1f1f1" stroke="#000000"
                d="M 719.232 138.068 L 718.732 148.409 Q 744.252 150.411 776.112 154.581 L 777.613 142.738 Q 747.588 139.569 719.232 138.068 z"
                fill-opacity="0.19000000000000003" style="opacity: 1;"></path>
        </g>
        <g sprite-identifier="s199359">
            <path fill="#f1f1f1" stroke="#000000"
                d="M 644.005 151.579 L 644.839 167.925 Q 664.521 166.591 679.533 166.591 Q 694.546 166.591 714.228 167.925 L 715.062 151.579 Q 697.548 150.411 680.367 150.077 L 678.699 150.077 Q 661.519 150.411 644.005 151.579 z"
                fill-opacity="0.19000000000000003" style="opacity: 1;"></path>
        </g>
        <g sprite-identifier="s199361">
            <path fill="#f1f1f1" stroke="#000000"
                d="M 583.289 157.917 L 585.457 174.597 Q 611.812 170.594 641.336 168.259 L 640.502 151.745 Q 614.814 153.747 583.289 157.917 z"
                fill-opacity="0.19000000000000003" style="opacity: 1;"></path>
        </g>
        <g sprite-identifier="s199360">
            <path fill="#f1f1f1" stroke="#000000"
                d="M 718.398 151.745 L 717.564 168.259 Q 747.255 170.594 773.443 174.597 L 775.611 157.917 Q 744.753 153.747 718.398 151.745 z"
                fill-opacity="0.19000000000000003" style="opacity: 1;"></path>
        </g>
        <g sprite-identifier="s199358">
            <path fill="#f1f1f1" stroke="#000000"
                d="M 585.958 177.933 L 588.293 195.447 Q 616.316 191.778 642.670 190.277 L 641.669 171.595 Q 614.147 173.763 585.958 177.933 z"
                fill-opacity="0.19000000000000003" style="opacity: 1;"></path>
        </g>
        <g sprite-identifier="s199357">
            <path fill="#f1f1f1" stroke="#000000"
                d="M 717.397 171.595 L 716.397 190.277 Q 742.918 191.778 770.774 195.447 L 772.942 177.933 Q 745.420 173.763 717.397 171.595 z"
                fill-opacity="0.19000000000000003" style="opacity: 1;"></path>
        </g>
        <g sprite-identifier="s78066">
            <path fill="#f1f1f1" stroke="#000000"
                d="M 645.769 276.497 L 646.613 276.497 L 643.406 218.421 L 590.563 226.862 L 597.485 279.535 Q 638.679 276.665 645.769 276.497 z"
                fill-opacity="0.19000000000000003" style="opacity: 1;"></path><text style="font-size: 10px;" x="618.588"
                y="253.978">TOD</text>
        </g>
        <g sprite-identifier="s103784">
            <path fill="#f1f1f1" stroke="#000000"
                d="M 761.584 279.535 L 768.506 226.862 L 715.494 218.421 L 712.455 276.497 L 713.300 276.497 Q 720.390 276.665 761.584 279.535 z"
                fill-opacity="0.19000000000000003" style="opacity: 1;"></path><text style="font-size: 10px;" x="740.481"
                y="253.978">TCS</text>
        </g>
        <g sprite-identifier="s212533">
            <path fill="#f1f1f1" stroke="#000000"
                d="M 653.346 270.508 L 653.346 253.328 L 705.724 253.328 L 705.724 270.508 L 708.726 270.675 L 711.729 213.128 L 647.174 213.128 L 650.343 270.675 L 653.346 270.508 z"
                fill-opacity="0.19000000000000003" style="opacity: 1;"></path><text style="font-size: 10.455px;"
                x="681.617" y="219.293">
                <tspan dy="1.2em" x="681.617">Tribuna </tspan>
                <tspan dy="1.2em" x="681.617">Autorita</tspan>
            </text>
        </g>
        <g sprite-identifier="s150816">
            <path fill="#f1f1f1" stroke="#000000"
                d="M 644.587 175.708 L 645.432 194.785 Q 663.158 193.772 679.534 193.772 Q 695.742 193.772 713.468 194.785 L 714.481 175.708 Q 695.235 174.526 680.379 174.357 L 678.690 174.357 Q 663.834 174.526 644.587 175.708 z"
                fill-opacity="0.19000000000000003" style="opacity: 1;"></path><text style="font-size: 10px;" x="679.534"
                y="189.571">TOC</text>
        </g>
        <g sprite-identifier="s295900">
            <path fill="#f1f1f1" stroke="#000000"
                d="M 1207.461 665.995 Q 1214.800 648.481 1220.471 628.631 L 1113.551 600.442 Q 1110.048 612.118 1105.211 623.294 L 1207.461 665.995 M 1103.877 626.296 Q 1098.205 638.806 1090.699 650.816 L 1188.445 704.192 Q 1198.453 686.845 1206.126 669.164 L 1103.877 626.296 z"
                fill-opacity="0.19000000000000003" style="opacity: 1;"></path><text style="font-size: 15px;"
                x="1155.585" y="657.317">46 B</text>
        </g>
        <g sprite-identifier="s295892">
            <path fill="#f1f1f1" stroke="#000000"
                d="M 1297.033 737.219 Q 1303.538 725.877 1310.044 712.532 L 1225.642 677.170 L 1217.635 696.519 L 1297.033 737.219 M 1285.190 757.235 Q 1289.694 750.230 1295.365 740.221 L 1199.454 691.015 Q 1194.617 700.356 1191.448 705.860 L 1285.190 757.235 z"
                fill-opacity="0.19000000000000003" style="opacity: 1;"></path><text style="font-size: 15px;"
                x="1250.746" y="722.203">46 AD</text>
        </g>
        <g sprite-identifier="s295893">
            <path fill="#f1f1f1" stroke="#000000"
                d="M 1235.150 653.818 L 1226.810 674.001 L 1311.378 709.530 Q 1316.382 699.021 1321.386 686.511 L 1235.150 653.818 M 1223.807 629.465 Q 1221.639 636.471 1219.137 644.144 L 1322.720 683.342 Q 1327.891 669.998 1331.728 657.988 L 1223.807 629.465 z"
                fill-opacity="0.19000000000000003" style="opacity: 1;"></path><text style="font-size: 15px;"
                x="1275.432" y="674.498">46 AS</text>
        </g>
        <g sprite-identifier="s295894">
            <path fill="#f1f1f1" stroke="#000000"
                d="M 1271.346 578.257 L 1271.346 595.438 L 1248.160 595.438 L 1247.159 605.613 L 1340.235 627.464 L 1342.570 616.955 Q 1311.044 600.108 1271.346 578.257 M 1229.645 604.945 Q 1227.977 614.119 1224.641 626.296 L 1332.729 654.819 Q 1336.398 642.976 1339.401 630.800 L 1229.645 604.945 z"
                fill-opacity="0.19000000000000003" style="opacity: 1;"></path><text style="font-size: 15px;"
                x="1283.605" y="621.538">47 AD</text>
        </g>
        <g sprite-identifier="s295895">
            <path fill="#f1f1f1" stroke="#000000"
                d="M 1268.010 592.102 L 1268.010 561.577 L 1251.163 561.577 L 1248.327 592.102 L 1268.010 592.102 M 1268.010 558.241 L 1268.010 537.891 L 1235.817 537.891 L 1235.817 543.229 Q 1235.817 549.067 1235.483 558.241 L 1268.010 558.241 z"
                fill-opacity="0.19000000000000003" style="opacity: 1;"></path><text style="font-size: 15px;"
                x="1251.746" y="569.996">47 AS</text>
        </g>
        <g sprite-identifier="s295901">
            <path fill="#f1f1f1" stroke="#000000"
                d="M 1230.479 578.757 Q 1232.481 559.909 1232.481 543.229 L 1232.481 537.891 L 1120.390 537.891 Q 1120.724 544.897 1120.724 549.901 Q 1120.724 557.073 1120.223 564.079 L 1230.479 578.757 M 1221.305 625.462 Q 1227.143 603.945 1229.979 582.094 L 1119.890 567.248 Q 1118.222 582.427 1114.385 597.106 L 1221.305 625.462 z"
                fill-opacity="0.19000000000000003" style="opacity: 1;"></path><text style="font-size: 15px;"
                x="1173.433" y="586.677">47 B</text>
        </g>
        <g sprite-identifier="s295902" data-original-title="" cursor="pointer">
            <path fill="#050505" stroke="#000000"
                d="M 1232.481 534.889 L 1232.481 529.718 Q 1232.481 512.871 1230.479 494.022 L 1120.223 508.868 Q 1120.724 515.706 1120.724 523.046 Q 1120.724 528.050 1120.390 534.889 L 1232.481 534.889 M 1229.979 490.686 Q 1227.143 469.002 1221.305 447.318 L 1114.385 475.674 Q 1118.222 490.519 1119.890 505.698 L 1229.979 490.686 z"
                fill-opacity="0.19000000000000003" style="opacity: 1;"></path><text style="font-size: 15px;"
                x="1173.433" y="496.103">48 B</text>
            <circle cx="1173.433" cy="463.603" fill="#f0ad4e" r="10" stroke="#000" stroke-width="2"></circle>
        </g>
        <g sprite-identifier="s295896" data-original-title="" cursor="pointer">
            <path fill="#050505" stroke="#000000"
                d="M 1248.327 480.678 L 1251.163 511.370 L 1268.010 511.370 L 1268.010 480.678 L 1248.327 480.678 M 1268.010 514.706 L 1235.483 514.706 Q 1235.817 523.880 1235.817 529.718 L 1235.817 534.889 L 1268.010 534.889 L 1268.010 514.706 z"
                fill-opacity="0.19000000000000003" style="opacity: 1;"></path><text style="font-size: 15px;"
                x="1251.746" y="512.783">48 AD</text>
            <circle cx="1251.746" cy="480.283" fill="#f0ad4e" r="10" stroke="#000" stroke-width="2"></circle>
        </g>
        <g sprite-identifier="s295899" data-original-title="" cursor="pointer">
            <path fill="#050505" stroke="#000000"
                d="M 1310.044 360.414 Q 1303.538 347.070 1297.033 335.561 L 1217.635 376.427 L 1225.642 395.609 L 1310.044 360.414 M 1295.365 332.725 Q 1289.694 322.717 1285.190 315.545 L 1191.448 367.086 Q 1194.617 372.591 1199.454 381.932 L 1295.365 332.725 z"
                fill-opacity="0.19000000000000003" style="opacity: 1;"></path><text style="font-size: 15px;"
                x="1250.746" y="360.577">49 AS</text>
            <circle cx="1250.746" cy="328.077" fill="#f0ad4e" r="10" stroke="#000" stroke-width="2"></circle>
        </g>
        <g sprite-identifier="s295967">
            <path fill="#f1f1f1" stroke="#000000"
                d="M 123.917 418.962 L 132.257 398.779 L 47.689 363.417 Q 42.351 374.426 37.681 386.435 L 123.917 418.962 M 135.260 443.315 Q 137.261 436.309 139.763 428.636 L 36.346 389.438 Q 32.010 400.613 27.172 414.791 L 135.260 443.315 z"
                fill-opacity="0.19000000000000003" style="opacity: 1;"></path><text style="font-size: 15px;" x="83.468"
                y="408.366">18 AS</text>
        </g>
        <g sprite-identifier="s295959">
            <path fill="#f1f1f1" stroke="#000000"
                d="M 151.606 406.952 Q 143.767 425.634 138.429 444.149 L 245.682 472.338 Q 248.685 461.496 253.856 449.653 L 151.606 406.952 M 255.190 446.484 Q 261.028 433.640 268.201 421.964 L 170.622 368.587 Q 160.614 386.102 152.941 403.783 L 255.190 446.484 z"
                fill-opacity="0.19000000000000003" style="opacity: 1;"></path><text style="font-size: 15px;" x="203.315"
                y="425.463">18 B</text>
        </g>
        <g sprite-identifier="s295903" data-original-title="" cursor="pointer">
            <path fill="#050505" stroke="#000000"
                d="M 1220.471 444.149 Q 1214.967 424.633 1207.461 406.952 L 1105.211 449.653 Q 1110.048 460.662 1113.551 472.338 L 1220.471 444.149 M 1188.445 368.587 L 1090.699 421.964 Q 1098.205 434.140 1103.877 446.484 L 1206.126 403.783 Q 1198.453 386.102 1188.445 368.587 z"
                fill-opacity="0.19000000000000003" style="opacity: 1;"></path><text style="font-size: 15px;"
                x="1155.585" y="425.463">49 B</text>
            <circle cx="1155.585" cy="392.963" fill="#f0ad4e" r="10" stroke="#000" stroke-width="2"></circle>
        </g>
        <g sprite-identifier="s295898" data-original-title="" cursor="pointer">
            <path fill="#050505" stroke="#000000"
                d="M 1321.386 386.435 Q 1316.382 373.925 1311.378 363.417 L 1226.810 398.779 L 1235.150 418.962 L 1321.386 386.435 M 1331.728 414.791 Q 1327.891 402.782 1322.720 389.438 L 1219.137 428.636 Q 1221.639 436.309 1223.807 443.315 L 1331.728 414.791 z"
                fill-opacity="0.19000000000000003" style="opacity: 1;"></path><text style="font-size: 15px;"
                x="1275.432" y="408.366">49 AD</text>
            <circle cx="1275.432" cy="375.866" fill="#f0ad4e" r="10" stroke="#000" stroke-width="2"></circle>
        </g>
        <g sprite-identifier="s295965">
            <path fill="#f1f1f1" stroke="#000000"
                d="M 90.890 511.370 L 107.904 511.370 L 110.573 480.678 L 90.890 480.678 L 90.890 511.370 M 123.250 534.889 L 123.250 529.718 Q 123.250 522.045 123.584 514.706 L 90.890 514.706 L 90.890 534.889 L 123.250 534.889 z"
                fill-opacity="0.19000000000000003" style="opacity: 1;"></path><text style="font-size: 15px;" x="107.237"
                y="512.783">19 AS</text>
        </g>
        <g sprite-identifier="s295958">
            <path fill="#f1f1f1" stroke="#000000"
                d="M 238.343 523.046 Q 238.343 515.706 239.010 508.868 L 128.754 494.022 Q 126.586 511.703 126.586 529.718 L 126.586 534.889 L 238.844 534.889 Q 238.343 529.885 238.343 523.046 M 137.595 447.318 Q 132.090 468.168 128.921 490.686 L 239.177 505.698 Q 240.678 490.186 244.682 475.674 L 137.595 447.318 z"
                fill-opacity="0.19000000000000003" style="opacity: 1;"></path><text style="font-size: 15px;" x="185.634"
                y="496.103">19 B</text>
        </g>
        <g sprite-identifier="s295968">
            <path fill="#f1f1f1" stroke="#000000"
                d="M 62.034 335.561 Q 55.695 346.570 49.023 360.414 L 133.425 395.609 L 141.431 376.427 L 62.034 335.561 M 73.877 315.545 Q 68.039 324.719 63.702 332.725 L 159.613 381.932 Q 163.282 374.759 167.619 367.086 L 73.877 315.545 z"
                fill-opacity="0.19000000000000003" style="opacity: 1;"></path><text style="font-size: 15px;" x="108.321"
                y="360.577">18 AD</text>
        </g>
        <g sprite-identifier="s295966">
            <path fill="#f1f1f1" stroke="#000000"
                d="M 87.554 494.523 L 87.554 477.342 L 110.907 477.342 L 111.741 467.334 L 18.832 445.316 L 16.330 455.825 Q 46.021 471.671 87.554 494.523 M 129.255 468.001 Q 131.757 456.325 134.426 446.484 L 26.171 418.128 Q 22.669 429.804 19.499 441.980 L 129.255 468.001 z"
                fill-opacity="0.19000000000000003" style="opacity: 1;"></path><text style="font-size: 15px;" x="75.378"
                y="461.325">19 AD</text>
        </g>
        <g sprite-identifier="s295964">
            <path fill="#f1f1f1" stroke="#000000"
                d="M 90.890 592.102 L 110.573 592.102 L 107.904 561.577 L 90.890 561.577 L 90.890 592.102 M 123.584 558.241 Q 123.250 550.902 123.250 543.229 L 123.250 537.891 L 90.890 537.891 L 90.890 558.241 L 123.584 558.241 z"
                fill-opacity="0.19000000000000003" style="opacity: 1;"></path><text style="font-size: 15px;" x="107.237"
                y="569.996">20 AD</text>
        </g>
        <g sprite-identifier="s295963">
            <path fill="#f1f1f1" stroke="#000000"
                d="M 111.741 605.613 L 110.907 595.438 L 87.554 595.438 L 87.554 578.257 Q 46.021 601.276 16.330 616.955 L 18.832 627.464 L 111.741 605.613 M 134.426 626.296 Q 131.757 616.621 129.255 604.945 L 19.499 630.800 Q 22.502 642.976 26.171 654.819 L 134.426 626.296 z"
                fill-opacity="0.19000000000000003" style="opacity: 1;"></path><text style="font-size: 15px;" x="75.378"
                y="621.538">20 AS</text>
        </g>
        <g sprite-identifier="s295957">
            <path fill="#f1f1f1" stroke="#000000"
                d="M 239.010 564.079 Q 238.343 557.073 238.343 549.901 Q 238.343 543.229 238.844 537.891 L 126.586 537.891 L 126.586 543.229 Q 126.586 561.077 128.754 578.757 L 239.010 564.079 M 244.682 597.106 Q 240.678 582.761 239.177 567.248 L 128.921 582.094 Q 132.090 604.779 137.595 625.462 L 244.682 597.106 z"
                fill-opacity="0.19000000000000003" style="opacity: 1;"></path><text style="font-size: 15px;" x="185.634"
                y="586.677">20 B</text>
        </g>
        <g sprite-identifier="s295956">
            <path fill="#f1f1f1" stroke="#000000"
                d="M 138.429 628.631 Q 143.933 647.480 151.606 665.995 L 253.856 623.294 Q 248.685 611.284 245.682 600.442 L 138.429 628.631 M 268.201 650.816 Q 261.028 639.140 255.190 626.296 L 152.941 669.164 Q 160.614 686.845 170.622 704.192 L 268.201 650.816 z"
                fill-opacity="0.19000000000000003" style="opacity: 1;"></path><text style="font-size: 15px;" x="203.315"
                y="657.317">21 B</text>
        </g>
        <g sprite-identifier="s295897" data-original-title="" cursor="pointer">
            <path fill="#050505" stroke="#000000"
                d="M 1342.570 455.825 L 1340.235 445.316 L 1247.159 467.334 L 1248.160 477.342 L 1271.346 477.342 L 1271.346 494.523 Q 1311.044 472.838 1342.570 455.825 M 1339.401 441.980 Q 1336.398 429.804 1332.729 418.128 L 1224.641 446.484 Q 1227.977 458.827 1229.645 468.001 L 1339.401 441.980 z"
                fill-opacity="0.19000000000000003" style="opacity: 1;"></path><text style="font-size: 15px;"
                x="1283.605" y="461.325">48 AS</text>
            <circle cx="1283.605" cy="428.825" fill="#f0ad4e" r="10" stroke="#000" stroke-width="2"></circle>
        </g>
        <g sprite-identifier="s295962">
            <path fill="#f1f1f1" stroke="#000000"
                d="M 132.257 674.001 L 123.917 653.818 L 37.681 686.511 Q 42.351 698.354 47.689 709.530 L 132.257 674.001 M 139.763 644.144 Q 137.261 636.471 135.260 629.465 L 27.172 657.988 Q 32.010 672.333 36.346 683.342 L 139.763 644.144 z"
                fill-opacity="0.19000000000000003" style="opacity: 1;"></path><text style="font-size: 15px;" x="83.468"
                y="674.498">21 AD</text>
        </g>
        <g sprite-identifier="s295954">
            <path fill="#f1f1f1" stroke="#000000"
                d="M 318.908 222.636 L 310.902 227.473 L 312.737 230.476 L 324.413 283.519 L 338.591 306.871 L 356.105 298.864 L 318.908 222.636 M 309.567 231.810 L 308.066 229.308 Q 298.058 235.480 290.552 240.651 L 298.225 286.021 L 332.920 334.393 L 345.096 327.387 L 334.754 308.706 L 335.588 308.205 L 321.244 284.686 L 309.567 231.810 z"
                fill-opacity="0.19000000000000003" style="opacity: 1;"></path><text style="font-size: 15px;" x="323.329"
                y="283.515">15 B</text>
        </g>
        <g sprite-identifier="s295961">
            <path fill="#f1f1f1" stroke="#000000"
                d="M 49.023 712.532 Q 55.695 726.210 62.034 737.219 L 141.431 696.519 L 133.425 677.170 L 49.023 712.532 M 63.702 740.221 Q 68.039 748.061 73.877 757.235 L 167.619 705.860 Q 163.282 698.187 159.613 691.015 L 63.702 740.221 z"
                fill-opacity="0.19000000000000003" style="opacity: 1;"></path><text style="font-size: 15px;" x="108.321"
                y="722.203">21 AS</text>
        </g>
        <g sprite-identifier="s295955">
            <path fill="#f1f1f1" stroke="#000000"
                d="M 273.205 128.894 Q 266.199 132.897 258.193 137.901 L 300.393 209.626 L 310.068 204.621 L 273.205 128.894 M 289.384 237.481 Q 296.724 232.477 306.398 226.306 L 255.524 139.569 Q 245.682 145.574 236.508 151.912 L 289.384 237.481 z"
                fill-opacity="0.19000000000000003" style="opacity: 1;"></path><text style="font-size: 15px;" x="273.288"
                y="188.187">15 A</text>
        </g>
        <g sprite-identifier="s295953">
            <path fill="#f1f1f1" stroke="#000000"
                d="M 325.914 356.411 L 253.522 269.340 Q 238.176 282.351 225.833 295.528 L 307.399 373.258 Q 316.573 364.417 325.914 356.411 M 287.550 242.652 Q 271.036 254.495 256.024 267.172 L 328.416 354.243 L 331.585 351.574 L 329.917 336.061 L 330.084 336.061 L 295.056 287.355 L 287.550 242.652 z"
                fill-opacity="0.19000000000000003" style="opacity: 1;"></path><text style="font-size: 15px;" x="278.709"
                y="312.955">16 B</text>
        </g>
        <g sprite-identifier="s295972">
            <path fill="#f1f1f1" stroke="#000000"
                d="M 213.490 168.092 Q 200.813 177.600 189.303 186.940 L 241.679 249.825 L 261.529 234.479 L 213.490 168.092 M 233.839 153.747 Q 224.165 160.419 216.325 166.257 L 275.206 247.823 Q 281.712 242.986 286.716 239.483 L 233.839 153.747 z"
                fill-opacity="0.19000000000000003" style="opacity: 1;"></path><text style="font-size: 15px;" x="238.010"
                y="206.786">16 AD</text>
        </g>
        <g sprite-identifier="s295971">
            <path fill="#f1f1f1" stroke="#000000"
                d="M 223.998 263.836 L 239.010 251.993 L 186.801 188.942 Q 178.461 195.781 168.120 205.122 L 223.998 263.836 M 165.618 207.290 Q 158.946 213.128 149.438 222.469 L 223.498 293.193 Q 228.502 288.022 235.674 281.017 L 165.618 207.290 z"
                fill-opacity="0.19000000000000003" style="opacity: 1;"></path><text style="font-size: 15px;" x="194.224"
                y="246.068">16 AS</text>
        </g>
        <g sprite-identifier="s295960">
            <path fill="#f1f1f1" stroke="#000000"
                d="M 223.498 298.030 Q 208.819 313.543 196.309 329.889 L 286.716 395.943 Q 295.056 385.768 304.897 375.760 L 223.498 298.030 M 270.035 419.128 Q 276.707 408.620 284.714 398.612 L 194.307 332.725 Q 181.797 349.405 172.290 365.752 L 270.035 419.128 z"
                fill-opacity="0.19000000000000003" style="opacity: 1;"></path><text style="font-size: 15px;" x="238.593"
                y="363.579">17 B</text>
        </g>
        <g sprite-identifier="s295969" data-original-title="" cursor="pointer">
            <path fill="#050505" stroke="#000000"
                d="M 107.070 269.007 Q 99.231 278.848 92.225 288.523 L 166.785 334.894 L 176.793 319.881 L 107.070 269.007 M 90.390 291.191 Q 82.217 302.534 75.545 312.876 L 169.287 364.084 Q 173.958 356.411 179.963 347.237 L 90.390 291.191 z"
                fill-opacity="0.19000000000000003" style="opacity: 1;"></path><text style="font-size: 15px;" x="127.754"
                y="321.545">17 AS</text>
            <circle cx="127.754" cy="289.045" fill="#a3d165" r="10" stroke="#000" stroke-width="2"></circle>
        </g>
        <g sprite-identifier="s295970">
            <path fill="#f1f1f1" stroke="#000000"
                d="M 178.795 317.213 L 190.971 299.365 L 128.087 244.654 Q 118.413 255.162 109.072 266.505 L 178.795 317.213 M 147.103 224.804 Q 138.095 233.812 130.422 242.152 L 208.319 309.706 Q 214.991 302.034 220.996 295.528 L 147.103 224.804 z"
                fill-opacity="0.19000000000000003" style="opacity: 1;"></path><text style="font-size: 15px;" x="165.034"
                y="276.009">17 AD</text>
        </g>
        <g sprite-identifier="s295976">
            <path fill="#f1f1f1" stroke="#000000"
                d="M 128.087 828.126 L 190.971 773.582 L 178.795 755.567 L 109.072 806.442 Q 118.413 817.784 128.087 828.126 M 130.422 830.628 Q 138.095 838.968 147.103 848.142 L 220.996 777.251 Q 214.991 770.913 208.319 763.073 L 130.422 830.628 z"
                fill-opacity="0.19000000000000003" style="opacity: 1;"></path><text style="font-size: 15px;" x="165.034"
                y="806.855">22 AS</text>
        </g>
        <g sprite-identifier="s295977">
            <path fill="#f1f1f1" stroke="#000000"
                d="M 92.225 784.424 Q 99.231 793.932 107.070 803.773 L 176.793 752.898 L 166.785 738.053 L 92.225 784.424 M 75.545 760.071 Q 82.550 770.746 90.390 781.755 L 179.963 725.710 Q 174.458 717.536 169.287 708.863 L 75.545 760.071 z"
                fill-opacity="0.19000000000000003" style="opacity: 1;"></path><text style="font-size: 15px;" x="127.754"
                y="761.318">22 AD</text>
        </g>
        <g sprite-identifier="s295980">
            <path fill="#f1f1f1" stroke="#000000"
                d="M 196.309 742.890 Q 208.819 759.404 223.498 774.916 L 304.897 697.187 Q 295.056 687.179 286.716 677.004 L 196.309 742.890 M 284.714 674.335 Q 276.707 664.160 270.035 653.818 L 172.290 707.195 Q 181.797 723.374 194.307 740.221 L 284.714 674.335 z"
                fill-opacity="0.19000000000000003" style="opacity: 1;"></path><text style="font-size: 15px;" x="238.593"
                y="719.367">22 B</text>
        </g>
        <g sprite-identifier="s295974">
            <path fill="#f1f1f1" stroke="#000000"
                d="M 189.303 886.006 Q 200.813 895.347 213.490 904.688 L 261.529 838.468 L 241.679 822.955 L 189.303 886.006 M 286.716 833.464 Q 281.712 829.961 275.206 825.123 L 216.325 906.689 Q 224.165 912.528 233.839 919.033 L 286.716 833.464 z"
                fill-opacity="0.19000000000000003" style="opacity: 1;"></path><text style="font-size: 15px;" x="238.010"
                y="875.994">23 AS</text>
        </g>
        <g sprite-identifier="s295978">
            <path fill="#f1f1f1" stroke="#000000"
                d="M 316.740 785.425 L 307.733 781.088 L 275.873 821.454 Q 281.044 825.457 289.885 831.629 Q 299.393 838.134 306.899 842.971 L 316.740 785.425 z"
                fill-opacity="0.19000000000000003" style="opacity: 1;"></path><text style="font-size: 15px;" x="296.307"
                y="817.030">24 B</text>
        </g>
        <g sprite-identifier="s295888" data-original-title="" cursor="pointer">
            <path fill="#050505" stroke="#000000"
                d="M 1052.835 846.474 L 1052.835 846.808 L 1103.710 933.211 Q 1113.885 926.706 1122.392 921.034 L 1069.682 835.465 Q 1063.010 839.969 1052.835 846.474 M 1058.673 863.321 L 1055.838 864.822 L 1067.014 929.708 L 1079.190 924.037 L 1089.532 942.051 L 1091.533 940.717 L 1091.533 940.550 L 1100.707 934.879 L 1058.673 863.321 z"
                fill-opacity="0.19000000000000003" style="opacity: 1;"></path><text style="font-size: 15px;"
                x="1087.614" y="893.758">43 A</text>
            <circle cx="1087.614" cy="861.258" fill="#a3d165" r="10" stroke="#000" stroke-width="2"></circle>
        </g>
        <g sprite-identifier="s295973">
            <path fill="#f1f1f1" stroke="#000000"
                d="M 306.231 846.808 L 306.398 846.474 Q 296.557 840.302 289.384 835.465 L 236.508 921.034 Q 245.682 927.206 255.524 933.211 L 306.231 846.808 M 279.877 924.037 L 291.886 929.708 L 303.229 864.822 L 300.393 863.321 L 258.193 934.879 L 266.032 939.716 L 267.367 940.717 L 269.368 942.051 L 279.877 924.037 z"
                fill-opacity="0.19000000000000003" style="opacity: 1;"></path><text style="font-size: 15px;" x="271.453"
                y="893.758">24 A</text>
        </g>
        <g sprite-identifier="s295975">
            <path fill="#f1f1f1" stroke="#000000"
                d="M 239.010 820.953 L 223.998 809.111 L 168.120 867.825 Q 178.461 877.166 186.801 883.838 L 239.010 820.953 M 235.674 791.930 Q 228.502 784.924 223.498 779.753 L 149.438 850.477 Q 157.278 857.983 165.618 865.656 L 235.674 791.930 z"
                fill-opacity="0.19000000000000003" style="opacity: 1;"></path><text style="font-size: 15px;" x="194.224"
                y="836.796">23 AD</text>
        </g>
        <g sprite-identifier="s295979">
            <path fill="#f1f1f1" stroke="#000000"
                d="M 253.522 803.439 L 325.914 716.536 Q 316.573 708.529 307.399 699.522 L 225.833 777.251 Q 238.176 790.429 253.522 803.439 M 273.205 819.452 L 306.732 776.918 L 317.407 782.089 L 328.249 718.871 L 256.024 805.608 Q 264.865 813.114 273.205 819.452 z"
                fill-opacity="0.19000000000000003" style="opacity: 1;"></path><text style="font-size: 15px;" x="277.041"
                y="764.487">23 B</text>
        </g>
        <g sprite-identifier="s295891" data-original-title="" cursor="pointer">
            <path fill="#050505" stroke="#000000"
                d="M 1069.182 831.629 Q 1077.856 825.624 1083.193 821.454 L 1051.167 781.088 L 1042.327 785.425 L 1052.001 842.971 Q 1060.008 837.967 1069.182 831.629 z"
                fill-opacity="0.19000000000000003" style="opacity: 1;"></path><text style="font-size: 15px;"
                x="1062.760" y="817.030">43 B</text>
            <circle cx="1062.760" cy="784.53" fill="#ffeb99" r="10" stroke="#000" stroke-width="2"></circle>
        </g>
        <g sprite-identifier="s295890" data-original-title="" cursor="pointer">
            <path fill="#050505" stroke="#000000"
                d="M 1105.545 803.439 Q 1120.223 790.929 1133.234 777.251 L 1051.835 699.522 Q 1042.661 708.529 1033.153 716.536 L 1105.545 803.439 M 1085.862 819.452 Q 1095.703 812.113 1103.043 805.608 L 1030.818 718.871 L 1041.660 782.089 L 1052.168 776.918 L 1085.862 819.452 z"
                fill-opacity="0.19000000000000003" style="opacity: 1;"></path><text style="font-size: 15px;"
                x="1082.026" y="764.487">44 B</text>
            <circle cx="1082.026" cy="731.987" fill="#ffeb99" r="10" stroke="#000" stroke-width="2"></circle>
        </g>
        <g sprite-identifier="s295887" data-original-title="" cursor="pointer">
            <path fill="#050505" stroke="#000000"
                d="M 1117.388 822.955 L 1097.538 838.468 L 1145.410 904.688 Q 1159.422 894.513 1169.597 886.006 L 1117.388 822.955 M 1083.694 825.123 L 1072.351 833.464 L 1125.227 919.033 Q 1132.066 914.362 1142.908 906.689 L 1083.694 825.123 z"
                fill-opacity="0.19000000000000003" style="opacity: 1;"></path><text style="font-size: 15px;"
                x="1120.974" y="875.994">44 AD</text>
            <circle cx="1120.974" cy="843.494" fill="#a3d165" r="10" stroke="#000" stroke-width="2"></circle>
        </g>
        <g sprite-identifier="s295886" data-original-title="" cursor="pointer">
            <path fill="#050505" stroke="#000000"
                d="M 1134.902 809.111 L 1119.890 820.953 L 1172.265 883.838 Q 1180.439 877.166 1190.947 867.825 L 1134.902 809.111 M 1135.569 779.753 Q 1130.398 785.258 1123.226 791.930 L 1193.449 865.656 Q 1202.623 857.149 1209.629 850.477 L 1135.569 779.753 z"
                fill-opacity="0.19000000000000003" style="opacity: 1;"></path><text style="font-size: 15px;"
                x="1164.759" y="836.796">44 AS</text>
            <circle cx="1164.759" cy="804.296" fill="#a3d165" r="10" stroke="#000" stroke-width="2"></circle>
        </g>
        <g sprite-identifier="s295884" data-original-title="" cursor="pointer">
            <path fill="#050505" stroke="#000000"
                d="M 1192.282 738.053 L 1182.107 752.898 L 1251.997 803.773 Q 1260.670 792.931 1266.675 784.424 L 1192.282 738.053 M 1189.613 708.863 Q 1182.941 719.705 1179.104 725.710 L 1268.677 781.755 Q 1276.183 771.247 1283.355 760.071 L 1189.613 708.863 z"
                fill-opacity="0.19000000000000003" style="opacity: 1;"></path><text style="font-size: 15px;"
                x="1231.230" y="761.318">45 AS</text>
            <circle cx="1231.230" cy="728.818" fill="#ffeb99" r="10" stroke="#000" stroke-width="2"></circle>
        </g>
        <g sprite-identifier="s295885" data-original-title="" cursor="pointer">
            <path fill="#050505" stroke="#000000"
                d="M 1180.272 755.567 L 1167.929 773.582 L 1230.813 828.126 Q 1240.654 817.617 1249.828 806.442 L 1180.272 755.567 M 1150.748 763.073 Q 1144.910 769.745 1137.904 777.251 L 1211.964 848.142 Q 1223.307 836.633 1228.644 830.628 L 1150.748 763.073 z"
                fill-opacity="0.19000000000000003" style="opacity: 1;"></path><text style="font-size: 15px;"
                x="1193.866" y="806.855">45 AD</text>
            <circle cx="1193.866" cy="774.355" fill="#ffeb99" r="10" stroke="#000" stroke-width="2"></circle>
        </g>
        <g sprite-identifier="s295904">
            <path fill="#f1f1f1" stroke="#000000"
                d="M 1162.758 329.889 Q 1150.248 313.543 1135.402 298.030 L 1054.003 375.760 Q 1064.011 385.768 1072.184 395.943 L 1162.758 329.889 M 1074.353 398.612 Q 1082.026 408.286 1089.031 419.128 L 1186.777 365.752 Q 1177.103 349.072 1164.759 332.725 L 1074.353 398.612 z"
                fill-opacity="0.19000000000000003" style="opacity: 1;"></path><text style="font-size: 15px;"
                x="1120.390" y="363.579">50 B</text>
        </g>
        <g sprite-identifier="s295908">
            <path fill="#f1f1f1" stroke="#000000"
                d="M 1167.929 299.365 L 1180.272 317.213 L 1249.828 266.505 Q 1240.654 255.162 1230.813 244.654 L 1167.929 299.365 M 1137.904 295.528 Q 1144.910 303.034 1150.748 309.706 L 1228.644 242.152 Q 1223.307 236.314 1211.964 224.804 L 1137.904 295.528 z"
                fill-opacity="0.19000000000000003" style="opacity: 1;"></path><text style="font-size: 15px;"
                x="1193.866" y="276.009">50 AS</text>
        </g>
        <g sprite-identifier="s295889" data-original-title="" cursor="pointer">
            <path fill="#050505" stroke="#000000"
                d="M 1135.402 774.916 Q 1150.248 759.404 1162.758 742.890 L 1072.184 677.004 Q 1064.011 687.179 1054.003 697.187 L 1135.402 774.916 M 1089.031 653.818 Q 1082.026 664.494 1074.353 674.335 L 1164.759 740.221 Q 1177.103 723.708 1186.777 707.195 L 1089.031 653.818 z"
                fill-opacity="0.19000000000000003" style="opacity: 1;"></path><text style="font-size: 15px;"
                x="1120.390" y="719.367">45 B</text>
            <circle cx="1120.390" cy="686.867" fill="#ffeb99" r="10" stroke="#000" stroke-width="2"></circle>
        </g>
        <g sprite-identifier="s295905">
            <path fill="#f1f1f1" stroke="#000000"
                d="M 1133.234 295.528 Q 1120.223 281.851 1105.545 269.340 L 1033.153 356.411 Q 1042.661 364.417 1051.835 373.258 L 1133.234 295.528 M 1028.983 336.061 L 1029.150 336.061 L 1027.482 351.574 L 1030.651 354.243 L 1103.043 267.172 Q 1088.031 254.495 1071.350 242.652 L 1064.011 287.355 L 1028.983 336.061 z"
                fill-opacity="0.19000000000000003" style="opacity: 1;"></path><text style="font-size: 15px;"
                x="1080.358" y="312.955">51 B</text>
        </g>
        <g sprite-identifier="s295911">
            <path fill="#f1f1f1" stroke="#000000"
                d="M 1100.707 137.901 Q 1092.868 132.897 1085.862 128.894 L 1048.999 204.621 L 1058.673 209.626 L 1100.707 137.901 M 1122.392 151.912 Q 1113.885 146.074 1103.710 139.569 L 1052.669 226.306 Q 1061.676 232.144 1069.682 237.481 L 1122.392 151.912 z"
                fill-opacity="0.19000000000000003" style="opacity: 1;"></path><text style="font-size: 15px;"
                x="1085.695" y="188.187">52 A</text>
        </g>
        <g sprite-identifier="s295910">
            <path fill="#f1f1f1" stroke="#000000"
                d="M 1169.597 186.940 Q 1159.422 178.434 1145.410 168.092 L 1097.538 234.479 L 1117.388 249.825 L 1169.597 186.940 M 1142.908 166.257 Q 1132.066 158.584 1125.227 153.747 L 1072.351 239.483 L 1083.694 247.823 L 1142.908 166.257 z"
                fill-opacity="0.19000000000000003" style="opacity: 1;"></path><text style="font-size: 15px;"
                x="1120.974" y="206.786">51 AS</text>
        </g>
        <g sprite-identifier="s295906">
            <path fill="#f1f1f1" stroke="#000000"
                d="M 1048.165 227.473 L 1040.159 222.636 L 1002.795 298.864 L 1020.309 306.871 L 1034.654 283.519 L 1046.330 230.476 L 1048.165 227.473 M 1051.001 229.308 L 1049.499 231.810 L 1037.823 284.686 L 1023.478 308.205 L 1024.479 308.706 L 1013.971 327.387 L 1026.147 334.393 L 1060.675 286.021 L 1068.348 240.651 Q 1059.507 234.646 1051.001 229.308 z"
                fill-opacity="0.19000000000000003" style="opacity: 1;"></path><text style="font-size: 15px;"
                x="1035.571" y="283.515">52 B</text>
        </g>
        <g sprite-identifier="s295909">
            <path fill="#f1f1f1" stroke="#000000"
                d="M 1134.902 263.836 L 1190.947 205.122 Q 1180.439 195.781 1172.265 188.942 L 1119.890 251.993 L 1134.902 263.836 M 1193.449 207.290 L 1123.226 281.017 Q 1130.398 287.689 1135.569 293.193 L 1209.629 222.469 Q 1200.288 213.462 1193.449 207.290 z"
                fill-opacity="0.19000000000000003" style="opacity: 1;"></path><text style="font-size: 15px;"
                x="1164.759" y="246.068">51 AD</text>
        </g>
        <g sprite-identifier="s295869">
            <path fill="#f1f1f1" stroke="#000000"
                d="M 503.224 767.077 L 473.533 763.574 L 471.532 793.932 Q 480.706 794.766 498.887 796.100 L 503.224 767.077 M 533.582 798.268 L 534.249 768.411 L 509.896 767.911 L 506.393 767.577 L 502.223 796.267 L 533.582 798.268 z"
                fill-opacity="0.19000000000000003" style="opacity: 1;"></path><text style="font-size: 12px;" x="502.890"
                y="785.921">28 BS</text>
        </g>
        <g sprite-identifier="s295868">
            <path fill="#f1f1f1" stroke="#000000"
                d="M 596.633 800.937 L 596.633 769.745 L 569.945 769.245 L 569.945 799.936 Q 571.112 800.103 596.633 800.937 M 566.609 769.245 L 537.585 768.411 L 536.918 798.435 Q 555.767 799.436 566.609 799.770 L 566.609 769.245 z"
                fill-opacity="0.19000000000000003" style="opacity: 1;"></path><text style="font-size: 12px;" x="566.776"
                y="789.674">32 BD</text>
        </g>
        <g sprite-identifier="s295867" data-original-title="" cursor="pointer">
            <path fill="#050505" stroke="#000000"
                d="M 631.495 770.579 L 630.661 801.604 Q 646.507 802.105 678.699 802.272 L 678.699 771.247 Q 658.350 771.247 631.495 770.579 M 628.159 770.579 L 599.969 769.912 L 599.969 800.937 L 627.324 801.604 L 628.159 770.579 z"
                fill-opacity="0.19000000000000003" style="opacity: 1;"></path><text style="font-size: 12px;" x="639.334"
                y="791.092">32 BS</text>
            <circle cx="639.334" cy="760.092" fill="#f0ad4e" r="10" stroke="#000" stroke-width="2"></circle>
        </g>
        <g sprite-identifier="s295871">
            <path fill="#f1f1f1" stroke="#000000"
                d="M 380.792 752.732 L 364.112 780.587 Q 379.958 783.423 393.969 785.258 L 400.808 755.067 L 380.792 752.732 z"
                fill-opacity="0.19000000000000003" style="opacity: 1;"></path><text style="font-size: 12px;" x="382.460"
                y="773.995">28 BD</text>
        </g>
        <g sprite-identifier="s295870">
            <path fill="#f1f1f1" stroke="#000000"
                d="M 468.363 793.598 L 470.197 763.240 L 443.676 760.071 L 438.338 790.596 Q 448.513 791.763 468.363 793.598 M 440.340 759.737 L 404.144 755.567 L 397.305 785.758 Q 417.655 788.427 435.002 790.429 L 440.340 759.737 z"
                fill-opacity="0.19000000000000003" style="opacity: 1;"></path><text style="font-size: 12px;" x="433.751"
                y="779.583">28 BC</text>
        </g>
        <g sprite-identifier="s295907">
            <path fill="#f1f1f1" stroke="#000000"
                d="M 1182.107 319.881 L 1192.282 334.894 L 1266.675 288.523 Q 1260.670 280.016 1251.997 269.007 L 1182.107 319.881 M 1283.355 312.876 Q 1276.350 302.034 1268.677 291.191 L 1179.104 347.237 Q 1182.941 353.075 1189.613 364.084 L 1283.355 312.876 z"
                fill-opacity="0.19000000000000003" style="opacity: 1;"></path><text style="font-size: 15px;"
                x="1231.230" y="321.545">50 AD</text>
        </g>
        <g sprite-identifier="s295862">
            <path fill="#f1f1f1" stroke="#000000"
                d="M 978.442 752.732 L 958.259 755.067 L 965.098 785.258 Q 978.942 783.423 994.955 780.587 L 978.442 752.732 z"
                fill-opacity="0.19000000000000003" style="opacity: 1;"></path><text style="font-size: 12px;" x="976.607"
                y="773.995">39 BS</text>
        </g>
        <g sprite-identifier="s295863" data-original-title="" cursor="pointer">
            <path fill="#050505" stroke="#000000"
                d="M 915.224 760.071 L 888.869 763.240 L 890.704 793.598 Q 910.387 791.763 920.895 790.596 L 915.224 760.071 M 961.762 785.758 L 954.923 755.567 L 918.560 759.737 L 924.231 790.429 Q 941.412 788.427 961.762 785.758 z"
                fill-opacity="0.19000000000000003" style="opacity: 1;"></path><text style="font-size: 12px;" x="925.316"
                y="779.583">39 BC</text>
            <circle cx="925.316" cy="748.583" fill="#ffeb99" r="10" stroke="#000" stroke-width="2"></circle>
        </g>
        <g sprite-identifier="s295865" data-original-title="" cursor="pointer">
            <path fill="#050505" stroke="#000000"
                d="M 789.122 769.245 L 762.434 769.745 L 762.434 800.937 Q 787.954 800.103 789.122 799.936 L 789.122 769.245 M 821.482 768.411 L 792.458 769.245 L 792.458 799.770 Q 803.801 799.269 822.149 798.435 L 821.482 768.411 z"
                fill-opacity="0.19000000000000003" style="opacity: 1;"></path><text style="font-size: 12px;" x="792.291"
                y="789.674">35 BS</text>
            <circle cx="792.291" cy="758.674" fill="#f0ad4e" r="10" stroke="#000" stroke-width="2"></circle>
        </g>
        <g sprite-identifier="s295864" data-original-title="" cursor="pointer">
            <path fill="#050505" stroke="#000000"
                d="M 860.180 796.100 Q 878.361 794.766 887.368 793.932 L 885.533 763.574 L 856.010 767.077 L 860.180 796.100 M 852.673 767.577 L 848.837 767.911 L 824.818 768.411 L 825.485 798.268 Q 841.998 797.268 856.844 796.267 L 852.673 767.577 z"
                fill-opacity="0.19000000000000003" style="opacity: 1;"></path><text style="font-size: 12px;" x="856.093"
                y="785.921">39 BD</text>
            <circle cx="856.093" cy="754.921" fill="#ffeb99" r="10" stroke="#000" stroke-width="2"></circle>
        </g>
        <g sprite-identifier="s295840">
            <path fill="#f1f1f1" stroke="#000000"
                d="M 355.438 858.150 Q 342.928 855.982 331.418 853.813 L 324.746 875.664 L 350.767 880.001 L 355.438 858.150 M 353.937 880.668 L 381.459 885.506 L 386.963 862.654 Q 374.620 860.986 358.774 858.484 L 353.937 880.668 z"
                fill-opacity="0.19000000000000003" style="opacity: 1;"></path><text style="font-size: 12px;" x="355.855"
                y="874.660">25 AD</text>
        </g>
        <g sprite-identifier="s295835" data-original-title="" cursor="pointer">
            <path fill="#050505" stroke="#000000"
                d="M 436.003 896.681 L 406.479 894.013 L 411.650 865.823 L 401.809 864.655 L 381.959 973.243 Q 402.643 976.079 424.327 978.581 L 436.003 896.681 M 383.961 889.175 L 353.436 884.004 L 335.922 965.570 Q 356.105 969.407 378.623 972.743 L 398.473 864.155 L 390.299 863.154 L 383.961 889.175 z"
                fill-opacity="0.19000000000000003" style="opacity: 1;"></path><text style="font-size: 12px;" x="385.963"
                y="925.868">25 AS</text>
            <circle cx="385.963" cy="894.868" fill="#a3d165" r="10" stroke="#000" stroke-width="2"></circle>
        </g>
        <g sprite-identifier="s295836">
            <path fill="#f1f1f1" stroke="#000000"
                d="M 327.749 853.146 L 327.582 853.146 L 327.582 852.979 Q 319.075 848.809 310.068 843.805 L 291.052 954.228 L 293.888 955.896 Q 294.722 956.063 304.730 958.732 Q 317.240 961.901 332.586 964.903 L 350.100 883.337 L 320.576 878.166 L 328.082 853.146 L 327.749 853.146 z"
                fill-opacity="0.19000000000000003" style="opacity: 1;"></path><text style="font-size: 12px;" x="320.576"
                y="909.354">25 AL</text>
        </g>
        <g sprite-identifier="s295834" data-original-title="" cursor="pointer">
            <path fill="#050505" stroke="#000000"
                d="M 510.230 874.830 L 482.707 872.662 L 474.201 983.251 L 504.225 985.587 L 510.230 874.830 M 474.868 872.162 L 471.198 899.851 L 439.339 897.015 L 427.663 978.915 Q 449.848 981.417 470.865 983.085 L 479.371 872.328 L 474.868 872.162 z"
                fill-opacity="0.19000000000000003" style="opacity: 1;"></path><text style="font-size: 12px;" x="468.946"
                y="933.874">26 AS</text>
            <circle cx="468.946" cy="902.874" fill="#a3d165" r="10" stroke="#000" stroke-width="2"></circle>
        </g>
        <g sprite-identifier="s295849">
            <path fill="#f1f1f1" stroke="#000000"
                d="M 405.645 848.142 L 425.995 850.978 L 423.827 863.821 Q 445.844 866.157 462.524 867.658 L 467.695 836.299 Q 436.003 833.297 408.648 829.961 L 405.645 848.142 z"
                fill-opacity="0.19000000000000003" style="opacity: 1;"></path><text style="font-size: 12px;" x="436.670"
                y="853.809">27 AS</text>
        </g>
        <g sprite-identifier="s295850">
            <path fill="#f1f1f1" stroke="#000000"
                d="M 364.946 823.455 L 359.608 855.481 Q 389.799 859.985 420.324 863.488 L 421.992 853.813 L 401.809 850.978 L 405.312 829.627 Q 382.793 826.458 364.946 823.455 M 315.405 813.114 L 310.735 840.469 Q 319.242 845.140 328.916 849.810 Q 335.255 851.478 356.439 854.814 L 361.610 822.955 Q 334.754 818.118 315.405 813.114 z"
                fill-opacity="0.19000000000000003" style="opacity: 1;"></path><text style="font-size: 12px;" x="366.363"
                y="843.301">27 AD</text>
        </g>
        <g sprite-identifier="s295839">
            <path fill="#f1f1f1" stroke="#000000"
                d="M 410.316 891.177 L 436.670 893.512 L 440.173 868.992 L 414.986 866.157 L 410.316 891.177 M 468.363 896.181 L 471.532 871.828 L 443.342 869.326 L 439.839 893.679 L 468.363 896.181 z"
                fill-opacity="0.19000000000000003" style="opacity: 1;"></path><text style="font-size: 12px;" x="440.924"
                y="886.169">26 AD</text>
        </g>
        <g sprite-identifier="s295859">
            <path fill="#f1f1f1" stroke="#000000"
                d="M 512.065 836.299 L 515.234 800.437 L 487.378 798.435 L 481.206 833.964 L 512.065 836.299 M 449.180 795.099 L 445.678 805.441 L 454.351 808.443 L 454.351 831.629 Q 462.858 832.630 477.870 833.797 L 484.042 798.268 Q 469.697 797.268 449.180 795.099 z"
                fill-opacity="0.19000000000000003" style="opacity: 1;"></path><text style="font-size: 12px;" x="480.456"
                y="820.699">27 BS</text>
        </g>
        <g sprite-identifier="s295860">
            <path fill="#f1f1f1" stroke="#000000"
                d="M 451.015 831.295 L 451.015 810.945 L 441.341 807.443 L 445.844 794.766 L 433.167 793.598 L 424.327 828.460 Q 440.340 830.294 451.015 831.295 M 420.991 828.126 L 429.831 793.098 Q 409.815 790.929 390.633 788.094 L 385.129 823.455 Q 401.475 825.791 420.991 828.126 z"
                fill-opacity="0.19000000000000003" style="opacity: 1;"></path><text style="font-size: 12px;" x="418.072"
                y="814.694">27 BC</text>
        </g>
        <g sprite-identifier="s295833">
            <path fill="#f1f1f1" stroke="#000000"
                d="M 560.270 877.499 L 544.424 876.665 L 538.086 987.588 Q 538.586 987.588 552.764 988.255 L 560.270 877.499 z"
                fill-opacity="0.19000000000000003" style="opacity: 1;"></path><text style="font-size: 12px;" x="549.178"
                y="937.460">29 AD</text>
        </g>
        <g sprite-identifier="s295861">
            <path fill="#f1f1f1" stroke="#000000"
                d="M 346.431 816.617 L 354.604 787.426 L 320.743 782.089 L 315.906 809.778 Q 329.083 813.281 346.431 816.617 M 362.277 783.757 L 359.608 788.260 L 357.773 788.094 L 349.600 817.284 Q 364.112 820.119 381.793 822.955 L 387.297 787.593 Q 375.621 785.925 362.277 783.757 z"
                fill-opacity="0.19000000000000003" style="opacity: 1;"></path><text style="font-size: 12px;" x="351.601"
                y="807.522">27 BD</text>
        </g>
        <g sprite-identifier="s295832" data-original-title="" cursor="pointer">
            <path fill="#050505" stroke="#000000"
                d="M 576.950 878.166 L 563.606 877.666 L 556.100 988.589 L 572.614 989.089 L 576.950 878.166 M 580.286 878.333 L 575.950 989.423 Q 600.803 990.257 614.981 990.424 L 617.984 879.501 Q 592.463 878.834 580.286 878.333 z"
                fill-opacity="0.19000000000000003" style="opacity: 1;"></path><text style="font-size: 12px;" x="587.042"
                y="939.045">29 AS</text>
            <circle cx="587.042" cy="908.045" fill="#f0ad4e" r="10" stroke="#000" stroke-width="2"></circle>
        </g>
        <g sprite-identifier="s295866" data-original-title="" cursor="pointer">
            <path fill="#050505" stroke="#000000"
                d="M 680.367 771.247 L 680.367 802.272 Q 712.560 802.105 728.406 801.604 L 727.572 770.579 Q 700.717 771.247 680.367 771.247 M 759.098 769.912 L 730.908 770.579 L 731.742 801.604 L 759.098 800.937 L 759.098 769.912 z"
                fill-opacity="0.19000000000000003" style="opacity: 1;"></path><text style="font-size: 12px;" x="719.733"
                y="791.092">35 BD</text>
            <circle cx="719.733" cy="760.092" fill="#f0ad4e" r="10" stroke="#000" stroke-width="2"></circle>
        </g>
        <g sprite-identifier="s295848">
            <path fill="#f1f1f1" stroke="#000000"
                d="M 515.567 839.802 Q 498.053 838.801 471.031 836.466 L 465.694 867.991 Q 486.044 869.826 512.899 871.494 L 515.567 839.802 z"
                fill-opacity="0.19000000000000003" style="opacity: 1;"></path><text style="font-size: 12px;" x="490.631"
                y="858.980">30 AD</text>
        </g>
        <g sprite-identifier="s295847">
            <path fill="#f1f1f1" stroke="#000000"
                d="M 555.099 873.996 L 558.769 842.137 Q 536.084 841.136 518.903 839.969 L 516.401 871.661 Q 536.751 873.162 555.099 873.996 z"
                fill-opacity="0.19000000000000003" style="opacity: 1;"></path><text style="font-size: 12px;" x="537.585"
                y="861.983">30 AS</text>
        </g>
        <g sprite-identifier="s295857" data-original-title="" cursor="pointer">
            <path fill="#050505" stroke="#000000"
                d="M 580.286 803.773 L 580.286 839.802 L 620.819 840.803 L 619.652 804.774 Q 593.464 804.106 580.286 803.773 M 650.010 841.303 L 650.010 824.123 L 634.997 824.123 L 635.831 805.107 L 622.988 804.940 L 624.155 840.803 L 650.010 841.303 z"
                fill-opacity="0.19000000000000003" style="opacity: 1;"></path><text style="font-size: 12px;" x="615.148"
                y="827.538">30 BS</text>
            <circle cx="615.148" cy="796.538" fill="#e53935" r="10" stroke="#000" stroke-width="2"></circle>
        </g>
        <g sprite-identifier="s295858">
            <path fill="#f1f1f1" stroke="#000000"
                d="M 541.088 837.967 L 543.924 802.105 Q 534.082 801.604 518.570 800.604 L 515.567 836.466 Q 528.078 837.300 541.088 837.967 M 577.117 839.635 L 577.117 803.606 Q 557.101 802.772 547.260 802.272 L 544.424 838.134 Q 562.939 838.968 577.117 839.635 z"
                fill-opacity="0.19000000000000003" style="opacity: 1;"></path><text style="font-size: 12px;" x="546.342"
                y="825.119">30 BD</text>
        </g>
        <g sprite-identifier="s295830">
            <path fill="#f1f1f1" stroke="#000000"
                d="M 737.747 879.668 Q 720.066 880.001 701.718 880.001 L 701.718 990.924 Q 721.567 990.924 740.750 990.591 L 737.747 879.668 M 698.382 880.168 L 680.367 880.168 L 680.367 991.091 L 698.382 991.091 L 698.382 880.168 z"
                fill-opacity="0.19000000000000003" style="opacity: 1;"></path><text style="font-size: 12px;" x="710.559"
                y="940.379">33 AS</text>
        </g>
        <g sprite-identifier="s295846">
            <path fill="#f1f1f1" stroke="#000000"
                d="M 637.499 844.472 Q 619.318 844.139 601.637 843.805 L 601.637 875.664 Q 619.318 876.332 637.499 876.498 L 637.499 844.472 M 640.835 844.639 L 640.835 876.498 Q 659.517 876.832 678.699 876.832 L 678.699 844.806 Q 659.517 844.806 640.835 844.639 z"
                fill-opacity="0.19000000000000003" style="opacity: 1;"></path><text style="font-size: 12px;" x="640.168"
                y="865.319">34 AD</text>
        </g>
        <g sprite-identifier="s295831" data-original-title="" cursor="pointer">
            <path fill="#050505" stroke="#000000"
                d="M 621.320 879.668 L 618.317 990.591 Q 637.666 990.924 657.516 990.924 L 657.516 880.001 Q 639.167 880.001 621.320 879.668 M 678.699 880.168 L 660.852 880.168 L 660.852 991.091 L 678.699 991.091 L 678.699 880.168 z"
                fill-opacity="0.19000000000000003" style="opacity: 1;"></path><text style="font-size: 12px;" x="648.508"
                y="940.379">33 AD</text>
            <circle cx="648.508" cy="909.379" fill="#f0ad4e" r="10" stroke="#000" stroke-width="2"></circle>
        </g>
        <g sprite-identifier="s295845">
            <path fill="#f1f1f1" stroke="#000000"
                d="M 757.430 843.805 Q 739.582 844.139 721.567 844.472 L 721.567 876.498 Q 739.916 876.332 757.430 875.664 L 757.430 843.805 M 718.231 844.639 Q 699.383 844.806 680.367 844.806 L 680.367 876.832 Q 699.550 876.832 718.231 876.498 L 718.231 844.639 z"
                fill-opacity="0.19000000000000003" style="opacity: 1;"></path><text style="font-size: 12px;" x="718.899"
                y="865.319">34 AS</text>
        </g>
        <g sprite-identifier="s295856">
            <path fill="#f1f1f1" stroke="#000000"
                d="M 639.167 805.107 L 638.333 820.787 L 653.346 820.787 L 653.346 841.470 L 678.699 841.470 L 678.699 805.608 L 639.167 805.107 M 680.367 805.608 L 680.367 841.470 L 705.721 841.470 L 705.721 820.787 L 720.567 820.787 L 719.899 805.107 L 680.367 805.608 z"
                fill-opacity="0.19000000000000003" style="opacity: 1;"></path><text style="font-size: 12px;" x="679.450"
                y="828.289">34 BD</text>
        </g>
        <g sprite-identifier="s295855" data-original-title="" cursor="pointer">
            <path fill="#050505" stroke="#000000"
                d="M 739.248 804.774 L 738.248 840.803 L 778.614 839.802 L 778.614 803.773 Q 765.603 804.106 739.248 804.774 M 709.057 824.123 L 709.057 841.303 L 734.912 840.803 L 735.912 804.940 L 723.235 805.107 L 724.069 824.123 L 709.057 824.123 z"
                fill-opacity="0.19000000000000003" style="opacity: 1;"></path><text style="font-size: 12px;" x="743.835"
                y="827.538">34 BS</text>
            <circle cx="743.835" cy="796.538" fill="#e53935" r="10" stroke="#000" stroke-width="2"></circle>
        </g>
        <g sprite-identifier="s295829" data-original-title="" cursor="pointer">
            <path fill="#050505" stroke="#000000"
                d="M 782.116 878.166 L 786.286 989.089 L 802.967 988.589 L 795.294 877.666 L 782.116 878.166 M 778.780 878.333 Q 766.270 878.834 741.083 879.501 L 744.086 990.424 Q 758.264 990.257 782.950 989.423 L 778.780 878.333 z"
                fill-opacity="0.19000000000000003" style="opacity: 1;"></path><text style="font-size: 12px;" x="772.025"
                y="939.045">36 AD</text>
            <circle cx="772.025" cy="908.045" fill="#f0ad4e" r="10" stroke="#000" stroke-width="2"></circle>
        </g>
        <g sprite-identifier="s295843">
            <path fill="#f1f1f1" stroke="#000000"
                d="M 888.035 836.466 Q 861.347 838.801 843.499 839.802 L 846.001 871.494 Q 873.023 869.826 893.206 867.991 L 888.035 836.466 M 933.072 850.978 L 953.422 848.142 L 950.419 829.961 Q 923.397 833.297 891.371 836.299 L 896.542 867.658 Q 912.222 866.323 935.240 863.821 L 933.072 850.978 z"
                fill-opacity="0.19000000000000003" style="opacity: 1;"></path><text style="font-size: 12px;" x="898.461"
                y="855.728">37 AS</text>
        </g>
        <g sprite-identifier="s295828" data-original-title="" cursor="pointer">
            <path fill="#050505" stroke="#000000"
                d="M 814.643 876.665 L 798.630 877.499 L 806.303 988.255 Q 820.314 987.588 820.981 987.588 L 814.643 876.665 z"
                fill-opacity="0.19000000000000003" style="opacity: 1;"></path><text style="font-size: 12px;" x="809.805"
                y="937.460">36 AS</text>
            <circle cx="809.805" cy="906.46" fill="#f0ad4e" r="10" stroke="#000" stroke-width="2"></circle>
        </g>
        <g sprite-identifier="s295844">
            <path fill="#f1f1f1" stroke="#000000"
                d="M 760.766 843.638 L 760.766 875.664 Q 783.451 874.997 800.631 873.996 L 796.795 842.304 Q 773.443 843.305 760.766 843.638 z"
                fill-opacity="0.19000000000000003" style="opacity: 1;"></path><text style="font-size: 12px;" x="780.699"
                y="863.984">37 AD</text>
        </g>
        <g sprite-identifier="s295853">
            <path fill="#f1f1f1" stroke="#000000"
                d="M 843.833 800.437 L 846.835 836.299 L 877.861 833.964 L 871.689 798.435 L 843.833 800.437 M 875.025 798.268 L 881.197 833.797 Q 896.209 832.463 904.716 831.629 L 904.716 808.443 L 913.389 805.441 L 909.720 795.099 Q 889.370 797.268 875.025 798.268 z"
                fill-opacity="0.19000000000000003" style="opacity: 1;"></path><text style="font-size: 12px;" x="878.611"
                y="820.699">37 BS</text>
        </g>
        <g sprite-identifier="s295854">
            <path fill="#f1f1f1" stroke="#000000"
                d="M 815.143 802.105 L 817.979 837.967 Q 830.989 837.300 843.499 836.466 L 840.497 800.604 Q 824.651 801.771 815.143 802.105 z"
                fill-opacity="0.19000000000000003" style="opacity: 1;"></path><text style="font-size: 12px;" x="829.321"
                y="824.285">37 BD</text>
        </g>
        <g sprite-identifier="s295838" data-original-title="" cursor="pointer">
            <path fill="#050505" stroke="#000000"
                d="M 939.744 889.175 L 936.241 867.157 L 919.061 868.992 L 922.230 891.344 L 939.744 889.175 M 891.371 894.847 L 918.894 891.677 L 915.724 869.159 L 888.703 871.661 L 891.371 894.847 z"
                fill-opacity="0.19000000000000003" style="opacity: 1;"></path><text style="font-size: 12px;" x="914.223"
                y="886.002">38 AS</text>
            <circle cx="914.223" cy="855.002" fill="#f0ad4e" r="10" stroke="#000" stroke-width="2"></circle>
        </g>
        <g sprite-identifier="s295827" data-original-title="" cursor="pointer">
            <path fill="#050505" stroke="#000000"
                d="M 876.359 872.829 L 848.837 874.830 L 854.842 985.587 L 884.699 983.251 L 876.359 872.829 M 888.536 898.683 L 885.200 871.995 L 879.695 872.328 L 888.035 983.085 Q 909.386 981.417 931.404 978.915 L 919.394 894.847 L 888.536 898.683 z"
                fill-opacity="0.19000000000000003" style="opacity: 1;"></path><text style="font-size: 12px;" x="890.120"
                y="933.791">38 AD</text>
            <circle cx="890.120" cy="902.791" fill="#f0ad4e" r="10" stroke="#000" stroke-width="2"></circle>
        </g>
        <g sprite-identifier="s295841" data-original-title="" cursor="pointer">
            <path fill="#050505" stroke="#000000"
                d="M 997.457 822.955 L 1002.628 854.814 Q 1023.645 851.478 1030.150 849.810 Q 1041.660 843.972 1048.332 840.469 L 1043.661 813.114 Q 1024.479 818.118 997.457 822.955 z"
                fill-opacity="0.19000000000000003" style="opacity: 1;"></path><text style="font-size: 12px;"
                x="1022.895" y="838.964">40 AS</text>
            <circle cx="1022.895" cy="807.964" fill="#f0ad4e" r="10" stroke="#000" stroke-width="2"></circle>
        </g>
        <g sprite-identifier="s295842">
            <path fill="#f1f1f1" stroke="#000000"
                d="M 957.258 850.978 L 936.908 853.813 L 938.576 863.488 Q 969.435 859.985 999.459 855.481 L 994.288 823.455 Q 975.940 826.625 953.588 829.627 L 957.258 850.978 z"
                fill-opacity="0.19000000000000003" style="opacity: 1;"></path><text style="font-size: 12px;" x="968.184"
                y="848.472">40 AD</text>
        </g>
        <g sprite-identifier="s296468" data-original-title="" cursor="pointer">
            <path fill="#050505" stroke="#000000"
                d="M 1004.463 787.426 L 1012.803 816.617 Q 1030.150 813.114 1042.994 809.778 L 1038.157 782.089 L 1004.463 787.426 M 971.770 787.593 L 977.274 822.955 Q 995.289 820.119 1009.467 817.284 L 1001.127 788.094 L 999.459 788.260 L 996.790 783.757 Q 984.280 785.758 971.770 787.593 z"
                fill-opacity="0.19000000000000003" style="opacity: 1;"></path><text style="font-size: 12px;"
                x="1007.382" y="807.522">40 BS</text>
            <circle cx="1007.382" cy="776.522" fill="#f0ad4e" r="10" stroke="#000" stroke-width="2"></circle>
        </g>
        <g sprite-identifier="s295852" data-original-title="" cursor="pointer">
            <path fill="#050505" stroke="#000000"
                d="M 908.052 810.945 L 908.052 831.295 Q 918.393 830.461 934.740 828.460 L 925.899 793.598 L 913.222 794.766 L 917.726 807.443 L 908.052 810.945 M 929.235 793.098 L 938.076 828.126 Q 957.592 825.791 973.938 823.455 L 968.434 788.094 Q 949.418 790.929 929.235 793.098 z"
                fill-opacity="0.19000000000000003" style="opacity: 1;"></path><text style="font-size: 12px;" x="940.995"
                y="814.694">40 BD</text>
            <circle cx="940.995" cy="783.694" fill="#f0ad4e" r="10" stroke="#000" stroke-width="2"></circle>
        </g>
        <g sprite-identifier="s295825" data-original-title="" cursor="pointer">
            <path fill="#050505" stroke="#000000"
                d="M 1031.318 853.146 L 1031.151 853.146 Q 1030.317 853.480 1023.312 854.647 L 1029.483 880.502 L 1009.133 884.171 L 1026.481 964.903 Q 1051.167 960.066 1065.179 955.896 L 1068.014 954.228 L 1048.999 843.805 Q 1039.992 848.809 1031.485 852.979 L 1031.318 853.146 z"
                fill-opacity="0.19000000000000003" style="opacity: 1;"></path><text style="font-size: 12px;"
                x="1038.574" y="909.354">42 AL</text>
            <circle cx="1038.574" cy="878.354" fill="#f0ad4e" r="10" stroke="#000" stroke-width="2"></circle>
        </g>
        <g sprite-identifier="s295826" data-original-title="" cursor="pointer">
            <path fill="#050505" stroke="#000000"
                d="M 957.258 864.655 L 939.577 866.657 L 943.580 892.178 L 922.730 894.680 L 934.740 978.581 Q 956.090 976.079 977.107 973.243 L 957.258 864.655 M 968.100 863.154 L 960.594 864.155 L 980.277 972.743 Q 1003.295 969.407 1023.145 965.570 L 1005.964 884.838 L 973.938 891.010 L 968.100 863.154 z"
                fill-opacity="0.19000000000000003" style="opacity: 1;"></path><text style="font-size: 12px;" x="972.937"
                y="925.868">42 AD</text>
            <circle cx="972.937" cy="894.868" fill="#f0ad4e" r="10" stroke="#000" stroke-width="2"></circle>
        </g>
        <g sprite-identifier="s295837">
            <path fill="#f1f1f1" stroke="#000000"
                d="M 1020.142 855.315 L 1003.629 858.150 L 1008.466 881.002 L 1025.480 877.833 L 1020.142 855.315 M 1005.130 881.502 L 1000.293 858.651 Q 989.784 860.319 971.436 862.821 L 976.440 887.007 L 1005.130 881.502 z"
                fill-opacity="0.19000000000000003" style="opacity: 1;"></path><text style="font-size: 12px;" x="998.458"
                y="876.161">42 AS</text>
        </g>
        <g sprite-identifier="s295941" data-original-title="" cursor="pointer">
            <path fill="#050505" stroke="#000000"
                d="M 816.144 144.573 L 824.317 96.701 Q 807.637 93.365 787.621 90.362 L 781.282 139.736 Q 798.630 141.737 816.144 144.573 z"
                fill-opacity="0.19000000000000003" style="opacity: 1;"></path><text style="font-size: 15px;" x="802.800"
                y="122.468">5 BL</text>
            <circle cx="802.800" cy="89.968" fill="#f87a44" r="10" stroke="#000" stroke-width="2"></circle>
        </g>
        <g sprite-identifier="s295942">
            <path fill="#f1f1f1" stroke="#000000"
                d="M 571.279 90.362 Q 551.430 93.365 534.583 96.701 L 542.756 144.573 Q 560.771 141.737 577.784 139.736 L 571.279 90.362 z"
                fill-opacity="0.19000000000000003" style="opacity: 1;"></path><text style="font-size: 15px;" x="556.184"
                y="122.468">12 BL</text>
        </g>
        <g sprite-identifier="s295938" data-original-title="" cursor="pointer">
            <path fill="#050505" stroke="#000000"
                d="M 856.010 103.873 Q 842.665 100.537 827.653 97.368 L 819.480 145.073 Q 833.825 147.242 845.501 149.577 L 856.010 103.873 M 854.175 127.226 L 873.190 132.230 L 879.362 109.711 Q 872.856 108.043 859.346 104.540 L 854.175 127.226 z"
                fill-opacity="0.19000000000000003" style="opacity: 1;"></path><text style="font-size: 15px;" x="849.421"
                y="128.472">5 BS</text>
            <circle cx="849.421" cy="95.97200000000001" fill="#f87a44" r="10" stroke="#000" stroke-width="2"></circle>
        </g>
        <g sprite-identifier="s295943">
            <path fill="#f1f1f1" stroke="#000000"
                d="M 539.420 145.073 L 531.247 97.368 Q 516.568 100.537 502.890 103.873 L 513.566 149.577 Q 525.242 147.242 539.420 145.073 M 499.554 104.540 Q 486.044 108.043 479.705 109.711 L 485.710 132.230 L 504.892 127.226 L 499.554 104.540 z"
                fill-opacity="0.19000000000000003" style="opacity: 1;"></path><text style="font-size: 15px;" x="509.563"
                y="128.472">12 BD</text>
        </g>
        <g sprite-identifier="s295939" data-original-title="" cursor="pointer">
            <path fill="#050505" stroke="#000000"
                d="M 543.256 283.185 L 562.772 278.848 L 540.087 148.243 L 518.570 152.079 L 543.256 283.185 M 578.118 143.072 Q 561.271 145.073 543.423 147.742 L 565.941 278.181 L 593.631 274.178 L 594.965 274.011 L 578.118 143.072 z"
                fill-opacity="0.19000000000000003" style="opacity: 1;"></path><text style="font-size: 15px;" x="556.767"
                y="218.128">10 BD</text>
            <circle cx="556.767" cy="185.628" fill="#f0ad4e" r="10" stroke="#000" stroke-width="2"></circle>
        </g>
        <g sprite-identifier="s295934" data-original-title="" cursor="pointer">
            <path fill="#050505" stroke="#000000"
                d="M 515.234 152.579 Q 502.390 155.081 488.212 158.251 L 520.238 287.689 L 539.920 283.852 L 515.234 152.579 M 484.876 158.918 Q 473.867 161.420 463.025 164.422 L 496.719 287.689 L 497.720 287.188 L 507.728 285.353 L 509.896 289.690 L 516.902 288.189 L 484.876 158.918 z"
                fill-opacity="0.19000000000000003" style="opacity: 1;"></path><text style="font-size: 15px;" x="501.473"
                y="226.135">10 BC</text>
            <circle cx="501.473" cy="193.635" fill="#f0ad4e" r="10" stroke="#000" stroke-width="2"></circle>
        </g>
        <g sprite-identifier="s345063" data-original-title="" cursor="pointer">
            <path fill="#050505" stroke="#000000"
                d="M 840.497 152.079 L 818.813 148.243 L 796.295 278.848 L 815.810 283.185 L 840.497 152.079 M 763.935 274.011 L 765.436 274.178 L 792.792 278.014 L 792.959 278.181 L 815.644 147.742 Q 797.796 145.073 780.949 143.072 L 763.935 274.011 z"
                fill-opacity="0.19000000000000003" style="opacity: 1;"></path><text style="font-size: 15px;" x="802.216"
                y="218.128">3 BS</text>
            <circle cx="802.216" cy="185.628" fill="#f87a44" r="10" stroke="#000" stroke-width="2"></circle>
        </g>
        <g sprite-identifier="s295936" data-original-title="" cursor="pointer">
            <path fill="#050505" stroke="#000000"
                d="M 426.329 297.864 L 443.843 291.358 L 448.180 288.689 L 412.317 179.935 Q 397.639 185.106 386.797 189.609 L 426.329 297.864 M 398.306 300.532 L 418.322 293.860 L 421.658 299.698 L 423.326 299.031 L 383.627 190.944 Q 373.286 195.114 360.108 201.119 L 398.306 300.532 z"
                fill-opacity="0.19000000000000003" style="opacity: 1;"></path><text style="font-size: 15px;" x="404.144"
                y="245.234">11 BD</text>
            <circle cx="404.144" cy="212.734" fill="#f87a44" r="10" stroke="#000" stroke-width="2"></circle>
        </g>
        <g sprite-identifier="s295937" data-original-title="" cursor="pointer">
            <path fill="#050505" stroke="#000000"
                d="M 334.588 213.796 L 321.744 220.968 L 359.274 297.530 L 365.446 294.694 L 334.588 213.796 M 357.106 202.620 Q 349.099 206.289 337.590 212.294 L 369.116 294.861 L 376.455 307.705 L 395.137 301.533 L 357.106 202.620 z"
                fill-opacity="0.19000000000000003" style="opacity: 1;"></path><text style="font-size: 15px;" x="358.440"
                y="260.162">11 BS</text>
            <circle cx="358.440" cy="227.66199999999998" fill="#f87a44" r="10" stroke="#000" stroke-width="2"></circle>
        </g>
        <g sprite-identifier="s295925">
            <path fill="#f1f1f1" stroke="#000000"
                d="M 600.970 26.811 Q 580.787 28.813 566.942 30.814 L 574.115 86.693 Q 589.627 84.357 607.141 82.689 L 600.970 26.811 z"
                fill-opacity="0.19000000000000003" style="opacity: 1;"></path><text style="font-size: 15px;" x="587.042"
                y="61.752">12 SS</text>
        </g>
        <g sprite-identifier="s295926">
            <path fill="#f1f1f1" stroke="#000000"
                d="M 534.082 93.532 Q 553.598 89.528 570.779 87.193 L 563.606 31.148 Q 542.589 34.150 524.408 37.486 L 534.082 93.532 z"
                fill-opacity="0.19000000000000003" style="opacity: 1;"></path><text style="font-size: 15px;" x="547.593"
                y="67.340">12 AL</text>
        </g>
        <g sprite-identifier="s295927">
            <path fill="#f1f1f1" stroke="#000000"
                d="M 489.213 44.826 L 502.056 100.537 Q 518.403 96.534 530.746 94.199 L 521.072 37.987 Q 504.058 41.323 489.213 44.826 M 463.859 50.997 L 474.201 89.362 L 494.550 82.689 L 486.044 45.493 Q 472.866 48.495 463.859 50.997 z"
                fill-opacity="0.19000000000000003" style="opacity: 1;"></path><text style="font-size: 15px;" x="497.303"
                y="74.262">12 AD</text>
        </g>
        <g sprite-identifier="s295928" data-original-title="" cursor="pointer">
            <path fill="#050505" stroke="#000000"
                d="M 440.006 57.669 Q 423.993 62.506 409.482 67.344 L 426.162 123.556 Q 440.673 118.218 455.352 113.548 L 440.006 57.669 M 471.031 90.362 L 460.690 51.831 L 443.176 56.835 L 454.018 95.867 L 471.031 90.362 z"
                fill-opacity="0.19000000000000003" style="opacity: 1;"></path><text style="font-size: 15px;" x="440.256"
                y="92.694">12 AS</text>
            <circle cx="440.256" cy="60.194" fill="#f87a44" r="10" stroke="#000" stroke-width="2"></circle>
        </g>
        <g sprite-identifier="s345054">
            <path fill="#f1f1f1" stroke="#000000"
                d="M 633.663 24.309 Q 618.984 25.143 604.306 26.644 L 610.311 82.189 Q 622.821 81.188 636.832 80.187 L 633.663 24.309 z"
                fill-opacity="0.19000000000000003" style="opacity: 1;"></path><text style="font-size: 15px;" x="620.569"
                y="58.249">12 SC</text>
        </g>
        <g sprite-identifier="s345053">
            <path fill="#f1f1f1" stroke="#000000"
                d="M 427.329 126.725 L 439.339 167.591 Q 452.683 163.588 468.196 159.585 L 456.353 116.884 Q 441.341 121.721 427.329 126.725 M 459.522 115.883 L 465.527 137.734 L 482.541 133.064 L 476.536 110.712 L 459.522 115.883 z"
                fill-opacity="0.19000000000000003" style="opacity: 1;"></path><text style="font-size: 15px;" x="454.935"
                y="144.152">12 BS</text>
        </g>
        <g sprite-identifier="s295929" data-original-title="" cursor="pointer">
            <path fill="#050505" stroke="#000000"
                d="M 387.797 138.902 Q 406.312 130.895 423.159 124.557 L 406.312 68.345 Q 386.129 75.350 365.946 83.523 L 387.797 138.902 M 374.787 115.049 L 362.777 84.858 L 347.932 91.030 L 359.775 121.721 L 374.787 115.049 z"
                fill-opacity="0.19000000000000003" style="opacity: 1;"></path><text style="font-size: 15px;" x="385.546"
                y="108.623">13 AD</text>
            <circle cx="385.546" cy="76.123" fill="#f87a44" r="10" stroke="#000" stroke-width="2"></circle>
        </g>
        <g sprite-identifier="s295930">
            <path fill="#f1f1f1" stroke="#000000"
                d="M 276.040 127.226 L 303.396 183.438 Q 324.413 170.260 347.598 158.084 L 323.412 102.372 Q 298.392 114.382 276.040 127.226 M 344.929 92.531 L 326.414 101.038 L 339.258 130.895 L 356.772 123.055 L 344.929 92.531 z"
                fill-opacity="0.19000000000000003" style="opacity: 1;"></path><text style="font-size: 15px;" x="316.406"
                y="142.984">13 AS</text>
        </g>
        <g sprite-identifier="s295932" data-original-title="" cursor="pointer">
            <path fill="#050505" stroke="#000000"
                d="M 389.132 142.071 L 403.977 179.434 Q 418.155 174.264 436.170 168.592 L 423.993 127.893 Q 406.479 134.565 389.132 142.071 M 370.950 150.411 L 378.623 170.594 L 394.303 164.422 L 385.963 143.405 Q 374.453 148.576 370.950 150.411 z"
                fill-opacity="0.19000000000000003" style="opacity: 1;"></path><text style="font-size: 15px;" x="403.560"
                y="158.664">13 BD</text>
            <circle cx="403.560" cy="126.16399999999999" fill="#f87a44" r="10" stroke="#000" stroke-width="2"></circle>
        </g>
        <g sprite-identifier="s295933" data-original-title="" cursor="pointer">
            <path fill="#050505" stroke="#000000"
                d="M 363.945 195.614 L 348.933 161.253 Q 325.247 173.596 305.064 186.440 L 320.243 217.966 Q 340.593 206.289 363.945 195.614 M 351.935 159.585 L 359.775 177.933 L 375.621 171.928 L 367.781 151.745 Q 358.107 156.416 351.935 159.585 z"
                fill-opacity="0.19000000000000003" style="opacity: 1;"></path><text style="font-size: 15px;" x="340.342"
                y="189.855">13 BS</text>
            <circle cx="340.342" cy="157.355" fill="#f87a44" r="10" stroke="#000" stroke-width="2"></circle>
        </g>
        <g sprite-identifier="s295921" data-original-title="" cursor="pointer">
            <path fill="#050505" stroke="#000000"
                d="M 902.714 116.884 L 890.871 159.585 Q 906.550 163.755 919.561 167.591 L 931.904 126.725 Q 918.560 121.888 902.714 116.884 M 876.359 133.064 L 893.540 137.734 L 899.378 115.883 L 882.531 110.712 L 876.359 133.064 z"
                fill-opacity="0.19000000000000003" style="opacity: 1;"></path><text style="font-size: 15px;" x="904.132"
                y="144.152">5 BD</text>
            <circle cx="904.132" cy="111.65199999999999" fill="#f87a44" r="10" stroke="#000" stroke-width="2"></circle>
        </g>
        <g sprite-identifier="s295915">
            <path fill="#f1f1f1" stroke="#000000"
                d="M 837.995 37.987 L 828.320 94.199 Q 840.497 96.534 856.844 100.537 L 869.687 44.826 Q 855.176 41.323 837.995 37.987 M 864.350 82.689 L 884.699 89.362 L 895.208 50.997 Q 886.034 48.495 873.023 45.493 L 864.350 82.689 z"
                fill-opacity="0.19000000000000003" style="opacity: 1;"></path><text style="font-size: 15px;" x="861.764"
                y="74.262">5 AS</text>
        </g>
        <g sprite-identifier="s345073">
            <path fill="#f1f1f1" stroke="#000000"
                d="M 754.761 26.644 Q 739.916 25.143 725.237 24.309 L 722.235 80.187 Q 735.746 81.021 748.589 82.189 L 754.761 26.644 z"
                fill-opacity="0.19000000000000003" style="opacity: 1;"></path><text style="font-size: 15px;" x="738.498"
                y="58.249">5 SC</text>
        </g>
        <g sprite-identifier="s295914" data-original-title="" cursor="pointer">
            <path fill="#050505" stroke="#000000"
                d="M 932.738 123.556 L 949.585 67.344 Q 934.740 62.340 918.894 57.669 L 903.548 113.548 Q 919.227 118.552 932.738 123.556 M 888.035 90.362 L 905.049 95.867 L 915.891 56.835 L 898.377 51.831 L 888.035 90.362 z"
                fill-opacity="0.19000000000000003" style="opacity: 1;"></path><text style="font-size: 15px;" x="918.810"
                y="92.694">5 AD</text>
            <circle cx="918.810" cy="60.194" fill="#f87a44" r="10" stroke="#000" stroke-width="2"></circle>
        </g>
        <g sprite-identifier="s345074">
            <path fill="#f1f1f1" stroke="#000000"
                d="M 792.124 30.814 Q 778.280 28.813 758.097 26.811 L 751.925 82.689 Q 769.606 84.357 784.952 86.693 L 792.124 30.814 z"
                fill-opacity="0.19000000000000003" style="opacity: 1;"></path><text style="font-size: 15px;" x="772.025"
                y="61.752">5 SD</text>
        </g>
        <g sprite-identifier="s345069">
            <path fill="#f1f1f1" stroke="#000000"
                d="M 824.984 93.532 L 834.659 37.486 Q 816.478 34.150 795.461 31.148 L 788.288 87.193 Q 805.969 89.695 824.984 93.532 z"
                fill-opacity="0.19000000000000003" style="opacity: 1;"></path><text style="font-size: 15px;" x="811.474"
                y="67.340">5 AL</text>
        </g>
        <g sprite-identifier="s295913" data-original-title="" cursor="pointer">
            <path fill="#050505" stroke="#000000"
                d="M 993.120 83.523 Q 973.104 75.350 952.754 68.345 L 935.907 124.557 Q 952.588 130.895 971.103 138.902 L 993.120 83.523 M 1011.135 91.030 Q 997.791 85.358 996.123 84.858 L 984.280 115.049 L 999.292 121.721 L 1011.135 91.030 z"
                fill-opacity="0.19000000000000003" style="opacity: 1;"></path><text style="font-size: 15px;" x="973.521"
                y="108.623">4 AS</text>
            <circle cx="973.521" cy="76.123" fill="#f0ad4e" r="10" stroke="#000" stroke-width="2"></circle>
        </g>
        <g sprite-identifier="s295922" data-original-title="" cursor="pointer">
            <path fill="#050505" stroke="#000000"
                d="M 870.855 158.251 Q 856.677 155.081 843.833 152.579 L 819.146 283.852 L 838.829 287.689 L 870.855 158.251 M 896.042 164.422 Q 884.533 161.253 874.191 158.918 L 842.165 288.189 L 849.337 289.690 L 851.172 285.353 L 861.180 287.188 L 862.348 287.689 L 896.042 164.422 z"
                fill-opacity="0.19000000000000003" style="opacity: 1;"></path><text style="font-size: 15px;" x="857.594"
                y="226.135">3 BD</text>
            <circle cx="857.594" cy="193.635" fill="#f0ad4e" r="10" stroke="#000" stroke-width="2"></circle>
        </g>
        <g sprite-identifier="s295935">
            <path fill="#f1f1f1" stroke="#000000"
                d="M 459.689 165.423 Q 448.013 168.426 440.340 170.761 L 476.869 292.693 L 477.703 293.527 L 493.550 288.523 L 459.689 165.423 M 437.171 171.762 Q 424.827 175.598 415.486 178.767 L 452.016 290.191 L 446.845 293.360 L 447.846 294.694 L 472.199 288.689 L 437.171 171.762 z"
                fill-opacity="0.19000000000000003" style="opacity: 1;"></path><text style="font-size: 15px;" x="454.518"
                y="235.059">10 BS</text>
        </g>
        <g sprite-identifier="s295912" data-original-title="" cursor="pointer">
            <path fill="#050505" stroke="#000000"
                d="M 1011.469 158.084 Q 1033.987 169.760 1055.504 183.438 L 1082.860 127.226 Q 1061.176 114.715 1035.655 102.372 L 1011.469 158.084 M 1032.652 101.038 Q 1026.481 97.868 1014.137 92.531 L 1002.295 123.055 L 1019.642 130.895 L 1032.652 101.038 z"
                fill-opacity="0.19000000000000003" style="opacity: 1;"></path><text style="font-size: 15px;"
                x="1042.577" y="142.984">4 AD</text>
            <circle cx="1042.577" cy="110.48400000000001" fill="#f0ad4e" r="10" stroke="#000" stroke-width="2"></circle>
        </g>
        <g sprite-identifier="s295918" data-original-title="" cursor="pointer">
            <path fill="#050505" stroke="#000000"
                d="M 1054.003 186.440 Q 1033.653 173.596 1010.134 161.253 L 995.122 195.614 Q 1018.474 206.289 1038.657 217.966 L 1054.003 186.440 M 991.119 151.745 L 983.446 171.928 L 999.125 177.933 L 1007.132 159.585 Q 998.124 155.081 991.119 151.745 z"
                fill-opacity="0.19000000000000003" style="opacity: 1;"></path><text style="font-size: 15px;"
                x="1018.724" y="189.855">4 BD</text>
            <circle cx="1018.724" cy="157.355" fill="#f87a44" r="10" stroke="#000" stroke-width="2"></circle>
        </g>
        <g sprite-identifier="s295920" data-original-title="" cursor="pointer">
            <path fill="#050505" stroke="#000000"
                d="M 918.560 170.761 Q 910.720 168.426 899.378 165.423 L 865.517 288.523 L 881.363 293.527 L 882.197 292.693 L 918.560 170.761 M 886.868 288.689 L 911.221 294.694 L 912.222 293.360 L 906.884 290.191 L 943.580 178.767 Q 934.907 175.932 921.896 171.762 L 886.868 288.689 z"
                fill-opacity="0.19000000000000003" style="opacity: 1;"></path><text style="font-size: 15px;" x="904.549"
                y="235.059">2 BS</text>
            <circle cx="904.549" cy="202.559" fill="#f0ad4e" r="10" stroke="#000" stroke-width="2"></circle>
        </g>
        <g sprite-identifier="s295923" data-original-title="" cursor="pointer">
            <path fill="#050505" stroke="#000000"
                d="M 1037.156 220.968 Q 1030.651 217.132 1024.479 213.796 L 993.621 294.694 L 999.793 297.530 L 1037.156 220.968 M 1021.477 212.294 Q 1010.635 206.456 1001.961 202.620 L 963.930 301.533 L 982.612 307.705 L 989.951 294.861 L 1021.477 212.294 z"
                fill-opacity="0.19000000000000003" style="opacity: 1;"></path><text style="font-size: 15px;"
                x="1000.543" y="260.162">2 BD</text>
            <circle cx="1000.543" cy="227.66199999999998" fill="#f0ad4e" r="10" stroke="#000" stroke-width="2"></circle>
        </g>
        <g sprite-identifier="s295924" data-original-title="" cursor="pointer">
            <path fill="#050505" stroke="#000000"
                d="M 972.270 189.609 Q 961.261 185.106 946.750 179.935 L 910.887 288.689 L 915.224 291.358 L 932.738 297.864 L 972.270 189.609 M 940.745 293.860 L 960.761 300.532 L 998.959 201.119 Q 986.282 195.114 975.273 190.944 L 935.907 299.031 L 937.242 299.698 L 940.745 293.860 z"
                fill-opacity="0.19000000000000003" style="opacity: 1;"></path><text style="font-size: 15px;" x="954.923"
                y="245.234">2 BC</text>
            <circle cx="954.923" cy="212.734" fill="#f0ad4e" r="10" stroke="#000" stroke-width="2"></circle>
        </g>
        <g sprite-identifier="s295919" data-original-title="" cursor="pointer">
            <path fill="#050505" stroke="#000000"
                d="M 955.090 179.434 L 969.935 142.071 Q 952.254 134.398 934.907 127.893 L 922.730 168.592 Q 940.244 173.930 955.090 179.434 M 964.597 164.422 L 980.277 170.594 L 988.116 150.411 Q 983.112 147.909 972.937 143.405 L 964.597 164.422 z"
                fill-opacity="0.19000000000000003" style="opacity: 1;"></path><text style="font-size: 15px;" x="955.423"
                y="158.664">4 BS</text>
            <circle cx="955.423" cy="126.16399999999999" fill="#f87a44" r="10" stroke="#000" stroke-width="2"></circle>
        </g>
    </g>
    <defs>
        <style type="text/css">
            .svg-pan-zoom-control {
                cursor: pointer;
                fill: white;
                fill-opacity: 1;
                stroke-width: 20;
                stroke: rgb(0, 0, 0);
            }

            .svg-pan-zoom-control-background {
                fill: grey;
            }
        </style>
    </defs>
    <g id="svg-pan-zoom-controls" transform="translate(-12 7) scale(0.75)" class="svg-pan-zoom-control">
        <g id="svg-pan-zoom-zoom-in" transform="translate(30.5 5) scale(0.015)" class="svg-pan-zoom-control">
            <rect x="100" y="100" width="1200" height="1200" class="svg-pan-zoom-control-background"></rect>
            <path
                d="M1280 576v128q0 26 -19 45t-45 19h-320v320q0 26 -19 45t-45 19h-128q-26 0 -45 -19t-19 -45v-320h-320q-26 0 -45 -19t-19 -45v-128q0 -26 19 -45t45 -19h320v-320q0 -26 19 -45t45 -19h128q26 0 45 19t19 45v320h320q26 0 45 19t19 45zM1536 1120v-960 q0 -119 -84.5 -203.5t-203.5 -84.5h-960q-119 0 -203.5 84.5t-84.5 203.5v960q0 119 84.5 203.5t203.5 84.5h960q119 0 203.5 -84.5t84.5 -203.5z"
                class="svg-pan-zoom-control-element"></path>
        </g>
        <g id="svg-pan-zoom-zoom-out" transform="translate(30.5 40) scale(0.015)" class="svg-pan-zoom-control">
            <rect x="100" y="100" width="1200" height="1200" class="svg-pan-zoom-control-background"></rect>
            <path
                d="M1280 576v128q0 26 -19 45t-45 19h-896q-26 0 -45 -19t-19 -45v-128q0 -26 19 -45t45 -19h896q26 0 45 19t19 45zM1536 1120v-960q0 -119 -84.5 -203.5t-203.5 -84.5h-960q-119 0 -203.5 84.5t-84.5 203.5v960q0 119 84.5 203.5t203.5 84.5h960q119 0 203.5 -84.5 t84.5 -203.5z"
                class="svg-pan-zoom-control-element"></path>
        </g>
    </g>
</svg>