    <svg xmlns="http://www.w3.org/2000/svg" version="1.1" width="455" height="396"
        xmlns:xlink="http://www.w3.org/1999/xlink" xmlns:ev="http://www.w3.org/2001/xml-events"
        style="overflow: hidden; touch-action: none; user-select: none;">
        <g class="svg-pan-zoom_viewport"
            transform="matrix(0.3896331191062927,0,0,0.3896331191062927,-27.931978225708008,-3.372713327407837)">
            <g sprite-identifier="s532751">
                <path fill="#f1f1f1" stroke="#000000"
                    d="M 259.124 763.341 L 261.254 768.134 L 243.855 775.591 L 241.725 770.798 L 226.811 777.189 L 228.942 781.983 L 211.188 789.617 L 209.235 784.646 L 198.227 789.617 Q 236.043 841.103 292.501 871.463 L 306.172 843.234 L 301.378 841.103 L 309.722 823.705 L 314.338 826.013 L 323.038 808.081 Q 307.059 799.382 294.276 786.421 Q 281.316 773.638 272.617 757.482 L 259.124 763.341 z"
                    fill-opacity="0.19000000000000003" style="opacity: 1;"></path><text style="font-size: 20px;"
                    x="260.633" y="819.472">305</text>
            </g>
            <g sprite-identifier="s532748">
                <path fill="#f1f1f1" stroke="#000000"
                    d="M 570.706 879.630 L 570.706 863.296 L 565.380 863.296 L 565.380 844.477 L 570.706 844.477 L 570.706 823.172 L 497.560 823.172 L 497.560 844.477 L 502.709 844.477 L 502.709 863.296 L 497.560 863.296 L 497.560 879.630 L 502.709 879.630 L 502.709 898.804 L 497.560 898.804 L 497.560 922.772 Q 533.068 927.566 570.706 930.051 L 570.706 898.804 L 565.380 898.804 L 565.380 879.630 L 570.706 879.630 z"
                    fill-opacity="0.19000000000000003" style="opacity: 1;"></path><text style="font-size: 20px;"
                    x="534.133" y="881.612">302</text>
            </g>
            <g sprite-identifier="s532750">
                <path fill="#f1f1f1" stroke="#000000"
                    d="M 408.612 823.172 L 382.159 823.172 Q 354.818 823.172 330.140 811.632 L 321.440 829.563 L 326.234 831.694 L 317.712 849.093 L 313.096 846.785 L 299.425 875.191 Q 311.675 881.228 322.683 885.489 Q 364.760 898.094 408.612 907.503 L 408.612 898.804 L 403.464 898.804 L 403.464 879.630 L 408.612 879.630 L 408.612 863.296 L 403.464 863.296 L 403.464 844.477 L 408.612 844.477 L 408.612 823.172 z"
                    fill-opacity="0.19000000000000003" style="opacity: 1;"></path><text style="font-size: 20px;"
                    x="354.019" y="864.568">304</text>
            </g>
            <g sprite-identifier="s532747">
                <path fill="#f1f1f1" stroke="#000000"
                    d="M 646.516 863.296 L 646.516 844.477 L 651.665 844.477 L 651.665 823.172 L 578.518 823.172 L 578.518 844.477 L 583.667 844.477 L 583.667 863.296 L 578.518 863.296 L 578.518 879.630 L 583.667 879.630 L 583.667 898.804 L 578.518 898.804 L 578.518 930.584 Q 613.671 932.714 651.665 932.537 L 651.665 898.804 L 646.516 898.804 L 646.516 879.630 L 651.665 879.630 L 651.665 863.296 L 646.516 863.296 z"
                    fill-opacity="0.19000000000000003" style="opacity: 1;"></path><text style="font-size: 20px;"
                    x="615.091" y="882.861">301</text>
            </g>
            <g sprite-identifier="s532749">
                <path fill="#f1f1f1" stroke="#000000"
                    d="M 489.571 844.477 L 489.571 823.172 L 416.424 823.172 L 416.424 844.477 L 421.750 844.477 L 421.750 863.296 L 416.424 863.296 L 416.424 879.630 L 421.750 879.630 L 421.750 898.804 L 416.424 898.804 L 416.424 909.101 Q 452.287 916.558 489.571 921.707 L 489.571 898.804 L 484.422 898.804 L 484.422 879.630 L 489.571 879.630 L 489.571 863.296 L 484.422 863.296 L 484.422 844.477 L 489.571 844.477 z"
                    fill-opacity="0.19000000000000003" style="opacity: 1;"></path><text style="font-size: 20px;"
                    x="452.997" y="877.439">303</text>
            </g>
            <g sprite-identifier="s532761">
                <path fill="#f1f1f1" stroke="#000000"
                    d="M 570.706 103.602 Q 535.376 105.910 497.560 110.881 L 497.560 135.026 L 502.709 135.026 L 502.709 154.201 L 497.560 154.201 L 497.560 170.357 L 502.709 170.357 L 502.709 189.176 L 497.560 189.176 L 497.560 210.481 L 570.706 210.481 L 570.706 189.176 L 565.380 189.176 L 565.380 170.357 L 570.706 170.357 L 570.706 154.201 L 565.380 154.201 L 565.380 135.026 L 570.706 135.026 L 570.706 103.602 z"
                    fill-opacity="0.19000000000000003" style="opacity: 1;"></path><text style="font-size: 20px;"
                    x="534.133" y="162.041">315</text>
            </g>
            <g sprite-identifier="s532760">
                <path fill="#f1f1f1" stroke="#000000"
                    d="M 484.422 135.026 L 489.571 135.026 L 489.571 111.946 Q 452.287 117.095 416.424 124.552 L 416.424 135.026 L 421.750 135.026 L 421.750 154.201 L 416.424 154.201 L 416.424 170.357 L 421.750 170.357 L 421.750 189.176 L 416.424 189.176 L 416.424 210.481 L 489.571 210.481 L 489.571 189.176 L 484.422 189.176 L 484.422 170.357 L 489.571 170.357 L 489.571 154.201 L 484.422 154.201 L 484.422 135.026 z"
                    fill-opacity="0.19000000000000003" style="opacity: 1;"></path><text style="font-size: 20px;"
                    x="452.997" y="166.214">314</text>
            </g>
            <g sprite-identifier="s532759">
                <path fill="#f1f1f1" stroke="#000000"
                    d="M 403.464 189.176 L 403.464 170.357 L 408.612 170.357 L 408.612 154.201 L 403.464 154.201 L 403.464 135.026 L 408.612 135.026 L 408.612 126.149 Q 364.760 135.559 322.683 147.987 Q 310.610 152.780 299.425 158.639 L 313.096 186.868 L 317.712 184.738 L 326.234 201.959 L 321.440 204.267 L 330.140 222.021 Q 354.818 210.481 382.159 210.481 L 408.612 210.481 L 408.612 189.176 L 403.464 189.176 z"
                    fill-opacity="0.19000000000000003" style="opacity: 1;"></path><text style="font-size: 20px;"
                    x="354.019" y="179.085">313</text>
            </g>
            <g sprite-identifier="s532757">
                <path fill="#f1f1f1" stroke="#000000"
                    d="M 193.434 250.783 Q 189.705 256.109 184.912 263.566 Q 162.719 309.016 149.581 356.952 L 178.343 356.952 L 178.343 351.803 L 197.340 351.803 L 197.340 356.952 L 213.673 356.952 L 213.673 351.803 L 232.492 351.803 L 232.492 356.952 L 258.058 356.952 L 258.058 334.582 Q 258.058 307.773 269.243 283.095 L 256.105 277.591 L 253.975 282.385 L 236.576 274.928 L 238.706 269.957 L 223.615 263.566 L 221.663 268.537 L 204.086 260.902 L 206.217 256.109 L 193.434 250.783 z"
                    fill-opacity="0.19000000000000003" style="opacity: 1;"></path><text style="font-size: 20px;"
                    x="209.412" y="308.867">311</text>
            </g>
            <g sprite-identifier="s532754" data-original-title="" cursor="pointer">
                <path fill="#050505" stroke="#000000"
                    d="M 258.058 520.821 L 229.652 520.821 L 229.652 525.970 L 210.655 525.970 L 210.655 520.821 L 194.321 520.821 L 194.321 525.970 L 175.147 525.970 L 175.147 520.821 L 130.229 520.821 Q 129.342 557.394 133.603 593.790 L 175.147 593.790 L 175.147 588.641 L 194.321 588.641 L 194.321 593.790 L 210.655 593.790 L 210.655 588.641 L 229.652 588.641 L 229.652 593.790 L 258.058 593.790 L 258.058 520.821 z"
                    fill-opacity="0.19000000000000003" style="opacity: 1;"></path><text style="font-size: 20px;"
                    x="194.067" y="562.306">308</text>
                <circle cx="194.067" cy="527.306" fill="#f0ad4e" r="10" stroke="#000" stroke-width="2"></circle>
            </g>
            <g sprite-identifier="s532753">
                <path fill="#f1f1f1" stroke="#000000"
                    d="M 194.321 601.779 L 194.321 606.928 L 175.147 606.928 L 175.147 601.779 L 134.490 601.779 Q 138.929 635.867 147.451 668.890 L 178.343 668.890 L 178.343 663.563 L 197.340 663.563 L 197.340 668.890 L 213.673 668.890 L 213.673 663.563 L 232.492 663.563 L 232.492 668.890 L 258.058 668.890 L 258.058 601.779 L 229.652 601.779 L 229.652 606.928 L 210.655 606.928 L 210.655 601.779 L 194.321 601.779 z"
                    fill-opacity="0.19000000000000003" style="opacity: 1;"></path><text style="font-size: 20px;"
                    x="196.274" y="640.335">307</text>
            </g>
            <g sprite-identifier="s532755">
                <path fill="#f1f1f1" stroke="#000000"
                    d="M 175.147 439.863 L 133.603 439.863 Q 129.342 476.259 130.229 513.009 L 175.147 513.009 L 175.147 507.683 L 194.321 507.683 L 194.321 513.009 L 210.655 513.009 L 210.655 507.683 L 229.652 507.683 L 229.652 513.009 L 258.058 513.009 L 258.058 439.863 L 229.652 439.863 L 229.652 445.011 L 210.655 445.011 L 210.655 439.863 L 194.321 439.863 L 194.321 445.011 L 175.147 445.011 L 175.147 439.863 z"
                    fill-opacity="0.19000000000000003" style="opacity: 1;"></path><text style="font-size: 20px;"
                    x="194.067" y="481.436">309</text>
            </g>
            <g sprite-identifier="s532756">
                <path fill="#f1f1f1" stroke="#000000"
                    d="M 197.340 364.763 L 197.340 370.090 L 178.343 370.090 L 178.343 364.763 L 147.451 364.763 Q 138.929 397.608 134.490 431.874 L 175.147 431.874 L 175.147 426.725 L 194.321 426.725 L 194.321 431.874 L 210.655 431.874 L 210.655 426.725 L 229.652 426.725 L 229.652 431.874 L 258.058 431.874 L 258.058 364.763 L 232.492 364.763 L 232.492 370.090 L 213.673 370.090 L 213.673 364.763 L 197.340 364.763 z"
                    fill-opacity="0.19000000000000003" style="opacity: 1;"></path><text style="font-size: 20px;"
                    x="196.274" y="403.318">310</text>
            </g>
            <g sprite-identifier="s532758">
                <path fill="#f1f1f1" stroke="#000000"
                    d="M 306.172 190.419 L 292.501 162.190 Q 236.043 192.727 198.227 244.036 L 209.235 249.007 L 211.188 244.036 L 228.942 251.670 L 226.811 256.464 L 241.725 262.855 L 243.855 258.062 L 261.254 265.518 L 259.124 270.312 L 272.617 276.171 Q 281.316 260.015 294.276 247.232 Q 307.059 234.271 323.038 225.572 L 314.338 207.463 L 309.722 209.948 L 301.378 192.549 L 306.172 190.419 z"
                    fill-opacity="0.19000000000000003" style="opacity: 1;"></path><text style="font-size: 20px;"
                    x="260.633" y="224.180">312</text>
            </g>
            <g sprite-identifier="s1176766">
                <path fill="#f1f1f1" stroke="#000000"
                    d="M 497.560 790.149 L 497.560 812.164 L 570.706 812.164 L 570.706 790.149 L 497.560 790.149 z"
                    fill-opacity="0.19000000000000003" style="opacity: 1;"></path><text style="font-size: 20px;"
                    x="534.133" y="806.157">203</text>
            </g>
            <g sprite-identifier="s1202455">
                <path fill="#f1f1f1" stroke="#000000"
                    d="M 291.081 699.071 L 291.081 676.701 L 268.888 676.701 L 268.888 699.071 Q 268.888 720.376 276.878 740.616 Q 284.689 760.500 299.248 776.301 L 315.049 760.678 Q 303.509 747.895 297.295 732.094 Q 291.081 716.115 291.081 699.071 z"
                    fill-opacity="0.19000000000000003" style="opacity: 1;"></path><text style="font-size: 20px;"
                    x="291.968" y="731.501">207</text>
            </g>
            <g sprite-identifier="s1202454">
                <path fill="#f1f1f1" stroke="#000000"
                    d="M 320.552 766.182 L 304.929 781.805 Q 324.991 800.624 351.267 808.081 L 357.303 786.776 Q 336.531 780.917 320.552 766.182 z"
                    fill-opacity="0.19000000000000003" style="opacity: 1;"></path><text style="font-size: 20px;"
                    x="331.116" y="792.131">206</text>
            </g>
            <g sprite-identifier="s1202452">
                <path fill="#f1f1f1" stroke="#000000"
                    d="M 416.424 790.149 L 416.424 812.164 L 489.571 812.164 L 489.571 790.149 L 416.424 790.149 z"
                    fill-opacity="0.19000000000000003" style="opacity: 1;"></path><text style="font-size: 20px;"
                    x="452.997" y="806.157">204</text>
            </g>
            <g sprite-identifier="s1202456">
                <path fill="#f1f1f1" stroke="#000000"
                    d="M 291.081 601.779 L 268.888 601.779 L 268.888 668.890 L 291.081 668.890 L 291.081 601.779 z"
                    fill-opacity="0.19000000000000003" style="opacity: 1;"></path><text style="font-size: 20px;"
                    x="279.984" y="640.335">208</text>
            </g>
            <g sprite-identifier="s1202453">
                <path fill="#f1f1f1" stroke="#000000"
                    d="M 408.612 812.164 L 408.612 790.149 L 382.159 790.149 Q 373.459 790.149 364.937 788.552 L 358.901 809.856 Q 370.264 812.164 382.159 812.164 L 408.612 812.164 z"
                    fill-opacity="0.19000000000000003" style="opacity: 1;"></path><text style="font-size: 20px;"
                    x="383.757" y="805.358">205</text>
            </g>
            <g sprite-identifier="s532752">
                <path fill="#f1f1f1" stroke="#000000"
                    d="M 258.058 699.071 L 258.058 676.701 L 232.492 676.701 L 232.492 681.850 L 213.673 681.850 L 213.673 676.701 L 197.340 676.701 L 197.340 681.850 L 178.343 681.850 L 178.343 676.701 L 149.581 676.701 Q 162.719 724.637 184.912 770.087 Q 189.705 777.544 193.434 782.870 L 206.217 777.544 L 204.086 772.751 L 221.663 765.116 L 223.615 769.910 L 238.706 763.518 L 236.576 758.725 L 253.975 751.268 L 256.105 756.062 L 269.243 750.380 Q 258.058 726.057 258.058 699.071 z"
                    fill-opacity="0.19000000000000003" style="opacity: 1;"></path><text style="font-size: 20px;"
                    x="209.412" y="734.786">306</text>
            </g>
            <g sprite-identifier="s1202457">
                <path fill="#f1f1f1" stroke="#000000"
                    d="M 291.081 520.821 L 268.888 520.821 L 268.888 593.790 L 291.081 593.790 L 291.081 520.821 z"
                    fill-opacity="0.19000000000000003" style="opacity: 1;"></path><text style="font-size: 20px;"
                    x="279.984" y="562.306">209</text>
            </g>
            <g sprite-identifier="s1202460">
                <path fill="#f1f1f1" stroke="#000000"
                    d="M 315.049 273.153 L 299.248 257.352 Q 284.689 273.153 276.878 293.037 Q 268.888 313.099 268.888 334.582 L 268.888 356.952 L 291.081 356.952 L 291.081 334.582 Q 291.081 317.538 297.295 301.737 Q 303.509 285.758 315.049 273.153 z"
                    fill-opacity="0.19000000000000003" style="opacity: 1;"></path><text style="font-size: 20px;"
                    x="291.968" y="312.152">212</text>
            </g>
            <g sprite-identifier="s1202459">
                <path fill="#f1f1f1" stroke="#000000"
                    d="M 291.081 364.763 L 268.888 364.763 L 268.888 431.874 L 291.081 431.874 L 291.081 364.763 z"
                    fill-opacity="0.19000000000000003" style="opacity: 1;"></path><text style="font-size: 20px;"
                    x="279.984" y="403.318">211</text>
            </g>
            <g sprite-identifier="s1202458">
                <path fill="#f1f1f1" stroke="#000000"
                    d="M 291.081 439.863 L 268.888 439.863 L 268.888 513.009 L 291.081 513.009 L 291.081 439.863 z"
                    fill-opacity="0.19000000000000003" style="opacity: 1;"></path><text style="font-size: 20px;"
                    x="279.984" y="481.436">210</text>
            </g>
            <g sprite-identifier="s1202461">
                <path fill="#f1f1f1" stroke="#000000"
                    d="M 304.929 251.848 L 320.552 267.471 Q 336.531 252.736 357.303 246.877 L 351.267 225.572 Q 324.991 233.206 304.929 251.848 z"
                    fill-opacity="0.19000000000000003" style="opacity: 1;"></path><text style="font-size: 20px;"
                    x="331.116" y="251.522">213</text>
            </g>
            <g sprite-identifier="s1176771">
                <path fill="#f1f1f1" stroke="#000000"
                    d="M 578.518 221.489 L 578.518 243.503 L 651.665 243.503 L 651.665 221.489 L 578.518 221.489 z"
                    fill-opacity="0.19000000000000003" style="opacity: 1;"></path><text style="font-size: 20px;"
                    x="615.091" y="237.496">217</text>
            </g>
            <g sprite-identifier="s1202462">
                <path fill="#f1f1f1" stroke="#000000"
                    d="M 408.612 243.503 L 408.612 221.489 L 382.159 221.489 Q 370.264 221.489 358.901 223.797 L 364.937 245.101 Q 373.459 243.503 382.159 243.503 L 408.612 243.503 z"
                    fill-opacity="0.19000000000000003" style="opacity: 1;"></path><text style="font-size: 20px;"
                    x="383.757" y="238.295">214</text>
            </g>
            <g sprite-identifier="s1176770">
                <path fill="#f1f1f1" stroke="#000000"
                    d="M 570.706 243.503 L 570.706 221.489 L 497.560 221.489 L 497.560 243.503 L 570.706 243.503 z"
                    fill-opacity="0.19000000000000003" style="opacity: 1;"></path><text style="font-size: 20px;"
                    x="534.133" y="237.496">216</text>
            </g>
            <g sprite-identifier="s1202463">
                <path fill="#f1f1f1" stroke="#000000"
                    d="M 416.424 221.489 L 416.424 243.503 L 489.571 243.503 L 489.571 221.489 L 416.424 221.489 z"
                    fill-opacity="0.19000000000000003" style="opacity: 1;"></path><text style="font-size: 20px;"
                    x="452.997" y="237.496">215</text>
            </g>
            <g sprite-identifier="s1176772">
                <path fill="#f1f1f1" stroke="#000000"
                    d="M 732.623 243.503 L 732.623 221.489 L 659.476 221.489 L 659.476 243.503 L 732.623 243.503 z"
                    fill-opacity="0.19000000000000003" style="opacity: 1;"></path><text style="font-size: 20px;"
                    x="696.050" y="237.496">218</text>
            </g>
            <g sprite-identifier="s1176778">
                <path fill="#f1f1f1" stroke="#000000"
                    d="M 1042.075 364.763 L 1020.060 364.763 L 1020.060 431.874 L 1042.075 431.874 L 1042.075 364.763 z"
                    fill-opacity="0.19000000000000003" style="opacity: 1;"></path><text style="font-size: 20px;"
                    x="1031.068" y="403.318">224</text>
            </g>
            <g sprite-identifier="s1176775">
                <path fill="#f1f1f1" stroke="#000000"
                    d="M 902.351 221.489 L 902.351 243.503 L 928.982 243.503 Q 937.682 243.503 946.204 245.101 L 952.063 223.797 Q 940.700 221.489 928.982 221.489 L 902.351 221.489 z"
                    fill-opacity="0.19000000000000003" style="opacity: 1;"></path><text style="font-size: 20px;"
                    x="927.207" y="238.295">221</text>
            </g>
            <g sprite-identifier="s1176776">
                <path fill="#f1f1f1" stroke="#000000"
                    d="M 959.874 225.572 L 953.660 246.877 Q 974.255 252.736 990.589 267.471 L 1006.212 251.848 Q 986.328 233.206 959.874 225.572 z"
                    fill-opacity="0.19000000000000003" style="opacity: 1;"></path><text style="font-size: 20px;"
                    x="979.936" y="251.522">222</text>
            </g>
            <g sprite-identifier="s1176773">
                <path fill="#f1f1f1" stroke="#000000"
                    d="M 740.435 221.489 L 740.435 243.503 L 813.581 243.503 L 813.581 221.489 L 740.435 221.489 z"
                    fill-opacity="0.19000000000000003" style="opacity: 1;"></path><text style="font-size: 20px;"
                    x="777.008" y="237.496">219</text>
            </g>
            <g sprite-identifier="s1176777" data-original-title="" cursor="pointer">
                <path fill="#050505" stroke="#000000"
                    d="M 1011.894 257.352 L 996.092 273.153 Q 1007.633 285.758 1013.847 301.737 Q 1020.060 317.538 1020.060 334.582 L 1020.060 356.952 L 1042.075 356.952 L 1042.075 334.582 Q 1042.075 313.099 1034.441 293.037 Q 1026.452 273.153 1011.894 257.352 z"
                    fill-opacity="0.19000000000000003" style="opacity: 1;"></path><text style="font-size: 20px;"
                    x="1019.084" y="312.152">223</text>
                <circle cx="1019.084" cy="277.152" fill="#f0ad4e" r="10" stroke="#000" stroke-width="2"></circle>
            </g>
            <g sprite-identifier="s1176774">
                <path fill="#f1f1f1" stroke="#000000"
                    d="M 894.540 243.503 L 894.540 221.489 L 821.393 221.489 L 821.393 243.503 L 894.540 243.503 z"
                    fill-opacity="0.19000000000000003" style="opacity: 1;"></path><text style="font-size: 20px;"
                    x="857.966" y="237.496">220</text>
            </g>
            <g sprite-identifier="s1176779">
                <path fill="#f1f1f1" stroke="#000000"
                    d="M 1042.075 439.863 L 1020.060 439.863 L 1020.060 513.009 L 1042.075 513.009 L 1042.075 439.863 z"
                    fill-opacity="0.19000000000000003" style="opacity: 1;"></path><text style="font-size: 20px;"
                    x="1031.068" y="481.436">225</text>
            </g>
            <g sprite-identifier="s1176769">
                <path fill="#f1f1f1" stroke="#000000"
                    d="M 902.351 790.149 L 902.351 812.164 L 928.982 812.164 Q 940.700 812.164 952.063 809.856 L 946.204 788.552 Q 937.682 790.149 928.982 790.149 L 902.351 790.149 z"
                    fill-opacity="0.19000000000000003" style="opacity: 1;"></path><text style="font-size: 20px;"
                    x="927.207" y="805.358">230</text>
            </g>
            <g sprite-identifier="s1176783">
                <path fill="#f1f1f1" stroke="#000000"
                    d="M 1006.212 781.805 L 990.589 766.182 Q 974.255 780.917 953.660 786.776 L 959.874 808.081 Q 986.328 800.624 1006.212 781.805 z"
                    fill-opacity="0.19000000000000003" style="opacity: 1;"></path><text style="font-size: 20px;"
                    x="979.936" y="792.131">229</text>
            </g>
            <g sprite-identifier="s1176780">
                <path fill="#f1f1f1" stroke="#000000"
                    d="M 1042.075 520.821 L 1020.060 520.821 L 1020.060 593.790 L 1042.075 593.790 L 1042.075 520.821 z"
                    fill-opacity="0.19000000000000003" style="opacity: 1;"></path><text style="font-size: 20px;"
                    x="1031.068" y="562.306">226</text>
            </g>
            <g sprite-identifier="s1176768">
                <path fill="#f1f1f1" stroke="#000000"
                    d="M 821.393 790.149 L 821.393 812.164 L 894.540 812.164 L 894.540 790.149 L 821.393 790.149 z"
                    fill-opacity="0.19000000000000003" style="opacity: 1;"></path><text style="font-size: 20px;"
                    x="857.966" y="806.157">231</text>
            </g>
            <g sprite-identifier="s532719">
                <path fill="#f1f1f1" stroke="#000000"
                    d="M 651.665 779.320 L 651.665 725.525 L 578.518 725.525 L 578.518 779.320 L 651.665 779.320 z"
                    fill-opacity="0.19000000000000003" style="opacity: 1;"></path><text style="font-size: 20px;"
                    x="615.091" y="757.422">101</text>
            </g>
            <g sprite-identifier="s1176767">
                <path fill="#f1f1f1" stroke="#000000"
                    d="M 740.435 790.149 L 740.435 812.164 L 813.581 812.164 L 813.581 790.149 L 740.435 790.149 z"
                    fill-opacity="0.19000000000000003" style="opacity: 1;"></path><text style="font-size: 20px;"
                    x="777.008" y="806.157">232</text>
            </g>
            <g sprite-identifier="s532720" data-original-title="" cursor="pointer">
                <path fill="#050505" stroke="#000000"
                    d="M 497.560 725.525 L 497.560 779.320 L 570.706 779.320 L 570.706 725.525 L 497.560 725.525 z"
                    fill-opacity="0.19000000000000003" style="opacity: 1;"></path><text style="font-size: 20px;"
                    x="534.133" y="757.422">102</text>
                <circle cx="534.133" cy="722.422" fill="#f0ad4e" r="10" stroke="#000" stroke-width="2"></circle>
            </g>
            <g sprite-identifier="s1176782">
                <path fill="#f1f1f1" stroke="#000000"
                    d="M 1020.060 676.701 L 1020.060 699.071 Q 1020.060 716.115 1013.847 732.094 Q 1007.633 747.895 996.092 760.678 L 1011.894 776.301 Q 1026.452 760.500 1034.441 740.616 Q 1042.075 720.376 1042.075 699.071 L 1042.075 676.701 L 1020.060 676.701 z"
                    fill-opacity="0.19000000000000003" style="opacity: 1;"></path><text style="font-size: 20px;"
                    x="1019.084" y="731.501">228</text>
            </g>
            <g sprite-identifier="s1176781">
                <path fill="#f1f1f1" stroke="#000000"
                    d="M 1042.075 601.779 L 1020.060 601.779 L 1020.060 668.890 L 1042.075 668.890 L 1042.075 601.779 z"
                    fill-opacity="0.19000000000000003" style="opacity: 1;"></path><text style="font-size: 20px;"
                    x="1031.068" y="640.335">227</text>
            </g>
            <g sprite-identifier="s532721">
                <path fill="#f1f1f1" stroke="#000000"
                    d="M 489.571 779.320 L 489.571 725.525 L 416.424 725.525 L 416.424 779.320 L 489.571 779.320 z"
                    fill-opacity="0.19000000000000003" style="opacity: 1;"></path><text style="font-size: 20px;"
                    x="452.997" y="757.422">103</text>
            </g>
            <g sprite-identifier="s532723">
                <path fill="#f1f1f1" stroke="#000000"
                    d="M 355.705 701.202 L 355.528 676.701 L 301.733 676.701 L 301.733 699.071 Q 301.733 713.985 307.059 727.833 Q 312.563 742.036 322.683 753.044 L 329.962 745.587 Q 325.524 740.793 322.150 734.934 L 355.705 701.202 z"
                    fill-opacity="0.19000000000000003" style="opacity: 1;"></path><text style="font-size: 20px;"
                    x="328.719" y="719.872">105</text>
            </g>
            <g sprite-identifier="s532724">
                <path fill="#f1f1f1" stroke="#000000"
                    d="M 355.528 601.779 L 301.733 601.779 L 301.733 668.890 L 355.528 668.890 L 355.528 601.779 z"
                    fill-opacity="0.19000000000000003" style="opacity: 1;"></path><text style="font-size: 20px;"
                    x="328.630" y="640.335">106</text>
            </g>
            <g sprite-identifier="s532727">
                <path fill="#f1f1f1" stroke="#000000"
                    d="M 355.528 431.874 L 355.528 364.763 L 301.733 364.763 L 301.733 431.874 L 355.528 431.874 z"
                    fill-opacity="0.19000000000000003" style="opacity: 1;"></path><text style="font-size: 20px;"
                    x="328.630" y="403.318">109</text>
            </g>
            <g sprite-identifier="s532722">
                <path fill="#f1f1f1" stroke="#000000"
                    d="M 408.612 725.525 L 380.028 725.525 L 346.296 759.080 Q 340.437 755.707 335.466 751.268 L 328.187 758.547 Q 339.194 768.667 353.220 773.993 Q 367.068 779.320 382.159 779.320 L 408.612 779.320 L 408.612 725.525 z"
                    fill-opacity="0.19000000000000003" style="opacity: 1;"></path><text style="font-size: 20px;"
                    x="368.399" y="757.422">104</text>
            </g>
            <g sprite-identifier="s532725">
                <path fill="#f1f1f1" stroke="#000000"
                    d="M 355.528 593.790 L 355.528 520.821 L 301.733 520.821 L 301.733 593.790 L 355.528 593.790 z"
                    fill-opacity="0.19000000000000003" style="opacity: 1;"></path><text style="font-size: 20px;"
                    x="328.630" y="562.306">107</text>
            </g>
            <g sprite-identifier="s532726">
                <path fill="#f1f1f1" stroke="#000000"
                    d="M 355.528 439.863 L 301.733 439.863 L 301.733 513.009 L 355.528 513.009 L 355.528 439.863 z"
                    fill-opacity="0.19000000000000003" style="opacity: 1;"></path><text style="font-size: 20px;"
                    x="328.630" y="481.436">108</text>
            </g>
            <g sprite-identifier="s532728">
                <path fill="#f1f1f1" stroke="#000000"
                    d="M 329.962 288.066 L 322.683 280.609 Q 312.563 291.794 307.059 305.820 Q 301.733 319.668 301.733 334.582 L 301.733 356.952 L 355.528 356.952 L 355.705 332.629 L 322.150 298.896 Q 325.346 293.037 329.962 288.066 z"
                    fill-opacity="0.19000000000000003" style="opacity: 1;"></path><text style="font-size: 20px;"
                    x="328.719" y="323.780">110</text>
            </g>
            <g sprite-identifier="s532729">
                <path fill="#f1f1f1" stroke="#000000"
                    d="M 328.187 275.106 L 335.466 282.385 Q 340.437 278.124 346.296 274.395 L 380.028 308.128 L 408.612 308.128 L 408.612 254.333 L 382.159 254.333 Q 367.068 254.333 353.220 259.660 Q 339.194 265.163 328.187 275.106 z"
                    fill-opacity="0.19000000000000003" style="opacity: 1;"></path><text style="font-size: 20px;"
                    x="368.399" y="286.231">111</text>
            </g>
            <g sprite-identifier="s532730">
                <path fill="#f1f1f1" stroke="#000000"
                    d="M 489.571 254.333 L 416.424 254.333 L 416.424 308.128 L 489.571 308.128 L 489.571 254.333 z"
                    fill-opacity="0.19000000000000003" style="opacity: 1;"></path><text style="font-size: 20px;"
                    x="452.997" y="286.231">112</text>
            </g>
            <g sprite-identifier="s532734">
                <path fill="#f1f1f1" stroke="#000000"
                    d="M 813.581 254.333 L 740.435 254.333 L 740.435 308.128 L 813.581 308.128 L 813.581 254.333 z"
                    fill-opacity="0.19000000000000003" style="opacity: 1;"></path><text style="font-size: 20px;"
                    x="777.008" y="286.231">116</text>
            </g>
            <g sprite-identifier="s532732" data-original-title="" cursor="pointer">
                <path fill="#050505" stroke="#000000"
                    d="M 651.665 254.333 L 578.518 254.333 L 578.518 308.128 L 651.665 308.128 L 651.665 254.333 z"
                    fill-opacity="0.19000000000000003" style="opacity: 1;"></path><text style="font-size: 20px;"
                    x="615.091" y="286.231">114</text>
                <circle cx="615.091" cy="251.231" fill="#a3d165" r="10" stroke="#000" stroke-width="2"></circle>
            </g>
            <g sprite-identifier="s532735">
                <path fill="#f1f1f1" stroke="#000000"
                    d="M 821.393 254.333 L 821.393 308.128 L 894.540 308.128 L 894.540 254.333 L 821.393 254.333 z"
                    fill-opacity="0.19000000000000003" style="opacity: 1;"></path><text style="font-size: 20px;"
                    x="857.966" y="286.231">117</text>
            </g>
            <g sprite-identifier="s532733">
                <path fill="#f1f1f1" stroke="#000000"
                    d="M 732.623 308.128 L 732.623 254.333 L 659.476 254.333 L 659.476 308.128 L 732.623 308.128 z"
                    fill-opacity="0.19000000000000003" style="opacity: 1;"></path><text style="font-size: 20px;"
                    x="696.050" y="286.231">115</text>
            </g>
            <g sprite-identifier="s532731">
                <path fill="#f1f1f1" stroke="#000000"
                    d="M 570.706 308.128 L 570.706 254.333 L 497.560 254.333 L 497.560 308.128 L 570.706 308.128 z"
                    fill-opacity="0.19000000000000003" style="opacity: 1;"></path><text style="font-size: 20px;"
                    x="534.133" y="286.231">113</text>
            </g>
            <g sprite-identifier="s532738">
                <path fill="#f1f1f1" stroke="#000000"
                    d="M 955.436 364.763 L 955.436 431.874 L 1009.230 431.874 L 1009.230 364.763 L 955.436 364.763 z"
                    fill-opacity="0.19000000000000003" style="opacity: 1;"></path><text style="font-size: 20px;"
                    x="982.333" y="403.318">120</text>
            </g>
            <g sprite-identifier="s532745">
                <path fill="#f1f1f1" stroke="#000000"
                    d="M 740.435 725.525 L 740.435 779.320 L 813.581 779.320 L 813.581 725.525 L 740.435 725.525 z"
                    fill-opacity="0.19000000000000003" style="opacity: 1;"></path><text style="font-size: 20px;"
                    x="777.008" y="757.422">127</text>
            </g>
            <g sprite-identifier="s532739" data-original-title="" cursor="pointer">
                <path fill="#050505" stroke="#000000"
                    d="M 1009.230 439.863 L 955.436 439.863 L 955.436 513.009 L 1009.230 513.009 L 1009.230 439.863 z"
                    fill-opacity="0.19000000000000003" style="opacity: 1;"></path><text style="font-size: 20px;"
                    x="982.333" y="481.436">121</text>
                <circle cx="982.333" cy="446.436" fill="#ffeb99" r="10" stroke="#000" stroke-width="2"></circle>
            </g>
            <g sprite-identifier="s532737">
                <path fill="#f1f1f1" stroke="#000000"
                    d="M 955.436 332.629 L 955.436 356.952 L 1009.230 356.952 L 1009.230 334.582 Q 1009.230 319.668 1003.904 305.820 Q 998.578 291.794 988.458 280.609 L 981.179 288.066 Q 985.618 292.860 989.168 298.896 L 955.436 332.629 z"
                    fill-opacity="0.19000000000000003" style="opacity: 1;"></path><text style="font-size: 20px;"
                    x="982.333" y="323.780">119</text>
            </g>
            <g sprite-identifier="s532741">
                <path fill="#f1f1f1" stroke="#000000"
                    d="M 1009.230 668.890 L 1009.230 601.779 L 955.436 601.779 L 955.436 668.890 L 1009.230 668.890 z"
                    fill-opacity="0.19000000000000003" style="opacity: 1;"></path><text style="font-size: 20px;"
                    x="982.333" y="640.335">123</text>
            </g>
            <g sprite-identifier="s532740" data-original-title="" cursor="pointer">
                <path fill="#050505" stroke="#000000"
                    d="M 1009.230 593.790 L 1009.230 520.821 L 955.436 520.821 L 955.436 593.790 L 1009.230 593.790 z"
                    fill-opacity="0.19000000000000003" style="opacity: 1;"></path><text style="font-size: 20px;"
                    x="982.333" y="562.306">122</text>
                <circle cx="982.333" cy="527.306" fill="#ffeb99" r="10" stroke="#000" stroke-width="2"></circle>
            </g>
            <g sprite-identifier="s532743">
                <path fill="#f1f1f1" stroke="#000000"
                    d="M 975.675 751.268 Q 970.527 755.884 964.845 759.080 L 931.113 725.525 L 902.351 725.525 L 902.351 779.320 L 928.982 779.320 Q 943.896 779.320 957.921 773.993 Q 971.947 768.667 982.955 758.547 L 975.675 751.268 z"
                    fill-opacity="0.19000000000000003" style="opacity: 1;"></path><text style="font-size: 20px;"
                    x="942.653" y="757.422">125</text>
            </g>
            <g sprite-identifier="s532744">
                <path fill="#f1f1f1" stroke="#000000"
                    d="M 821.393 725.525 L 821.393 779.320 L 894.540 779.320 L 894.540 725.525 L 821.393 725.525 z"
                    fill-opacity="0.19000000000000003" style="opacity: 1;"></path><text style="font-size: 20px;"
                    x="857.966" y="757.422">126</text>
            </g>
            <g sprite-identifier="s532736">
                <path fill="#f1f1f1" stroke="#000000"
                    d="M 964.845 274.395 Q 970.527 277.946 975.675 282.385 L 982.955 275.106 Q 971.947 265.163 957.921 259.660 Q 943.896 254.333 928.982 254.333 L 902.351 254.333 L 902.351 308.128 L 931.113 308.128 L 964.845 274.395 z"
                    fill-opacity="0.19000000000000003" style="opacity: 1;"></path><text style="font-size: 20px;"
                    x="942.653" y="286.231">118</text>
            </g>
            <g sprite-identifier="s532746">
                <path fill="#f1f1f1" stroke="#000000"
                    d="M 659.476 725.525 L 659.476 779.320 L 732.623 779.320 L 732.623 725.525 L 659.476 725.525 z"
                    fill-opacity="0.19000000000000003" style="opacity: 1;"></path><text style="font-size: 20px;"
                    x="696.050" y="757.422">128</text>
            </g>
            <g sprite-identifier="s532742">
                <path fill="#f1f1f1" stroke="#000000"
                    d="M 1009.230 699.071 L 1009.230 676.701 L 955.436 676.701 L 955.436 701.202 L 989.168 734.934 Q 985.440 740.793 981.179 745.587 L 988.458 753.044 Q 998.578 742.036 1003.904 727.833 Q 1009.230 713.985 1009.230 699.071 z"
                    fill-opacity="0.19000000000000003" style="opacity: 1;"></path><text style="font-size: 20px;"
                    x="982.333" y="719.872">124</text>
            </g>
            <g sprite-identifier="s532762">
                <path fill="#f1f1f1" stroke="#000000"
                    d="M 651.665 101.116 Q 614.381 100.939 578.518 103.069 L 578.518 135.026 L 583.667 135.026 L 583.667 154.201 L 578.518 154.201 L 578.518 170.357 L 583.667 170.357 L 583.667 189.176 L 578.518 189.176 L 578.518 210.481 L 651.665 210.481 L 651.665 189.176 L 646.516 189.176 L 646.516 170.357 L 651.665 170.357 L 651.665 154.201 L 646.516 154.201 L 646.516 135.026 L 651.665 135.026 L 651.665 101.116 z"
                    fill-opacity="0.19000000000000003" style="opacity: 1;"></path><text style="font-size: 20px;"
                    x="615.091" y="160.792">316</text>
            </g>
            <g sprite-identifier="s532763" data-original-title="" cursor="pointer">
                <path fill="#050505" stroke="#000000"
                    d="M 732.623 189.176 L 727.297 189.176 L 727.297 170.357 L 732.623 170.357 L 732.623 154.201 L 727.297 154.201 L 727.297 135.026 L 732.623 135.026 L 732.623 103.069 Q 696.760 100.939 659.476 101.116 L 659.476 135.026 L 664.803 135.026 L 664.803 154.201 L 659.476 154.201 L 659.476 170.357 L 664.803 170.357 L 664.803 189.176 L 659.476 189.176 L 659.476 210.481 L 732.623 210.481 L 732.623 189.176 z"
                    fill-opacity="0.19000000000000003" style="opacity: 1;"></path><text style="font-size: 20px;"
                    x="696.050" y="160.792">317</text>
                <circle cx="696.050" cy="125.792" fill="#f0ad4e" r="10" stroke="#000" stroke-width="2"></circle>
            </g>
            <g sprite-identifier="s532764">
                <path fill="#f1f1f1" stroke="#000000"
                    d="M 813.581 110.881 Q 775.765 105.910 740.435 103.602 L 740.435 135.026 L 745.761 135.026 L 745.761 154.201 L 740.435 154.201 L 740.435 170.357 L 745.761 170.357 L 745.761 189.176 L 740.435 189.176 L 740.435 210.481 L 813.581 210.481 L 813.581 189.176 L 808.255 189.176 L 808.255 170.357 L 813.581 170.357 L 813.581 154.201 L 808.255 154.201 L 808.255 135.026 L 813.581 135.026 L 813.581 110.881 z"
                    fill-opacity="0.19000000000000003" style="opacity: 1;"></path><text style="font-size: 20px;"
                    x="777.008" y="162.041">318</text>
            </g>
            <g sprite-identifier="s532765">
                <path fill="#f1f1f1" stroke="#000000"
                    d="M 894.540 189.176 L 889.391 189.176 L 889.391 170.357 L 894.540 170.357 L 894.540 154.201 L 889.391 154.201 L 889.391 135.026 L 894.540 135.026 L 894.540 124.552 Q 858.676 117.095 821.393 111.946 L 821.393 135.026 L 826.719 135.026 L 826.719 154.201 L 821.393 154.201 L 821.393 170.357 L 826.719 170.357 L 826.719 189.176 L 821.393 189.176 L 821.393 210.481 L 894.540 210.481 L 894.540 189.176 z"
                    fill-opacity="0.19000000000000003" style="opacity: 1;"></path><text style="font-size: 20px;"
                    x="857.966" y="166.214">319</text>
            </g>
            <g sprite-identifier="s532766">
                <path fill="#f1f1f1" stroke="#000000"
                    d="M 963.958 173.198 L 971.592 143.193 Q 937.504 133.606 902.351 126.149 L 902.351 135.026 L 907.678 135.026 L 907.678 154.201 L 902.351 154.201 L 902.351 170.357 L 907.678 170.357 L 907.678 189.176 L 902.351 189.176 L 902.351 210.481 L 928.982 210.481 Q 941.765 210.481 953.660 213.144 L 959.164 191.662 L 954.193 190.419 L 958.987 171.955 L 963.958 173.198 z"
                    fill-opacity="0.19000000000000003" style="opacity: 1;"></path><text style="font-size: 20px;"
                    x="936.972" y="174.647">320</text>
            </g>
            <g sprite-identifier="s1176761">
                <path fill="#f1f1f1" stroke="#000000"
                    d="M 971.947 195.035 L 966.798 193.615 L 961.472 214.920 Q 985.440 221.489 1004.969 236.579 L 1018.818 217.050 L 1014.557 214.032 L 1025.564 198.408 L 1029.825 201.249 L 1045.626 178.879 Q 1019.173 160.415 988.458 147.987 L 979.226 145.324 L 971.414 174.973 L 976.563 176.393 L 971.947 195.035 z"
                    fill-opacity="0.19000000000000003" style="opacity: 1;"></path><text style="font-size: 20px;"
                    x="1003.549" y="195.952">321</text>
            </g>
            <g sprite-identifier="s1176762">
                <path fill="#f1f1f1" stroke="#000000"
                    d="M 1051.840 270.312 L 1049.887 265.518 L 1067.286 258.062 L 1069.417 262.855 L 1084.152 256.464 L 1082.199 251.670 L 1099.776 244.036 L 1101.906 249.007 L 1113.091 244.036 Q 1087.171 209.238 1052.195 183.495 L 1036.217 205.865 L 1040.655 208.883 L 1029.470 224.507 L 1025.209 221.489 L 1011.183 241.551 Q 1027.872 256.464 1038.347 276.171 L 1051.840 270.312 z"
                    fill-opacity="0.19000000000000003" style="opacity: 1;"></path><text style="font-size: 20px;"
                    x="1062.137" y="234.833">322</text>
            </g>
            <g sprite-identifier="s1176763">
                <path fill="#f1f1f1" stroke="#000000"
                    d="M 1057.166 282.385 L 1055.036 277.591 L 1041.898 283.095 Q 1053.083 307.773 1053.083 334.582 L 1053.083 356.952 L 1078.471 356.952 L 1078.471 351.803 L 1097.468 351.803 L 1097.468 356.952 L 1113.802 356.952 L 1113.802 351.803 L 1132.798 351.803 L 1132.798 356.952 L 1161.382 356.952 Q 1148.067 308.838 1126.229 263.566 Q 1121.791 256.464 1117.707 250.783 L 1104.925 256.109 L 1106.878 260.902 L 1089.479 268.537 L 1087.348 263.566 L 1072.435 269.957 L 1074.388 274.928 L 1057.166 282.385 z"
                    fill-opacity="0.19000000000000003" style="opacity: 1;"></path><text style="font-size: 20px;"
                    x="1101.640" y="308.867">323</text>
            </g>
            <g sprite-identifier="s1176764">
                <path fill="#f1f1f1" stroke="#000000"
                    d="M 1113.802 370.090 L 1113.802 364.763 L 1097.468 364.763 L 1097.468 370.090 L 1078.471 370.090 L 1078.471 364.763 L 1053.083 364.763 L 1053.083 431.874 L 1081.489 431.874 L 1081.489 426.725 L 1100.486 426.725 L 1100.486 431.874 L 1116.642 431.874 L 1116.642 426.725 L 1135.817 426.725 L 1135.817 431.874 L 1176.473 431.874 Q 1172.035 397.608 1163.513 364.763 L 1132.798 364.763 L 1132.798 370.090 L 1113.802 370.090 z"
                    fill-opacity="0.19000000000000003" style="opacity: 1;"></path><text style="font-size: 20px;"
                    x="1114.778" y="403.318">324</text>
            </g>
            <g sprite-identifier="s532771" data-original-title="" cursor="pointer">
                <path fill="#050505" stroke="#000000"
                    d="M 1116.642 445.011 L 1116.642 439.863 L 1100.486 439.863 L 1100.486 445.011 L 1081.489 445.011 L 1081.489 439.863 L 1053.083 439.863 L 1053.083 513.009 L 1081.489 513.009 L 1081.489 507.683 L 1100.486 507.683 L 1100.486 513.009 L 1116.642 513.009 L 1116.642 507.683 L 1135.817 507.683 L 1135.817 513.009 L 1180.912 513.009 Q 1181.799 476.614 1177.538 439.863 L 1135.817 439.863 L 1135.817 445.011 L 1116.642 445.011 z"
                    fill-opacity="0.19000000000000003" style="opacity: 1;"></path><text style="font-size: 20px;"
                    x="1117.074" y="481.436">325</text>
                <circle cx="1117.074" cy="446.436" fill="#a3d165" r="10" stroke="#000" stroke-width="2"></circle>
            </g>
            <g sprite-identifier="s532772">
                <path fill="#f1f1f1" stroke="#000000"
                    d="M 1135.817 520.821 L 1135.817 525.970 L 1116.642 525.970 L 1116.642 520.821 L 1100.486 520.821 L 1100.486 525.970 L 1081.489 525.970 L 1081.489 520.821 L 1053.083 520.821 L 1053.083 593.790 L 1081.489 593.790 L 1081.489 588.641 L 1100.486 588.641 L 1100.486 593.790 L 1116.642 593.790 L 1116.642 588.641 L 1135.817 588.641 L 1135.817 593.790 L 1177.538 593.790 Q 1181.799 557.217 1180.912 520.821 L 1135.817 520.821 z"
                    fill-opacity="0.19000000000000003" style="opacity: 1;"></path><text style="font-size: 20px;"
                    x="1117.074" y="562.306">326</text>
            </g>
            <g sprite-identifier="s532773">
                <path fill="#f1f1f1" stroke="#000000"
                    d="M 1135.817 601.779 L 1135.817 606.928 L 1116.642 606.928 L 1116.642 601.779 L 1100.486 601.779 L 1100.486 606.928 L 1081.489 606.928 L 1081.489 601.779 L 1053.083 601.779 L 1053.083 668.890 L 1078.471 668.890 L 1078.471 663.563 L 1097.468 663.563 L 1097.468 668.890 L 1113.802 668.890 L 1113.802 663.563 L 1132.798 663.563 L 1132.798 668.890 L 1163.513 668.890 Q 1172.035 635.867 1176.473 601.779 L 1135.817 601.779 z"
                    fill-opacity="0.19000000000000003" style="opacity: 1;"></path><text style="font-size: 20px;"
                    x="1114.778" y="640.335">327</text>
            </g>
            <g sprite-identifier="s532774">
                <path fill="#f1f1f1" stroke="#000000"
                    d="M 1078.471 681.850 L 1078.471 676.701 L 1053.083 676.701 L 1053.083 699.071 Q 1053.083 725.880 1041.898 750.380 L 1055.036 756.062 L 1057.166 751.268 L 1074.388 758.725 L 1072.435 763.518 L 1087.348 769.910 L 1089.479 765.116 L 1106.878 772.751 L 1104.925 777.544 L 1117.707 782.870 Q 1121.791 777.189 1126.229 770.087 Q 1148.067 724.815 1161.382 676.701 L 1132.798 676.701 L 1132.798 681.850 L 1113.802 681.850 L 1113.802 676.701 L 1097.468 676.701 L 1097.468 681.850 L 1078.471 681.850 z"
                    fill-opacity="0.19000000000000003" style="opacity: 1;"></path><text style="font-size: 20px;"
                    x="1101.640" y="734.786">328</text>
            </g>
            <g sprite-identifier="s532775">
                <path fill="#f1f1f1" stroke="#000000"
                    d="M 1016.865 786.421 Q 1004.082 799.382 988.103 808.081 L 996.803 826.013 L 1001.419 823.705 L 1009.763 841.103 L 1005.147 843.234 L 1018.463 871.463 Q 1074.920 841.103 1113.091 789.617 L 1101.906 784.646 L 1099.776 789.617 L 1082.199 781.983 L 1084.152 777.189 L 1069.417 770.798 L 1067.286 775.591 L 1049.887 768.134 L 1051.840 763.341 L 1038.347 757.482 Q 1029.825 773.638 1016.865 786.421 z"
                    fill-opacity="0.19000000000000003" style="opacity: 1;"></path><text style="font-size: 20px;"
                    x="1050.597" y="819.472">329</text>
            </g>
            <g sprite-identifier="s532776" data-original-title="">
                <path fill="#f1f1f1" stroke="#000000"
                    d="M 907.678 844.477 L 907.678 863.296 L 902.351 863.296 L 902.351 879.630 L 907.678 879.630 L 907.678 898.804 L 902.351 898.804 L 902.351 907.503 Q 946.381 898.094 988.458 885.489 Q 999.643 881.228 1011.538 875.191 L 998.045 846.785 L 993.252 849.093 L 984.907 831.694 L 989.701 829.563 L 981.179 811.632 Q 956.324 823.172 928.982 823.172 L 902.351 823.172 L 902.351 844.477 L 907.678 844.477 z"
                    fill-opacity="0.19000000000000003" style="opacity: 1;"></path><text style="font-size: 20px;"
                    x="956.945" y="864.568">330</text>
            </g>
            <g sprite-identifier="s532777">
                <path fill="#f1f1f1" stroke="#000000"
                    d="M 894.540 844.477 L 894.540 823.172 L 821.393 823.172 L 821.393 844.477 L 826.719 844.477 L 826.719 863.296 L 821.393 863.296 L 821.393 879.630 L 826.719 879.630 L 826.719 898.804 L 821.393 898.804 L 821.393 921.707 Q 858.676 916.558 894.540 909.101 L 894.540 898.804 L 889.391 898.804 L 889.391 879.630 L 894.540 879.630 L 894.540 863.296 L 889.391 863.296 L 889.391 844.477 L 894.540 844.477 z"
                    fill-opacity="0.19000000000000003" style="opacity: 1;"></path><text style="font-size: 20px;"
                    x="857.966" y="877.439">331</text>
            </g>
            <g sprite-identifier="s532778">
                <path fill="#f1f1f1" stroke="#000000"
                    d="M 813.581 844.477 L 813.581 823.172 L 740.435 823.172 L 740.435 844.477 L 745.761 844.477 L 745.761 863.296 L 740.435 863.296 L 740.435 879.630 L 745.761 879.630 L 745.761 898.804 L 740.435 898.804 L 740.435 930.051 Q 777.718 927.566 813.581 922.772 L 813.581 898.804 L 808.255 898.804 L 808.255 879.630 L 813.581 879.630 L 813.581 863.296 L 808.255 863.296 L 808.255 844.477 L 813.581 844.477 z"
                    fill-opacity="0.19000000000000003" style="opacity: 1;"></path><text style="font-size: 20px;"
                    x="777.008" y="881.612">332</text>
            </g>
            <g sprite-identifier="s532779">
                <path fill="#f1f1f1" stroke="#000000"
                    d="M 664.803 844.477 L 664.803 863.296 L 659.476 863.296 L 659.476 879.630 L 664.803 879.630 L 664.803 898.804 L 659.476 898.804 L 659.476 932.537 Q 697.292 932.714 732.623 930.584 L 732.623 898.804 L 727.297 898.804 L 727.297 879.630 L 732.623 879.630 L 732.623 863.296 L 727.297 863.296 L 727.297 844.477 L 732.623 844.477 L 732.623 823.172 L 659.476 823.172 L 659.476 844.477 L 664.803 844.477 z"
                    fill-opacity="0.19000000000000003" style="opacity: 1;"></path><text style="font-size: 20px;"
                    x="696.050" y="882.861">333</text>
            </g>
            <g>
                <path fill="#050505" stroke="#000000"
                    d="M 923.754 346.138 Q 923.754 341.330 920.635 337.821 Q 917.516 334.442 913.098 334.442 L 390.661 334.442 Q 386.372 334.442 383.253 337.821 Q 380.134 341.330 380.134 346.138 L 380.134 685.332 Q 380.134 690.141 383.253 693.520 Q 386.372 697.029 390.661 697.029 L 913.098 697.029 Q 917.516 697.029 920.635 693.520 Q 923.754 690.141 923.754 685.332 L 923.754 346.138 z"
                    fill-opacity="0.19000000000000003"></path>
                <path stroke-width="1.8" fill="#050505" stroke="#000000"
                    d="M 923.754 346.138 L 923.754 685.332 Q 923.754 690.141 920.635 693.520 Q 917.516 697.029 913.098 697.029 L 390.661 697.029 Q 386.372 697.029 383.253 693.520 Q 380.134 690.141 380.134 685.332 L 380.134 346.138 Q 380.134 341.330 383.253 337.821 Q 386.372 334.442 390.661 334.442 L 913.098 334.442 Q 917.516 334.442 920.635 337.821 Q 923.754 341.330 923.754 346.138 z"
                    fill-opacity="0.19000000000000003"></path>
                <path stroke-width="2.25" fill="#050505" stroke="#000000"
                    d="M 901.921 675.196 L 402.227 675.196 L 402.227 358.484 L 901.921 358.484 L 901.921 675.196 z"
                    fill-opacity="0.19000000000000003"></path>
                <path stroke-width="2.25" fill="#050505" stroke="#000000" d="M 652.139 358.874 L 652.139 473.109"
                    fill-opacity="0.19000000000000003"></path>
                <path stroke-width="2.25" fill="#050505" stroke="#000000" d="M 652.139 561.481 L 652.139 675.585"
                    fill-opacity="0.19000000000000003"></path>
                <path stroke-width="2.25" fill="#050505" stroke="#000000"
                    d="M 680.340 485.845 Q 692.167 498.711 692.167 516.905 Q 692.167 534.969 680.340 547.835 Q 668.644 560.571 651.879 560.571 Q 635.374 560.571 623.548 547.835 Q 611.852 534.969 611.852 516.905 Q 611.852 498.711 623.548 485.845 Q 635.374 472.979 651.879 472.979 Q 668.644 472.979 680.340 485.845 z"
                    fill-opacity="0.19000000000000003"></path>
                <path stroke-width="2.25" fill="#050505" stroke="#000000"
                    d="M 482.542 480.386 L 482.542 413.457 L 402.617 413.457 L 402.617 620.223 L 482.542 620.223 L 482.542 553.164"
                    fill-opacity="0.19000000000000003"></path>
                <path stroke-width="2.25" fill="#050505" stroke="#000000"
                    d="M 482.542 480.386 L 482.542 553.164 Q 490.599 547.315 495.408 537.828 Q 500.346 528.081 500.346 516.905 Q 500.346 505.728 495.408 495.851 Q 490.599 486.494 482.542 480.386 z"
                    fill-opacity="0.19000000000000003"></path>
                <path stroke-width="2.25" fill="#050505" stroke="#000000"
                    d="M 821.086 480.386 L 821.086 413.457 L 901.921 413.457 L 901.921 620.223 L 821.086 620.223 L 821.086 553.164"
                    fill-opacity="0.19000000000000003"></path>
                <path stroke-width="2.25" fill="#050505" stroke="#000000"
                    d="M 821.086 480.386 L 821.086 553.164 Q 812.899 547.315 808.090 537.828 Q 803.152 528.081 803.152 516.905 Q 803.152 505.728 808.090 495.851 Q 812.899 486.494 821.086 480.386 z"
                    fill-opacity="0.19000000000000003"></path>
                <path stroke-width="2.25" fill="#050505" stroke="#000000"
                    d="M 403.527 475.838 L 434.067 475.838 L 434.067 557.582 L 403.527 557.582 L 403.527 475.838 z"
                    fill-opacity="0.19000000000000003"></path>
                <path stroke-width="2.25" fill="#050505" stroke="#000000"
                    d="M 900.362 475.838 L 900.362 557.582 L 869.821 557.582 L 869.821 475.838 L 900.362 475.838 z"
                    fill-opacity="0.19000000000000003"></path>
            </g>
        </g>
        <defs>
            <style type="text/css">
                .svg-pan-zoom-control {
                    cursor: pointer;
                    fill: white;
                    fill-opacity: 1;
                    stroke-width: 20;
                    stroke: rgb(0, 0, 0);
                }

                .svg-pan-zoom-control-background {
                    fill: grey;
                }
            </style>
        </defs>
        <g id="svg-pan-zoom-controls" transform="translate(-12 7) scale(0.75)" class="svg-pan-zoom-control">
            <g id="svg-pan-zoom-zoom-in" transform="translate(30.5 5) scale(0.015)" class="svg-pan-zoom-control">
                <rect x="100" y="100" width="1200" height="1200" class="svg-pan-zoom-control-background"></rect>
                <path
                    d="M1280 576v128q0 26 -19 45t-45 19h-320v320q0 26 -19 45t-45 19h-128q-26 0 -45 -19t-19 -45v-320h-320q-26 0 -45 -19t-19 -45v-128q0 -26 19 -45t45 -19h320v-320q0 -26 19 -45t45 -19h128q26 0 45 19t19 45v320h320q26 0 45 19t19 45zM1536 1120v-960 q0 -119 -84.5 -203.5t-203.5 -84.5h-960q-119 0 -203.5 84.5t-84.5 203.5v960q0 119 84.5 203.5t203.5 84.5h960q119 0 203.5 -84.5t84.5 -203.5z"
                    class="svg-pan-zoom-control-element"></path>
            </g>
            <g id="svg-pan-zoom-zoom-out" transform="translate(30.5 40) scale(0.015)" class="svg-pan-zoom-control">
                <rect x="100" y="100" width="1200" height="1200" class="svg-pan-zoom-control-background"></rect>
                <path
                    d="M1280 576v128q0 26 -19 45t-45 19h-896q-26 0 -45 -19t-19 -45v-128q0 -26 19 -45t45 -19h896q26 0 45 19t19 45zM1536 1120v-960q0 -119 -84.5 -203.5t-203.5 -84.5h-960q-119 0 -203.5 84.5t-84.5 203.5v960q0 119 84.5 203.5t203.5 84.5h960q119 0 203.5 -84.5 t84.5 -203.5z"
                    class="svg-pan-zoom-control-element"></path>
            </g>
        </g>
    </svg>