<svg style="overflow: hidden; touch-action: none; user-select: none;" version="1.1"
        xmlns="http://www.w3.org/2000/svg" width="455" height="396" xmlns:xlink="http://www.w3.org/1999/xlink"
        xmlns:ev="http://www.w3.org/2001/xml-events">
        <g id="viewport-20230926072632507" class="svg-pan-zoom_viewport"
            transform="matrix(0.10415561497211456,0,0,0.10415561497211456,22.69792366027832,73.35697174072266)">
            <g>
                <g sprite-identifier="s1224254" data-original-title="" cursor="pointer">
                    <path
                        d="M1868.1,2119.4l-109.5,-2.7l8.3,-253.7h184.3v82.3h-83.1zM2172,2118.4l-8.4,-255.4h-184.2v82.3h83.5v174zM1964.6,2150.1l-118,-3.1v245.8c33.6,0.1 68.3,0.1 104,0.1c46.2,0 90.7,-0.1 133.5,-0.2v-240.5h-3c-44,-0.5 -83.2,-1.2 -116.5,-2.1zM1643.5,2391.8c54.8,0.4 113,0.7 175,0.8v-246.5l-168,-4.4zM2277.6,2151.7c-35.3,0.6 -71.2,0.9 -106.6,0.9h-58.8v240c61.8,-0.2 120.1,-0.5 174.9,-1l-6.5,-240h-3z"
                        fill="#050505" fill-opacity="0.19000000000000003" stroke="#000000" stroke-width="3px" eid="582"
                        t="tc" style="display: none; opacity: 1;"></path><text x="1965.31471" y="2303.123"
                        font-size="72" text-anchor="middle" eid="582" t="tc">VIP</text>
                    <path
                        d="M1868.1,2119.4l-109.5,-2.7l8.3,-253.7h184.3v82.3h-83.1zM2172,2118.4l-8.4,-255.4h-184.2v82.3h83.5v174zM1964.6,2150.1l-118,-3.1v245.8c33.6,0.1 68.3,0.1 104,0.1c46.2,0 90.7,-0.1 133.5,-0.2v-240.5h-3c-44,-0.5 -83.2,-1.2 -116.5,-2.1zM1643.5,2391.8c54.8,0.4 113,0.7 175,0.8v-246.5l-168,-4.4zM2277.6,2151.7c-35.3,0.6 -71.2,0.9 -106.6,0.9h-58.8v240c61.8,-0.2 120.1,-0.5 174.9,-1l-6.5,-240h-3zM1868.1,2119.4l-109.5,-2.7l8.3,-253.7h184.3v82.3h-83.1zM2172,2118.4l-8.4,-255.4h-184.2v82.3h83.5v174zM1964.6,2150.1l-118,-3.1v245.8c33.6,0.1 68.3,0.1 104,0.1c46.2,0 90.7,-0.1 133.5,-0.2v-240.5h-3c-44,-0.5 -83.2,-1.2 -116.5,-2.1zM1643.5,2391.8c54.8,0.4 113,0.7 175,0.8v-246.5l-168,-4.4zM2277.6,2151.7c-35.3,0.6 -71.2,0.9 -106.6,0.9h-58.8v240c61.8,-0.2 120.1,-0.5 174.9,-1l-6.5,-240h-3z"
                        fill="#050505" fill-opacity="0.19000000000000003" stroke="#000000" stroke-width="3px" obs="true"
                        style="opacity: 1;"></path>
                    <circle cx="1965.31471" cy="2242.123" fill="#f0ad4e" r="10" stroke="#000" stroke-width="2"></circle>
                </g>
                <g sprite-identifier="s1803672" data-original-title="" cursor="pointer">
                    <path
                        d="M1288.4,292.9l34.3,239.3h-76.8c-33.7,0 -67.1,2.6 -99.4,7.7l-2.6,0.4l-77.8,-240.3zM1532,532.3l-17.6,-246.2l-3,0.1c-13.3,0.6 -77.6,2.6 -191.1,6l-3.4,0.1l34.3,240zM1730.4,279.6l-187.9,5.3l17.6,247.3h178.7zM1951.2,275.4l-192.6,3.5l8.3,253.3h184.3zM2168.9,277.1c-55.8,-0.8 -118.6,-1.4 -186.4,-1.7h-3.1v256.7h184.3l8.3,-255zM2200.1,277.1l-8.3,255.1v0.1h178.6l18,-251.1l-3.2,-0.1c-39.3,-1.2 -100.6,-2.5 -182.1,-3.9zM2398.6,532.3h180.3l35.1,-245.1l-197.4,-5.8zM2645,287.9l-2.8,-0.1l-34.3,244.4h76.8c33.6,0 66.9,2.6 98.9,7.7l2.6,0.5l80.1,-244.6l-61,-2.3c-38.8,-1.5 -92.7,-3.2 -160.3,-5.6zM1183.8,268.3l-35.1,-258.7c-81.8,2.2 -142.1,4.4 -183.6,6.2c-50.2,2.1 -72.9,3.6 -72.9,3.6l46.5,256.7zM1410.8,260.9l-26.9,-256.2c-79.4,1.3 -148,2.7 -206.6,4.2l35.1,258.3zM1619.2,255.9l-7.1,-254c-74.2,0.6 -141.9,1.5 -203.4,2.4l26.9,256.9zM1818.3,248.9v-248.2c-61.8,0.2 -120.1,0.5 -175,1l7,252.2zM2080.9,243.4h3v-242.8c-33.8,-0.1 -68.6,-0.1 -104.5,-0.1c-46,0 -90.3,0.1 -133,0.2v247.6l118,-3.1c36.8,-0.8 76,-1.4 116.5,-1.8zM2277.6,243.4l3,0.1l6.3,-242.1c-54.7,-0.4 -112.9,-0.7 -174.7,-0.9v242.4l58.8,-0.5c35.1,0.1 71,0.5 106.6,1zM2490.1,246.9l2.9,0.1l25.1,-243c-61.2,-0.9 -128.7,-1.6 -202.9,-2.2l-6.4,242.2h3.1c66,0.8 126,1.8 178.2,2.9zM2717.1,254.1l2.8,0.1l33.4,-245.8c-58.5,-1.5 -127.1,-2.9 -207,-4.1l-25.3,243.7l3.3,0.1c60,1.4 124.8,3.4 192.8,6zM2751.4,255.4c75.3,2.9 155.7,6.3 239,10.3h2.6l44.8,-246.4c0,0 -30.4,-2.2 -102,-5.1c-38.7,-1.6 -89.6,-3.3 -154.1,-5.1l-33.7,246.2z"
                        fill="#050505" fill-opacity="0.19000000000000003" stroke="#000000" stroke-width="3px" eid="410"
                        t="tc" style="display: none; opacity: 1;"></path><text x="1967.61622" y="156.3374"
                        font-size="72" text-anchor="middle" eid="410" t="tc">LATERAL</text>
                    <path
                        d="M1288.4,292.9l34.3,239.3h-76.8c-33.7,0 -67.1,2.6 -99.4,7.7l-2.6,0.4l-77.8,-240.3zM1532,532.3l-17.6,-246.2l-3,0.1c-13.3,0.6 -77.6,2.6 -191.1,6l-3.4,0.1l34.3,240zM1730.4,279.6l-187.9,5.3l17.6,247.3h178.7zM1951.2,275.4l-192.6,3.5l8.3,253.3h184.3zM2168.9,277.1c-55.8,-0.8 -118.6,-1.4 -186.4,-1.7h-3.1v256.7h184.3l8.3,-255zM2200.1,277.1l-8.3,255.1v0.1h178.6l18,-251.1l-3.2,-0.1c-39.3,-1.2 -100.6,-2.5 -182.1,-3.9zM2398.6,532.3h180.3l35.1,-245.1l-197.4,-5.8zM2645,287.9l-2.8,-0.1l-34.3,244.4h76.8c33.6,0 66.9,2.6 98.9,7.7l2.6,0.5l80.1,-244.6l-61,-2.3c-38.8,-1.5 -92.7,-3.2 -160.3,-5.6zM1183.8,268.3l-35.1,-258.7c-81.8,2.2 -142.1,4.4 -183.6,6.2c-50.2,2.1 -72.9,3.6 -72.9,3.6l46.5,256.7zM1410.8,260.9l-26.9,-256.2c-79.4,1.3 -148,2.7 -206.6,4.2l35.1,258.3zM1619.2,255.9l-7.1,-254c-74.2,0.6 -141.9,1.5 -203.4,2.4l26.9,256.9zM1818.3,248.9v-248.2c-61.8,0.2 -120.1,0.5 -175,1l7,252.2zM2080.9,243.4h3v-242.8c-33.8,-0.1 -68.6,-0.1 -104.5,-0.1c-46,0 -90.3,0.1 -133,0.2v247.6l118,-3.1c36.8,-0.8 76,-1.4 116.5,-1.8zM2277.6,243.4l3,0.1l6.3,-242.1c-54.7,-0.4 -112.9,-0.7 -174.7,-0.9v242.4l58.8,-0.5c35.1,0.1 71,0.5 106.6,1zM2490.1,246.9l2.9,0.1l25.1,-243c-61.2,-0.9 -128.7,-1.6 -202.9,-2.2l-6.4,242.2h3.1c66,0.8 126,1.8 178.2,2.9zM2717.1,254.1l2.8,0.1l33.4,-245.8c-58.5,-1.5 -127.1,-2.9 -207,-4.1l-25.3,243.7l3.3,0.1c60,1.4 124.8,3.4 192.8,6zM2751.4,255.4c75.3,2.9 155.7,6.3 239,10.3h2.6l44.8,-246.4c0,0 -30.4,-2.2 -102,-5.1c-38.7,-1.6 -89.6,-3.3 -154.1,-5.1l-33.7,246.2zM1288.4,292.9l34.3,239.3h-76.8c-33.7,0 -67.1,2.6 -99.4,7.7l-2.6,0.4l-77.8,-240.3zM1532,532.3l-17.6,-246.2l-3,0.1c-13.3,0.6 -77.6,2.6 -191.1,6l-3.4,0.1l34.3,240zM1730.4,279.6l-187.9,5.3l17.6,247.3h178.7zM1951.2,275.4l-192.6,3.5l8.3,253.3h184.3zM2168.9,277.1c-55.8,-0.8 -118.6,-1.4 -186.4,-1.7h-3.1v256.7h184.3l8.3,-255zM2200.1,277.1l-8.3,255.1v0.1h178.6l18,-251.1l-3.2,-0.1c-39.3,-1.2 -100.6,-2.5 -182.1,-3.9zM2398.6,532.3h180.3l35.1,-245.1l-197.4,-5.8zM2645,287.9l-2.8,-0.1l-34.3,244.4h76.8c33.6,0 66.9,2.6 98.9,7.7l2.6,0.5l80.1,-244.6l-61,-2.3c-38.8,-1.5 -92.7,-3.2 -160.3,-5.6zM1183.8,268.3l-35.1,-258.7c-81.8,2.2 -142.1,4.4 -183.6,6.2c-50.2,2.1 -72.9,3.6 -72.9,3.6l46.5,256.7zM1410.8,260.9l-26.9,-256.2c-79.4,1.3 -148,2.7 -206.6,4.2l35.1,258.3zM1619.2,255.9l-7.1,-254c-74.2,0.6 -141.9,1.5 -203.4,2.4l26.9,256.9zM1818.3,248.9v-248.2c-61.8,0.2 -120.1,0.5 -175,1l7,252.2zM2080.9,243.4h3v-242.8c-33.8,-0.1 -68.6,-0.1 -104.5,-0.1c-46,0 -90.3,0.1 -133,0.2v247.6l118,-3.1c36.8,-0.8 76,-1.4 116.5,-1.8zM2277.6,243.4l3,0.1l6.3,-242.1c-54.7,-0.4 -112.9,-0.7 -174.7,-0.9v242.4l58.8,-0.5c35.1,0.1 71,0.5 106.6,1zM2490.1,246.9l2.9,0.1l25.1,-243c-61.2,-0.9 -128.7,-1.6 -202.9,-2.2l-6.4,242.2h3.1c66,0.8 126,1.8 178.2,2.9zM2717.1,254.1l2.8,0.1l33.4,-245.8c-58.5,-1.5 -127.1,-2.9 -207,-4.1l-25.3,243.7l3.3,0.1c60,1.4 124.8,3.4 192.8,6zM2751.4,255.4c75.3,2.9 155.7,6.3 239,10.3h2.6l44.8,-246.4c0,0 -30.4,-2.2 -102,-5.1c-38.7,-1.6 -89.6,-3.3 -154.1,-5.1l-33.7,246.2z"
                        fill="#050505" fill-opacity="0.19000000000000003" stroke="#000000" stroke-width="3px" obs="true"
                        style="opacity: 1;"></path>
                    <circle cx="1967.61622" cy="95.3374" fill="#f0ad4e" r="10" stroke="#000" stroke-width="2"></circle>
                </g>
                <g sprite-identifier="s1803673" data-original-title="" cursor="pointer">
                    <path
                        d="M3117.4,305.9h17.8l-187.1,282l-2.4,-1.1c-41,-17.8 -84.1,-31.6 -128,-40.9l-3.3,-0.7l80.6,-248.4l2.3,0.1c103.3,4 177.1,7 219.5,9zM3342.5,320.1l-2.1,-1.7l-45.7,42.7l-53.6,-49.4l-1.1,-0.1c-19.8,-1.1 -43.6,-2.3 -70.7,-3.4l-1.7,-0.1l-193.5,292.2l3.1,1.5c44.7,22.4 86.7,50 124.9,82.3l2,2l320.1,-289.7l-2.1,-2.3c-24.6,-26.3 -51.3,-51.2 -79.6,-74zM3444.9,419.1l-2,-2.4l-317.2,287.6l2.5,2.3c37.6,34.5 70.8,73 98.5,114.3l1.6,2.4l347.7,-203.9l-1.3,-2.6c-36.5,-73.5 -80.2,-140.1 -129.8,-197.7zM3025.2,267.8c67.9,3.1 150.3,7.6 245,13.3l2.9,0.1l32.5,-248.6l-239.1,-11.9l-44.8,246.9zM3333.6,34l-32.5,249l3.3,0.2c67.3,4.3 103.9,6.7 108.6,7.3l15,0.8v0l155.6,-244.6z"
                        fill="#050505" fill-opacity="0.19000000000000003" stroke="#000000" stroke-width="3px"
                        eid="11715" t="tc" style="display: none; opacity: 1;"></path><text x="3306.40741" y="101.16296"
                        font-size="54" text-anchor="middle" eid="11715" t="tc">
                        <tspan x="3306.40741" y="101.16296">CORNER</tspan>
                        <tspan x="3306.40741" y="155.16296">LATERAL</tspan>
                        <tspan x="3306.40741" y="209.16296">NORD</tspan>
                    </text>
                    <path
                        d="M3117.4,305.9h17.8l-187.1,282l-2.4,-1.1c-41,-17.8 -84.1,-31.6 -128,-40.9l-3.3,-0.7l80.6,-248.4l2.3,0.1c103.3,4 177.1,7 219.5,9zM3342.5,320.1l-2.1,-1.7l-45.7,42.7l-53.6,-49.4l-1.1,-0.1c-19.8,-1.1 -43.6,-2.3 -70.7,-3.4l-1.7,-0.1l-193.5,292.2l3.1,1.5c44.7,22.4 86.7,50 124.9,82.3l2,2l320.1,-289.7l-2.1,-2.3c-24.6,-26.3 -51.3,-51.2 -79.6,-74zM3444.9,419.1l-2,-2.4l-317.2,287.6l2.5,2.3c37.6,34.5 70.8,73 98.5,114.3l1.6,2.4l347.7,-203.9l-1.3,-2.6c-36.5,-73.5 -80.2,-140.1 -129.8,-197.7zM3025.2,267.8c67.9,3.1 150.3,7.6 245,13.3l2.9,0.1l32.5,-248.6l-239.1,-11.9l-44.8,246.9zM3333.6,34l-32.5,249l3.3,0.2c67.3,4.3 103.9,6.7 108.6,7.3l15,0.8v0l155.6,-244.6zM3117.4,305.9h17.8l-187.1,282l-2.4,-1.1c-41,-17.8 -84.1,-31.6 -128,-40.9l-3.3,-0.7l80.6,-248.4l2.3,0.1c103.3,4 177.1,7 219.5,9zM3342.5,320.1l-2.1,-1.7l-45.7,42.7l-53.6,-49.4l-1.1,-0.1c-19.8,-1.1 -43.6,-2.3 -70.7,-3.4l-1.7,-0.1l-193.5,292.2l3.1,1.5c44.7,22.4 86.7,50 124.9,82.3l2,2l320.1,-289.7l-2.1,-2.3c-24.6,-26.3 -51.3,-51.2 -79.6,-74zM3444.9,419.1l-2,-2.4l-317.2,287.6l2.5,2.3c37.6,34.5 70.8,73 98.5,114.3l1.6,2.4l347.7,-203.9l-1.3,-2.6c-36.5,-73.5 -80.2,-140.1 -129.8,-197.7zM3025.2,267.8c67.9,3.1 150.3,7.6 245,13.3l2.9,0.1l32.5,-248.6l-239.1,-11.9l-44.8,246.9zM3333.6,34l-32.5,249l3.3,0.2c67.3,4.3 103.9,6.7 108.6,7.3l15,0.8v0l155.6,-244.6z"
                        fill="#050505" fill-opacity="0.19000000000000003" stroke="#000000" stroke-width="3px" obs="true"
                        style="opacity: 1;"></path>
                    <circle cx="3306.40741" cy="49.16296" fill="#f0ad4e" r="10" stroke="#000" stroke-width="2"></circle>
                </g>
                <g sprite-identifier="s1803674" data-original-title="" cursor="pointer">
                    <path
                        d="M487.6,416.8l316.7,287.5l-2.5,2.3c-37.4,34.5 -70.5,73 -98.5,114.3l-1.6,2.4l-347.6,-203.9l1.3,-2.6c36.8,-73.3 80.6,-139.8 130.2,-197.7zM688.1,312.3l-52.3,48.5l-45.7,-42.7l-2.1,1.7c-28.6,22.8 -55.3,47.7 -79.6,74l-2.1,2.3l319.6,289.6l2,-1.7c38.2,-32.3 80.4,-60 125.4,-82.3l3.1,-1.5l-192.2,-290.1zM797.3,308.6l184.8,279.2l2.3,-1c41.7,-17.8 84.7,-31.4 128,-40.5l3.3,-0.7l-79.3,-244.5zM291.2,679.7c5.7,-14.7 11.9,-30.3 18.4,-46.2c25.2,-60.2 54,-119.2 85.5,-175.4l1.5,-2.7l-206.2,-112.8l-1.3,3.1c-39.2,89.7 -73.3,182.1 -101.2,274.6l-0.9,3l203.2,59zM412.2,428.6c25.6,-43.1 52.9,-85.2 81.2,-125.2l9.5,-12.6l127,-4.3l-32.9,-252.5l-250,12.7l-10.7,18.2c-49,79.7 -93.7,163.7 -133,249.7l-1.2,2.6l208.6,114zM910.6,276.8l-46.5,-255.9l-239.1,11.9l32.9,252.8z"
                        fill="#050505" fill-opacity="0.19000000000000003" stroke="#000000" stroke-width="3px"
                        eid="11715" t="tc" style="display: none; opacity: 1;"></path><text x="423.57222" y="153.11481"
                        font-size="54" text-anchor="middle" eid="11715" t="tc">
                        <tspan x="423.57222" y="153.11481">CORNER</tspan>
                        <tspan x="423.57222" y="207.11481">LATERAL</tspan>
                        <tspan x="423.57222" y="261.11481000000003">SUD</tspan>
                    </text>
                    <path
                        d="M487.6,416.8l316.7,287.5l-2.5,2.3c-37.4,34.5 -70.5,73 -98.5,114.3l-1.6,2.4l-347.6,-203.9l1.3,-2.6c36.8,-73.3 80.6,-139.8 130.2,-197.7zM688.1,312.3l-52.3,48.5l-45.7,-42.7l-2.1,1.7c-28.6,22.8 -55.3,47.7 -79.6,74l-2.1,2.3l319.6,289.6l2,-1.7c38.2,-32.3 80.4,-60 125.4,-82.3l3.1,-1.5l-192.2,-290.1zM797.3,308.6l184.8,279.2l2.3,-1c41.7,-17.8 84.7,-31.4 128,-40.5l3.3,-0.7l-79.3,-244.5zM291.2,679.7c5.7,-14.7 11.9,-30.3 18.4,-46.2c25.2,-60.2 54,-119.2 85.5,-175.4l1.5,-2.7l-206.2,-112.8l-1.3,3.1c-39.2,89.7 -73.3,182.1 -101.2,274.6l-0.9,3l203.2,59zM412.2,428.6c25.6,-43.1 52.9,-85.2 81.2,-125.2l9.5,-12.6l127,-4.3l-32.9,-252.5l-250,12.7l-10.7,18.2c-49,79.7 -93.7,163.7 -133,249.7l-1.2,2.6l208.6,114zM910.6,276.8l-46.5,-255.9l-239.1,11.9l32.9,252.8zM487.6,416.8l316.7,287.5l-2.5,2.3c-37.4,34.5 -70.5,73 -98.5,114.3l-1.6,2.4l-347.6,-203.9l1.3,-2.6c36.8,-73.3 80.6,-139.8 130.2,-197.7zM688.1,312.3l-52.3,48.5l-45.7,-42.7l-2.1,1.7c-28.6,22.8 -55.3,47.7 -79.6,74l-2.1,2.3l319.6,289.6l2,-1.7c38.2,-32.3 80.4,-60 125.4,-82.3l3.1,-1.5l-192.2,-290.1zM797.3,308.6l184.8,279.2l2.3,-1c41.7,-17.8 84.7,-31.4 128,-40.5l3.3,-0.7l-79.3,-244.5zM291.2,679.7c5.7,-14.7 11.9,-30.3 18.4,-46.2c25.2,-60.2 54,-119.2 85.5,-175.4l1.5,-2.7l-206.2,-112.8l-1.3,3.1c-39.2,89.7 -73.3,182.1 -101.2,274.6l-0.9,3l203.2,59zM412.2,428.6c25.6,-43.1 52.9,-85.2 81.2,-125.2l9.5,-12.6l127,-4.3l-32.9,-252.5l-250,12.7l-10.7,18.2c-49,79.7 -93.7,163.7 -133,249.7l-1.2,2.6l208.6,114zM910.6,276.8l-46.5,-255.9l-239.1,11.9l32.9,252.8z"
                        fill="#050505" fill-opacity="0.19000000000000003" stroke="#000000" stroke-width="3px" obs="true"
                        style="opacity: 1;"></path>
                    <circle cx="423.57222" cy="101.11481" fill="#f0ad4e" r="10" stroke="#000" stroke-width="2"></circle>
                </g>
                <g sprite-identifier="s1803675" data-original-title="" cursor="pointer">
                    <path
                        d="M3442.9,1978.4l-317.2,-287.2l2.5,-2.3c37.6,-34.8 70.8,-73.4 98.5,-114.7l1.6,-2.4l347.7,204.3l-1.3,2.6c-36.5,73 -80.2,139.4 -129.8,197.3zM3241.2,2084.2l53.6,-49.8l45.7,42.7l2.1,-1.7c27.4,-22 54.2,-46.8 79.6,-73.6l2.1,-2.3l-320.1,-289.7l-2,1.7c-22.7,19 -47.5,36.8 -73.8,52.9l-2.8,1.7l44.1,62.1l-53.5,31.2l151.5,227.9zM2897.2,2098.7c31.4,-1.2 105.3,-4.2 219.7,-9l17.9,-1.2l-142.9,-215l-67.5,39.3l-45.5,-79.1l-2.3,0.7c-19.8,5.9 -39.7,10.9 -58.9,14.9l-3.3,0.7l80.5,248.8zM3638.9,1715.8c-6.5,17.3 -12.7,32.8 -18.4,46.2c-25.5,60.4 -54.3,119.3 -85.5,174.9l-1.5,2.7l206.1,113.4l1.3,-3.1c39.6,-89.7 73.8,-182.1 101.7,-274.6l0.9,-3l-203.6,-59.1zM3518.1,1966.4c-24.4,42 -51.8,84.3 -81.3,125.7l-8.6,12.1l-15,0.8c-4.8,0.6 -41.4,3 -108.7,7.3l-3.3,0.2l32.6,248.5l250,-12.6l10.3,-17.8c48.9,-80 93.6,-164.1 132.9,-250l1.2,-2.6l-208.6,-114.2zM3270.2,2114.4c-76.5,4.6 -158.9,9 -245,13.3l-3.5,0.2l44.7,246.4l239.1,-11.9l-32.5,-248.2z"
                        fill="#050505" fill-opacity="0.19000000000000003" stroke="#000000" stroke-width="3px"
                        eid="11715" t="tc" style="display: none; opacity: 1;"></path><text x="3473.39444" y="2163.32407"
                        font-size="54" text-anchor="middle" eid="11715" t="tc">
                        <tspan x="3473.39444" y="2163.32407">CORNER</tspan>
                        <tspan x="3473.39444" y="2217.32407">TRIBUNA</tspan>
                        <tspan x="3473.39444" y="2271.32407">NORD</tspan>
                    </text>
                    <path
                        d="M3442.9,1978.4l-317.2,-287.2l2.5,-2.3c37.6,-34.8 70.8,-73.4 98.5,-114.7l1.6,-2.4l347.7,204.3l-1.3,2.6c-36.5,73 -80.2,139.4 -129.8,197.3zM3241.2,2084.2l53.6,-49.8l45.7,42.7l2.1,-1.7c27.4,-22 54.2,-46.8 79.6,-73.6l2.1,-2.3l-320.1,-289.7l-2,1.7c-22.7,19 -47.5,36.8 -73.8,52.9l-2.8,1.7l44.1,62.1l-53.5,31.2l151.5,227.9zM2897.2,2098.7c31.4,-1.2 105.3,-4.2 219.7,-9l17.9,-1.2l-142.9,-215l-67.5,39.3l-45.5,-79.1l-2.3,0.7c-19.8,5.9 -39.7,10.9 -58.9,14.9l-3.3,0.7l80.5,248.8zM3638.9,1715.8c-6.5,17.3 -12.7,32.8 -18.4,46.2c-25.5,60.4 -54.3,119.3 -85.5,174.9l-1.5,2.7l206.1,113.4l1.3,-3.1c39.6,-89.7 73.8,-182.1 101.7,-274.6l0.9,-3l-203.6,-59.1zM3518.1,1966.4c-24.4,42 -51.8,84.3 -81.3,125.7l-8.6,12.1l-15,0.8c-4.8,0.6 -41.4,3 -108.7,7.3l-3.3,0.2l32.6,248.5l250,-12.6l10.3,-17.8c48.9,-80 93.6,-164.1 132.9,-250l1.2,-2.6l-208.6,-114.2zM3270.2,2114.4c-76.5,4.6 -158.9,9 -245,13.3l-3.5,0.2l44.7,246.4l239.1,-11.9l-32.5,-248.2zM3442.9,1978.4l-317.2,-287.2l2.5,-2.3c37.6,-34.8 70.8,-73.4 98.5,-114.7l1.6,-2.4l347.7,204.3l-1.3,2.6c-36.5,73 -80.2,139.4 -129.8,197.3zM3241.2,2084.2l53.6,-49.8l45.7,42.7l2.1,-1.7c27.4,-22 54.2,-46.8 79.6,-73.6l2.1,-2.3l-320.1,-289.7l-2,1.7c-22.7,19 -47.5,36.8 -73.8,52.9l-2.8,1.7l44.1,62.1l-53.5,31.2l151.5,227.9zM2897.2,2098.7c31.4,-1.2 105.3,-4.2 219.7,-9l17.9,-1.2l-142.9,-215l-67.5,39.3l-45.5,-79.1l-2.3,0.7c-19.8,5.9 -39.7,10.9 -58.9,14.9l-3.3,0.7l80.5,248.8zM3638.9,1715.8c-6.5,17.3 -12.7,32.8 -18.4,46.2c-25.5,60.4 -54.3,119.3 -85.5,174.9l-1.5,2.7l206.1,113.4l1.3,-3.1c39.6,-89.7 73.8,-182.1 101.7,-274.6l0.9,-3l-203.6,-59.1zM3518.1,1966.4c-24.4,42 -51.8,84.3 -81.3,125.7l-8.6,12.1l-15,0.8c-4.8,0.6 -41.4,3 -108.7,7.3l-3.3,0.2l32.6,248.5l250,-12.6l10.3,-17.8c48.9,-80 93.6,-164.1 132.9,-250l1.2,-2.6l-208.6,-114.2zM3270.2,2114.4c-76.5,4.6 -158.9,9 -245,13.3l-3.5,0.2l44.7,246.4l239.1,-11.9l-32.5,-248.2z"
                        fill="#050505" fill-opacity="0.19000000000000003" stroke="#000000" stroke-width="3px" obs="true"
                        style="opacity: 1;"></path>
                    <circle cx="3473.39444" cy="2111.32407" fill="#ffeb99" r="10" stroke="#000" stroke-width="2">
                    </circle>
                </g>
                <g sprite-identifier="s1803676" data-original-title="" cursor="pointer">
                    <path
                        d="M1036.4,2094.4l-239.1,-7.8l140.9,-213.1l67.5,39.3l45.5,-79.1l2.3,0.7c20.1,5.9 39.9,11 58.9,14.9l3.3,0.7zM588,2075.4l2.1,1.7l45.7,-42.7l52.3,48.5l76.1,2.1l149.7,-225.6l-53.1,-31.2l43.7,-62.1l-2.8,-1.7c-26.4,-16.2 -51.2,-34 -73.8,-52.9l-2,-1.7l-319.6,289.6l2.1,2.3c25.4,26.9 52.2,51.7 79.6,73.7zM485.6,1976l2.1,2.3l316.7,-287.1l-2.5,-2.3c-37.1,-34.2 -70.2,-72.8 -98.5,-114.7l-1.6,-2.4l-347.7,204.3l1.3,2.6c36.8,72.9 80.6,139.4 130.2,197.3zM657.9,2110.1l-32.9,252.4l239.1,11.9l46.5,-256zM502.7,2104.5l-9.5,-12.6c-28,-39.7 -55.3,-81.9 -81.1,-125.6l-1.5,-2.5l-208.6,114.2l1.2,2.6c39.6,86 84.3,170.1 133,250.1l10.7,17.7l249.9,12.5l32.9,-252.1zM395.1,1936.7c-31.2,-55.6 -59.9,-114.4 -85.5,-174.9c-5.4,-13.4 -11.6,-29 -18.4,-46.2l-1,-2.6l-203.2,59.1l0.9,3c27.9,92.6 61.9,184.9 101.2,274.6l1.3,2.9l206.2,-113.2z"
                        fill="#050505" fill-opacity="0.19000000000000003" stroke="#000000" stroke-width="3px"
                        eid="11715" t="tc" style="display: none; opacity: 1;"></path><text x="430.97963" y="2152.26296"
                        font-size="54" text-anchor="middle" eid="11715" t="tc">
                        <tspan x="430.97963" y="2152.26296">CORNER</tspan>
                        <tspan x="430.97963" y="2206.26296">TRIBUNA</tspan>
                        <tspan x="430.97963" y="2260.26296">SUD</tspan>
                    </text>
                    <path
                        d="M1036.4,2094.4l-239.1,-7.8l140.9,-213.1l67.5,39.3l45.5,-79.1l2.3,0.7c20.1,5.9 39.9,11 58.9,14.9l3.3,0.7zM588,2075.4l2.1,1.7l45.7,-42.7l52.3,48.5l76.1,2.1l149.7,-225.6l-53.1,-31.2l43.7,-62.1l-2.8,-1.7c-26.4,-16.2 -51.2,-34 -73.8,-52.9l-2,-1.7l-319.6,289.6l2.1,2.3c25.4,26.9 52.2,51.7 79.6,73.7zM485.6,1976l2.1,2.3l316.7,-287.1l-2.5,-2.3c-37.1,-34.2 -70.2,-72.8 -98.5,-114.7l-1.6,-2.4l-347.7,204.3l1.3,2.6c36.8,72.9 80.6,139.4 130.2,197.3zM657.9,2110.1l-32.9,252.4l239.1,11.9l46.5,-256zM502.7,2104.5l-9.5,-12.6c-28,-39.7 -55.3,-81.9 -81.1,-125.6l-1.5,-2.5l-208.6,114.2l1.2,2.6c39.6,86 84.3,170.1 133,250.1l10.7,17.7l249.9,12.5l32.9,-252.1zM395.1,1936.7c-31.2,-55.6 -59.9,-114.4 -85.5,-174.9c-5.4,-13.4 -11.6,-29 -18.4,-46.2l-1,-2.6l-203.2,59.1l0.9,3c27.9,92.6 61.9,184.9 101.2,274.6l1.3,2.9l206.2,-113.2zM1036.4,2094.4l-239.1,-7.8l140.9,-213.1l67.5,39.3l45.5,-79.1l2.3,0.7c20.1,5.9 39.9,11 58.9,14.9l3.3,0.7zM588,2075.4l2.1,1.7l45.7,-42.7l52.3,48.5l76.1,2.1l149.7,-225.6l-53.1,-31.2l43.7,-62.1l-2.8,-1.7c-26.4,-16.2 -51.2,-34 -73.8,-52.9l-2,-1.7l-319.6,289.6l2.1,2.3c25.4,26.9 52.2,51.7 79.6,73.7zM485.6,1976l2.1,2.3l316.7,-287.1l-2.5,-2.3c-37.1,-34.2 -70.2,-72.8 -98.5,-114.7l-1.6,-2.4l-347.7,204.3l1.3,2.6c36.8,72.9 80.6,139.4 130.2,197.3zM657.9,2110.1l-32.9,252.4l239.1,11.9l46.5,-256zM502.7,2104.5l-9.5,-12.6c-28,-39.7 -55.3,-81.9 -81.1,-125.6l-1.5,-2.5l-208.6,114.2l1.2,2.6c39.6,86 84.3,170.1 133,250.1l10.7,17.7l249.9,12.5l32.9,-252.1zM395.1,1936.7c-31.2,-55.6 -59.9,-114.4 -85.5,-174.9c-5.4,-13.4 -11.6,-29 -18.4,-46.2l-1,-2.6l-203.2,59.1l0.9,3c27.9,92.6 61.9,184.9 101.2,274.6l1.3,2.9l206.2,-113.2z"
                        fill="#050505" fill-opacity="0.19000000000000003" stroke="#000000" stroke-width="3px" obs="true"
                        style="opacity: 1;"></path>
                    <circle cx="430.97963" cy="2100.26296" fill="#ffeb99" r="10" stroke="#000" stroke-width="2">
                    </circle>
                </g>
                <g sprite-identifier="s1803677" data-original-title="" cursor="pointer">
                    <path
                        d="M269.5,1550.1l-0.8,-2.9l363.8,-109.6l1,2.6c14.2,36.5 31.5,72 51.6,105.4l1.6,2.7l-344.9,202.1l-1.4,-3.1c-27.6,-60.7 -51.5,-127.1 -70.9,-197.2zM260.9,1516.6l0.9,3.2l361.2,-108.5l-1,-3c-10.8,-33.4 -18.8,-68 -23.9,-102.8l-0.4,-2.9l-369.4,36.6l0.4,3.1c7.4,59.8 18.2,118.5 32.2,174.3zM218.3,1210.2c0.1,6.8 0.4,15 0.9,24.8c1.2,22.8 3,47.5 5.6,73.4l0.2,3.1l369,-36.6l-0.3,-3c-2,-21.8 -3,-43.3 -3,-64v-20.6c0,-20.7 1,-42.1 3,-63.6l0.3,-3l-369,-37l-0.3,3c-2.6,25.9 -4.5,50.7 -5.6,73.8c-0.5,9.9 -0.8,18.1 -0.9,24.8h13l-2.4,24.9zM340.4,648.3c-28.5,61.8 -52.4,128.1 -70.9,197.1l-0.8,2.9l363.8,109.7l1,-2.7c14.1,-36.8 31.5,-72.2 51.6,-105.3l1.6,-2.7l-344.9,-202.1zM279.2,1683.3c-22.8,-63.6 -41.7,-129.1 -56.5,-194.6l-0.6,-2.8l-195.2,32.2l3.5,21.7c12.8,67.8 28.9,135.8 48,202.4l0.9,3l201,-58.8zM215.4,1455.5c-11.3,-57 -19.4,-113.3 -23.9,-167.2l-0.3,-3l-190.7,11.9l0.2,3c3.4,60.1 10.3,123 20.6,187.1l0.5,3.2l194.2,-31.9zM191.6,1106.6c4.5,-53.3 12.6,-109.3 23.9,-166.3l0.6,-3.1l-194.2,-31.9l-0.5,3c-10.3,64 -17.2,127 -20.6,187.1l-0.2,3l190.7,11.2zM222.7,906.4c14.8,-65.3 33.8,-130.6 56.5,-194.2l1.1,-3l-201,-59.2l-0.9,3c-19.4,67.2 -35.6,135.6 -48.1,203l-3.5,21l195.3,32.2z"
                        fill="#050505" fill-opacity="0.19000000000000003" stroke="#000000" stroke-width="3px"
                        eid="19040" t="tc" style="display: none; opacity: 1;"></path><text x="-1199.92579" y="129.5181"
                        transform="rotate(-90)" font-size="72" text-anchor="middle" eid="19040" t="tc">GOL SUD</text>
                    <path
                        d="M269.5,1550.1l-0.8,-2.9l363.8,-109.6l1,2.6c14.2,36.5 31.5,72 51.6,105.4l1.6,2.7l-344.9,202.1l-1.4,-3.1c-27.6,-60.7 -51.5,-127.1 -70.9,-197.2zM260.9,1516.6l0.9,3.2l361.2,-108.5l-1,-3c-10.8,-33.4 -18.8,-68 -23.9,-102.8l-0.4,-2.9l-369.4,36.6l0.4,3.1c7.4,59.8 18.2,118.5 32.2,174.3zM218.3,1210.2c0.1,6.8 0.4,15 0.9,24.8c1.2,22.8 3,47.5 5.6,73.4l0.2,3.1l369,-36.6l-0.3,-3c-2,-21.8 -3,-43.3 -3,-64v-20.6c0,-20.7 1,-42.1 3,-63.6l0.3,-3l-369,-37l-0.3,3c-2.6,25.9 -4.5,50.7 -5.6,73.8c-0.5,9.9 -0.8,18.1 -0.9,24.8h13l-2.4,24.9zM340.4,648.3c-28.5,61.8 -52.4,128.1 -70.9,197.1l-0.8,2.9l363.8,109.7l1,-2.7c14.1,-36.8 31.5,-72.2 51.6,-105.3l1.6,-2.7l-344.9,-202.1zM279.2,1683.3c-22.8,-63.6 -41.7,-129.1 -56.5,-194.6l-0.6,-2.8l-195.2,32.2l3.5,21.7c12.8,67.8 28.9,135.8 48,202.4l0.9,3l201,-58.8zM215.4,1455.5c-11.3,-57 -19.4,-113.3 -23.9,-167.2l-0.3,-3l-190.7,11.9l0.2,3c3.4,60.1 10.3,123 20.6,187.1l0.5,3.2l194.2,-31.9zM191.6,1106.6c4.5,-53.3 12.6,-109.3 23.9,-166.3l0.6,-3.1l-194.2,-31.9l-0.5,3c-10.3,64 -17.2,127 -20.6,187.1l-0.2,3l190.7,11.2zM222.7,906.4c14.8,-65.3 33.8,-130.6 56.5,-194.2l1.1,-3l-201,-59.2l-0.9,3c-19.4,67.2 -35.6,135.6 -48.1,203l-3.5,21l195.3,32.2zM269.5,1550.1l-0.8,-2.9l363.8,-109.6l1,2.6c14.2,36.5 31.5,72 51.6,105.4l1.6,2.7l-344.9,202.1l-1.4,-3.1c-27.6,-60.7 -51.5,-127.1 -70.9,-197.2zM260.9,1516.6l0.9,3.2l361.2,-108.5l-1,-3c-10.8,-33.4 -18.8,-68 -23.9,-102.8l-0.4,-2.9l-369.4,36.6l0.4,3.1c7.4,59.8 18.2,118.5 32.2,174.3zM218.3,1210.2c0.1,6.8 0.4,15 0.9,24.8c1.2,22.8 3,47.5 5.6,73.4l0.2,3.1l369,-36.6l-0.3,-3c-2,-21.8 -3,-43.3 -3,-64v-20.6c0,-20.7 1,-42.1 3,-63.6l0.3,-3l-369,-37l-0.3,3c-2.6,25.9 -4.5,50.7 -5.6,73.8c-0.5,9.9 -0.8,18.1 -0.9,24.8h13l-2.4,24.9zM340.4,648.3c-28.5,61.8 -52.4,128.1 -70.9,197.1l-0.8,2.9l363.8,109.7l1,-2.7c14.1,-36.8 31.5,-72.2 51.6,-105.3l1.6,-2.7l-344.9,-202.1zM279.2,1683.3c-22.8,-63.6 -41.7,-129.1 -56.5,-194.6l-0.6,-2.8l-195.2,32.2l3.5,21.7c12.8,67.8 28.9,135.8 48,202.4l0.9,3l201,-58.8zM215.4,1455.5c-11.3,-57 -19.4,-113.3 -23.9,-167.2l-0.3,-3l-190.7,11.9l0.2,3c3.4,60.1 10.3,123 20.6,187.1l0.5,3.2l194.2,-31.9zM191.6,1106.6c4.5,-53.3 12.6,-109.3 23.9,-166.3l0.6,-3.1l-194.2,-31.9l-0.5,3c-10.3,64 -17.2,127 -20.6,187.1l-0.2,3l190.7,11.2zM222.7,906.4c14.8,-65.3 33.8,-130.6 56.5,-194.2l1.1,-3l-201,-59.2l-0.9,3c-19.4,67.2 -35.6,135.6 -48.1,203l-3.5,21l195.3,32.2z"
                        fill="#050505" fill-opacity="0.19000000000000003" stroke="#000000" stroke-width="3px" obs="true"
                        style="opacity: 1;"></path>
                    <circle cx="-1199.92579" cy="68.5181" fill="#ffeb99" r="10" stroke="#000" stroke-width="2"></circle>
                </g>
                <g sprite-identifier="s1803678" data-original-title="" cursor="pointer">
                    <path
                        d="M3660.7,845.4l0.8,2.9l-363.3,109.2l-1.1,-2.6c-14.1,-36.5 -31.6,-71.8 -52,-104.9l-1.6,-2.7l344.9,-202.1l1.4,3.1c28.5,61.8 52.3,128.1 70.9,197.1zM3332.5,1089.6l0.4,2.8l368.9,-36.6l-0.4,-3.1c-7.1,-59.5 -18,-118.2 -32.2,-174.3l-0.8,-3.1l-361.2,108.9l1,3c10.7,33.1 18.9,67.6 24.3,102.4zM3705.8,1308.3c2.6,-25.9 4.5,-50.7 5.6,-73.5c0.6,-16 0.9,-27.6 0.9,-35.7v-3.4c0,-7.8 -0.3,-19.4 -0.9,-35.3c-1.2,-23.1 -3,-47.9 -5.6,-73.8l-0.3,-3l-369,37l0.3,3c2,21 3,42.4 3,63.6v20.6c0,19.2 -1,40.7 -3,64l-0.3,3l369,36.5zM3669.2,1516.6c14.2,-57.2 25.1,-115.9 32.2,-174.3l0.4,-3.1l-368.9,-36.6l-0.4,2.9c-5.4,34.8 -13.6,69.4 -24.3,102.8l-1,3l361.2,108.4zM3589.6,1747.4c28,-60.7 51.8,-127 70.9,-197.1l0.8,-2.9l-363.3,-109.8l-1,2.6c-14.1,36.5 -31.6,71.9 -52,105.3l-1.6,2.7l344.8,202.2zM3651.4,712.3c22.9,64.2 41.9,129.5 56.4,194.2l0.7,2.7l195.3,-32.3l-4,-21c-12.2,-67.4 -28.3,-135.6 -47.6,-202.8l-0.9,-3.1l-201,59.2zM3714.6,940.3c11.7,57 19.9,113 24.4,166.3l0.3,3l190.7,-11.1l-0.2,-3.1c-3.7,-60.1 -10.6,-123.1 -20.6,-187.1l-0.5,-3l-194.7,31.9zM3931.6,1198.4v-0.7v-0.7c0.8,-14.8 0.6,-36.7 -0.5,-67.1l-0.1,-3.1l-190,11.1l0.2,3c0.9,15.9 1.3,35 1.3,56.8c0,21.8 -0.4,40.9 -1.3,56.8l-0.2,3l190,11.6l0.1,-3.1c1.2,-30.5 1.3,-52.5 0.5,-67.6zM3739,1288.1c-4.6,53.9 -12.8,110.2 -24.4,167.2l-0.6,3.1l194.7,31.7l0.5,-3c10,-64.1 16.9,-127 20.6,-187.1l0.2,-3l-190.7,-11.9zM3707.9,1488.6c-14.5,64.7 -33.5,130.2 -56.5,194.6l-1.1,3.1l201.1,58.8l0.8,-3c19.1,-66.6 35.1,-134.7 47.6,-202.5l4,-21.5l-195.3,-32.3z"
                        fill="#050505" fill-opacity="0.19000000000000003" stroke="#000000" stroke-width="3px"
                        eid="19040" t="tc" style="display: none; opacity: 1;"></path><text x="1195.67769" y="-3798.334"
                        transform="rotate(90)" font-size="72" text-anchor="middle" eid="19040" t="tc">GOL NORD</text>
                    <path
                        d="M3660.7,845.4l0.8,2.9l-363.3,109.2l-1.1,-2.6c-14.1,-36.5 -31.6,-71.8 -52,-104.9l-1.6,-2.7l344.9,-202.1l1.4,3.1c28.5,61.8 52.3,128.1 70.9,197.1zM3332.5,1089.6l0.4,2.8l368.9,-36.6l-0.4,-3.1c-7.1,-59.5 -18,-118.2 -32.2,-174.3l-0.8,-3.1l-361.2,108.9l1,3c10.7,33.1 18.9,67.6 24.3,102.4zM3705.8,1308.3c2.6,-25.9 4.5,-50.7 5.6,-73.5c0.6,-16 0.9,-27.6 0.9,-35.7v-3.4c0,-7.8 -0.3,-19.4 -0.9,-35.3c-1.2,-23.1 -3,-47.9 -5.6,-73.8l-0.3,-3l-369,37l0.3,3c2,21 3,42.4 3,63.6v20.6c0,19.2 -1,40.7 -3,64l-0.3,3l369,36.5zM3669.2,1516.6c14.2,-57.2 25.1,-115.9 32.2,-174.3l0.4,-3.1l-368.9,-36.6l-0.4,2.9c-5.4,34.8 -13.6,69.4 -24.3,102.8l-1,3l361.2,108.4zM3589.6,1747.4c28,-60.7 51.8,-127 70.9,-197.1l0.8,-2.9l-363.3,-109.8l-1,2.6c-14.1,36.5 -31.6,71.9 -52,105.3l-1.6,2.7l344.8,202.2zM3651.4,712.3c22.9,64.2 41.9,129.5 56.4,194.2l0.7,2.7l195.3,-32.3l-4,-21c-12.2,-67.4 -28.3,-135.6 -47.6,-202.8l-0.9,-3.1l-201,59.2zM3714.6,940.3c11.7,57 19.9,113 24.4,166.3l0.3,3l190.7,-11.1l-0.2,-3.1c-3.7,-60.1 -10.6,-123.1 -20.6,-187.1l-0.5,-3l-194.7,31.9zM3931.6,1198.4v-0.7v-0.7c0.8,-14.8 0.6,-36.7 -0.5,-67.1l-0.1,-3.1l-190,11.1l0.2,3c0.9,15.9 1.3,35 1.3,56.8c0,21.8 -0.4,40.9 -1.3,56.8l-0.2,3l190,11.6l0.1,-3.1c1.2,-30.5 1.3,-52.5 0.5,-67.6zM3739,1288.1c-4.6,53.9 -12.8,110.2 -24.4,167.2l-0.6,3.1l194.7,31.7l0.5,-3c10,-64.1 16.9,-127 20.6,-187.1l0.2,-3l-190.7,-11.9zM3707.9,1488.6c-14.5,64.7 -33.5,130.2 -56.5,194.6l-1.1,3.1l201.1,58.8l0.8,-3c19.1,-66.6 35.1,-134.7 47.6,-202.5l4,-21.5l-195.3,-32.3zM3660.7,845.4l0.8,2.9l-363.3,109.2l-1.1,-2.6c-14.1,-36.5 -31.6,-71.8 -52,-104.9l-1.6,-2.7l344.9,-202.1l1.4,3.1c28.5,61.8 52.3,128.1 70.9,197.1zM3332.5,1089.6l0.4,2.8l368.9,-36.6l-0.4,-3.1c-7.1,-59.5 -18,-118.2 -32.2,-174.3l-0.8,-3.1l-361.2,108.9l1,3c10.7,33.1 18.9,67.6 24.3,102.4zM3705.8,1308.3c2.6,-25.9 4.5,-50.7 5.6,-73.5c0.6,-16 0.9,-27.6 0.9,-35.7v-3.4c0,-7.8 -0.3,-19.4 -0.9,-35.3c-1.2,-23.1 -3,-47.9 -5.6,-73.8l-0.3,-3l-369,37l0.3,3c2,21 3,42.4 3,63.6v20.6c0,19.2 -1,40.7 -3,64l-0.3,3l369,36.5zM3669.2,1516.6c14.2,-57.2 25.1,-115.9 32.2,-174.3l0.4,-3.1l-368.9,-36.6l-0.4,2.9c-5.4,34.8 -13.6,69.4 -24.3,102.8l-1,3l361.2,108.4zM3589.6,1747.4c28,-60.7 51.8,-127 70.9,-197.1l0.8,-2.9l-363.3,-109.8l-1,2.6c-14.1,36.5 -31.6,71.9 -52,105.3l-1.6,2.7l344.8,202.2zM3651.4,712.3c22.9,64.2 41.9,129.5 56.4,194.2l0.7,2.7l195.3,-32.3l-4,-21c-12.2,-67.4 -28.3,-135.6 -47.6,-202.8l-0.9,-3.1l-201,59.2zM3714.6,940.3c11.7,57 19.9,113 24.4,166.3l0.3,3l190.7,-11.1l-0.2,-3.1c-3.7,-60.1 -10.6,-123.1 -20.6,-187.1l-0.5,-3l-194.7,31.9zM3931.6,1198.4v-0.7v-0.7c0.8,-14.8 0.6,-36.7 -0.5,-67.1l-0.1,-3.1l-190,11.1l0.2,3c0.9,15.9 1.3,35 1.3,56.8c0,21.8 -0.4,40.9 -1.3,56.8l-0.2,3l190,11.6l0.1,-3.1c1.2,-30.5 1.3,-52.5 0.5,-67.6zM3739,1288.1c-4.6,53.9 -12.8,110.2 -24.4,167.2l-0.6,3.1l194.7,31.7l0.5,-3c10,-64.1 16.9,-127 20.6,-187.1l0.2,-3l-190.7,-11.9zM3707.9,1488.6c-14.5,64.7 -33.5,130.2 -56.5,194.6l-1.1,3.1l201.1,58.8l0.8,-3c19.1,-66.6 35.1,-134.7 47.6,-202.5l4,-21.5l-195.3,-32.3z"
                        fill="#050505" fill-opacity="0.19000000000000003" stroke="#000000" stroke-width="3px" obs="true"
                        style="opacity: 1;"></path>
                    <circle cx="1195.67769" cy="-3859.334" fill="#a3d165" r="10" stroke="#000" stroke-width="2">
                    </circle>
                </g>
                <g sprite-identifier="s1803679" data-original-title="" cursor="pointer">
                    <path
                        d="M1560.1,1863h178.7l-8.4,253l-187.9,-5.8zM2478.1,1863l-178.7,1l17.7,251.7l178.6,-5.5zM1532,1863h-180.8l-34.3,240.3l197.5,6.2zM1322.8,1862.9h-76.8c-33.4,0 -66.8,-2.4 -99.4,-7.2l-2.6,-0.4l-77.9,239.8l222.4,7.1zM2645,2107.4c70.9,-2.3 144,-4.9 217.2,-7.7l4,-0.2l-80,-244.1l-2.5,0.4c-32.6,4.8 -65.9,7.2 -99,7.2h-76.8l34.4,244.5zM2614,2108.1l-35.1,-245.1h-81.8l18,247.8zM2191.8,1863l8.3,255.1l93.2,-1.9l-18.4,-253.2zM1412.4,2389.4c61.2,0.9 128.7,1.6 202.9,2.2l7,-251l-183.3,-5.3zM1177.6,2384.9c58.4,1.5 126.9,2.9 206.6,4.1l26.7,-254.6l-198.4,-6.2zM938.7,2119.1l-46.2,254.9c5.3,0.4 79,5.4 256.4,10.2l34.9,-256.8zM2990.4,2129.5c-83.3,4.3 -163.7,7.9 -239,10.7l-3.4,0.1l33.4,243.4c174.6,-4.7 251.3,-9.5 256.1,-9.8l-44.5,-244.5zM2717.1,2141.1c-68,2.5 -132.8,4.7 -192.8,6.4l-3.3,0.1l25.1,241c79.5,-1.3 148.2,-2.7 206.9,-4.2l-33.1,-243.4zM2490.1,2148.2c-59,1.4 -119,2.4 -178.2,3h-3.1l6.2,240.1c73.9,-0.6 141.4,-1.4 202.8,-2.3l-24.9,-240.9z"
                        fill="#050505" fill-opacity="0.19000000000000003" stroke="#000000" stroke-width="3px" eid="1223"
                        t="tc" style="display: none; opacity: 1;"></path><text x="1269.05529" y="2294.4814"
                        font-size="72" text-anchor="middle" eid="1223" t="tc">TRIBUNA</text>
                    <path
                        d="M1560.1,1863h178.7l-8.4,253l-187.9,-5.8zM2478.1,1863l-178.7,1l17.7,251.7l178.6,-5.5zM1532,1863h-180.8l-34.3,240.3l197.5,6.2zM1322.8,1862.9h-76.8c-33.4,0 -66.8,-2.4 -99.4,-7.2l-2.6,-0.4l-77.9,239.8l222.4,7.1zM2645,2107.4c70.9,-2.3 144,-4.9 217.2,-7.7l4,-0.2l-80,-244.1l-2.5,0.4c-32.6,4.8 -65.9,7.2 -99,7.2h-76.8l34.4,244.5zM2614,2108.1l-35.1,-245.1h-81.8l18,247.8zM2191.8,1863l8.3,255.1l93.2,-1.9l-18.4,-253.2zM1412.4,2389.4c61.2,0.9 128.7,1.6 202.9,2.2l7,-251l-183.3,-5.3zM1177.6,2384.9c58.4,1.5 126.9,2.9 206.6,4.1l26.7,-254.6l-198.4,-6.2zM938.7,2119.1l-46.2,254.9c5.3,0.4 79,5.4 256.4,10.2l34.9,-256.8zM2990.4,2129.5c-83.3,4.3 -163.7,7.9 -239,10.7l-3.4,0.1l33.4,243.4c174.6,-4.7 251.3,-9.5 256.1,-9.8l-44.5,-244.5zM2717.1,2141.1c-68,2.5 -132.8,4.7 -192.8,6.4l-3.3,0.1l25.1,241c79.5,-1.3 148.2,-2.7 206.9,-4.2l-33.1,-243.4zM2490.1,2148.2c-59,1.4 -119,2.4 -178.2,3h-3.1l6.2,240.1c73.9,-0.6 141.4,-1.4 202.8,-2.3l-24.9,-240.9zM1560.1,1863h178.7l-8.4,253l-187.9,-5.8zM2478.1,1863l-178.7,1l17.7,251.7l178.6,-5.5zM1532,1863h-180.8l-34.3,240.3l197.5,6.2zM1322.8,1862.9h-76.8c-33.4,0 -66.8,-2.4 -99.4,-7.2l-2.6,-0.4l-77.9,239.8l222.4,7.1zM2645,2107.4c70.9,-2.3 144,-4.9 217.2,-7.7l4,-0.2l-80,-244.1l-2.5,0.4c-32.6,4.8 -65.9,7.2 -99,7.2h-76.8l34.4,244.5zM2614,2108.1l-35.1,-245.1h-81.8l18,247.8zM2191.8,1863l8.3,255.1l93.2,-1.9l-18.4,-253.2zM1412.4,2389.4c61.2,0.9 128.7,1.6 202.9,2.2l7,-251l-183.3,-5.3zM1177.6,2384.9c58.4,1.5 126.9,2.9 206.6,4.1l26.7,-254.6l-198.4,-6.2zM938.7,2119.1l-46.2,254.9c5.3,0.4 79,5.4 256.4,10.2l34.9,-256.8zM2990.4,2129.5c-83.3,4.3 -163.7,7.9 -239,10.7l-3.4,0.1l33.4,243.4c174.6,-4.7 251.3,-9.5 256.1,-9.8l-44.5,-244.5zM2717.1,2141.1c-68,2.5 -132.8,4.7 -192.8,6.4l-3.3,0.1l25.1,241c79.5,-1.3 148.2,-2.7 206.9,-4.2l-33.1,-243.4zM2490.1,2148.2c-59,1.4 -119,2.4 -178.2,3h-3.1l6.2,240.1c73.9,-0.6 141.4,-1.4 202.8,-2.3l-24.9,-240.9z"
                        fill="#050505" fill-opacity="0.19000000000000003" stroke="#000000" stroke-width="3px" obs="true"
                        style="opacity: 1;"></path>
                    <circle cx="1269.05529" cy="2233.4814" fill="#f0ad4e" r="10" stroke="#000" stroke-width="2">
                    </circle>
                </g>
            </g>
            <g fill="#cccccc" stroke="#000000" stroke-width="3">
                <path
                    d="M3533.6,455.6l206.2,-112.8l1.3,3c39.6,89.7 73.8,182 101.7,274.6l0.9,3l-203.6,59.1l-1.1,-2.7c-5.7,-14.7 -11.9,-30.3 -18.4,-46.2c-24.7,-59.6 -53.5,-118.6 -85.5,-175.3zM3726.8,314.4c-39,-85.8 -83.7,-169.8 -132.9,-249.4l-0.1,-0.2l-10.2,-18.1v0l-155.6,244.6l8.6,12.1c29.8,41.7 57.2,83.9 81.3,125.3l1.5,2.5l208.6,-114.2zM2034.7,1973.5h-138.5v146.1h138.5zM260.9,878.5c-14,56.1 -24.8,114.8 -32.2,174.3l-0.4,3.1l369.4,36.6l0.4,-2.9c5.1,-34.8 13.1,-69.2 23.9,-102.3l1,-3l-361.3,-108.9zM3232.2,962c-30.5,-72.1 -74.1,-136.8 -129.8,-192.4c-55.6,-55.6 -120.4,-99.3 -192.4,-129.8c-74.6,-31.5 -153.9,-47.5 -235.6,-47.5h-1418.4c-81.7,0 -161,16 -235.6,47.5c-72.1,30.5 -136.8,74.1 -192.4,129.8c-55.6,55.6 -99.3,120.4 -129.8,192.4c-31.5,74.6 -47.5,153.9 -47.5,235.6c0,81.7 16,161 47.5,235.6c30.5,72.1 74.1,136.8 129.8,192.4c55.6,55.6 120.4,99.3 192.4,129.8c74.6,31.5 153.9,47.5 235.6,47.5h1418.4c81.7,0 161,-16 235.6,-47.5c72.1,-30.5 136.8,-74.1 192.4,-129.8c55.6,-55.7 99.3,-120.4 129.8,-192.4c31.5,-74.6 47.5,-153.9 47.5,-235.6c0.1,-81.7 -15.9,-161 -47.5,-235.6zM3099.6,1377.1c-23.2,54.9 -56.5,104.3 -99,146.7c-42.4,42.4 -91.8,75.7 -146.7,99c-56.7,24 -117.1,36.2 -179.5,36.2h-1418.4c-62.4,0 -122.8,-12.2 -179.5,-36.2c-54.9,-23.2 -104.3,-56.5 -146.7,-99c-42.4,-42.4 -75.7,-91.8 -99,-146.7c-24,-56.7 -36.2,-117.1 -36.2,-179.5c0,-62.4 12.2,-122.8 36.2,-179.5c23.2,-54.9 56.5,-104.3 99,-146.7c42.4,-42.4 91.8,-75.7 146.7,-99c56.7,-24 117.1,-36.2 179.5,-36.2h1418.4c62.4,0 122.8,12.2 179.5,36.2c54.9,23.2 104.3,56.5 146.7,99c42.4,42.4 75.7,91.8 99,146.7c24,56.7 36.2,117.1 36.2,179.5c0,62.4 -12.2,122.8 -36.2,179.5z"
                    fill="#050505" stroke="#000000" fill-opacity="0.19000000000000003"></path>
            </g>
            <g stroke="none" stroke-width="1">
                <g fill="#4b8037">
                    <path
                        d="M1256.6,1647c-60.7,0 -119.5,-11.9 -174.9,-35.3c-53.5,-22.6 -101.6,-55 -142.8,-96.3c-41.2,-41.3 -73.7,-89.3 -96.3,-142.8c-23.4,-55.4 -35.3,-114.2 -35.3,-174.9c0,-60.7 11.9,-119.5 35.3,-174.9c22.6,-53.5 55,-101.6 96.3,-142.8c41.3,-41.3 89.3,-73.7 142.8,-96.3c55.4,-23.4 114.2,-35.3 174.9,-35.3h1417.2c60.7,0 119.5,11.9 174.9,35.3c53.5,22.6 101.6,55 142.8,96.3c41.2,41.3 73.7,89.3 96.3,142.8c23.4,55.4 35.3,114.2 35.3,174.9c0,60.7 -11.9,119.5 -35.3,174.9c-22.6,53.5 -55,101.6 -96.3,142.8c-41.3,41.2 -89.3,73.7 -142.8,96.3c-55.4,23.4 -114.2,35.3 -174.9,35.3z">
                    </path>
                </g>
                <path
                    d="M2684.3,1136.2h-50.1v-371.5h-1338v371.5h-50v122h50v372.4h1338.1v-372.4h50.1v-122zM1300.6,1341.3h96.4v-288.3h-96.4v-164.1h243.4v617h-243.4zM1301.4,1337.3v-280.4h91.5v280.4zM1300.1,1509.8h247.8v-177c46.8,-32.2 74.8,-85.2 74.8,-141.9c0,-56.8 -27.9,-109.7 -74.8,-141.9v-164h-247.8v-66.2c27.4,-1.2 49.5,-22.9 51.3,-50.1h613.2v272.1c-82.4,0.3 -149.3,67.3 -149.3,149.5c0,82.2 66.9,149.2 149.3,149.5v286.8h-612.6c-0.5,-28.6 -23.4,-51.8 -51.9,-52.8zM1547.9,1053.8c44.4,31.6 70.8,82.6 70.8,137.1c0,54.5 -26.4,105.5 -70.8,137.1zM1960.9,1194.6c0,2.4 1.5,4.4 3.6,5.2v135.9c-80.2,-0.3 -145.3,-65.5 -145.3,-145.5c0,-80.1 65.1,-145.2 145.3,-145.5v144.8c-2.1,0.7 -3.6,2.7 -3.6,5.1zM1968.5,1199.8c2,-0.8 3.5,-2.8 3.5,-5.1c0,-2.3 -1.4,-4.3 -3.5,-5.1v-144.8c78.9,1.8 142.6,66.4 142.6,145.5c0,79.1 -63.7,143.7 -142.6,145.5zM1968.5,1339.7c81.1,-1.8 146.5,-68.1 146.5,-149.5c0,-81.3 -65.4,-147.7 -146.5,-149.5v-272.1h609.5c1.4,27.9 24.2,50.2 52.3,51v65.3h-247.8v164c-46.9,32.2 -74.8,85.2 -74.8,141.9c0,56.7 27.9,109.7 74.8,141.9v177h247.8v64c-27.9,1.7 -50.1,24.6 -50.5,52.7h-611.2v-286.7zM2629.8,1337.3h-91.5v-280.4h91.5zM2534.4,1053v288.3h95.5v164.6h-243.4v-617h243.4v164.1zM2382.4,1328c-44.4,-31.6 -70.8,-82.6 -70.8,-137.1c0,-54.6 26.4,-105.5 70.8,-137.1zM2630.3,815.7c-25.9,-0.7 -47,-21.3 -48.3,-47h48.3zM1347.4,768.6c-1.8,25 -22.1,44.9 -47.3,46.1v-46.1zM1250.1,1254.2v-114.1h46v114.1zM1300.1,1577.7c26.3,1 47.5,22.4 47.9,48.8h-47.9zM2583.7,1626.6c0.4,-25.9 20.9,-47.1 46.6,-48.8v48.8zM2680.4,1254.2h-46v-114.1h46zM2466.5,1194.6c0,3.1 -2.5,5.5 -5.5,5.5c-3,0 -5.5,-2.5 -5.5,-5.5c0,-3.1 2.5,-5.5 5.5,-5.5c3,0 5.5,2.5 5.5,5.5zM1463.5,1194.6c0,3.1 -2.5,5.5 -5.5,5.5c-3,0 -5.5,-2.5 -5.5,-5.5c0,-3.1 2.5,-5.5 5.5,-5.5c3,0 5.5,2.5 5.5,5.5z"
                    fill="#050505" stroke="#000000" fill-opacity="0.19000000000000003"></path>
            </g>
            <g fill="none" stroke="none" stroke-width="1" font-family="sans-serif" font-weight="normal" font-size="12"
                text-anchor="start"></g>
        </g>
        <defs>
            <style type="text/css">
                .svg-pan-zoom-control {
                    cursor: pointer;
                    fill: white;
                    fill-opacity: 1;
                    stroke-width: 20;
                    stroke: rgb(0, 0, 0);
                }

                .svg-pan-zoom-control-background {
                    fill: grey;
                }
            </style>
        </defs>
        <g id="svg-pan-zoom-controls" transform="translate(-12 7) scale(0.75)" class="svg-pan-zoom-control">
            <g id="svg-pan-zoom-zoom-in" transform="translate(30.5 5) scale(0.015)" class="svg-pan-zoom-control">
                <rect x="100" y="100" width="1200" height="1200" class="svg-pan-zoom-control-background"></rect>
                <path
                    d="M1280 576v128q0 26 -19 45t-45 19h-320v320q0 26 -19 45t-45 19h-128q-26 0 -45 -19t-19 -45v-320h-320q-26 0 -45 -19t-19 -45v-128q0 -26 19 -45t45 -19h320v-320q0 -26 19 -45t45 -19h128q26 0 45 19t19 45v320h320q26 0 45 19t19 45zM1536 1120v-960 q0 -119 -84.5 -203.5t-203.5 -84.5h-960q-119 0 -203.5 84.5t-84.5 203.5v960q0 119 84.5 203.5t203.5 84.5h960q119 0 203.5 -84.5t84.5 -203.5z"
                    class="svg-pan-zoom-control-element"></path>
            </g>
            <g id="svg-pan-zoom-zoom-out" transform="translate(30.5 40) scale(0.015)" class="svg-pan-zoom-control">
                <rect x="100" y="100" width="1200" height="1200" class="svg-pan-zoom-control-background"></rect>
                <path
                    d="M1280 576v128q0 26 -19 45t-45 19h-896q-26 0 -45 -19t-19 -45v-128q0 -26 19 -45t45 -19h896q26 0 45 19t19 45zM1536 1120v-960q0 -119 -84.5 -203.5t-203.5 -84.5h-960q-119 0 -203.5 84.5t-84.5 203.5v960q0 119 84.5 203.5t203.5 84.5h960q119 0 203.5 -84.5 t84.5 -203.5z"
                    class="svg-pan-zoom-control-element"></path>
            </g>
        </g>
    </svg>