<svg xmlns="http://www.w3.org/2000/svg" version="1.1" width="461" height="396" xmlns:xlink="http://www.w3.org/1999/xlink" xmlns:ev="http://www.w3.org/2001/xml-events" style="overflow: hidden; touch-action: none; user-select: none; -webkit-user-drag: none; -webkit-tap-highlight-color: rgba(0, 0, 0, 0);"><g class="svg-pan-zoom_viewport" transform="matrix(0.3223475287726105,0,0,0.3223475287726105,10.8201408332211,32.595665858083514)"><g><path fill="#050505" stroke="#000000" d="M 794.700 203.743 L 848.784 203.743 L 848.784 140.855 L 794.700 140.855 L 794.700 203.743 z" fill-opacity="0.19000000000000003"></path><path fill="#050505" stroke="#000000" d="M 789.109 203.743 L 789.109 140.855 L 758.084 140.855 L 758.084 203.743 L 789.109 203.743 z" fill-opacity="0.19000000000000003"></path></g><g><path fill="#050505" stroke="#000000" d="M 967.434 355.514 Q 967.434 351.182 964.219 348.108 Q 961.005 345.033 956.253 345.033 L 408.144 345.033 Q 403.392 345.033 400.318 348.108 Q 396.964 351.182 396.964 355.514 L 396.964 665.486 Q 396.964 669.818 400.318 673.032 Q 403.392 676.107 408.144 676.107 L 956.253 676.107 Q 961.005 676.107 964.219 673.032 Q 967.434 669.818 967.434 665.486 L 967.434 355.514 z" fill-opacity="0.19000000000000003"></path><path stroke-width="1.8" fill="#050505" stroke="#000000" d="M 967.434 355.514 L 967.434 665.486 Q 967.434 669.818 964.219 673.032 Q 961.005 676.107 956.253 676.107 L 408.144 676.107 Q 403.392 676.107 400.318 673.032 Q 396.964 669.818 396.964 665.486 L 396.964 355.514 Q 396.964 351.182 400.318 348.108 Q 403.392 345.033 408.144 345.033 L 956.253 345.033 Q 961.005 345.033 964.219 348.108 Q 967.434 351.182 967.434 355.514 z" fill-opacity="0.19000000000000003"></path><path stroke-width="2.25" fill="#050505" stroke="#000000" d="M 945.912 655.563 L 420.163 655.563 L 420.163 365.577 L 945.912 365.577 L 945.912 655.563 z" fill-opacity="0.19000000000000003"></path><path stroke-width="2.25" fill="#050505" stroke="#000000" d="M 683.037 365.856 L 683.037 655.144" fill-opacity="0.19000000000000003"></path><path stroke-width="2.25" fill="#050505" stroke="#000000" d="M 712.944 482.130 Q 725.243 493.869 725.243 510.500 Q 725.243 527.270 712.944 538.870 Q 700.367 550.749 682.898 550.749 Q 665.428 550.749 652.990 538.870 Q 640.692 527.270 640.692 510.500 Q 640.692 493.869 652.990 482.130 Q 665.428 470.391 682.898 470.391 Q 700.367 470.391 712.944 482.130 z" fill-opacity="0.19000000000000003"></path><path stroke-width="2.25" fill="#050505" stroke="#000000" d="M 504.573 477.099 L 504.573 415.888 L 420.442 415.888 L 420.442 605.252 L 504.573 605.252 L 504.573 543.901" fill-opacity="0.19000000000000003"></path><path stroke-width="2.25" fill="#050505" stroke="#000000" d="M 504.573 477.099 L 504.573 543.901 Q 513.098 538.451 518.129 529.786 Q 523.300 520.842 523.300 510.500 Q 523.300 500.298 518.129 491.354 Q 513.098 482.689 504.573 477.099 z" fill-opacity="0.19000000000000003"></path><path stroke-width="2.25" fill="#050505" stroke="#000000" d="M 860.942 477.099 L 860.942 415.888 L 945.912 415.888 L 945.912 605.252 L 860.942 605.252 L 860.942 543.901" fill-opacity="0.19000000000000003"></path><path stroke-width="2.25" fill="#050505" stroke="#000000" d="M 860.942 477.099 L 860.942 543.901 Q 852.278 538.451 847.247 529.786 Q 842.076 520.842 842.076 510.500 Q 842.076 500.298 847.247 491.354 Q 852.278 482.689 860.942 477.099 z" fill-opacity="0.19000000000000003"></path><path stroke-width="2.25" fill="#050505" stroke="#000000" d="M 421.421 472.907 L 453.564 472.907 L 453.564 547.814 L 421.421 547.814 L 421.421 472.907 z" fill-opacity="0.19000000000000003"></path><path stroke-width="2.25" fill="#050505" stroke="#000000" d="M 944.235 472.907 L 944.235 547.814 L 912.092 547.814 L 912.092 472.907 L 944.235 472.907 z" fill-opacity="0.19000000000000003"></path></g><g sprite-identifier="s95648"><path fill="#f1f1f1" stroke="#000000" d="M 468.797 272.222 L 511.142 272.222 L 511.142 140.855 L 424.216 140.994 L 424.216 275.436 Q 446.716 272.222 468.797 272.222 z" fill-opacity="0.19000000000000003" style="opacity: 1;"></path><text style="font-size: 20px;" x="467.679" y="213.145">H</text></g><g sprite-identifier="s90949" data-original-title="" cursor="pointer"><path fill="#050505" stroke="#000000" d="M 894.203 272.222 Q 917.682 272.222 941.440 275.855 L 941.440 140.994 L 854.374 140.855 L 854.374 272.222 L 894.203 272.222 z" fill-opacity="0.19000000000000003" style="opacity: 1;"></path><text style="font-size: 20px;" x="897.907" y="213.355">A</text><circle cx="897.907" cy="178.355" fill="#f0ad4e" r="10" stroke="#000" stroke-width="2"></circle></g><g sprite-identifier="s109554"><path fill="#f1f1f1" stroke="#000000" d="M 366.358 289.691 Q 391.653 280.747 418.625 276.275 L 418.625 140.994 Q 367.895 142.392 319.541 155.808 L 366.358 289.691 z" fill-opacity="0.19000000000000003" style="opacity: 1;"></path><text style="font-size: 20px;" x="369.083" y="220.343">H1</text></g><g sprite-identifier="s109553"><path fill="#f1f1f1" stroke="#000000" d="M 314.091 157.345 Q 271.466 169.644 232.755 191.165 L 308.221 317.642 Q 333.097 301.989 361.187 291.508 L 314.091 157.345 z" fill-opacity="0.19000000000000003" style="opacity: 1;"></path><text style="font-size: 20px;" x="296.971" y="242.493">G</text></g><g sprite-identifier="s81418"><path fill="#f1f1f1" stroke="#000000" d="M 1000.835 291.089 Q 1032.139 302.828 1058.832 320.437 L 1136.954 195.079 Q 1093.910 170.063 1045.975 156.507 L 1000.835 291.089 z" fill-opacity="0.19000000000000003" style="opacity: 1;"></path><text style="font-size: 20px;" x="1068.894" y="243.472">B</text></g><g sprite-identifier="s95646"><path fill="#f1f1f1" stroke="#000000" d="M 947.030 276.834 Q 972.185 281.166 995.664 289.272 L 1040.664 154.970 Q 994.825 142.671 947.030 141.134 L 947.030 276.834 z" fill-opacity="0.19000000000000003" style="opacity: 1;"></path><text style="font-size: 20px;" x="993.847" y="220.203">A1</text></g><g sprite-identifier="s306530"><path fill="#f1f1f1" stroke="#000000" d="M 649.357 164.612 L 649.357 203.743 L 714.342 203.743 L 714.342 164.612 L 649.357 164.612 z" fill-opacity="0.19000000000000003" style="opacity: 1;"></path><text style="font-size: 14px;" x="681.849" y="189.178">Platino Plus</text></g><g sprite-identifier="s90948"><path fill="#f1f1f1" stroke="#000000" d="M 616.515 203.743 L 643.767 203.743 L 643.767 159.022 L 719.932 159.022 L 719.932 203.743 L 752.494 203.743 L 752.494 140.855 L 616.515 140.855 L 616.515 203.743 z" fill-opacity="0.19000000000000003" style="opacity: 1;"></path><text style="font-size: 14px;" x="684.505" y="154.299">Platino</text></g><g sprite-identifier="s306531"><path fill="#f1f1f1" stroke="#000000" d="M 616.515 209.333 L 616.515 241.476 L 660.537 241.476 L 660.537 209.333 L 616.515 209.333 M 752.494 209.333 L 705.258 209.333 L 705.258 241.476 L 752.494 241.476 L 752.494 209.333 z" fill-opacity="0.19000000000000003" style="opacity: 1;"></path><text style="font-size: 14px;" x="684.505" y="230.405">Gold Plus</text></g><g sprite-identifier="s90947" data-original-title="" cursor="pointer"><path fill="#050505" stroke="#000000" d="M 516.732 272.222 L 610.925 272.222 L 610.925 209.333 L 516.732 209.333 L 516.732 272.222 z" fill-opacity="0.19000000000000003" style="opacity: 1;"></path><text style="font-size: 20px;" x="563.828" y="245.778">C</text><circle cx="563.828" cy="210.778" fill="#f87a44" r="10" stroke="#000" stroke-width="2"></circle></g><g sprite-identifier="s81417"><path fill="#f1f1f1" stroke="#000000" d="M 610.925 203.743 L 610.925 140.855 L 516.732 140.855 L 516.732 203.743 L 610.925 203.743 z" fill-opacity="0.19000000000000003" style="opacity: 1;"></path><text style="font-size: 20px;" x="563.828" y="177.299">C1</text></g><g sprite-identifier="s81257" data-original-title="" cursor="pointer"><path fill="#050505" stroke="#000000" d="M 616.515 247.066 L 616.515 272.222 L 752.494 272.222 L 752.494 247.066 L 616.515 247.066 z" fill-opacity="0.19000000000000003" style="opacity: 1;"></path><text style="font-size: 20px;" x="684.505" y="264.644">B</text><circle cx="684.505" cy="229.644" fill="#f87a44" r="10" stroke="#000" stroke-width="2"></circle></g><g sprite-identifier="s81256" data-original-title="" cursor="pointer"><path fill="#050505" stroke="#000000" d="M 758.084 272.222 L 848.784 272.222 L 848.784 209.333 L 758.084 209.333 L 758.084 272.222 z" fill-opacity="0.19000000000000003" style="opacity: 1;"></path><text style="font-size: 20px;" x="803.434" y="245.778">A</text><circle cx="803.434" cy="210.778" fill="#f87a44" r="10" stroke="#000" stroke-width="2"></circle></g><g sprite-identifier="s109551" data-original-title="" cursor="pointer"><path fill="#050505" stroke="#000000" d="M 431.063 746.542 L 431.063 880.145 L 520.505 880.145 L 520.505 748.778 L 468.797 748.778 Q 449.231 748.778 431.063 746.542 z" fill-opacity="0.19000000000000003" style="opacity: 1;"></path><text style="font-size: 20px;" x="475.784" y="818.344">G</text><circle cx="475.784" cy="783.344" fill="#f0ad4e" r="10" stroke="#000" stroke-width="2"></circle></g><g sprite-identifier="s95643"><path fill="#f1f1f1" stroke="#000000" d="M 230.519 828.577 Q 271.047 851.356 315.907 864.353 L 360.488 729.213 Q 330.162 718.033 303.330 700.144 L 230.519 828.577 z" fill-opacity="0.19000000000000003" style="opacity: 1;"></path><text style="font-size: 20px;" x="295.504" y="787.249">F1</text></g><g sprite-identifier="s109550" data-original-title="" cursor="pointer"><path fill="#050505" stroke="#000000" d="M 526.095 880.145 L 608.130 880.145 L 608.130 748.778 L 526.095 748.778 L 526.095 880.145 z" fill-opacity="0.19000000000000003" style="opacity: 1;"></path><text style="font-size: 20px;" x="567.113" y="819.462">F</text><circle cx="567.113" cy="784.462" fill="#f0ad4e" r="10" stroke="#000" stroke-width="2"></circle></g><g sprite-identifier="s95642"><path fill="#f1f1f1" stroke="#000000" d="M 425.473 745.843 Q 394.588 741.511 365.659 731.309 L 321.358 865.751 Q 372.647 879.726 425.473 880.145 L 425.473 745.843 z" fill-opacity="0.19000000000000003" style="opacity: 1;"></path><text style="font-size: 20px;" x="373.416" y="810.727">E1</text></g><g sprite-identifier="s81255" data-original-title=""><path fill="#f1f1f1" stroke="#000000" d="M 998.599 730.750 Q 971.347 740.672 942.558 745.005 L 942.558 880.145 Q 995.524 879.027 1045.975 864.493 L 998.599 730.750 z" fill-opacity="0.19000000000000003" style="opacity: 1;"></path><text style="font-size: 20px;" x="994.266" y="810.448">D1</text></g><g sprite-identifier="s95641" data-original-title=""><path fill="#f1f1f1" stroke="#000000" d="M 1056.316 702.380 Q 1031.860 718.033 1003.909 728.793 L 1051.425 862.956 Q 1096.984 849.400 1138.211 825.223 L 1056.316 702.380 z" fill-opacity="0.19000000000000003" style="opacity: 1;"></path><text style="font-size: 20px;" x="1071.060" y="787.668">C1</text></g><g sprite-identifier="s95640" data-original-title="" cursor="pointer"><path fill="#050505" stroke="#000000" d="M 758.084 880.145 L 839.281 880.145 L 839.281 748.778 L 758.084 748.778 L 758.084 880.145 z" fill-opacity="0.19000000000000003" style="opacity: 1;"></path><text style="font-size: 20px;" x="798.683" y="819.462">C</text><circle cx="798.683" cy="784.462" fill="#f0ad4e" r="10" stroke="#000" stroke-width="2"></circle></g><g sprite-identifier="s95639" data-original-title="" cursor="pointer"><path fill="#050505" stroke="#000000" d="M 936.968 745.843 Q 915.865 748.778 894.203 748.778 L 844.871 748.778 L 844.871 880.145 L 936.968 880.145 L 936.968 745.843 z" fill-opacity="0.19000000000000003" style="opacity: 1;"></path><text style="font-size: 20px;" x="890.919" y="817.994">B</text><circle cx="890.919" cy="782.994" fill="#f0ad4e" r="10" stroke="#000" stroke-width="2"></circle></g><g sprite-identifier="s90946" data-original-title="" cursor="pointer"><path fill="#050505" stroke="#000000" d="M 613.720 748.778 L 613.720 823.266 L 680.102 823.266 L 680.102 748.778 L 613.720 748.778 z" fill-opacity="0.19000000000000003" style="opacity: 1;"></path><text style="font-size: 20px;" x="646.911" y="791.022">E</text><circle cx="646.911" cy="756.022" fill="#f0ad4e" r="10" stroke="#000" stroke-width="2"></circle></g><g sprite-identifier="s109549"><path fill="#f1f1f1" stroke="#000000" d="M 752.494 748.778 L 685.693 748.778 L 685.693 823.266 L 752.494 823.266 L 752.494 748.778 z" fill-opacity="0.19000000000000003" style="opacity: 1;"></path><text style="font-size: 20px;" x="719.093" y="791.022">D</text></g><g sprite-identifier="s90945"><path fill="#f1f1f1" stroke="#000000" d="M 53.452 407.502 L 203.407 451.245 Q 210.534 427.347 223.251 405.127 L 90.347 326.306 Q 66.589 365.157 53.452 407.502 z" fill-opacity="0.19000000000000003" style="opacity: 1;"></path><text style="font-size: 20px;" x="138.352" y="393.776">K2</text></g><g sprite-identifier="s90944"><path fill="#f1f1f1" stroke="#000000" d="M 194.882 513.155 L 194.882 510.500 Q 194.882 483.248 202.009 456.695 L 51.915 412.813 Q 37.940 460.748 37.940 510.500 L 37.940 513.155 L 194.882 513.155 z" fill-opacity="0.19000000000000003" style="opacity: 1;"></path><text style="font-size: 20px;" x="119.974" y="467.984">K1</text></g><g sprite-identifier="s95638"><path fill="#f1f1f1" stroke="#000000" d="M 37.940 518.745 Q 39.197 566.122 53.033 611.821 L 202.289 565.702 Q 196.000 542.643 195.021 518.745 L 37.940 518.745 z" fill-opacity="0.19000000000000003" style="opacity: 1;"></path><text style="font-size: 20px;" x="120.114" y="570.283">D</text></g><g sprite-identifier="s90943" data-original-title="" cursor="pointer"><path fill="#050505" stroke="#000000" d="M 203.826 571.013 L 54.710 617.131 Q 67.707 658.358 90.766 695.532 L 225.068 619.088 Q 211.372 596.029 203.826 571.013 z" fill-opacity="0.19000000000000003" style="opacity: 1;"></path><text style="font-size: 20px;" x="139.889" y="638.273">C</text><circle cx="139.889" cy="603.273" fill="#ffeb99" r="10" stroke="#000" stroke-width="2"></circle></g><g sprite-identifier="s81253" data-original-title="" cursor="pointer"><path fill="#050505" stroke="#000000" d="M 93.841 700.284 Q 114.384 732.567 141.496 760.378 L 260.985 665.346 Q 241.839 645.920 228.003 623.839 L 93.841 700.284 z" fill-opacity="0.19000000000000003" style="opacity: 1;"></path><text style="font-size: 20px;" x="177.413" y="697.108">B</text><circle cx="177.413" cy="662.108" fill="#a3d165" r="10" stroke="#000" stroke-width="2"></circle></g><g sprite-identifier="s95637" data-original-title="" cursor="pointer"><path fill="#050505" stroke="#000000" d="M 298.718 697.070 Q 280.829 684.632 264.898 669.399 L 145.409 764.430 Q 181.326 800.207 225.627 825.921 L 298.718 697.070 z" fill-opacity="0.19000000000000003" style="opacity: 1;"></path><text style="font-size: 20px;" x="222.064" y="752.660">A</text><circle cx="222.064" cy="717.66" fill="#a3d165" r="10" stroke="#000" stroke-width="2"></circle></g><g sprite-identifier="s90942" data-original-title=""><path fill="#f1f1f1" stroke="#000000" d="M 260.845 355.794 Q 280.131 336.368 303.609 320.856 L 227.863 193.961 Q 179.928 221.492 141.776 260.343 L 260.845 355.794 z" fill-opacity="0.19000000000000003" style="opacity: 1;"></path><text style="font-size: 20px;" x="222.692" y="279.877">B</text></g><g sprite-identifier="s109547"><path fill="#f1f1f1" stroke="#000000" d="M 138.002 264.396 Q 112.707 290.949 93.282 321.555 L 226.046 400.375 Q 239.043 378.853 257.072 359.847 L 138.002 264.396 z" fill-opacity="0.19000000000000003" style="opacity: 1;"></path><text style="font-size: 20px;" x="175.177" y="337.385">A</text></g><g sprite-identifier="s109545" data-original-title=""><path fill="#f1f1f1" stroke="#000000" d="M 1110.401 656.402 Q 1088.879 680.439 1060.928 699.166 L 1143.103 822.428 Q 1186.985 796.014 1222.063 759.819 L 1110.401 656.402 z" fill-opacity="0.19000000000000003" style="opacity: 1;"></path><text style="font-size: 20px;" x="1141.495" y="744.415">F</text></g><g sprite-identifier="s95636"><path fill="#f1f1f1" stroke="#000000" d="M 1152.187 590.438 Q 1138.491 623.700 1114.034 652.209 L 1225.836 755.766 Q 1268.880 710.067 1294.035 654.166 L 1152.187 590.438 z" fill-opacity="0.19000000000000003" style="opacity: 1;"></path><text style="font-size: 20px;" x="1204.035" y="678.102">E</text></g><g sprite-identifier="s90941" data-original-title=""><path fill="#f1f1f1" stroke="#000000" d="M 1292.079 362.502 Q 1268.600 312.051 1230.029 269.706 L 1119.904 375.779 Q 1138.770 399.676 1150.370 426.648 L 1292.079 362.502 z" fill-opacity="0.19000000000000003" style="opacity: 1;"></path><text style="font-size: 20px;" x="1205.991" y="353.177">B</text></g><g sprite-identifier="s109544"><path fill="#f1f1f1" stroke="#000000" d="M 1116.410 371.446 L 1226.255 265.654 Q 1189.081 226.104 1141.705 197.874 L 1063.444 323.651 Q 1093.770 344.334 1116.410 371.446 z" fill-opacity="0.19000000000000003" style="opacity: 1;"></path><text style="font-size: 20px;" x="1144.850" y="289.660">A</text></g><g sprite-identifier="s81251"><path fill="#f1f1f1" stroke="#000000" d="M 1167.979 516.789 Q 1166.861 552.146 1154.283 585.268 L 1296.411 649.135 Q 1323.803 585.547 1324.921 516.789 L 1167.979 516.789 z" fill-opacity="0.19000000000000003" style="opacity: 1;"></path><text style="font-size: 20px;" x="1239.602" y="587.962">D</text></g><g sprite-identifier="s95635" data-original-title=""><path fill="#f1f1f1" stroke="#000000" d="M 1325.060 511.199 L 1325.060 510.500 Q 1325.060 436.152 1294.315 367.673 L 1152.606 431.680 Q 1168.118 469.972 1168.118 510.500 L 1168.118 511.199 L 1325.060 511.199 z" fill-opacity="0.19000000000000003" style="opacity: 1;"></path><text style="font-size: 20px;" x="1238.833" y="444.436">C</text></g></g><defs><style type="text/css">.svg-pan-zoom-control {cursor:pointer; fill:white; fill-opacity:1; stroke-width:20; stroke:rgb(0,0,0);} .svg-pan-zoom-control-background {fill:grey;}</style></defs><g id="svg-pan-zoom-controls" transform="translate(-12 7) scale(0.75)" class="svg-pan-zoom-control"><g id="svg-pan-zoom-zoom-in" transform="translate(30.5 5) scale(0.015)" class="svg-pan-zoom-control"><rect x="100" y="100" width="1200" height="1200" class="svg-pan-zoom-control-background"></rect><path d="M1280 576v128q0 26 -19 45t-45 19h-320v320q0 26 -19 45t-45 19h-128q-26 0 -45 -19t-19 -45v-320h-320q-26 0 -45 -19t-19 -45v-128q0 -26 19 -45t45 -19h320v-320q0 -26 19 -45t45 -19h128q26 0 45 19t19 45v320h320q26 0 45 19t19 45zM1536 1120v-960 q0 -119 -84.5 -203.5t-203.5 -84.5h-960q-119 0 -203.5 84.5t-84.5 203.5v960q0 119 84.5 203.5t203.5 84.5h960q119 0 203.5 -84.5t84.5 -203.5z" class="svg-pan-zoom-control-element"></path></g><g id="svg-pan-zoom-zoom-out" transform="translate(30.5 40) scale(0.015)" class="svg-pan-zoom-control"><rect x="100" y="100" width="1200" height="1200" class="svg-pan-zoom-control-background"></rect><path d="M1280 576v128q0 26 -19 45t-45 19h-896q-26 0 -45 -19t-19 -45v-128q0 -26 19 -45t45 -19h896q26 0 45 19t19 45zM1536 1120v-960q0 -119 -84.5 -203.5t-203.5 -84.5h-960q-119 0 -203.5 84.5t-84.5 203.5v960q0 119 84.5 203.5t203.5 84.5h960q119 0 203.5 -84.5 t84.5 -203.5z" class="svg-pan-zoom-control-element"></path></g></g></svg>