<svg
            xmlns="http://www.w3.org/2000/svg" version="1.1" width="455" height="396"
            xmlns:xlink="http://www.w3.org/1999/xlink" xmlns:ev="http://www.w3.org/2001/xml-events"
            style="overflow: hidden; touch-action: none; user-select: none;">
            <g class="svg-pan-zoom_viewport"
                transform="matrix(0.3870510458946228,0,0,0.3870510458946228,-35.99079895019531,2.1941654682159424)">
                <g>
                    <path fill="#050505" stroke="#000000"
                        d="M 978.443 311.144 Q 978.443 305.427 975.072 301.470 Q 971.701 297.366 966.864 297.366 L 396.392 297.366 Q 391.408 297.366 388.183 301.470 Q 384.812 305.427 384.812 311.144 L 384.812 714.080 Q 384.812 719.650 388.183 723.754 Q 391.408 727.712 396.392 727.712 L 966.864 727.712 Q 971.701 727.712 975.072 723.754 Q 978.443 719.650 978.443 714.080 L 978.443 311.144 z"
                        fill-opacity="0.19000000000000003"></path>
                    <path stroke-width="1.8" fill="#050505" stroke="#000000"
                        d="M 977.052 308.361 L 977.052 711.298 Q 977.052 716.867 973.681 720.972 Q 970.309 724.929 965.472 724.929 L 395.000 724.929 Q 390.017 724.929 386.792 720.972 Q 383.421 716.867 383.421 711.298 L 383.421 308.361 Q 383.421 302.645 386.792 298.687 Q 390.017 294.583 395.000 294.583 L 965.472 294.583 Q 970.309 294.583 973.681 298.687 Q 977.052 302.645 977.052 308.361 z"
                        fill-opacity="0.19000000000000003"></path>
                    <path stroke-width="2.25" fill="#050505" stroke="#000000"
                        d="M 954.772 698.252 L 407.459 698.252 L 407.459 321.260 L 954.772 321.260 L 954.772 698.252 z"
                        fill-opacity="0.19000000000000003"></path>
                    <path stroke-width="2.25" fill="#050505" stroke="#000000" d="M 680.969 321.700 L 680.969 697.813"
                        fill-opacity="0.19000000000000003"></path>
                    <path stroke-width="2.25" fill="#050505" stroke="#000000"
                        d="M 724.942 509.756 Q 724.942 531.449 712.190 546.693 Q 699.291 562.084 680.969 562.084 Q 662.647 562.084 649.895 546.693 Q 636.996 531.449 636.996 509.756 Q 636.996 488.209 649.895 472.819 Q 662.647 457.575 680.969 457.575 Q 699.291 457.575 712.190 472.819 Q 724.942 488.209 724.942 509.756 z"
                        fill-opacity="0.19000000000000003"></path>
                    <path stroke-width="2.25" fill="#050505" stroke="#000000"
                        d="M 495.404 466.370 L 495.404 386.633 L 407.752 386.633 L 407.752 632.880 L 495.404 632.880 L 495.404 553.142"
                        fill-opacity="0.19000000000000003"></path>
                    <path stroke-width="2.25" fill="#050505" stroke="#000000"
                        d="M 495.404 466.370 L 495.404 553.142 Q 504.346 545.960 509.476 534.674 Q 514.752 523.094 514.752 509.756 Q 514.752 496.564 509.476 484.838 Q 504.346 473.552 495.404 466.370 z"
                        fill-opacity="0.19000000000000003"></path>
                    <path stroke-width="2.25" fill="#050505" stroke="#000000"
                        d="M 866.241 466.370 L 866.241 386.633 L 954.626 386.633 L 954.626 632.880 L 866.241 632.880 L 866.241 553.142"
                        fill-opacity="0.19000000000000003"></path>
                    <path stroke-width="2.25" fill="#050505" stroke="#000000"
                        d="M 866.241 466.370 L 866.241 553.142 Q 857.153 545.960 852.023 534.674 Q 846.600 523.094 846.600 509.756 Q 846.600 496.418 852.023 484.838 Q 857.153 473.552 866.241 466.370 z"
                        fill-opacity="0.19000000000000003"></path>
                    <path stroke-width="2.25" fill="#050505" stroke="#000000"
                        d="M 442.197 460.800 L 442.197 558.126 L 408.778 558.126 L 408.778 460.800 L 442.197 460.800 z"
                        fill-opacity="0.19000000000000003"></path>
                    <path stroke-width="2.25" fill="#050505" stroke="#000000"
                        d="M 953.014 558.126 L 919.594 558.126 L 919.594 460.800 L 953.014 460.800 L 953.014 558.126 z"
                        fill-opacity="0.19000000000000003"></path>
                </g>
                <g sprite-identifier="s1202447" data-original-title="" cursor="pointer">
                    <path fill="#050505" stroke="#000000"
                        d="M 387.912 753.353 L 971.500 753.353 L 971.500 845.353 L 387.912 845.353 z"
                        fill-opacity="0.19000000000000003" style="opacity: 1;"></path>
                    <path fill="#050505" stroke="#000000"
                        d="M 388.089 857.235 L 971.676 857.235 L 971.676 949.235 L 388.089 949.235 z"
                        fill-opacity="0.19000000000000003" style="opacity: 1;"></path><text style="font-size: 20px;"
                        x="679.794" y="804.294">Preferente</text>
                    <circle cx="679.794" cy="769.294" fill="#ffeb99" r="10" stroke="#000" stroke-width="2"></circle>
                </g>
                <g sprite-identifier="s1202448" data-original-title="" cursor="pointer">
                    <path fill="#050505" stroke="#000000"
                        d="M 151.765 69.452 L 351.765 69.452 L 351.765 950.783 L 151.765 950.783 z"
                        fill-opacity="0.19000000000000003" style="opacity: 1;"></path><text style="font-size: 20px;"
                        x="251.765" y="515.118">Gol Sure</text>
                    <circle cx="251.765" cy="480.11800000000005" fill="#a3d165" r="10" stroke="#000" stroke-width="2">
                    </circle>
                </g>
                <g sprite-identifier="s1202450" data-original-title="" cursor="pointer">
                    <path fill="#050505" stroke="#000000"
                        d="M 1009.588 68.167 L 1209.588 68.167 L 1209.588 663.715 L 1009.588 663.715 z"
                        fill-opacity="0.19000000000000003" style="opacity: 1;"></path><text style="font-size: 20px;"
                        x="1109.588" y="370.941">Gol Norte</text>
                    <circle cx="1109.588" cy="335.941" fill="#a3d165" r="10" stroke="#000" stroke-width="2"></circle>
                </g>
                <g sprite-identifier="s1202451" data-original-title="">
                    <path fill="#f1f1f1" stroke="#000000"
                        d="M 1009.765 671.618 L 1209.765 671.618 L 1209.765 948.617 L 1009.765 948.617 z"
                        fill-opacity="0.19000000000000003" style="opacity: 1;"></path><text style="font-size: 20px;"
                        x="1109.765" y="815.118">Sector Visitante</text>
                </g>
                <g sprite-identifier="s1202449" data-original-title="" cursor="pointer">
                    <path fill="#050505" stroke="#000000"
                        d="M 391.617 68.753 L 659.325 68.753 L 659.325 150.306 L 391.617 150.306 z"
                        fill-opacity="0.19000000000000003" style="opacity: 1;"></path>
                    <path fill="#050505" stroke="#000000"
                        d="M 699.734 68.517 L 967.442 68.517 L 967.442 150.071 L 699.734 150.071 z"
                        fill-opacity="0.19000000000000003" style="opacity: 1;"></path>
                    <path fill="#050505" stroke="#000000"
                        d="M 393.278 202.517 L 533.310 202.517 L 533.310 284.071 L 393.278 284.071 z"
                        fill-opacity="0.19000000000000003" style="opacity: 1;"></path>
                    <path fill="#050505" stroke="#000000"
                        d="M 537.984 202.341 L 678.016 202.341 L 678.016 283.894 L 537.984 283.894 z"
                        fill-opacity="0.19000000000000003" style="opacity: 1;"></path>
                    <path fill="#050505" stroke="#000000"
                        d="M 683.396 202.164 L 823.428 202.164 L 823.428 283.718 L 683.396 283.718 z"
                        fill-opacity="0.19000000000000003" style="opacity: 1;"></path>
                    <path fill="#050505" stroke="#000000"
                        d="M 828.925 201.988 L 968.957 201.988 L 968.957 283.541 L 828.925 283.541 z"
                        fill-opacity="0.19000000000000003" style="opacity: 1;"></path><text style="font-size: 20px;"
                        x="827.346" y="106.000">Tribuna</text><text style="font-size: 20px;" x="522.640"
                        y="109.529">Tribuna</text><text style="font-size: 20px;" x="615.581"
                        y="248.353">Tribuna</text><text style="font-size: 20px;" x="748.522" y="244.824">Tribuna</text>
                    <circle cx="827.346" cy="71" fill="#f0ad4e" r="10" stroke="#000" stroke-width="2"></circle>
                    <circle cx="522.640" cy="74.529" fill="#f0ad4e" r="10" stroke="#000" stroke-width="2"></circle>
                    <circle cx="615.581" cy="213.353" fill="#f0ad4e" r="10" stroke="#000" stroke-width="2"></circle>
                    <circle cx="748.522" cy="209.824" fill="#f0ad4e" r="10" stroke="#000" stroke-width="2"></circle>
                </g>
            </g>
            <defs>
                <style type="text/css">
                    .svg-pan-zoom-control {
                        cursor: pointer;
                        fill: white;
                        fill-opacity: 1;
                        stroke-width: 20;
                        stroke: rgb(0, 0, 0);
                    }

                    .svg-pan-zoom-control-background {
                        fill: grey;
                    }
                </style>
            </defs>
            <g id="svg-pan-zoom-controls" transform="translate(-12 7) scale(0.75)" class="svg-pan-zoom-control">
                <g id="svg-pan-zoom-zoom-in" transform="translate(30.5 5) scale(0.015)" class="svg-pan-zoom-control">
                    <rect x="100" y="100" width="1200" height="1200" class="svg-pan-zoom-control-background"></rect>
                    <path
                        d="M1280 576v128q0 26 -19 45t-45 19h-320v320q0 26 -19 45t-45 19h-128q-26 0 -45 -19t-19 -45v-320h-320q-26 0 -45 -19t-19 -45v-128q0 -26 19 -45t45 -19h320v-320q0 -26 19 -45t45 -19h128q26 0 45 19t19 45v320h320q26 0 45 19t19 45zM1536 1120v-960 q0 -119 -84.5 -203.5t-203.5 -84.5h-960q-119 0 -203.5 84.5t-84.5 203.5v960q0 119 84.5 203.5t203.5 84.5h960q119 0 203.5 -84.5t84.5 -203.5z"
                        class="svg-pan-zoom-control-element"></path>
                </g>
                <g id="svg-pan-zoom-zoom-out" transform="translate(30.5 40) scale(0.015)" class="svg-pan-zoom-control">
                    <rect x="100" y="100" width="1200" height="1200" class="svg-pan-zoom-control-background"></rect>
                    <path
                        d="M1280 576v128q0 26 -19 45t-45 19h-896q-26 0 -45 -19t-19 -45v-128q0 -26 19 -45t45 -19h896q26 0 45 19t19 45zM1536 1120v-960q0 -119 -84.5 -203.5t-203.5 -84.5h-960q-119 0 -203.5 84.5t-84.5 203.5v960q0 119 84.5 203.5t203.5 84.5h960q119 0 203.5 -84.5 t84.5 -203.5z"
                        class="svg-pan-zoom-control-element"></path>
                </g>
            </g>
        </svg>