<svg xmlns="http://www.w3.org/2000/svg" version="1.1" width="463" height="396"
        xmlns:xlink="http://www.w3.org/1999/xlink" xmlns:ev="http://www.w3.org/2001/xml-events"
        style="overflow: hidden; touch-action: none; user-select: none;">
        <g class="svg-pan-zoom_viewport"
            transform="matrix(0.3412787616252899,0,0,0.3412787616252899,-0.5013027787208557,25.064146041870117)">
            <g>
                <path fill="#050505" stroke="#000000"
                    d="M 1028.875 317.300 Q 1028.875 312.067 1024.987 308.179 Q 1020.950 304.441 1015.268 304.441 L 351.391 304.441 Q 345.709 304.441 341.821 308.179 Q 337.784 312.067 337.784 317.300 L 337.784 692.750 Q 337.784 697.983 341.821 701.721 Q 345.709 705.459 351.391 705.459 L 1015.268 705.459 Q 1020.950 705.459 1024.987 701.721 Q 1028.875 697.983 1028.875 692.750 L 1028.875 317.300 z"
                    fill-opacity="0.19000000000000003"></path>
                <path stroke-width="1.8" fill="#050505" stroke="#000000"
                    d="M 1030.051 317.300 L 1030.051 692.750 Q 1030.051 697.983 1026.164 701.721 Q 1022.127 705.459 1016.445 705.459 L 352.567 705.459 Q 346.885 705.459 342.998 701.721 Q 338.961 697.983 338.961 692.750 L 338.961 317.300 Q 338.961 312.067 342.998 308.179 Q 346.885 304.441 352.567 304.441 L 1016.445 304.441 Q 1022.127 304.441 1026.164 308.179 Q 1030.051 312.067 1030.051 317.300 z"
                    fill-opacity="0.19000000000000003"></path>
                <path stroke-width="2.25" fill="#050505" stroke="#000000"
                    d="M 1002.858 680.639 L 365.894 680.639 L 365.894 329.411 L 1002.858 329.411 L 1002.858 680.639 z"
                    fill-opacity="0.19000000000000003"></path>
                <path stroke-width="2.25" fill="#050505" stroke="#000000" d="M 684.376 329.710 L 684.376 680.339"
                    fill-opacity="0.19000000000000003"></path>
                <path stroke-width="2.25" fill="#050505" stroke="#000000"
                    d="M 720.411 470.560 Q 735.513 484.914 735.513 504.950 Q 735.513 525.136 720.411 539.490 Q 705.459 553.694 684.227 553.694 Q 662.994 553.694 648.042 539.490 Q 632.940 525.136 632.940 504.950 Q 632.940 484.914 648.042 470.560 Q 662.994 456.356 684.227 456.356 Q 705.459 456.356 720.411 470.560 z"
                    fill-opacity="0.19000000000000003"></path>
                <path stroke-width="2.25" fill="#050505" stroke="#000000"
                    d="M 468.167 464.579 L 468.167 390.267 L 366.193 390.267 L 366.193 619.783 L 468.167 619.783 L 468.167 545.471"
                    fill-opacity="0.19000000000000003"></path>
                <path stroke-width="2.25" fill="#050505" stroke="#000000"
                    d="M 468.167 464.579 L 468.167 545.471 Q 478.634 538.742 484.615 528.276 Q 490.895 517.510 490.895 504.950 Q 490.895 492.540 484.615 481.774 Q 478.634 471.308 468.167 464.579 z"
                    fill-opacity="0.19000000000000003"></path>
                <path stroke-width="2.25" fill="#050505" stroke="#000000"
                    d="M 899.987 464.579 L 899.987 390.267 L 1002.858 390.267 L 1002.858 619.783 L 899.987 619.783 L 899.987 545.471"
                    fill-opacity="0.19000000000000003"></path>
                <path stroke-width="2.25" fill="#050505" stroke="#000000"
                    d="M 899.987 464.579 L 899.987 545.471 Q 889.371 538.742 883.240 528.276 Q 876.960 517.360 876.960 504.950 Q 876.960 492.540 883.240 481.774 Q 889.371 471.308 899.987 464.579 z"
                    fill-opacity="0.19000000000000003"></path>
                <path stroke-width="2.25" fill="#050505" stroke="#000000"
                    d="M 406.415 459.495 L 406.415 550.106 L 367.389 550.106 L 367.389 459.495 L 406.415 459.495 z"
                    fill-opacity="0.19000000000000003"></path>
                <path stroke-width="2.25" fill="#050505" stroke="#000000"
                    d="M 1000.914 459.495 L 1000.914 550.106 L 961.889 550.106 L 961.889 459.495 L 1000.914 459.495 z"
                    fill-opacity="0.19000000000000003"></path>
            </g>
            <g sprite-identifier="s204495" data-original-title="">
                <path fill="#f1f1f1" stroke="#000000"
                    d="M 467.479 100.383 L 467.479 191.591 L 890.626 191.591 L 890.626 100.383 L 467.479 100.383 z"
                    fill-opacity="0.19000000000000003" style="opacity: 1;"></path><text style="font-size: 25px;"
                    x="679.052" y="150.987">B</text>
            </g>
            <g sprite-identifier="s98954" data-original-title="" cursor="pointer">
                <path fill="#050505" stroke="#000000"
                    d="M 614.309 1008.580 L 614.309 927.539 L 504.261 927.539 L 504.261 1008.580 L 614.309 1008.580 z"
                    fill-opacity="0.19000000000000003" style="opacity: 1;"></path><text style="font-size: 25px;"
                    x="559.285" y="973.059">9A</text>
                <circle cx="559.285" cy="935.559" fill="#ffeb99" r="10" stroke="#000" stroke-width="2"></circle>
            </g>
            <g sprite-identifier="s58503" data-original-title="" cursor="pointer">
                <path fill="#050505" stroke="#000000"
                    d="M 614.309 768.148 L 504.261 768.148 L 504.261 910.643 L 614.309 910.643 L 614.309 768.148 z"
                    fill-opacity="0.19000000000000003" style="opacity: 1;"></path><text style="font-size: 25px;"
                    x="559.285" y="844.396">9</text>
                <circle cx="559.285" cy="806.896" fill="#f87a44" r="10" stroke="#000" stroke-width="2"></circle>
            </g>
            <g sprite-identifier="s58502" data-original-title="" cursor="pointer">
                <path fill="#050505" stroke="#000000"
                    d="M 487.365 1008.580 L 487.365 927.539 L 381.055 927.539 L 381.055 1008.580 L 487.365 1008.580 z"
                    fill-opacity="0.19000000000000003" style="opacity: 1;"></path><text style="font-size: 25px;"
                    x="434.210" y="973.059">8A</text>
                <circle cx="434.210" cy="935.559" fill="#ffeb99" r="10" stroke="#000" stroke-width="2"></circle>
            </g>
            <g sprite-identifier="s57947" data-original-title="" cursor="pointer">
                <path fill="#050505" stroke="#000000"
                    d="M 69.302 711.778 L 69.302 801.342 Q 69.302 840.517 83.357 876.701 Q 97.561 912.886 124.176 941.743 L 187.275 878.645 Q 170.229 859.207 161.108 834.985 Q 152.137 810.912 152.137 784.895 L 152.137 711.778 L 69.302 711.778 z"
                    fill-opacity="0.19000000000000003" style="opacity: 1;"></path><text style="font-size: 25px;"
                    x="128.288" y="831.761">6A</text>
                <circle cx="128.288" cy="794.261" fill="#ffeb99" r="10" stroke="#000" stroke-width="2"></circle>
            </g>
            <g sprite-identifier="s58928" data-original-title="" cursor="pointer">
                <path fill="#050505" stroke="#000000"
                    d="M 306.145 727.030 L 306.145 711.778 L 168.883 711.778 L 168.883 784.895 Q 168.883 807.473 176.659 828.555 Q 184.434 849.638 199.087 866.683 L 314.368 751.551 Q 306.145 740.487 306.145 727.030 z"
                    fill-opacity="0.19000000000000003" style="opacity: 1;"></path><text style="font-size: 25px;"
                    x="241.626" y="768.231">6</text>
                <circle cx="241.626" cy="730.731" fill="#ffeb99" r="10" stroke="#000" stroke-width="2"></circle>
            </g>
            <g sprite-identifier="s98953" data-original-title="" cursor="pointer">
                <path fill="#050505" stroke="#000000"
                    d="M 306.145 695.032 L 306.145 576.013 L 168.883 576.013 L 168.883 695.032 L 306.145 695.032 z"
                    fill-opacity="0.19000000000000003" style="opacity: 1;"></path><text style="font-size: 25px;"
                    x="237.514" y="640.522">5</text>
                <circle cx="237.514" cy="603.022" fill="#a3d165" r="10" stroke="#000" stroke-width="2"></circle>
            </g>
            <g sprite-identifier="s58501" data-original-title="" cursor="pointer">
                <path fill="#050505" stroke="#000000"
                    d="M 152.137 449.068 L 69.302 449.068 L 69.302 559.117 L 152.137 559.117 L 152.137 449.068 z"
                    fill-opacity="0.19000000000000003" style="opacity: 1;"></path><text style="font-size: 25px;"
                    x="110.719" y="509.092">4A</text>
                <circle cx="110.719" cy="471.592" fill="#ffeb99" r="10" stroke="#000" stroke-width="2"></circle>
            </g>
            <g sprite-identifier="s58499" data-original-title="" cursor="pointer">
                <path fill="#050505" stroke="#000000"
                    d="M 127.765 73.619 Q 99.505 102.775 84.403 139.857 Q 69.302 177.088 69.302 217.758 L 69.302 290.874 L 152.137 290.874 L 152.137 226.879 Q 152.137 200.862 161.108 176.789 Q 170.229 152.566 187.275 133.128 L 127.765 73.619 z"
                    fill-opacity="0.19000000000000003" style="opacity: 1;"></path><text style="font-size: 25px;"
                    x="128.288" y="187.246">2A</text>
                <circle cx="128.288" cy="149.746" fill="#ffeb99" r="10" stroke="#000" stroke-width="2"></circle>
            </g>
            <g sprite-identifier="s58498" data-original-title="" cursor="pointer">
                <path fill="#050505" stroke="#000000"
                    d="M 478.244 84.235 L 478.244 10.520 L 364.608 10.520 L 364.608 84.235 L 478.244 84.235 z"
                    fill-opacity="0.19000000000000003" style="opacity: 1;"></path><text style="font-size: 25px;"
                    x="421.426" y="52.378">24A</text>
                <circle cx="421.426" cy="14.878" fill="#ffeb99" r="10" stroke="#000" stroke-width="2"></circle>
            </g>
            <g sprite-identifier="s58497" data-original-title="" cursor="pointer">
                <path fill="#050505" stroke="#000000"
                    d="M 478.244 206.245 L 451.181 206.245 L 451.181 101.131 L 364.608 101.131 L 364.608 240.186 L 478.244 240.186 L 478.244 206.245 z"
                    fill-opacity="0.19000000000000003" style="opacity: 1;"></path><text style="font-size: 25px;"
                    x="421.426" y="175.658">24</text>
                <circle cx="421.426" cy="138.158" fill="#ffeb99" r="10" stroke="#000" stroke-width="2"></circle>
            </g>
            <g sprite-identifier="s57944" data-original-title="" cursor="pointer">
                <path fill="#050505" stroke="#000000"
                    d="M 495.290 10.520 L 495.290 84.235 L 599.806 84.235 L 599.806 10.520 L 495.290 10.520 z"
                    fill-opacity="0.19000000000000003" style="opacity: 1;"></path><text style="font-size: 25px;"
                    x="547.548" y="52.378">23A</text>
                <circle cx="547.548" cy="14.878" fill="#f87a44" r="10" stroke="#000" stroke-width="2"></circle>
            </g>
            <g sprite-identifier="s57946" data-original-title="" cursor="pointer">
                <path fill="#050505" stroke="#000000"
                    d="M 152.137 695.032 L 152.137 576.013 L 69.302 576.013 L 69.302 695.032 L 152.137 695.032 z"
                    fill-opacity="0.19000000000000003" style="opacity: 1;"></path><text style="font-size: 25px;"
                    x="110.719" y="640.522">5A</text>
                <circle cx="110.719" cy="603.022" fill="#a3d165" r="10" stroke="#000" stroke-width="2"></circle>
            </g>
            <g sprite-identifier="s58495" data-original-title="" cursor="pointer">
                <path fill="#050505" stroke="#000000"
                    d="M 984.077 10.520 L 877.618 10.520 L 877.618 84.235 L 984.077 84.235 L 984.077 10.520 z"
                    fill-opacity="0.19000000000000003" style="opacity: 1;"></path><text style="font-size: 25px;"
                    x="930.847" y="52.378">20A</text>
                <circle cx="930.847" cy="14.878" fill="#ffeb99" r="10" stroke="#000" stroke-width="2"></circle>
            </g>
            <g sprite-identifier="s98950">
                <path fill="#f1f1f1" stroke="#000000"
                    d="M 750.823 10.520 L 750.823 84.235 L 860.722 84.235 L 860.722 10.520 L 750.823 10.520 z"
                    fill-opacity="0.19000000000000003" style="opacity: 1;"></path><text style="font-size: 25px;"
                    x="805.772" y="52.378">21A</text>
            </g>
            <g sprite-identifier="s58926">
                <path fill="#f1f1f1" stroke="#000000"
                    d="M 860.722 206.245 L 750.823 206.245 L 750.823 240.186 L 860.722 240.186 L 860.722 206.245 z"
                    fill-opacity="0.19000000000000003" style="opacity: 1;"></path><text style="font-size: 25px;"
                    x="805.772" y="228.215">21</text>
            </g>
            <g sprite-identifier="s58493" data-original-title="" cursor="pointer">
                <path fill="#050505" stroke="#000000"
                    d="M 1235.424 77.357 L 1178.605 134.175 Q 1195.202 153.463 1204.174 177.387 Q 1212.846 201.310 1212.846 226.879 L 1212.846 287.286 L 1290.298 287.286 L 1290.298 217.758 Q 1290.298 178.583 1276.243 142.399 Q 1262.039 106.214 1235.424 77.357 z"
                    fill-opacity="0.19000000000000003" style="opacity: 1;"></path><text style="font-size: 25px;"
                    x="1234.452" y="187.321">18A</text>
                <circle cx="1234.452" cy="149.821" fill="#f0ad4e" r="10" stroke="#000" stroke-width="2"></circle>
            </g>
            <g sprite-identifier="s98947">
                <path fill="#f1f1f1" stroke="#000000"
                    d="M 1083.061 10.520 L 1000.824 10.520 L 1000.824 84.235 L 1070.351 84.235 Q 1097.265 84.235 1122.236 93.954 Q 1147.056 103.673 1166.943 121.914 L 1223.462 65.395 Q 1194.754 38.780 1158.569 24.725 Q 1122.236 10.520 1083.061 10.520 z"
                    fill-opacity="0.19000000000000003" style="opacity: 1;"></path><text style="font-size: 25px;"
                    x="1112.143" y="58.217">19A</text>
            </g>
            <g sprite-identifier="s58925">
                <path fill="#f1f1f1" stroke="#000000"
                    d="M 1119.657 109.504 Q 1097.976 101.131 1074.351 101.131 L 1004.824 101.131 L 1004.824 240.186 L 1018.281 240.186 Q 1032.635 240.186 1043.699 249.157 L 1158.981 133.876 Q 1141.487 118.027 1119.657 109.504 z"
                    fill-opacity="0.19000000000000003" style="opacity: 1;"></path><text style="font-size: 25px;"
                    x="1048.902" y="179.144">19</text>
            </g>
            <g sprite-identifier="s57943">
                <path fill="#f1f1f1" stroke="#000000"
                    d="M 1290.298 549.996 L 1290.298 439.948 L 1212.846 439.948 L 1212.846 549.996 L 1290.298 549.996 z"
                    fill-opacity="0.19000000000000003" style="opacity: 1;"></path><text style="font-size: 25px;"
                    x="1251.572" y="499.972">16A</text>
            </g>
            <g sprite-identifier="s58924" data-original-title="" cursor="pointer">
                <path fill="#050505" stroke="#000000"
                    d="M 1196.099 439.948 L 1055.250 439.948 L 1055.250 549.996 L 1196.099 549.996 L 1196.099 439.948 z"
                    fill-opacity="0.19000000000000003" style="opacity: 1;"></path><text style="font-size: 25px;"
                    x="1125.675" y="499.972">16</text>
                <circle cx="1125.675" cy="462.472" fill="#a3d165" r="10" stroke="#000" stroke-width="2"></circle>
            </g>
            <g sprite-identifier="s58923">
                <path fill="#f1f1f1" stroke="#000000"
                    d="M 1290.298 691.294 L 1290.298 566.892 L 1212.846 566.892 L 1212.846 691.294 L 1290.298 691.294 z"
                    fill-opacity="0.19000000000000003" style="opacity: 1;"></path><text style="font-size: 25px;"
                    x="1251.572" y="634.093">15A</text>
            </g>
            <g sprite-identifier="s58922" data-original-title="" cursor="pointer">
                <path fill="#050505" stroke="#000000"
                    d="M 1196.099 691.294 L 1196.099 566.892 L 1055.250 566.892 L 1055.250 691.294 L 1196.099 691.294 z"
                    fill-opacity="0.19000000000000003" style="opacity: 1;"></path><text style="font-size: 25px;"
                    x="1125.675" y="634.093">15</text>
                <circle cx="1125.675" cy="596.593" fill="#a3d165" r="10" stroke="#000" stroke-width="2"></circle>
            </g>
            <g sprite-identifier="s98943">
                <path fill="#f1f1f1" stroke="#000000"
                    d="M 1055.250 708.339 L 1055.250 727.030 Q 1055.250 736.300 1051.213 744.823 L 1169.036 862.646 Q 1182.194 846.199 1189.221 826.163 Q 1196.099 806.127 1196.099 784.895 L 1196.099 708.339 L 1055.250 708.339 z"
                    fill-opacity="0.19000000000000003" style="opacity: 1;"></path><text style="font-size: 25px;"
                    x="1124.656" y="769.493">14</text>
            </g>
            <g sprite-identifier="s58921" data-original-title="" cursor="pointer">
                <path fill="#050505" stroke="#000000"
                    d="M 1000.375 768.148 L 886.738 768.148 L 886.738 910.643 L 1000.375 910.643 L 1000.375 768.148 z"
                    fill-opacity="0.19000000000000003" style="opacity: 1;"></path><text style="font-size: 25px;"
                    x="943.557" y="844.396">12</text>
                <circle cx="943.557" cy="806.896" fill="#f0ad4e" r="10" stroke="#000" stroke-width="2"></circle>
            </g>
            <g sprite-identifier="s57939" data-original-title="" cursor="pointer">
                <path fill="#050505" stroke="#000000"
                    d="M 869.842 927.539 L 765.327 927.539 L 765.327 1008.580 L 869.842 1008.580 L 869.842 927.539 z"
                    fill-opacity="0.19000000000000003" style="opacity: 1;"></path><text style="font-size: 25px;"
                    x="817.585" y="973.059">11A</text>
                <circle cx="817.585" cy="935.559" fill="#ffeb99" r="10" stroke="#000" stroke-width="2"></circle>
            </g>
            <g sprite-identifier="s57942" data-original-title="" cursor="pointer">
                <path fill="#050505" stroke="#000000"
                    d="M 1290.298 801.342 L 1290.298 708.339 L 1212.846 708.339 L 1212.846 784.895 Q 1212.846 809.416 1204.622 832.592 Q 1196.398 855.768 1180.998 874.757 L 1241.255 935.015 Q 1265.029 906.905 1277.738 872.515 Q 1290.298 837.975 1290.298 801.342 z"
                    fill-opacity="0.19000000000000003" style="opacity: 1;"></path><text style="font-size: 25px;"
                    x="1235.648" y="826.677">14A</text>
                <circle cx="1235.648" cy="789.177" fill="#f0ad4e" r="10" stroke="#000" stroke-width="2"></circle>
            </g>
            <g sprite-identifier="s57949" data-original-title="" cursor="pointer">
                <path fill="#050505" stroke="#000000"
                    d="M 487.365 768.148 L 381.055 768.148 L 381.055 910.643 L 487.365 910.643 L 487.365 768.148 z"
                    fill-opacity="0.19000000000000003" style="opacity: 1;"></path><text style="font-size: 25px;"
                    x="434.210" y="844.396">8</text>
                <circle cx="434.210" cy="806.896" fill="#ffeb99" r="10" stroke="#000" stroke-width="2"></circle>
            </g>
            <g sprite-identifier="s58492" data-original-title="" cursor="pointer">
                <path fill="#050505" stroke="#000000"
                    d="M 869.842 768.148 L 765.327 768.148 L 765.327 910.643 L 869.842 910.643 L 869.842 768.148 z"
                    fill-opacity="0.19000000000000003" style="opacity: 1;"></path><text style="font-size: 25px;"
                    x="817.585" y="844.396">11</text>
                <circle cx="817.585" cy="806.896" fill="#f0ad4e" r="10" stroke="#000" stroke-width="2"></circle>
            </g>
            <g sprite-identifier="s57938" data-original-title="" cursor="pointer">
                <path fill="#050505" stroke="#000000"
                    d="M 748.431 1008.580 L 748.431 927.539 L 631.205 927.539 L 631.205 1008.580 L 748.431 1008.580 z"
                    fill-opacity="0.19000000000000003" style="opacity: 1;"></path><text style="font-size: 25px;"
                    x="689.818" y="973.059">10A</text>
                <circle cx="689.818" cy="935.559" fill="#ffeb99" r="10" stroke="#000" stroke-width="2"></circle>
            </g>
            <g sprite-identifier="s57948" data-original-title="">
                <path fill="#f1f1f1" stroke="#000000"
                    d="M 364.159 767.999 L 347.263 767.999 Q 336.498 767.999 327.078 762.616 L 211.049 878.795 Q 228.393 894.195 249.924 902.419 Q 271.455 910.643 294.631 910.643 L 364.159 910.643 L 364.159 767.999 z"
                    fill-opacity="0.19000000000000003" style="opacity: 1;"></path><text style="font-size: 25px;"
                    x="310.604" y="843.629">7</text>
            </g>
            <g sprite-identifier="s57945" data-original-title="" cursor="pointer">
                <path fill="#050505" stroke="#000000"
                    d="M 306.145 559.117 L 306.145 449.068 L 168.883 449.068 L 168.883 559.117 L 306.145 559.117 z"
                    fill-opacity="0.19000000000000003" style="opacity: 1;"></path><text style="font-size: 25px;"
                    x="237.514" y="509.092">4</text>
                <circle cx="237.514" cy="471.592" fill="#ffeb99" r="10" stroke="#000" stroke-width="2"></circle>
            </g>
            <g sprite-identifier="s98952" data-original-title="" cursor="pointer">
                <path fill="#050505" stroke="#000000"
                    d="M 152.137 432.172 L 152.137 307.621 L 69.302 307.621 L 69.302 432.172 L 152.137 432.172 z"
                    fill-opacity="0.19000000000000003" style="opacity: 1;"></path><text style="font-size: 25px;"
                    x="110.719" y="374.896">3A</text>
                <circle cx="110.719" cy="337.396" fill="#ffeb99" r="10" stroke="#000" stroke-width="2"></circle>
            </g>
            <g sprite-identifier="s58927" data-original-title="">
                <path fill="#f1f1f1" stroke="#000000"
                    d="M 733.927 84.235 L 733.927 10.520 L 616.552 10.520 L 616.552 84.235 L 733.927 84.235 z"
                    fill-opacity="0.19000000000000003" style="opacity: 1;"></path><text style="font-size: 25px;"
                    x="675.240" y="52.378">22A</text>
            </g>
            <g sprite-identifier="s98951">
                <path fill="#f1f1f1" stroke="#000000"
                    d="M 599.806 206.245 L 495.290 206.245 L 495.290 240.186 L 599.806 240.186 L 599.806 206.245 z"
                    fill-opacity="0.19000000000000003" style="opacity: 1;"></path><text style="font-size: 25px;"
                    x="547.548" y="228.215">23</text>
            </g>
            <g sprite-identifier="s58500" data-original-title="" cursor="pointer">
                <path fill="#050505" stroke="#000000"
                    d="M 306.145 432.172 L 306.145 307.621 L 168.883 307.621 L 168.883 432.172 L 306.145 432.172 z"
                    fill-opacity="0.19000000000000003" style="opacity: 1;"></path><text style="font-size: 25px;"
                    x="237.514" y="374.896">3</text>
                <circle cx="237.514" cy="337.396" fill="#ffeb99" r="10" stroke="#000" stroke-width="2"></circle>
            </g>
            <g sprite-identifier="s98948" data-original-title="" cursor="pointer">
                <path fill="#050505" stroke="#000000"
                    d="M 199.087 145.090 Q 184.434 162.136 176.659 183.218 Q 168.883 204.301 168.883 226.879 L 168.883 290.874 L 306.145 290.874 L 306.145 281.155 Q 306.145 268.894 312.873 258.727 L 199.087 145.090 z"
                    fill-opacity="0.19000000000000003" style="opacity: 1;"></path><text style="font-size: 25px;"
                    x="233.878" y="247.982">2</text>
                <circle cx="233.878" cy="210.482" fill="#f0ad4e" r="10" stroke="#000" stroke-width="2"></circle>
            </g>
            <g sprite-identifier="s98949">
                <path fill="#f1f1f1" stroke="#000000"
                    d="M 904.831 206.245 L 877.618 206.245 L 877.618 240.186 L 984.077 240.186 L 984.077 101.131 L 904.831 101.131 L 904.831 206.245 z"
                    fill-opacity="0.19000000000000003" style="opacity: 1;"></path><text style="font-size: 25px;"
                    x="930.847" y="175.658">20</text>
            </g>
            <g sprite-identifier="s98946" data-original-title="">
                <path fill="#f1f1f1" stroke="#000000"
                    d="M 1188.474 183.816 Q 1180.998 163.033 1166.644 146.137 L 1050.615 262.166 Q 1055.250 271.137 1055.250 281.155 L 1055.250 287.286 L 1196.099 287.286 L 1196.099 226.879 Q 1196.099 204.600 1188.474 183.816 z"
                    fill-opacity="0.19000000000000003" style="opacity: 1;"></path><text style="font-size: 25px;"
                    x="1127.357" y="248.711">18</text>
            </g>
            <g sprite-identifier="s58494" data-original-title="" cursor="pointer">
                <path fill="#050505" stroke="#000000"
                    d="M 347.861 10.520 L 276.539 10.520 Q 238.710 10.520 203.572 23.828 Q 168.285 36.986 139.876 61.956 L 199.087 121.167 Q 218.674 103.224 243.345 93.804 Q 268.016 84.235 294.631 84.235 L 347.861 84.235 L 347.861 10.520 z"
                    fill-opacity="0.19000000000000003" style="opacity: 1;"></path><text style="font-size: 25px;"
                    x="243.869" y="55.843">1A</text>
                <circle cx="243.869" cy="18.343000000000004" fill="#ffeb99" r="10" stroke="#000" stroke-width="2">
                </circle>
            </g>
            <g sprite-identifier="s58496">
                <path fill="#f1f1f1" stroke="#000000"
                    d="M 733.927 206.245 L 616.552 206.245 L 616.552 240.186 L 733.927 240.186 L 733.927 206.245 z"
                    fill-opacity="0.19000000000000003" style="opacity: 1;"></path><text style="font-size: 25px;"
                    x="675.240" y="228.215">22</text>
            </g>
            <g sprite-identifier="s98945">
                <path fill="#f1f1f1" stroke="#000000"
                    d="M 1290.298 423.052 L 1290.298 304.032 L 1212.846 304.032 L 1212.846 423.052 L 1290.298 423.052 z"
                    fill-opacity="0.19000000000000003" style="opacity: 1;"></path><text style="font-size: 25px;"
                    x="1251.572" y="368.542">17A</text>
            </g>
            <g sprite-identifier="s57941" data-original-title="" cursor="pointer">
                <path fill="#050505" stroke="#000000"
                    d="M 1169.784 887.168 Q 1149.598 906.755 1124.030 917.072 Q 1098.462 927.539 1070.351 927.539 L 1017.271 927.539 L 1017.271 1008.580 L 1083.061 1008.580 Q 1124.777 1008.580 1162.756 992.730 Q 1200.436 977.030 1230.041 947.425 L 1169.784 887.168 z"
                    fill-opacity="0.19000000000000003" style="opacity: 1;"></path><text style="font-size: 25px;"
                    x="1123.656" y="963.874">13A</text>
                <circle cx="1123.656" cy="926.374" fill="#f0ad4e" r="10" stroke="#000" stroke-width="2"></circle>
            </g>
            <g sprite-identifier="s57940">
                <path fill="#f1f1f1" stroke="#000000"
                    d="M 1040.746 758.280 Q 1030.429 766.952 1017.271 767.849 L 1017.271 910.643 L 1070.351 910.643 Q 1095.023 910.643 1117.600 901.522 Q 1140.178 892.401 1157.822 875.206 L 1040.746 758.280 z"
                    fill-opacity="0.19000000000000003" style="opacity: 1;"></path><text style="font-size: 25px;"
                    x="1057.546" y="839.461">13</text>
            </g>
            <g sprite-identifier="s98942" data-original-title="" cursor="pointer">
                <path fill="#050505" stroke="#000000"
                    d="M 1000.375 1008.580 L 1000.375 927.539 L 886.738 927.539 L 886.738 1008.580 L 1000.375 1008.580 z"
                    fill-opacity="0.19000000000000003" style="opacity: 1;"></path><text style="font-size: 25px;"
                    x="943.557" y="973.059">12A</text>
                <circle cx="943.557" cy="935.559" fill="#ffeb99" r="10" stroke="#000" stroke-width="2"></circle>
            </g>
            <g sprite-identifier="s98944" data-original-title="" cursor="pointer">
                <path fill="#050505" stroke="#000000"
                    d="M 1196.099 423.052 L 1196.099 304.032 L 1055.250 304.032 L 1055.250 423.052 L 1196.099 423.052 z"
                    fill-opacity="0.19000000000000003" style="opacity: 1;"></path><text style="font-size: 25px;"
                    x="1125.675" y="368.542">17</text>
                <circle cx="1125.675" cy="331.042" fill="#a3d165" r="10" stroke="#000" stroke-width="2"></circle>
            </g>
            <g sprite-identifier="s58929" data-original-title="">
                <path fill="#f1f1f1" stroke="#000000"
                    d="M 364.159 927.539 L 294.631 927.539 Q 268.016 927.539 243.345 917.969 Q 218.674 908.549 199.087 890.756 L 136.138 953.556 Q 164.846 980.170 201.031 994.375 Q 237.364 1008.580 276.539 1008.580 L 364.159 1008.580 L 364.159 927.539 z"
                    fill-opacity="0.19000000000000003" style="opacity: 1;"></path><text style="font-size: 25px;"
                    x="250.149" y="969.668">7A</text>
            </g>
            <g sprite-identifier="s58491" data-original-title="">
                <path fill="#f1f1f1" stroke="#000000"
                    d="M 294.631 106.131 Q 271.455 106.131 249.924 114.354 Q 228.393 122.578 211.049 137.979 L 324.835 251.765 Q 335.152 245.186 347.263 245.186 L 347.861 245.186 L 347.861 106.131 L 294.631 106.131 z"
                    fill-opacity="0.19000000000000003" style="opacity: 1;"></path><text style="font-size: 25px;"
                    x="299.455" y="180.948">1</text>
            </g>
            <g sprite-identifier="s57937" data-original-title="" cursor="pointer">
                <path fill="#050505" stroke="#000000"
                    d="M 748.431 768.148 L 631.205 768.148 L 631.205 910.643 L 748.431 910.643 L 748.431 768.148 z"
                    fill-opacity="0.19000000000000003" style="opacity: 1;"></path><text style="font-size: 25px;"
                    x="689.818" y="844.396">10</text>
                <circle cx="689.818" cy="806.896" fill="#f0ad4e" r="10" stroke="#000" stroke-width="2"></circle>
            </g>
        </g>
        <defs>
            <style type="text/css">
                .svg-pan-zoom-control {
                    cursor: pointer;
                    fill: white;
                    fill-opacity: 1;
                    stroke-width: 20;
                    stroke: rgb(0, 0, 0);
                }

                .svg-pan-zoom-control-background {
                    fill: grey;
                }
            </style>
        </defs>
        <g id="svg-pan-zoom-controls" transform="translate(-12 7) scale(0.75)" class="svg-pan-zoom-control">
            <g id="svg-pan-zoom-zoom-in" transform="translate(30.5 5) scale(0.015)" class="svg-pan-zoom-control">
                <rect x="100" y="100" width="1200" height="1200" class="svg-pan-zoom-control-background"></rect>
                <path
                    d="M1280 576v128q0 26 -19 45t-45 19h-320v320q0 26 -19 45t-45 19h-128q-26 0 -45 -19t-19 -45v-320h-320q-26 0 -45 -19t-19 -45v-128q0 -26 19 -45t45 -19h320v-320q0 -26 19 -45t45 -19h128q26 0 45 19t19 45v320h320q26 0 45 19t19 45zM1536 1120v-960 q0 -119 -84.5 -203.5t-203.5 -84.5h-960q-119 0 -203.5 84.5t-84.5 203.5v960q0 119 84.5 203.5t203.5 84.5h960q119 0 203.5 -84.5t84.5 -203.5z"
                    class="svg-pan-zoom-control-element"></path>
            </g>
            <g id="svg-pan-zoom-zoom-out" transform="translate(30.5 40) scale(0.015)" class="svg-pan-zoom-control">
                <rect x="100" y="100" width="1200" height="1200" class="svg-pan-zoom-control-background"></rect>
                <path
                    d="M1280 576v128q0 26 -19 45t-45 19h-896q-26 0 -45 -19t-19 -45v-128q0 -26 19 -45t45 -19h896q26 0 45 19t19 45zM1536 1120v-960q0 -119 -84.5 -203.5t-203.5 -84.5h-960q-119 0 -203.5 84.5t-84.5 203.5v960q0 119 84.5 203.5t203.5 84.5h960q119 0 203.5 -84.5 t84.5 -203.5z"
                    class="svg-pan-zoom-control-element"></path>
            </g>
        </g>
    </svg>