<svg xmlns="http://www.w3.org/2000/svg" version="1.1"
        style="overflow: hidden; touch-action: none; user-select: none;" width="455" height="396"
        xmlns:xlink="http://www.w3.org/1999/xlink" xmlns:ev="http://www.w3.org/2001/xml-events">
        <g class="svg-pan-zoom_viewport"
            transform="matrix(0.3195120096206665,0,0,0.3195120096206665,15.751673698425293,34.82952880859375)">
            <g>
                <path stroke="#000000" fill="#050505"
                    d="M 1042.526 279.924 Q 1038.268 276.053 1032.460 276.053 L 322.833 276.053 Q 316.833 276.053 312.767 279.924 Q 308.509 283.989 308.509 289.602 L 308.509 690.872 Q 308.509 696.294 312.767 700.551 Q 316.833 704.423 322.833 704.423 L 1032.460 704.423 Q 1038.268 704.423 1042.526 700.551 Q 1046.785 696.294 1046.785 690.872 L 1046.785 289.602 Q 1046.785 283.989 1042.526 279.924 z"
                    fill-opacity="0.19000000000000003"></path>
                <path stroke-width="1.8" stroke="#000000" fill="#050505"
                    d="M 1042.526 279.924 Q 1046.785 283.989 1046.785 289.602 L 1046.785 690.872 Q 1046.785 696.294 1042.526 700.551 Q 1038.268 704.423 1032.460 704.423 L 322.833 704.423 Q 316.833 704.423 312.767 700.551 Q 308.509 696.294 308.509 690.872 L 308.509 289.602 Q 308.509 283.989 312.767 279.924 Q 316.833 276.053 322.833 276.053 L 1032.460 276.053 Q 1038.268 276.053 1042.526 279.924 z"
                    fill-opacity="0.19000000000000003"></path>
                <path stroke-width="2.25" stroke="#000000" fill="#050505"
                    d="M 1018.911 677.903 L 338.319 677.903 L 338.319 302.378 L 1018.911 302.378 L 1018.911 677.903 z"
                    fill-opacity="0.19000000000000003"></path>
                <path stroke-width="2.25" stroke="#000000" fill="#050505" d="M 678.615 302.959 L 678.615 677.517"
                    fill-opacity="0.19000000000000003"></path>
                <path stroke-width="2.25" stroke="#000000" fill="#050505"
                    d="M 717.329 453.362 Q 733.396 468.655 733.396 490.141 Q 733.396 511.626 717.329 526.919 Q 701.263 542.211 678.615 542.211 Q 655.967 542.211 639.901 526.919 Q 623.641 511.626 623.641 490.141 Q 623.641 468.655 639.901 453.362 Q 655.967 438.071 678.615 438.071 Q 701.263 438.071 717.329 453.362 z"
                    fill-opacity="0.19000000000000003"></path>
                <path stroke-width="2.25" stroke="#000000" fill="#050505"
                    d="M 447.686 446.974 L 447.686 367.611 L 338.900 367.611 L 338.900 612.670 L 447.686 612.670 L 447.686 533.307"
                    fill-opacity="0.19000000000000003"></path>
                <path stroke-width="2.25" stroke="#000000" fill="#050505"
                    d="M 447.686 446.974 L 447.686 533.307 Q 458.913 526.339 465.301 514.918 Q 472.075 503.497 472.075 490.141 Q 472.075 476.978 465.301 465.365 Q 458.913 454.137 447.686 446.974 z"
                    fill-opacity="0.19000000000000003"></path>
                <path stroke-width="2.25" stroke="#000000" fill="#050505"
                    d="M 908.963 446.974 L 908.963 367.611 L 1018.911 367.611 L 1018.911 612.670 L 908.963 612.670 L 908.963 533.307"
                    fill-opacity="0.19000000000000003"></path>
                <path stroke-width="2.25" stroke="#000000" fill="#050505"
                    d="M 908.963 446.974 L 908.963 533.307 Q 897.736 526.339 891.155 514.918 Q 884.379 503.497 884.379 490.141 Q 884.379 476.978 891.155 465.365 Q 897.736 454.137 908.963 446.974 z"
                    fill-opacity="0.19000000000000003"></path>
                <path stroke-width="2.25" stroke="#000000" fill="#050505"
                    d="M 381.678 441.554 L 381.678 538.533 L 340.061 538.533 L 340.061 441.554 L 381.678 441.554 z"
                    fill-opacity="0.19000000000000003"></path>
                <path stroke-width="2.25" stroke="#000000" fill="#050505"
                    d="M 1016.976 441.554 L 1016.976 538.533 L 975.164 538.533 L 975.164 441.554 L 1016.976 441.554 z"
                    fill-opacity="0.19000000000000003"></path>
            </g>
            <g sprite-identifier="s69147">
                <path stroke="#000000" fill="#f1f1f1"
                    d="M 1094.762 831.402 L 1138.981 966.235 Q 1220.026 935.499 1266.275 874.172 L 1094.762 831.402 M 1058.516 979.719 Q 1095.197 978.269 1127.528 970.005 L 1081.133 829.662 L 932.382 839.231 L 932.382 979.719 L 1058.516 979.719 M 1049.527 735.859 Q 1038.074 741.948 1025.315 741.948 L 933.686 741.948 L 933.686 826.473 L 1076.059 816.469 L 1049.527 735.859 z"
                    fill-opacity="0.19000000000000003" style="opacity: 1;"></path><text style="font-size: 32px;"
                    x="993.446" y="791.024">W</text>
            </g>
            <g sprite-identifier="s101715" data-original-title="" cursor="pointer">
                <path stroke="#000000" fill="#050505"
                    d="M 1073.594 708.457 Q 1069.680 719.041 1061.416 727.160 L 1090.847 816.469 L 1273.814 862.573 Q 1297.881 827.053 1309.335 785.733 L 1073.594 708.457 z"
                    fill-opacity="0.19000000000000003" style="opacity: 1;"></path><text style="font-size: 32px;"
                    x="1193.375" y="804.515">V</text>
                <circle cx="1193.375" cy="763.515" fill="#f0ad4e" r="10" stroke="#000" stroke-width="2"></circle>
            </g>
            <g sprite-identifier="s101714" data-original-title="" cursor="pointer">
                <path stroke="#000000" fill="#050505"
                    d="M 1319.194 714.547 L 1319.194 668.442 L 1076.929 668.442 L 1076.929 690.190 Q 1076.929 691.494 1076.639 694.829 L 1312.815 772.104 Q 1319.194 743.833 1319.194 714.547 z"
                    fill-opacity="0.19000000000000003" style="opacity: 1;"></path><text style="font-size: 32px;"
                    x="1197.916" y="711.273">U</text>
                <circle cx="1197.916" cy="670.273" fill="#f0ad4e" r="10" stroke="#000" stroke-width="2"></circle>
            </g>
            <g sprite-identifier="s69907" data-original-title="" cursor="pointer">
                <path stroke="#000000" fill="#050505"
                    d="M 1319.194 595.951 L 1319.194 504.902 L 1076.929 504.902 L 1076.929 595.951 L 1319.194 595.951 z"
                    fill-opacity="0.19000000000000003" style="opacity: 1;"></path><text style="font-size: 32px;"
                    x="1198.061" y="555.427">S2</text>
                <circle cx="1198.061" cy="514.427" fill="#a3d165" r="10" stroke="#000" stroke-width="2"></circle>
            </g>
            <g sprite-identifier="s63573" data-original-title="" cursor="pointer">
                <path stroke="#000000" fill="#050505"
                    d="M 1319.194 654.379 L 1319.194 610.014 L 1076.929 610.014 L 1076.929 654.379 L 1319.194 654.379 z"
                    fill-opacity="0.19000000000000003" style="opacity: 1;"></path><text style="font-size: 32px;"
                    x="1198.061" y="642.197">T</text>
                <circle cx="1198.061" cy="601.197" fill="#f0ad4e" r="10" stroke="#000" stroke-width="2"></circle>
            </g>
            <g sprite-identifier="s63572" data-original-title="" cursor="pointer">
                <path stroke="#000000" fill="#050505"
                    d="M 1319.194 490.839 L 1319.194 389.062 L 1076.929 389.062 L 1076.929 490.839 L 1319.194 490.839 z"
                    fill-opacity="0.19000000000000003" style="opacity: 1;"></path><text style="font-size: 32px;"
                    x="1198.061" y="444.950">S1</text>
                <circle cx="1198.061" cy="403.95" fill="#ffeb99" r="10" stroke="#000" stroke-width="2"></circle>
            </g>
            <g sprite-identifier="s101713" data-original-title="" cursor="pointer">
                <path stroke="#000000" fill="#050505"
                    d="M 1319.194 374.998 L 1319.194 324.545 L 1076.929 324.545 L 1076.929 374.998 L 1319.194 374.998 z"
                    fill-opacity="0.19000000000000003" style="opacity: 1;"></path><text style="font-size: 32px;"
                    x="1198.061" y="354.772">R</text>
                <circle cx="1198.061" cy="313.772" fill="#f0ad4e" r="10" stroke="#000" stroke-width="2"></circle>
            </g>
            <g sprite-identifier="s69906" data-original-title="" cursor="pointer">
                <path stroke="#000000" fill="#050505"
                    d="M 1319.194 310.626 L 1319.194 306.857 Q 1319.194 256.983 1301.216 211.024 L 1075.044 273.366 Q 1076.929 280.180 1076.929 287.284 L 1076.929 310.626 L 1319.194 310.626 z"
                    fill-opacity="0.19000000000000003" style="opacity: 1;"></path><text style="font-size: 32px;"
                    x="1197.119" y="278.825">Q</text>
                <circle cx="1197.119" cy="237.825" fill="#f0ad4e" r="10" stroke="#000" stroke-width="2"></circle>
            </g>
            <g sprite-identifier="s69146" data-original-title="" cursor="pointer">
                <path stroke="#000000" fill="#050505"
                    d="M 1266.420 148.391 Q 1249.022 125.049 1227.130 106.202 L 1061.126 250.314 Q 1065.620 254.518 1069.390 260.318 L 1295.707 197.975 Q 1283.963 171.734 1266.420 148.391 z"
                    fill-opacity="0.19000000000000003" style="opacity: 1;"></path><text style="font-size: 32px;"
                    x="1178.416" y="195.319">P</text>
                <circle cx="1178.416" cy="154.319" fill="#f0ad4e" r="10" stroke="#000" stroke-width="2"></circle>
            </g>
            <g sprite-identifier="s63570" data-original-title="" cursor="pointer">
                <path stroke="#000000" fill="#050505"
                    d="M 1042.278 41.685 L 933.686 41.685 L 933.686 235.671 L 1025.315 235.671 Q 1034.159 235.671 1042.278 238.425 L 1042.278 41.685 z"
                    fill-opacity="0.19000000000000003" style="opacity: 1;"></path><text style="font-size: 32px;"
                    x="987.982" y="145.055">N</text>
                <circle cx="987.982" cy="104.055" fill="#f0ad4e" r="10" stroke="#000" stroke-width="2"></circle>
            </g>
            <g sprite-identifier="s63571">
                <path stroke="#000000" fill="#f1f1f1"
                    d="M 1216.112 97.213 Q 1181.461 70.391 1140.866 56.183 Q 1100.126 42.120 1056.196 41.685 L 1056.196 235.961 L 1216.112 97.213 z"
                    fill-opacity="0.19000000000000003" style="opacity: 1;"></path><text style="font-size: 32px;"
                    x="1106.742" y="150.881">O</text>
            </g>
            <g sprite-identifier="s69905" data-original-title="" cursor="pointer">
                <path stroke="#000000" fill="#050505"
                    d="M 919.623 41.685 L 811.032 41.685 L 811.032 235.671 L 919.623 235.671 L 919.623 41.685 z"
                    fill-opacity="0.19000000000000003" style="opacity: 1;"></path><text style="font-size: 32px;"
                    x="865.327" y="143.678">M</text>
                <circle cx="865.327" cy="102.678" fill="#f0ad4e" r="10" stroke="#000" stroke-width="2"></circle>
            </g>
            <g sprite-identifier="s69145" data-original-title="" cursor="pointer">
                <path stroke="#000000" fill="#050505"
                    d="M 796.968 41.685 L 688.377 41.685 L 688.377 235.671 L 796.968 235.671 L 796.968 41.685 z"
                    fill-opacity="0.19000000000000003" style="opacity: 1;"></path><text style="font-size: 32px;"
                    x="742.673" y="143.678">L</text>
                <circle cx="742.673" cy="102.678" fill="#f0ad4e" r="10" stroke="#000" stroke-width="2"></circle>
            </g>
            <g sprite-identifier="s63568" data-original-title="" cursor="pointer">
                <path stroke="#000000" fill="#050505"
                    d="M 674.314 41.685 L 565.722 41.685 L 565.722 235.671 L 674.314 235.671 L 674.314 41.685 z"
                    fill-opacity="0.19000000000000003" style="opacity: 1;"></path><text style="font-size: 32px;"
                    x="620.018" y="143.678">K</text>
                <circle cx="620.018" cy="102.678" fill="#f87a44" r="10" stroke="#000" stroke-width="2"></circle>
            </g>
            <g sprite-identifier="s101712" data-original-title="" cursor="pointer">
                <path stroke="#000000" fill="#050505"
                    d="M 551.659 41.685 L 443.067 41.685 L 443.067 235.671 L 551.659 235.671 L 551.659 41.685 z"
                    fill-opacity="0.19000000000000003" style="opacity: 1;"></path><text style="font-size: 32px;"
                    x="497.363" y="143.678">J</text>
                <circle cx="497.363" cy="102.678" fill="#f0ad4e" r="10" stroke="#000" stroke-width="2"></circle>
            </g>
            <g sprite-identifier="s69904" data-original-title="" cursor="pointer">
                <path stroke="#000000" fill="#050505"
                    d="M 429.004 41.685 L 320.412 41.685 L 320.412 235.671 L 429.004 235.671 L 429.004 41.685 z"
                    fill-opacity="0.19000000000000003" style="opacity: 1;"></path><text style="font-size: 32px;"
                    x="374.708" y="143.678">I</text>
                <circle cx="374.708" cy="102.678" fill="#f0ad4e" r="10" stroke="#000" stroke-width="2"></circle>
            </g>
            <g sprite-identifier="s101710" data-original-title="" cursor="pointer">
                <path stroke="#000000" fill="#050505"
                    d="M 37.987 292.939 Q 37.552 300.768 37.552 306.857 L 37.552 384.857 L 267.639 384.857 L 267.639 292.939 L 37.987 292.939 z"
                    fill-opacity="0.19000000000000003" style="opacity: 1;"></path><text style="font-size: 32px;"
                    x="152.596" y="343.898">F</text>
                <circle cx="152.596" cy="302.898" fill="#f0ad4e" r="10" stroke="#000" stroke-width="2"></circle>
            </g>
            <g sprite-identifier="s101709" data-original-title="" cursor="pointer">
                <path stroke="#000000" fill="#050505"
                    d="M 267.639 490.839 L 267.639 398.921 L 37.552 398.921 L 37.552 490.839 L 267.639 490.839 z"
                    fill-opacity="0.19000000000000003" style="opacity: 1;"></path><text style="font-size: 32px;"
                    x="152.596" y="449.880">E</text>
                <circle cx="152.596" cy="408.88" fill="#f0ad4e" r="10" stroke="#000" stroke-width="2"></circle>
            </g>
            <g sprite-identifier="s101708" data-original-title="" cursor="pointer">
                <path stroke="#000000" fill="#050505"
                    d="M 267.639 596.821 L 267.639 504.902 L 37.552 504.902 L 37.552 596.821 L 267.639 596.821 z"
                    fill-opacity="0.19000000000000003" style="opacity: 1;"></path><text style="font-size: 32px;"
                    x="152.596" y="555.862">D</text>
                <circle cx="152.596" cy="514.862" fill="#f0ad4e" r="10" stroke="#000" stroke-width="2"></circle>
            </g>
            <g sprite-identifier="s63566" data-original-title="" cursor="pointer">
                <path stroke="#000000" fill="#050505"
                    d="M 269.234 702.658 Q 267.639 696.569 267.639 690.190 L 267.639 610.884 L 37.552 610.884 L 37.552 702.658 L 269.234 702.658 z"
                    fill-opacity="0.19000000000000003" style="opacity: 1;"></path><text style="font-size: 32px;"
                    x="153.393" y="661.771">C</text>
                <circle cx="153.393" cy="620.771" fill="#f0ad4e" r="10" stroke="#000" stroke-width="2"></circle>
            </g>
            <g sprite-identifier="s63565" data-original-title="" cursor="pointer">
                <path stroke="#000000" fill="#050505"
                    d="M 285.327 729.190 Q 282.427 726.580 280.687 724.405 L 47.266 785.588 Q 59.300 828.647 85.106 865.763 L 257.925 821.108 L 285.327 729.190 M 37.552 716.721 Q 37.842 744.413 43.931 771.959 L 254.880 716.721 L 37.552 716.721 z"
                    fill-opacity="0.19000000000000003" style="opacity: 1;"></path><text style="font-size: 32px;"
                    x="161.439" y="796.242">B</text>
                <circle cx="161.439" cy="755.242" fill="#f0ad4e" r="10" stroke="#000" stroke-width="2"></circle>
            </g>
            <g sprite-identifier="s63564" data-original-title="">
                <path stroke="#000000" fill="#f1f1f1"
                    d="M 429.004 741.948 L 320.412 741.948 L 320.412 823.573 L 429.004 829.952 L 429.004 741.948 M 306.494 740.208 Q 301.565 738.903 297.650 737.164 L 272.568 820.818 L 306.494 822.848 L 306.494 740.208 M 318.962 836.766 L 318.962 980.009 L 429.584 980.009 L 429.584 842.856 L 318.962 836.766 M 306.639 980.009 L 306.639 836.041 L 267.204 833.432 L 227.334 969.425 Q 266.914 980.589 306.639 980.009 M 92.066 877.796 Q 141.504 937.819 214.575 965.800 L 253.721 835.317 L 92.066 877.796 z"
                    fill-opacity="0.19000000000000003" style="opacity: 1;"></path><text style="font-size: 32px;"
                    x="373.766" y="790.935">A</text>
            </g>
            <g sprite-identifier="s144694">
                <path stroke="#000000" fill="#f1f1f1"
                    d="M 442.777 741.948 L 442.777 830.677 L 551.369 837.056 L 551.369 741.948 L 442.777 741.948 M 551.659 979.574 L 551.659 849.960 L 441.907 842.711 L 441.907 979.574 L 551.659 979.574 z"
                    fill-opacity="0.19000000000000003" style="opacity: 1;"></path><text style="font-size: 32px;"
                    x="494.430" y="796.349">104</text>
            </g>
            <g sprite-identifier="s144693">
                <path stroke="#000000" fill="#f1f1f1"
                    d="M 674.024 844.016 L 674.024 741.948 L 565.432 741.948 L 565.432 837.781 L 674.024 844.016 M 674.603 980.299 L 674.603 857.209 L 564.417 850.685 L 564.417 980.299 L 674.603 980.299 z"
                    fill-opacity="0.19000000000000003" style="opacity: 1;"></path><text style="font-size: 32px;"
                    x="623.040" y="802.594">103</text>
            </g>
            <g sprite-identifier="s144692">
                <path stroke="#000000" fill="#f1f1f1"
                    d="M 688.087 741.948 L 688.087 843.726 L 796.678 836.186 L 796.678 741.948 L 688.087 741.948 M 797.113 980.009 L 797.113 849.235 L 686.927 856.484 L 686.927 980.009 L 797.113 980.009 z"
                    fill-opacity="0.19000000000000003" style="opacity: 1;"></path><text style="font-size: 32px;"
                    x="739.667" y="800.096">102</text>
            </g>
            <g sprite-identifier="s144691">
                <path stroke="#000000" fill="#f1f1f1"
                    d="M 810.742 835.172 L 919.333 827.488 L 919.333 741.948 L 810.742 741.948 L 810.742 835.172 M 920.348 980.009 L 920.348 840.826 L 809.872 848.075 L 809.872 980.009 L 920.348 980.009 z"
                    fill-opacity="0.19000000000000003" style="opacity: 1;"></path><text style="font-size: 32px;"
                    x="862.757" y="795.390">101</text>
            </g>
            <g sprite-identifier="s63567">
                <path stroke="#000000" fill="#f1f1f1"
                    d="M 118.778 114.408 L 58.778 185.519 L 45.000 285.63 L 142.778 287.852 L 145.444 232.186 L 181.000 174.408 z"
                    fill-opacity="0.19000000000000003" style="opacity: 1;"></path><text style="font-size: 20px;" x="113"
                    y="206.130">H1</text>
            </g>
            <g sprite-identifier="s101711">
                <path stroke="#000000" fill="#f1f1f1"
                    d="M 309.889 41.074 L 309.889 127.741 L 247.667 132.186 L 185.444 172.186 L 121.000 112.186 L 176.556 65.519 L 238.778 41.074 z"
                    fill-opacity="0.19000000000000003" style="opacity: 1;"></path><text style="font-size: 20px;"
                    x="215.444" y="111.630">H2</text>
            </g>
            <g sprite-identifier="s69142" data-original-title="" cursor="pointer">
                <path stroke="#000000" fill="#050505"
                    d="M 187.667 178.852 L 243.222 225.519 L 234.333 229.963 L 267.667 263.297 L 267.667 287.741 L 149.444 287.852 L 151.667 234.519 z"
                    fill-opacity="0.19000000000000003" style="opacity: 1;"></path><text style="font-size: 20px;"
                    x="208.556" y="238.352">G1</text>
                <circle cx="208.556" cy="203.352" fill="#a3d165" r="10" stroke="#000" stroke-width="2"></circle>
            </g>
            <g sprite-identifier="s69903">
                <path stroke="#000000" fill="#f1f1f1"
                    d="M 309.889 132.186 L 309.889 243.297 L 287.667 243.297 L 256.556 216.630 L 245.444 223.297 L 189.889 176.630 L 252.111 136.630 z"
                    fill-opacity="0.19000000000000003" style="opacity: 1;"></path><text style="font-size: 20px;"
                    x="249.889" y="192.741">G2</text>
            </g>
        </g>
        <defs>
            <style type="text/css">
                .svg-pan-zoom-control {
                    cursor: pointer;
                    fill: white;
                    fill-opacity: 1;
                    stroke-width: 20;
                    stroke: rgb(0, 0, 0);
                }

                .svg-pan-zoom-control-background {
                    fill: grey;
                }
            </style>
        </defs>
        <g id="svg-pan-zoom-controls" transform="translate(-12 7) scale(0.75)" class="svg-pan-zoom-control">
            <g id="svg-pan-zoom-zoom-in" transform="translate(30.5 5) scale(0.015)" class="svg-pan-zoom-control">
                <rect x="100" y="100" width="1200" height="1200" class="svg-pan-zoom-control-background"></rect>
                <path
                    d="M1280 576v128q0 26 -19 45t-45 19h-320v320q0 26 -19 45t-45 19h-128q-26 0 -45 -19t-19 -45v-320h-320q-26 0 -45 -19t-19 -45v-128q0 -26 19 -45t45 -19h320v-320q0 -26 19 -45t45 -19h128q26 0 45 19t19 45v320h320q26 0 45 19t19 45zM1536 1120v-960 q0 -119 -84.5 -203.5t-203.5 -84.5h-960q-119 0 -203.5 84.5t-84.5 203.5v960q0 119 84.5 203.5t203.5 84.5h960q119 0 203.5 -84.5t84.5 -203.5z"
                    class="svg-pan-zoom-control-element"></path>
            </g>
            <g id="svg-pan-zoom-zoom-out" transform="translate(30.5 40) scale(0.015)" class="svg-pan-zoom-control">
                <rect x="100" y="100" width="1200" height="1200" class="svg-pan-zoom-control-background"></rect>
                <path
                    d="M1280 576v128q0 26 -19 45t-45 19h-896q-26 0 -45 -19t-19 -45v-128q0 -26 19 -45t45 -19h896q26 0 45 19t19 45zM1536 1120v-960q0 -119 -84.5 -203.5t-203.5 -84.5h-960q-119 0 -203.5 84.5t-84.5 203.5v960q0 119 84.5 203.5t203.5 84.5h960q119 0 203.5 -84.5 t84.5 -203.5z"
                    class="svg-pan-zoom-control-element"></path>
            </g>
        </g>
    </svg>