<svg xmlns="http://www.w3.org/2000/svg" version="1.1" width="463" height="396"
        xmlns:xlink="http://www.w3.org/1999/xlink" xmlns:ev="http://www.w3.org/2001/xml-events"
        style="overflow: hidden; touch-action: none; user-select: none;">
        <g class="svg-pan-zoom_viewport"
            transform="matrix(0.3532223701477051,0,0,0.3532223701477051,-8.320348739624023,17.662317276000977)">
            <g>
                <path fill="#050505" stroke="#000000"
                    d="M 1041.644 312.738 Q 1041.644 307.289 1037.596 303.241 Q 1033.237 299.348 1027.476 299.348 L 330.580 299.348 Q 324.663 299.348 320.615 303.241 Q 316.256 307.289 316.256 312.738 L 316.256 706.649 Q 316.256 712.254 320.615 716.303 Q 324.663 720.195 330.580 720.195 L 1027.476 720.195 Q 1033.237 720.195 1037.596 716.303 Q 1041.644 712.254 1041.644 706.649 L 1041.644 312.738 z"
                    fill-opacity="0.19000000000000003"></path>
                <path stroke-width="1.8" fill="#050505" stroke="#000000"
                    d="M 1041.644 312.738 L 1041.644 706.649 Q 1041.644 712.254 1037.596 716.303 Q 1033.237 720.195 1027.476 720.195 L 330.580 720.195 Q 324.663 720.195 320.615 716.303 Q 316.256 712.254 316.256 706.649 L 316.256 312.738 Q 316.256 307.289 320.615 303.241 Q 324.663 299.348 330.580 299.348 L 1027.476 299.348 Q 1033.237 299.348 1037.596 303.241 Q 1041.644 307.289 1041.644 312.738 z"
                    fill-opacity="0.19000000000000003"></path>
                <path stroke-width="2.25" fill="#050505" stroke="#000000"
                    d="M 1014.242 694.194 L 345.838 694.194 L 345.838 325.349 L 1014.242 325.349 L 1014.242 694.194 z"
                    fill-opacity="0.19000000000000003"></path>
                <path stroke-width="2.25" fill="#050505" stroke="#000000" d="M 679.962 325.816 L 679.962 693.727"
                    fill-opacity="0.19000000000000003"></path>
                <path stroke-width="2.25" fill="#050505" stroke="#000000"
                    d="M 717.952 473.728 Q 733.677 488.675 733.677 509.694 Q 733.677 531.024 717.952 545.815 Q 702.071 560.762 679.806 560.762 Q 657.697 560.762 641.816 545.815 Q 626.091 530.868 626.091 509.694 Q 626.091 488.675 641.816 473.728 Q 657.697 458.781 679.806 458.781 Q 702.227 458.781 717.952 473.728 z"
                    fill-opacity="0.19000000000000003"></path>
                <path stroke-width="2.25" fill="#050505" stroke="#000000"
                    d="M 453.113 467.344 L 453.113 389.341 L 346.149 389.341 L 346.149 630.047 L 453.113 630.047 L 453.113 552.199"
                    fill-opacity="0.19000000000000003"></path>
                <path stroke-width="2.25" fill="#050505" stroke="#000000"
                    d="M 453.113 467.344 L 453.113 552.199 Q 464.167 545.192 470.395 534.138 Q 477.090 522.772 477.090 509.694 Q 477.090 496.615 470.395 485.405 Q 464.167 474.351 453.113 467.344 z"
                    fill-opacity="0.19000000000000003"></path>
                <path stroke-width="2.25" fill="#050505" stroke="#000000"
                    d="M 906.344 467.344 L 906.344 389.341 L 1014.242 389.341 L 1014.242 630.047 L 906.344 630.047 L 906.344 552.199"
                    fill-opacity="0.19000000000000003"></path>
                <path stroke-width="2.25" fill="#050505" stroke="#000000"
                    d="M 906.344 467.344 L 906.344 552.199 Q 895.134 545.192 888.906 534.138 Q 882.211 522.772 882.211 509.694 Q 882.211 496.615 888.906 485.405 Q 895.134 474.351 906.344 467.344 z"
                    fill-opacity="0.19000000000000003"></path>
                <path stroke-width="2.25" fill="#050505" stroke="#000000"
                    d="M 388.343 461.895 L 388.343 557.181 L 347.395 557.181 L 347.395 461.895 L 388.343 461.895 z"
                    fill-opacity="0.19000000000000003"></path>
                <path stroke-width="2.25" fill="#050505" stroke="#000000"
                    d="M 1012.218 461.895 L 1012.218 557.181 L 971.270 557.181 L 971.270 461.895 L 1012.218 461.895 z"
                    fill-opacity="0.19000000000000003"></path>
            </g>
            <g sprite-identifier="s158303" data-original-title="" cursor="pointer">
                <path fill="#050505" stroke="#000000"
                    d="M 89.095 665.857 L 286.051 665.857 L 286.051 512.808 L 89.095 512.808 L 89.095 665.857 z"
                    fill-opacity="0.19000000000000003" style="opacity: 1;"></path><text style="font-size: 20px;"
                    x="187.573" y="594.332">Q</text>
                <circle cx="187.573" cy="559.332" fill="#ffeb99" r="10" stroke="#000" stroke-width="2"></circle>
            </g>
            <g sprite-identifier="s158304" data-original-title="" cursor="pointer">
                <path fill="#050505" stroke="#000000"
                    d="M 286.051 506.580 L 286.051 361.159 L 89.095 361.159 L 89.095 506.580 L 286.051 506.580 z"
                    fill-opacity="0.19000000000000003" style="opacity: 1;"></path><text style="font-size: 20px;"
                    x="187.573" y="438.870">R</text>
                <circle cx="187.573" cy="403.87" fill="#f0ad4e" r="10" stroke="#000" stroke-width="2"></circle>
            </g>
            <g sprite-identifier="s158302" data-original-title="" cursor="pointer">
                <path fill="#050505" stroke="#000000"
                    d="M 89.095 672.085 L 89.095 872.933 L 286.051 737.010 L 286.051 672.085 L 89.095 672.085 z"
                    fill-opacity="0.19000000000000003" style="opacity: 1;"></path><text style="font-size: 20px;"
                    x="187.573" y="777.509">P</text>
                <circle cx="187.573" cy="742.509" fill="#a3d165" r="10" stroke="#000" stroke-width="2"></circle>
            </g>
            <g sprite-identifier="s158301" data-original-title="" cursor="pointer">
                <path fill="#050505" stroke="#000000"
                    d="M 274.996 815.637 L 174.261 961.213 L 430.692 961.213 L 430.692 815.637 L 274.996 815.637 z"
                    fill-opacity="0.19000000000000003" style="opacity: 1;"></path><text style="font-size: 20px;"
                    x="302.477" y="893.425">O</text>
                <circle cx="302.477" cy="858.425" fill="#f0ad4e" r="10" stroke="#000" stroke-width="2"></circle>
            </g>
            <g sprite-identifier="s158300" data-original-title="" cursor="pointer">
                <path fill="#050505" stroke="#000000"
                    d="M 436.920 815.637 L 436.920 961.213 L 597.287 961.213 L 597.287 815.637 L 436.920 815.637 z"
                    fill-opacity="0.19000000000000003" style="opacity: 1;"></path><text style="font-size: 20px;"
                    x="517.104" y="893.425">N</text>
                <circle cx="517.104" cy="858.425" fill="#f0ad4e" r="10" stroke="#000" stroke-width="2"></circle>
            </g>
            <g sprite-identifier="s158299" data-original-title="" cursor="pointer">
                <path fill="#050505" stroke="#000000"
                    d="M 603.515 815.637 L 603.515 961.213 L 754.541 961.213 L 754.541 815.637 L 603.515 815.637 z"
                    fill-opacity="0.19000000000000003" style="opacity: 1;"></path><text style="font-size: 20px;"
                    x="679.028" y="893.425">M</text>
                <circle cx="679.028" cy="858.425" fill="#f87a44" r="10" stroke="#000" stroke-width="2"></circle>
            </g>
            <g sprite-identifier="s158306" data-original-title="">
                <path fill="#f1f1f1" stroke="#000000"
                    d="M 1142.068 109.554 L 1173.052 59.887 L 185.004 59.887 L 215.987 109.554 L 1142.068 109.554 z"
                    fill-opacity="0.19000000000000003" style="opacity: 1;"></path><text style="font-size: 20px;"
                    x="679.028" y="89.721">LOGEN</text>
            </g>
            <g sprite-identifier="s158298" data-original-title="" cursor="pointer">
                <path fill="#050505" stroke="#000000"
                    d="M 921.135 961.213 L 921.135 815.637 L 760.768 815.637 L 760.768 961.213 L 921.135 961.213 z"
                    fill-opacity="0.19000000000000003" style="opacity: 1;"></path><text style="font-size: 20px;"
                    x="840.952" y="893.425">L</text>
                <circle cx="840.952" cy="858.425" fill="#f0ad4e" r="10" stroke="#000" stroke-width="2"></circle>
            </g>
            <g sprite-identifier="s158295">
                <path fill="#f1f1f1" stroke="#000000"
                    d="M 1071.849 665.857 L 1268.805 665.857 L 1268.805 609.339 L 1071.849 609.339 L 1071.849 665.857 z"
                    fill-opacity="0.19000000000000003" style="opacity: 1;"></path><text style="font-size: 20px;"
                    x="1170.327" y="642.598">I</text>
            </g>
            <g sprite-identifier="s158296" data-original-title="" cursor="pointer">
                <path fill="#050505" stroke="#000000"
                    d="M 1071.849 672.085 L 1071.849 737.010 L 1268.805 872.933 L 1268.805 672.085 L 1071.849 672.085 z"
                    fill-opacity="0.19000000000000003" style="opacity: 1;"></path><text style="font-size: 20px;"
                    x="1170.327" y="777.509">J</text>
                <circle cx="1170.327" cy="742.509" fill="#ffeb99" r="10" stroke="#000" stroke-width="2"></circle>
            </g>
            <g sprite-identifier="s158294">
                <path fill="#f1f1f1" stroke="#000000"
                    d="M 1268.805 603.111 L 1268.805 543.947 L 1071.849 543.947 L 1071.849 603.111 L 1268.805 603.111 z"
                    fill-opacity="0.19000000000000003" style="opacity: 1;"></path><text style="font-size: 20px;"
                    x="1170.327" y="578.529">H</text>
            </g>
            <g sprite-identifier="s158293" data-original-title="" cursor="pointer">
                <path fill="#050505" stroke="#000000"
                    d="M 1268.805 537.719 L 1268.805 361.159 L 1071.849 361.159 L 1071.849 537.719 L 1268.805 537.719 z"
                    fill-opacity="0.19000000000000003" style="opacity: 1;"></path><text style="font-size: 20px;"
                    x="1170.327" y="454.439">G</text>
                <circle cx="1170.327" cy="419.439" fill="#f0ad4e" r="10" stroke="#000" stroke-width="2"></circle>
            </g>
            <g sprite-identifier="s158292" data-original-title="" cursor="pointer">
                <path fill="#050505" stroke="#000000"
                    d="M 1127.900 238.004 L 1071.849 277.862 L 1071.849 354.932 L 1268.805 354.932 L 1268.805 142.095 L 1127.900 238.004 z"
                    fill-opacity="0.19000000000000003" style="opacity: 1;"></path><text style="font-size: 20px;"
                    x="1170.327" y="253.513">F</text>
                <circle cx="1170.327" cy="218.513" fill="#f0ad4e" r="10" stroke="#000" stroke-width="2"></circle>
            </g>
            <g sprite-identifier="s158291" data-original-title="" cursor="pointer">
                <path fill="#050505" stroke="#000000"
                    d="M 1050.363 253.418 L 1069.203 272.257 L 1121.205 235.046 L 1085.862 199.703 L 1138.176 115.782 L 931.256 115.782 L 931.256 253.418 L 1050.363 253.418 z"
                    fill-opacity="0.19000000000000003" style="opacity: 1;"></path><text style="font-size: 20px;"
                    x="1034.716" y="199.020">E</text>
                <circle cx="1034.716" cy="164.02" fill="#f0ad4e" r="10" stroke="#000" stroke-width="2"></circle>
            </g>
            <g sprite-identifier="s158290">
                <path fill="#f1f1f1" stroke="#000000"
                    d="M 925.028 253.418 L 925.028 115.782 L 738.192 115.782 L 738.192 253.418 L 925.028 253.418 z"
                    fill-opacity="0.19000000000000003" style="opacity: 1;"></path><text style="font-size: 20px;"
                    x="831.610" y="189.600">D</text>
            </g>
            <g sprite-identifier="s158287" data-original-title="" cursor="pointer">
                <path fill="#050505" stroke="#000000"
                    d="M 426.800 253.418 L 426.800 115.782 L 219.880 115.782 L 272.038 199.703 L 236.695 235.046 L 288.853 272.257 L 307.692 253.418 L 426.800 253.418 z"
                    fill-opacity="0.19000000000000003" style="opacity: 1;"></path><text style="font-size: 20px;"
                    x="323.340" y="199.020">A</text>
                <circle cx="323.340" cy="164.02" fill="#f87a44" r="10" stroke="#000" stroke-width="2"></circle>
            </g>
            <g sprite-identifier="s158297" data-original-title="" cursor="pointer">
                <path fill="#050505" stroke="#000000"
                    d="M 927.363 815.637 L 927.363 961.213 L 1183.795 961.213 L 1083.059 815.637 L 927.363 815.637 z"
                    fill-opacity="0.19000000000000003" style="opacity: 1;"></path><text style="font-size: 20px;"
                    x="1055.579" y="893.425">K</text>
                <circle cx="1055.579" cy="858.425" fill="#f0ad4e" r="10" stroke="#000" stroke-width="2"></circle>
            </g>
            <g sprite-identifier="s158288">
                <path fill="#f1f1f1" stroke="#000000"
                    d="M 433.028 253.418 L 619.863 253.418 L 619.863 115.782 L 433.028 115.782 L 433.028 253.418 z"
                    fill-opacity="0.19000000000000003" style="opacity: 1;"></path><text style="font-size: 20px;"
                    x="526.446" y="189.600">B</text>
            </g>
            <g sprite-identifier="s158289">
                <path fill="#f1f1f1" stroke="#000000"
                    d="M 626.091 115.782 L 626.091 253.418 L 731.965 253.418 L 731.965 115.782 L 626.091 115.782 z"
                    fill-opacity="0.19000000000000003" style="opacity: 1;"></path><text style="font-size: 20px;"
                    x="679.028" y="189.600">C</text>
            </g>
            <g sprite-identifier="s158305" data-original-title="" cursor="pointer">
                <path fill="#050505" stroke="#000000"
                    d="M 286.051 277.862 L 230.156 238.004 L 89.095 142.095 L 89.095 354.932 L 286.051 354.932 L 286.051 277.862 z"
                    fill-opacity="0.19000000000000003" style="opacity: 1;"></path><text style="font-size: 20px;"
                    x="187.573" y="253.513">S</text>
                <circle cx="187.573" cy="218.513" fill="#a3d165" r="10" stroke="#000" stroke-width="2"></circle>
            </g>
        </g>
        <defs>
            <style type="text/css">
                .svg-pan-zoom-control {
                    cursor: pointer;
                    fill: white;
                    fill-opacity: 1;
                    stroke-width: 20;
                    stroke: rgb(0, 0, 0);
                }

                .svg-pan-zoom-control-background {
                    fill: grey;
                }
            </style>
        </defs>
        <g id="svg-pan-zoom-controls" transform="translate(-12 7) scale(0.75)" class="svg-pan-zoom-control">
            <g id="svg-pan-zoom-zoom-in" transform="translate(30.5 5) scale(0.015)" class="svg-pan-zoom-control">
                <rect x="100" y="100" width="1200" height="1200" class="svg-pan-zoom-control-background"></rect>
                <path
                    d="M1280 576v128q0 26 -19 45t-45 19h-320v320q0 26 -19 45t-45 19h-128q-26 0 -45 -19t-19 -45v-320h-320q-26 0 -45 -19t-19 -45v-128q0 -26 19 -45t45 -19h320v-320q0 -26 19 -45t45 -19h128q26 0 45 19t19 45v320h320q26 0 45 19t19 45zM1536 1120v-960 q0 -119 -84.5 -203.5t-203.5 -84.5h-960q-119 0 -203.5 84.5t-84.5 203.5v960q0 119 84.5 203.5t203.5 84.5h960q119 0 203.5 -84.5t84.5 -203.5z"
                    class="svg-pan-zoom-control-element"></path>
            </g>
            <g id="svg-pan-zoom-zoom-out" transform="translate(30.5 40) scale(0.015)" class="svg-pan-zoom-control">
                <rect x="100" y="100" width="1200" height="1200" class="svg-pan-zoom-control-background"></rect>
                <path
                    d="M1280 576v128q0 26 -19 45t-45 19h-896q-26 0 -45 -19t-19 -45v-128q0 -26 19 -45t45 -19h896q26 0 45 19t19 45zM1536 1120v-960q0 -119 -84.5 -203.5t-203.5 -84.5h-960q-119 0 -203.5 84.5t-84.5 203.5v960q0 119 84.5 203.5t203.5 84.5h960q119 0 203.5 -84.5 t84.5 -203.5z"
                    class="svg-pan-zoom-control-element"></path>
            </g>
        </g>
    </svg>