<svg xmlns="http://www.w3.org/2000/svg" version="1.1" width="455" height="396"
        xmlns:xlink="http://www.w3.org/1999/xlink" xmlns:ev="http://www.w3.org/2001/xml-events"
        style="overflow: hidden; touch-action: none; user-select: none;">
        <g class="svg-pan-zoom_viewport"
            transform="matrix(0.504675567150116,0,0,0.504675567150116,-94.19998168945312,56.79640579223633)">
            <g sprite-identifier="s87670" data-original-title="" cursor="pointer">
                <path fill="#050505" stroke="#000000"
                    d="M 533.498 920.641 L 533.498 1007.155 L 607.831 1007.155 L 607.831 920.641 L 533.498 920.641 M 686.560 1007.155 L 686.560 920.641 L 612.226 920.641 L 612.226 1007.155 L 686.560 1007.155 M 765.163 920.641 L 690.955 920.641 L 690.955 1007.155 L 765.163 1007.155 L 765.163 920.641 z"
                    fill-opacity="0.19000000000000003" style="opacity: 1;"></path><text style="font-size: 15px;"
                    x="651.683" y="973.604">Haut Languedoc Centrale</text>
                <circle cx="651.683" cy="941.104" fill="#f87a44" r="10" stroke="#000" stroke-width="2"></circle>
            </g>
            <g sprite-identifier="s107802" data-original-title="">
                <path fill="#f1f1f1" stroke="#000000"
                    d="M 1019.430 685.334 L 1019.430 775.615 L 1094.643 775.615 L 1094.643 685.334 L 1019.430 685.334 M 1019.430 590.659 L 1019.430 680.940 L 1094.643 680.940 L 1094.643 590.659 L 1019.430 590.659 M 1094.643 586.264 L 1094.643 495.984 L 1019.430 495.984 L 1019.430 586.264 L 1094.643 586.264 M 1094.643 491.589 L 1094.643 401.434 L 1019.430 401.434 L 1019.430 491.589 L 1094.643 491.589 M 1006.748 889.752 Q 995.573 905.448 975.482 913.358 Q 957.652 920.516 935.302 920.516 L 935.302 1006.276 Q 984.900 1006.276 1021.439 992.966 Q 1052.955 981.414 1073.297 960.445 L 1006.748 889.752 M 1019.807 811.903 Q 1020.309 829.482 1019.179 850.953 Q 1018.049 870.541 1009.636 885.107 L 1078.445 954.794 Q 1092.006 938.848 1098.786 919.385 Q 1104.437 903.062 1104.437 886.990 Q 1104.437 854.092 1104.813 829.733 Q 1105.441 805.248 1105.441 798.467 L 1019.179 798.467 L 1019.807 811.903 z"
                    fill-opacity="0.19000000000000003" style="opacity: 1;"></path>
                <g transform="matrix(6.123e-17, 1, -1, 6.123e-17, 1663.914, -452.102)"><text style="font-size: 20px;"
                        x="1058.019" y="613.561">Minervois</text></g>
            </g>
            <g>
                <path fill="#050505" stroke="#000000"
                    d="M 901.400 442.243 Q 901.400 438.225 898.512 435.588 Q 895.624 432.825 891.606 432.825 L 407.306 432.825 Q 403.162 432.825 400.274 435.588 Q 397.386 438.225 397.386 442.243 L 397.386 715.972 Q 397.386 719.864 400.274 722.501 Q 403.162 725.389 407.306 725.389 L 891.606 725.389 Q 895.624 725.389 898.512 722.501 Q 901.400 719.864 901.400 715.972 L 901.400 442.243 z"
                    fill-opacity="0.19000000000000003"></path>
                <path stroke-width="1.8" fill="#050505" stroke="#000000"
                    d="M 901.400 442.243 L 901.400 715.972 Q 901.400 719.864 898.512 722.501 Q 895.624 725.389 891.606 725.389 L 407.306 725.389 Q 403.162 725.389 400.274 722.501 Q 397.386 719.864 397.386 715.972 L 397.386 442.243 Q 397.386 438.225 400.274 435.588 Q 403.162 432.825 407.306 432.825 L 891.606 432.825 Q 895.624 432.825 898.512 435.588 Q 901.400 438.225 901.400 442.243 z"
                    fill-opacity="0.19000000000000003"></path>
                <path stroke-width="2.25" fill="#050505" stroke="#000000"
                    d="M 882.440 707.182 L 417.853 707.182 L 417.853 450.907 L 882.440 450.907 L 882.440 707.182 z"
                    fill-opacity="0.19000000000000003"></path>
                <path stroke-width="2.25" fill="#050505" stroke="#000000" d="M 650.146 451.283 L 650.146 706.806"
                    fill-opacity="0.19000000000000003"></path>
                <path stroke-width="2.25" fill="#050505" stroke="#000000"
                    d="M 687.439 579.107 Q 687.439 593.798 676.515 604.220 Q 665.465 614.516 650.021 614.516 Q 634.576 614.516 623.652 604.220 Q 612.603 593.798 612.603 579.107 Q 612.603 564.291 623.652 553.994 Q 634.576 543.573 650.021 543.573 Q 665.465 543.573 676.515 553.994 Q 687.439 564.291 687.439 579.107 z"
                    fill-opacity="0.19000000000000003"></path>
                <path stroke-width="2.25" fill="#050505" stroke="#000000"
                    d="M 492.438 549.600 L 492.438 495.356 L 418.104 495.356 L 418.104 662.733 L 492.438 662.733 L 492.438 608.615"
                    fill-opacity="0.19000000000000003"></path>
                <path stroke-width="2.25" fill="#050505" stroke="#000000"
                    d="M 509.013 579.107 Q 509.013 569.941 504.492 562.156 Q 500.098 554.497 492.438 549.600 L 492.438 608.615 Q 500.098 603.592 504.492 596.058 Q 509.013 588.148 509.013 579.107 z"
                    fill-opacity="0.19000000000000003"></path>
                <path stroke-width="2.25" fill="#050505" stroke="#000000"
                    d="M 807.352 549.600 L 807.352 495.356 L 882.314 495.356 L 882.314 662.733 L 807.352 662.733 L 807.352 608.615"
                    fill-opacity="0.19000000000000003"></path>
                <path stroke-width="2.25" fill="#050505" stroke="#000000"
                    d="M 790.652 579.107 Q 790.652 569.941 795.298 562.156 Q 799.693 554.497 807.352 549.600 L 807.352 608.615 Q 799.693 603.592 795.298 596.058 Q 790.652 588.148 790.652 579.107 z"
                    fill-opacity="0.19000000000000003"></path>
                <path stroke-width="2.25" fill="#050505" stroke="#000000"
                    d="M 447.486 545.833 L 447.486 612.005 L 418.983 612.005 L 418.983 545.833 L 447.486 545.833 z"
                    fill-opacity="0.19000000000000003"></path>
                <path stroke-width="2.25" fill="#050505" stroke="#000000"
                    d="M 881.058 612.005 L 852.555 612.005 L 852.555 545.833 L 881.058 545.833 L 881.058 612.005 z"
                    fill-opacity="0.19000000000000003"></path>
            </g>
            <g sprite-identifier="s78164" data-original-title="">
                <path fill="#f1f1f1" stroke="#000000"
                    d="M 947.858 822.199 Q 947.858 837.141 944.217 844.173 Q 938.567 854.846 922.746 854.846 L 376.040 854.846 L 376.040 910.847 L 922.746 910.847 Q 960.917 910.847 984.021 892.013 Q 1005.618 874.182 1005.618 847.437 L 1005.618 790.306 L 947.858 790.306 L 947.858 822.199 z"
                    fill-opacity="0.19000000000000003" style="opacity: 1;"></path><text style="font-size: 20px;"
                    x="657.888" y="887.341">Loges Etang de l'or</text>
            </g>
            <g sprite-identifier="s78161" data-original-title="" cursor="pointer">
                <path fill="#050505" stroke="#000000"
                    d="M 363.861 154.199 L 363.861 282.149 L 454.643 282.149 L 454.643 154.199 L 363.861 154.199 M 549.821 282.149 L 549.821 154.199 L 459.038 154.199 L 459.038 282.149 L 549.821 282.149 M 554.216 154.199 L 554.216 282.149 L 644.998 282.149 L 644.998 154.199 L 554.216 154.199 M 649.393 154.199 L 649.393 282.149 L 740.050 282.149 L 740.050 154.199 L 649.393 154.199 M 744.445 154.199 L 744.445 282.149 L 835.353 282.149 L 835.353 154.199 L 744.445 154.199 M 930.531 282.149 L 930.531 154.199 L 839.748 154.199 L 839.748 282.149 L 930.531 282.149 z"
                    fill-opacity="0.19000000000000003" style="opacity: 1;"></path><text style="font-size: 20px;"
                    x="647.196" y="223.174">Cevennes</text>
                <circle cx="647.196" cy="188.174" fill="#f0ad4e" r="10" stroke="#000" stroke-width="2"></circle>
            </g>
            <g sprite-identifier="s78163" data-original-title="">
                <path fill="#f1f1f1" stroke="#000000"
                    d="M 376.040 401.434 L 300.702 401.434 L 300.702 775.615 L 376.040 775.615 L 376.040 401.434 z"
                    fill-opacity="0.19000000000000003" style="opacity: 1;"></path>
                <g transform="matrix(-1.837e-16, -1, 1, -1.837e-16, -247.508, 924.242)"><text style="font-size: 20px;"
                        x="338.371" y="593.525">Etang de Thau</text></g>
            </g>
            <g sprite-identifier="s87668">
                <path fill="#f1f1f1" stroke="#000000"
                    d="M 930.531 147.419 L 930.531 19.469 L 839.748 19.469 L 839.748 147.419 L 930.531 147.419 M 835.353 19.469 L 744.445 19.469 L 744.445 147.419 L 835.353 147.419 L 835.353 19.469 M 649.393 19.469 L 649.393 147.419 L 740.050 147.419 L 740.050 19.469 L 649.393 19.469 M 644.998 19.469 L 554.216 19.469 L 554.216 147.419 L 644.998 147.419 L 644.998 19.469 M 549.821 147.419 L 549.821 19.469 L 459.038 19.469 L 459.038 147.419 L 549.821 147.419 M 454.643 19.469 L 363.861 19.469 L 363.861 147.419 L 454.643 147.419 L 454.643 19.469 z"
                    fill-opacity="0.19000000000000003" style="opacity: 1;"></path><text style="font-size: 20px;"
                    x="647.196" y="88.444">Aigoual</text>
            </g>
            <g sprite-identifier="s87669" data-original-title="" cursor="pointer">
                <path fill="#050505" stroke="#000000"
                    d="M 930.531 391.640 L 930.531 289.055 L 839.748 289.055 L 839.748 391.640 L 930.531 391.640 M 835.353 289.055 L 744.445 289.055 L 744.445 391.640 L 835.353 391.640 L 835.353 289.055 M 740.050 289.055 L 649.393 289.055 L 649.393 391.640 L 740.050 391.640 L 740.050 289.055 M 644.998 289.055 L 554.216 289.055 L 554.216 391.640 L 644.998 391.640 L 644.998 289.055 M 459.038 289.055 L 459.038 391.640 L 549.821 391.640 L 549.821 289.055 L 459.038 289.055 M 454.643 289.055 L 363.861 289.055 L 363.861 391.640 L 454.643 391.640 L 454.643 289.055 z"
                    fill-opacity="0.19000000000000003" style="opacity: 1;"></path><text style="font-size: 20px;"
                    x="647.196" y="345.347">Gevaudan</text>
                <circle cx="647.196" cy="310.347" fill="#a3d165" r="10" stroke="#000" stroke-width="2"></circle>
            </g>
            <g sprite-identifier="s91634" data-original-title="">
                <path fill="#f1f1f1" stroke="#000000"
                    d="M 946.101 175.168 L 946.101 292.445 L 1028.094 391.640 L 1108.329 391.640 L 946.101 175.168 z"
                    fill-opacity="0.19000000000000003" style="opacity: 1;"></path><text style="font-size: 20px;"
                    x="1027.215" y="288.404">Canigou</text>
            </g>
            <g sprite-identifier="s78162" data-original-title="" cursor="pointer">
                <path fill="#050505" stroke="#000000"
                    d="M 1005.618 401.434 L 930.531 401.434 L 930.531 775.615 L 1005.618 775.615 L 1005.618 401.434 z"
                    fill-opacity="0.19000000000000003" style="opacity: 1;"></path>
                <g transform="matrix(6.123e-17, 1, -1, 6.123e-17, 1553.945, -382.195)"><text style="font-size: 20px;"
                        x="968.074" y="593.525">Corbieres</text></g>
                <circle cx="968.074" cy="558.525" fill="#a3d165" r="10" stroke="#000" stroke-width="2"></circle>
            </g>
            <g sprite-identifier="s107800" data-original-title="">
                <path fill="#f1f1f1" stroke="#000000"
                    d="M 214.314 790.306 L 214.314 794.198 L 366.749 981.791 L 366.749 877.196 L 300.702 790.306 L 214.314 790.306 z"
                    fill-opacity="0.19000000000000003" style="opacity: 1;"></path><text style="font-size: 20px;"
                    x="290.531" y="891.048">Larzac</text>
            </g>
            <g sprite-identifier="s107801" data-original-title="" cursor="pointer">
                <path fill="#050505" stroke="#000000"
                    d="M 242.692 234.434 Q 216.449 283.279 212.807 336.016 Q 210.924 362.384 214.314 378.958 L 300.702 378.958 L 300.702 322.329 Q 300.702 294.956 315.142 274.489 Q 328.954 254.525 352.058 246.991 L 352.058 154.199 Q 335.232 154.701 313.133 164.997 Q 268.934 185.464 242.692 234.434 z"
                    fill-opacity="0.19000000000000003" style="opacity: 1;"></path><text style="font-size: 20px;"
                    x="282.096" y="271.579">Mediterrannee</text>
                <circle cx="282.096" cy="236.579" fill="#ffeb99" r="10" stroke="#000" stroke-width="2"></circle>
            </g>
            <g sprite-identifier="s107803" data-original-title="" cursor="pointer">
                <path fill="#050505" stroke="#000000"
                    d="M 559.740 790.306 L 559.740 847.437 L 647.133 847.437 L 647.133 790.306 L 559.740 790.306 M 651.528 790.306 L 651.528 847.437 L 739.046 847.437 L 739.046 790.306 L 651.528 790.306 z"
                    fill-opacity="0.19000000000000003" style="opacity: 1;"></path><text style="font-size: 15px;"
                    x="649.393" y="823.872">Roussillon Centrale</text>
                <circle cx="649.393" cy="791.372" fill="#f87a44" r="10" stroke="#000" stroke-width="2"></circle>
            </g>
            <g sprite-identifier="s107799" data-original-title="">
                <path fill="#f1f1f1" stroke="#000000"
                    d="M 453.374 920.641 L 379.040 920.641 L 379.040 1007.155 L 453.374 1007.155 L 453.374 920.641 M 532.103 1007.155 L 532.103 920.641 L 457.769 920.641 L 457.769 1007.155 L 532.103 1007.155 M 772.558 920.641 L 772.558 1007.155 L 847.017 1007.155 L 847.017 920.641 L 772.558 920.641 M 851.412 920.641 L 851.412 1007.155 L 925.746 1007.155 L 925.746 920.641 L 851.412 920.641 z"
                    fill-opacity="0.19000000000000003" style="opacity: 1;"></path><text style="font-size: 15px;"
                    x="456.471" y="950">Haut Languedoc Laterale</text><text style="font-size: 15px;" x="856.471"
                    y="997.059">Haut Languedoc Laterale</text>
            </g>
            <g sprite-identifier="s87671" data-original-title="">
                <path fill="#f1f1f1" stroke="#000000"
                    d="M 376.040 790.306 L 376.040 847.437 L 463.433 847.437 L 463.433 790.306 L 376.040 790.306 M 467.828 790.306 L 467.828 847.437 L 555.346 847.437 L 555.346 790.306 L 467.828 790.306 M 743.440 790.306 L 743.440 847.437 L 830.833 847.437 L 830.833 790.306 L 743.440 790.306 M 922.746 847.437 L 922.746 790.306 L 835.228 790.306 L 835.228 847.437 L 922.746 847.437 z"
                    fill-opacity="0.19000000000000003" style="opacity: 1;"></path><text style="font-size: 15px;"
                    x="465.864" y="828.577">Roussillon Laterale</text><text style="font-size: 15px;" x="832.922"
                    y="826.224">Roussillon Laterale</text>
            </g>
            <g sprite-identifier="s91635" data-original-title="" cursor="pointer">
                <path fill="#050505" stroke="#000000"
                    d="M 289.527 491.589 L 289.527 401.434 L 214.314 401.434 L 214.314 491.589 L 289.527 491.589 M 289.527 586.264 L 289.527 495.984 L 214.314 495.984 L 214.314 586.264 L 289.527 586.264 M 214.314 590.659 L 214.314 680.940 L 289.527 680.940 L 289.527 590.659 L 214.314 590.659 M 214.314 685.334 L 214.314 775.615 L 289.527 775.615 L 289.527 685.334 L 214.314 685.334 z"
                    fill-opacity="0.19000000000000003" style="opacity: 1;"></path>
                <g transform="matrix(-1.837e-16, -1, 1, -1.837e-16, -333.945, 837.805)"><text style="font-size: 20px;"
                        x="251.920" y="593.525">Petite Camargue</text></g>
                <circle cx="251.920" cy="558.525" fill="#f0ad4e" r="10" stroke="#000" stroke-width="2"></circle>
            </g>
        </g>
        <defs>
            <style type="text/css">
                .svg-pan-zoom-control {
                    cursor: pointer;
                    fill: white;
                    fill-opacity: 1;
                    stroke-width: 20;
                    stroke: rgb(0, 0, 0);
                }

                .svg-pan-zoom-control-background {
                    fill: grey;
                }
            </style>
        </defs>
        <g id="svg-pan-zoom-controls" transform="translate(-12 7) scale(0.75)" class="svg-pan-zoom-control">
            <g id="svg-pan-zoom-zoom-in" transform="translate(30.5 5) scale(0.015)" class="svg-pan-zoom-control">
                <rect x="100" y="100" width="1200" height="1200" class="svg-pan-zoom-control-background"></rect>
                <path
                    d="M1280 576v128q0 26 -19 45t-45 19h-320v320q0 26 -19 45t-45 19h-128q-26 0 -45 -19t-19 -45v-320h-320q-26 0 -45 -19t-19 -45v-128q0 -26 19 -45t45 -19h320v-320q0 -26 19 -45t45 -19h128q26 0 45 19t19 45v320h320q26 0 45 19t19 45zM1536 1120v-960 q0 -119 -84.5 -203.5t-203.5 -84.5h-960q-119 0 -203.5 84.5t-84.5 203.5v960q0 119 84.5 203.5t203.5 84.5h960q119 0 203.5 -84.5t84.5 -203.5z"
                    class="svg-pan-zoom-control-element"></path>
            </g>
            <g id="svg-pan-zoom-zoom-out" transform="translate(30.5 40) scale(0.015)" class="svg-pan-zoom-control">
                <rect x="100" y="100" width="1200" height="1200" class="svg-pan-zoom-control-background"></rect>
                <path
                    d="M1280 576v128q0 26 -19 45t-45 19h-896q-26 0 -45 -19t-19 -45v-128q0 -26 19 -45t45 -19h896q26 0 45 19t19 45zM1536 1120v-960q0 -119 -84.5 -203.5t-203.5 -84.5h-960q-119 0 -203.5 84.5t-84.5 203.5v960q0 119 84.5 203.5t203.5 84.5h960q119 0 203.5 -84.5 t84.5 -203.5z"
                    class="svg-pan-zoom-control-element"></path>
            </g>
        </g>
    </svg>