<svg xmlns="http://www.w3.org/2000/svg" version="1.1" width="460" height="396"
        xmlns:xlink="http://www.w3.org/1999/xlink" xmlns:ev="http://www.w3.org/2001/xml-events"
        style="overflow: hidden; touch-action: none; user-select: none;">
        <g class="svg-pan-zoom_viewport"
            transform="matrix(0.3690411448478699,0,0,0.3690411448478699,-23.033044815063477,10.822342872619629)">
            <g>
                <path fill="#050505" stroke="#000000" stroke-width="2.25"
                    d="M 430.998 459.257 L 430.998 540.637 L 395.963 540.637 L 395.963 459.257 L 430.998 459.257 z"
                    fill-opacity="0.19000000000000003"></path>
                <g aria-hidden="true"></g>
            </g>
            <g>
                <path fill="#050505" stroke="#000000" stroke-width="2.25"
                    d="M 964.396 459.257 L 964.396 540.637 L 929.484 540.637 L 929.484 459.257 L 964.396 459.257 z"
                    fill-opacity="0.19000000000000003"></path>
                <g aria-hidden="true"></g>
            </g>
            <g>
                <path fill="#050505" stroke="#000000"
                    d="M 310.649 720.731 Q 295.282 719.502 282.375 706.225 L 257.543 732.287 Q 271.311 746.916 287.661 758.102 L 310.649 720.731 z"
                    fill-opacity="0.19000000000000003"></path>
                <g aria-hidden="true"></g>
            </g>
            <g>
                <path fill="#050505" stroke="#000000" d="M 347.405 332.392 L 346.176 329.565"
                    fill-opacity="0.19000000000000003"></path>
                <g aria-hidden="true"></g>
            </g>
            <g>
                <path fill="#050505" stroke="#000000" d="M 285.448 184.752 L 284.219 181.802"
                    fill-opacity="0.19000000000000003"></path>
                <g aria-hidden="true"></g>
            </g>
            <g>
                <path fill="#050505" stroke="#000000" d="M 338.185 337.309 L 335.850 335.342"
                    fill-opacity="0.19000000000000003"></path>
                <g aria-hidden="true"></g>
            </g>
            <g>
                <path fill="#050505" stroke="#000000" d="M 220.663 230.605 L 218.451 228.515"
                    fill-opacity="0.19000000000000003"></path>
                <g aria-hidden="true"></g>
            </g>
            <g>
                <path fill="#050505" stroke="#000000" d="M 330.195 385.252 L 327.122 385.252"
                    fill-opacity="0.19000000000000003"></path>
                <g aria-hidden="true"></g>
            </g>
            <g>
                <path fill="#050505" stroke="#000000" d="M 165.467 385.252 L 162.394 385.252"
                    fill-opacity="0.19000000000000003"></path>
                <g aria-hidden="true"></g>
            </g>
            <g>
                <path fill="#050505" stroke="#000000" d="M 330.195 498.964 L 327.122 498.964"
                    fill-opacity="0.19000000000000003"></path>
                <g aria-hidden="true"></g>
            </g>
            <g>
                <path fill="#050505" stroke="#000000" d="M 164.238 498.964 L 161.165 498.964"
                    fill-opacity="0.19000000000000003"></path>
                <g aria-hidden="true"></g>
            </g>
            <g>
                <path fill="#050505" stroke="#000000" d="M 330.195 613.044 L 327.122 613.044"
                    fill-opacity="0.19000000000000003"></path>
                <g aria-hidden="true"></g>
            </g>
            <g>
                <path fill="#050505" stroke="#000000" d="M 165.467 613.044 L 162.394 613.044"
                    fill-opacity="0.19000000000000003"></path>
                <g aria-hidden="true"></g>
            </g>
            <g>
                <path stroke="#000000"
                    d="M 1039.138 249.659 Q 1038.892 249.414 1038.892 248.922 Q 1038.892 248.553 1039.138 248.307 Q 1039.630 247.938 1040.613 247.938 Q 1041.597 247.938 1041.966 248.307 Q 1042.334 248.676 1042.580 249.414 L 1044.670 249.414 Q 1044.670 247.938 1043.564 247.078 Q 1042.703 246.217 1040.613 246.217 Q 1039.507 246.217 1038.646 246.586 Q 1037.663 246.955 1037.294 247.570 Q 1036.802 248.307 1036.802 249.168 Q 1036.802 250.520 1037.663 251.258 Q 1038.524 251.872 1040.122 252.364 L 1041.843 252.856 Q 1042.580 253.102 1042.580 253.224 Q 1042.826 253.593 1042.826 253.839 Q 1042.949 254.331 1042.334 254.946 Q 1041.843 255.314 1040.736 255.314 Q 1039.753 255.314 1039.261 254.823 Q 1038.646 254.331 1038.524 253.224 L 1036.434 253.593 Q 1036.680 255.314 1037.663 256.175 Q 1038.769 257.158 1040.736 257.158 Q 1042.211 257.158 1043.072 256.789 Q 1044.055 256.298 1044.424 255.560 Q 1045.039 254.700 1045.039 253.839 Q 1045.039 252.856 1044.547 252.241 Q 1044.178 251.626 1043.441 251.135 Q 1042.580 250.643 1041.105 250.397 Q 1039.507 250.028 1039.138 249.659 z">
                </path>
                <g aria-hidden="true"></g>
            </g>
            <g>
                <path stroke="#000000"
                    d="M 1051.554 246.340 L 1049.956 246.340 Q 1049.587 247.324 1048.604 248.061 Q 1047.866 248.676 1046.883 248.922 L 1046.883 250.766 Q 1048.235 250.397 1049.464 249.291 L 1049.464 256.912 L 1051.554 256.912 L 1051.554 246.340 z">
                </path>
                <g aria-hidden="true"></g>
            </g>
            <g>
                <path stroke="#000000"
                    d="M 1054.996 246.340 L 1054.996 256.912 L 1061.143 256.789 Q 1061.880 256.789 1062.618 256.298 Q 1063.233 255.929 1063.479 255.314 Q 1063.847 254.700 1063.847 253.839 Q 1063.847 252.979 1063.233 252.241 Q 1062.864 251.626 1061.880 251.258 Q 1062.618 251.012 1062.864 250.397 Q 1063.233 249.782 1063.233 248.922 Q 1063.233 248.184 1062.987 247.693 Q 1062.864 247.447 1062.249 246.955 Q 1061.757 246.586 1061.020 246.463 L 1054.996 246.340 M 1057.086 252.364 L 1058.930 252.364 Q 1060.405 252.364 1060.774 252.487 Q 1061.266 252.610 1061.389 252.979 Q 1061.635 253.224 1061.635 253.716 Q 1061.635 254.331 1061.389 254.700 Q 1061.020 254.946 1060.651 255.068 Q 1060.405 255.068 1059.176 255.068 L 1057.086 255.068 L 1057.086 252.364 M 1057.086 250.643 L 1057.086 248.184 L 1060.159 248.184 Q 1060.651 248.184 1061.020 248.553 Q 1061.266 248.922 1061.266 249.291 Q 1061.266 249.782 1061.020 250.151 Q 1060.651 250.397 1060.159 250.520 L 1057.086 250.643 z">
                </path>
                <g aria-hidden="true"></g>
            </g>
            <g sprite-identifier="s95631" data-original-title="" cursor="pointer">
                <path fill="#050505" stroke="#000000"
                    d="M 756.766 721.346 L 712.510 721.346 L 712.510 754.046 L 675.016 754.046 L 675.016 771.625 L 711.281 771.625 L 711.281 771.256 L 730.950 771.256 L 730.950 771.625 L 756.766 771.625 L 756.766 721.346 M 781.352 721.346 L 764.141 721.346 L 764.141 771.625 L 781.352 771.625 L 781.352 721.346 M 841.588 721.346 L 788.728 721.346 L 788.728 771.625 L 811.470 771.625 L 811.470 789.573 L 841.588 789.573 L 841.588 721.346 z"
                    fill-opacity="0.19000000000000003" style="opacity: 1;"></path><text style="font-size: 20px;"
                    x="734.773" y="760.459">O4</text><text style="font-size: 20px;" x="817.126" y="762.812">O4</text>
                <circle cx="734.773" cy="725.459" fill="#f0ad4e" r="10" stroke="#000" stroke-width="2"></circle>
                <circle cx="817.126" cy="727.812" fill="#f0ad4e" r="10" stroke="#000" stroke-width="2"></circle>
            </g>
            <g sprite-identifier="s95625">
                <path fill="#f1f1f1" stroke="#000000"
                    d="M 389.325 789.573 L 403.708 789.573 L 403.708 721.346 L 361.788 721.346 L 357.363 786.745 Q 372.975 789.573 389.325 789.573 z"
                    fill-opacity="0.19000000000000003" style="opacity: 1;"></path><text style="font-size: 20px;"
                    x="380.535" y="760.459">N1A</text>
            </g>
            <g sprite-identifier="s109540">
                <path fill="#f1f1f1" stroke="#000000"
                    d="M 1018.363 792.400 Q 1013.077 793.875 1007.422 795.227 L 1007.422 838.007 Q 1016.150 835.549 1031.394 829.033 L 1018.363 792.400 M 908.217 799.407 L 908.217 842.556 L 948.292 842.556 L 948.292 799.407 L 908.217 799.407 M 955.668 799.407 L 955.668 842.556 L 967.592 842.556 Q 983.819 842.556 1000.046 839.728 L 1000.046 796.580 Q 984.065 799.407 967.592 799.407 L 955.668 799.407 M 948.292 721.346 L 912.273 721.346 L 912.273 789.573 L 948.292 789.573 L 948.292 721.346 M 967.961 789.573 Q 984.434 789.573 999.923 786.745 L 995.621 721.346 L 955.668 721.346 L 955.668 789.573 L 967.961 789.573 M 904.897 789.573 L 904.897 721.346 L 848.964 721.346 L 848.964 789.573 L 904.897 789.573 z"
                    fill-opacity="0.19000000000000003" style="opacity: 1;"></path><text style="font-size: 20px;"
                    x="940.179" y="786.951">O5</text>
            </g>
            <g sprite-identifier="s90937" data-original-title="" cursor="pointer">
                <path fill="#050505" stroke="#000000"
                    d="M 593.267 721.346 L 576.057 721.346 L 576.057 771.625 L 593.267 771.625 L 593.267 721.346 M 546.676 789.573 L 546.676 771.625 L 568.681 771.625 L 568.681 721.346 L 515.821 721.346 L 515.821 789.573 L 546.676 789.573 M 644.898 721.346 L 600.643 721.346 L 600.643 771.625 L 626.459 771.625 L 626.459 771.256 L 646.128 771.256 L 646.128 771.625 L 675.016 771.625 L 675.016 754.046 L 644.898 754.046 L 644.898 721.346 z"
                    fill-opacity="0.19000000000000003" style="opacity: 1;"></path><text style="font-size: 20px;"
                    x="628.360" y="754.577">O3</text><text style="font-size: 20px;" x="541.301" y="753.400">O3</text>
                <circle cx="628.360" cy="719.577" fill="#f0ad4e" r="10" stroke="#000" stroke-width="2"></circle>
                <circle cx="541.301" cy="718.4" fill="#f0ad4e" r="10" stroke="#000" stroke-width="2"></circle>
            </g>
            <g sprite-identifier="s90936">
                <path fill="#f1f1f1" stroke="#000000"
                    d="M 445.135 721.346 L 403.708 721.346 L 403.708 789.573 L 445.135 789.573 L 445.135 721.346 M 452.511 721.346 L 452.511 789.573 L 508.445 789.573 L 508.445 721.346 L 452.511 721.346 z"
                    fill-opacity="0.19000000000000003" style="opacity: 1;"></path><text style="font-size: 20px;"
                    x="456.076" y="760.459">O2</text>
            </g>
            <g sprite-identifier="s109541">
                <path fill="#f1f1f1" stroke="#000000"
                    d="M 1023.280 780.844 L 1024.632 780.476 L 1038.032 775.313 L 1025.124 746.670 L 1005.209 754.414 L 1007.299 785.270 L 1022.665 781.090 L 1023.280 780.844 M 1011.110 715.445 L 1002.874 719.871 L 1005.209 754.414 L 1025.124 746.670 L 1011.110 715.445 z"
                    fill-opacity="0.19000000000000003" style="opacity: 1;"></path><text style="font-size: 15.938px;"
                    x="1020.462" y="771.524">O6</text>
            </g>
            <g sprite-identifier="s81246" data-original-title="">
                <path fill="#f1f1f1" stroke="#000000"
                    d="M 1038.892 785.393 L 1054.259 818.216 Q 1076.632 806.906 1092.859 797.194 L 1073.805 768.797 Q 1057.947 777.894 1038.892 785.393 M 1031.885 787.852 Q 1025.370 790.310 1018.363 792.400 L 1031.394 829.033 Q 1039.507 825.346 1047.743 821.412 L 1031.885 787.852 M 1070.240 848.702 Q 1088.311 830.017 1100.358 812.069 L 1097.039 807.029 Q 1079.214 817.601 1057.947 828.173 L 1070.240 848.702 M 1053.398 830.509 Q 1032.623 840.712 1017.871 845.998 L 1028.074 886.442 Q 1049.219 870.092 1066.552 852.513 L 1053.398 830.509 M 1017.871 845.998 Q 1013.323 847.719 1009.512 848.702 L 1012.093 898.244 Q 1019.592 893.081 1028.074 886.442 L 1017.871 845.998 M 904.897 853.620 L 877.115 853.620 L 881.172 961.553 Q 894.448 957.251 904.897 953.440 L 904.897 853.620 M 1002.259 850.423 Q 985.171 853.620 967.592 853.620 L 912.273 853.620 L 912.273 950.735 Q 962.798 931.312 1004.840 903.161 L 1002.259 850.423 z"
                    fill-opacity="0.19000000000000003" style="opacity: 1;"></path><text style="font-size: 20px;"
                    x="988.736" y="870.175">O15</text>
            </g>
            <g sprite-identifier="s95630" data-original-title="">
                <path fill="#f1f1f1" stroke="#000000"
                    d="M 811.470 789.573 L 811.470 771.625 L 788.728 771.625 L 788.728 789.573 L 811.470 789.573 M 868.387 842.556 L 868.387 799.407 L 818.846 799.407 L 818.846 842.556 L 868.387 842.556 M 908.217 799.407 L 875.763 799.407 L 875.763 842.556 L 908.217 842.556 L 908.217 799.407 M 880.311 939.671 L 877.115 853.620 L 848.964 853.620 L 848.964 939.671 L 880.311 939.671 M 781.352 853.620 L 756.766 853.620 L 756.766 939.671 L 781.352 939.671 L 781.352 853.620 M 841.588 853.620 L 788.728 853.620 L 788.728 939.671 L 841.588 939.671 L 841.588 853.620 M 784.425 799.407 L 784.425 842.556 L 811.470 842.556 L 811.470 799.407 L 784.425 799.407 M 848.964 939.671 L 848.964 970.650 Q 864.576 966.716 881.172 961.553 L 880.311 939.671 L 848.964 939.671 M 781.352 939.671 L 756.766 939.671 L 756.766 986.385 Q 768.321 985.279 781.352 983.558 L 781.352 939.671 M 841.588 972.371 L 841.588 939.671 L 788.728 939.671 L 788.728 982.451 Q 816.141 978.395 841.588 972.371 z"
                    fill-opacity="0.19000000000000003" style="opacity: 1;"></path><text style="font-size: 20px;"
                    x="832.491" y="884.005">O14</text>
            </g>
            <g sprite-identifier="s81245">
                <path fill="#f1f1f1" stroke="#000000"
                    d="M 675.016 853.620 L 654.487 853.620 L 654.487 939.671 L 675.016 939.671 L 675.016 853.620 M 756.766 853.620 L 730.950 853.620 L 730.950 939.671 L 756.766 939.671 L 756.766 853.620 M 723.574 853.620 L 682.392 853.620 L 682.392 939.671 L 723.574 939.671 L 723.574 853.620 M 646.128 771.625 L 646.128 789.573 L 675.016 789.573 L 675.016 771.625 L 646.128 771.625 M 711.281 789.573 L 711.281 771.625 L 675.016 771.625 L 675.016 789.573 L 711.281 789.573 M 730.950 771.625 L 730.950 789.573 L 756.766 789.573 L 756.766 771.625 L 730.950 771.625 M 764.141 771.625 L 764.141 789.573 L 781.352 789.573 L 781.352 771.625 L 764.141 771.625 M 626.459 799.407 L 626.459 842.556 L 695.915 842.556 L 695.915 831.123 L 714.846 831.123 L 714.846 842.556 L 763.281 842.556 L 763.281 831.123 L 782.212 831.123 L 782.212 842.556 L 784.425 842.556 L 784.425 799.407 L 626.459 799.407 M 675.016 990.073 L 675.016 939.671 L 654.487 939.671 L 654.487 989.827 Q 662.969 990.073 675.016 990.073 M 756.766 939.671 L 730.950 939.671 L 730.950 988.598 Q 743.120 987.737 756.766 986.385 L 756.766 939.671 M 723.574 939.671 L 682.392 939.671 L 682.392 990.073 Q 703.291 990.073 723.574 988.967 L 723.574 939.671 z"
                    fill-opacity="0.19000000000000003" style="opacity: 1;"></path><text style="font-size: 20px;"
                    x="705.442" y="885.849">O13</text>
            </g>
            <g sprite-identifier="s95629">
                <path fill="#f1f1f1" stroke="#000000"
                    d="M 588.719 986.385 Q 603.225 987.369 626.459 988.598 L 626.459 939.671 L 551.471 939.671 L 551.471 983.558 Q 561.428 984.910 588.719 986.385 M 654.487 939.671 L 633.835 939.671 L 633.835 988.967 Q 642.931 989.458 654.487 989.827 L 654.487 939.671 M 544.095 939.671 L 512.256 939.671 L 512.256 976.919 Q 528.360 980.116 544.095 982.451 L 544.095 939.671 M 515.821 799.407 L 515.821 842.556 L 580.974 842.556 L 580.974 799.407 L 515.821 799.407 M 483.367 842.556 L 508.445 842.556 L 508.445 799.407 L 483.367 799.407 L 483.367 842.556 M 626.459 853.620 L 551.471 853.620 L 551.471 939.671 L 626.459 939.671 L 626.459 853.620 M 654.487 853.620 L 633.835 853.620 L 633.835 939.671 L 654.487 939.671 L 654.487 853.620 M 544.095 853.620 L 512.256 853.620 L 512.256 939.671 L 544.095 939.671 L 544.095 853.620 M 576.057 771.625 L 576.057 789.573 L 593.267 789.573 L 593.267 771.625 L 576.057 771.625 M 546.676 771.625 L 546.676 789.573 L 568.681 789.573 L 568.681 771.625 L 546.676 771.625 M 626.459 789.573 L 626.459 771.625 L 600.643 771.625 L 600.643 789.573 L 626.459 789.573 M 604.946 842.556 L 604.946 831.123 L 623.754 831.123 L 623.754 842.556 L 626.459 842.556 L 626.459 799.407 L 588.350 799.407 L 588.350 842.556 L 604.946 842.556 z"
                    fill-opacity="0.19000000000000003" style="opacity: 1;"></path><text style="font-size: 20px;"
                    x="568.927" y="885.726">O12</text>
            </g>
            <g sprite-identifier="s90934" data-original-title="" cursor="pointer">
                <path fill="#050505" stroke="#000000"
                    d="M 426.204 208.355 L 391.783 208.355 L 391.783 276.581 L 426.204 276.581 L 426.204 208.355 M 464.559 276.581 L 464.559 208.355 L 433.580 208.355 L 433.580 276.581 L 464.559 276.581 M 502.298 208.355 L 471.934 208.355 L 471.934 276.581 L 502.298 276.581 L 502.298 208.355 z"
                    fill-opacity="0.19000000000000003" style="opacity: 1;"></path><text style="font-size: 20px;"
                    x="447.041" y="247.468">E1</text>
                <circle cx="447.041" cy="212.468" fill="#ffeb99" r="10" stroke="#000" stroke-width="2"></circle>
            </g>
            <g sprite-identifier="s95628">
                <path fill="#f1f1f1" stroke="#000000"
                    d="M 308.805 782.197 Q 299.954 778.386 283.604 768.797 L 264.550 797.194 Q 296.758 816.494 297.618 816.986 Q 317.779 828.173 332.285 832.598 L 334.375 790.310 Q 320.237 787.237 308.805 782.197 M 352.200 793.752 Q 343.103 791.908 341.750 791.785 L 339.538 834.319 L 349.618 836.409 L 352.200 793.752 M 260.370 807.029 L 256.928 812.069 Q 258.034 813.667 265.656 826.452 Q 272.049 837.147 278.195 845.383 Q 297.495 871.076 329.334 893.326 L 331.916 843.785 Q 316.918 839.606 295.528 827.804 Q 290.611 825.100 260.370 807.029 M 405.920 853.620 L 389.816 853.620 Q 382.441 853.620 364.493 850.301 Q 344.824 846.613 339.169 845.506 L 336.464 898.244 Q 371.500 921.601 401.495 936.598 L 405.920 853.620 M 352.200 793.752 L 349.618 836.409 Q 379.982 842.556 389.816 842.556 L 401.864 842.556 L 401.864 799.407 L 389.816 799.407 Q 381.703 799.407 352.200 793.752 M 409.240 799.407 L 409.240 842.556 L 451.036 842.556 L 451.036 799.407 L 409.240 799.407 M 458.412 799.407 L 458.412 842.556 L 483.367 842.556 L 483.367 799.407 L 458.412 799.407 M 483.859 853.620 L 440.218 853.620 L 440.218 953.440 Q 445.627 955.407 461.485 962.659 Q 472.795 967.823 483.859 970.650 L 483.859 853.620 M 512.256 853.620 L 491.235 853.620 L 491.235 972.371 Q 501.192 974.707 512.256 976.919 L 512.256 853.620 M 432.842 853.620 L 405.920 853.620 L 401.495 936.598 Q 417.599 944.957 432.842 950.735 L 432.842 853.620 z"
                    fill-opacity="0.19000000000000003" style="opacity: 1;"></path><text style="font-size: 20px;"
                    x="384.592" y="877.858">O11</text>
            </g>
            <g sprite-identifier="s95623" data-original-title="" cursor="pointer">
                <path fill="#050505" stroke="#000000"
                    d="M 655.839 208.355 L 621.296 208.355 L 621.296 276.581 L 655.839 276.581 L 655.839 208.355 M 736.113 208.355 L 701.447 208.355 L 701.447 276.581 L 736.113 276.581 L 736.113 208.355 M 694.071 208.355 L 663.215 208.355 L 663.215 276.581 L 694.071 276.581 L 694.071 208.355 z"
                    fill-opacity="0.19000000000000003" style="opacity: 1;"></path><text style="font-size: 20px;"
                    x="678.704" y="247.468">E3</text>
                <circle cx="678.704" cy="212.468" fill="#f0ad4e" r="10" stroke="#000" stroke-width="2"></circle>
            </g>
            <g sprite-identifier="s109542">
                <path fill="#f1f1f1" stroke="#000000"
                    d="M 999.923 211.305 Q 992.793 209.953 984.557 209.215 Q 976.197 208.355 967.961 208.355 L 965.502 208.355 L 965.502 276.581 L 995.621 276.581 L 999.923 211.305 z"
                    fill-opacity="0.19000000000000003" style="opacity: 1;"></path><text style="font-size: 20px;"
                    x="982.713" y="247.468">S1A</text>
            </g>
            <g sprite-identifier="s95624" data-original-title="" cursor="pointer">
                <path fill="#050505" stroke="#000000"
                    d="M 965.502 208.355 L 931.082 208.355 L 931.082 276.581 L 965.502 276.581 L 965.502 208.355 M 923.706 208.355 L 892.850 208.355 L 892.850 276.581 L 923.706 276.581 L 923.706 208.355 M 885.474 276.581 L 885.474 208.355 L 850.808 208.355 L 850.808 276.581 L 885.474 276.581 z"
                    fill-opacity="0.19000000000000003" style="opacity: 1;"></path><text style="font-size: 20px;"
                    x="908.155" y="247.468">E5</text>
                <circle cx="908.155" cy="212.468" fill="#ffeb99" r="10" stroke="#000" stroke-width="2"></circle>
            </g>
            <g sprite-identifier="s109531" data-original-title="" cursor="pointer">
                <path fill="#050505" stroke="#000000"
                    d="M 541.022 208.355 L 502.298 208.355 L 502.298 276.581 L 541.022 276.581 L 541.022 208.355 M 548.397 276.581 L 579.253 276.581 L 579.253 208.355 L 548.397 208.355 L 548.397 276.581 M 621.296 208.355 L 586.629 208.355 L 586.629 276.581 L 621.296 276.581 L 621.296 208.355 z"
                    fill-opacity="0.19000000000000003" style="opacity: 1;"></path><text style="font-size: 20px;"
                    x="561.797" y="247.468">E2</text>
                <circle cx="561.797" cy="212.468" fill="#ffeb99" r="10" stroke="#000" stroke-width="2"></circle>
            </g>
            <g sprite-identifier="s95622">
                <path fill="#f1f1f1" stroke="#000000"
                    d="M 436.530 72.762 L 433.580 74.360 L 433.580 185.489 L 449.069 185.489 L 449.069 66.369 Q 442.677 69.443 436.530 72.762 M 410.592 86.038 Q 401.495 89.849 396.578 94.275 L 394.119 96.242 Q 377.400 111.485 365.599 115.050 Q 357.731 115.788 357.117 117.632 L 361.788 185.489 L 426.204 185.489 L 426.204 78.662 Q 422.024 81.244 410.592 86.038 z"
                    fill-opacity="0.19000000000000003" style="opacity: 1;"></path><text style="font-size: 20px;"
                    x="403.093" y="130.929">E1A</text>
            </g>
            <g sprite-identifier="s109535">
                <path fill="#f1f1f1" stroke="#000000"
                    d="M 850.808 208.355 L 816.387 208.355 L 816.387 276.581 L 850.808 276.581 L 850.808 208.355 M 809.011 208.355 L 778.033 208.355 L 778.033 276.581 L 809.011 276.581 L 809.011 208.355 M 770.657 276.581 L 770.657 208.355 L 736.113 208.355 L 736.113 276.581 L 770.657 276.581 z"
                    fill-opacity="0.19000000000000003" style="opacity: 1;"></path><text style="font-size: 20px;"
                    x="793.461" y="247.468">E4</text>
            </g>
            <g sprite-identifier="s109530">
                <path fill="#f1f1f1" stroke="#000000"
                    d="M 464.559 185.489 L 464.559 59.362 Q 456.937 62.436 449.069 66.369 L 449.069 185.489 L 464.559 185.489 M 502.298 46.086 Q 488.899 50.019 476.606 54.568 L 471.934 56.412 L 471.934 185.489 L 502.298 185.489 L 502.298 46.086 z"
                    fill-opacity="0.19000000000000003" style="opacity: 1;"></path><text style="font-size: 20px;"
                    x="475.684" y="120.788">E1B</text>
            </g>
            <g sprite-identifier="s109534" data-original-title="" cursor="pointer">
                <path fill="#050505" stroke="#000000"
                    d="M 678.704 118.492 L 663.215 118.492 L 663.215 185.489 L 678.704 185.489 L 678.704 118.492 M 655.839 118.492 L 621.296 118.492 L 621.296 185.489 L 655.839 185.489 L 655.839 118.492 M 678.704 24.327 L 663.215 24.450 L 663.215 118.492 L 678.704 118.492 L 678.704 24.327 M 621.541 26.171 L 621.296 26.171 L 621.296 118.492 L 655.839 118.492 L 655.839 24.696 Q 649.324 24.819 638.137 25.310 Q 629.532 25.679 621.541 26.171 z"
                    fill-opacity="0.19000000000000003" style="opacity: 1;"></path><text style="font-size: 20px;" x="650"
                    y="109.908">E3E</text>
                <circle cx="650" cy="74.908" fill="#ffeb99" r="10" stroke="#000" stroke-width="2"></circle>
            </g>
            <g sprite-identifier="s109533">
                <path fill="#f1f1f1" stroke="#000000"
                    d="M 579.253 118.492 L 563.887 118.492 L 563.887 185.489 L 579.253 185.489 L 579.253 118.492 M 621.296 118.492 L 586.629 118.492 L 586.629 185.489 L 621.296 185.489 L 621.296 118.492 M 579.253 30.351 L 563.887 32.563 L 563.887 118.492 L 579.253 118.492 L 579.253 30.351 M 597.693 28.261 Q 590.194 28.998 586.629 29.490 L 586.629 118.492 L 621.296 118.492 L 621.296 26.171 Q 609.371 27.031 597.693 28.261 z"
                    fill-opacity="0.19000000000000003" style="opacity: 1;"></path><text style="font-size: 20px;"
                    x="592.591" y="110.830">E2D</text>
            </g>
            <g sprite-identifier="s81239" data-original-title="" cursor="pointer">
                <path fill="#050505" stroke="#000000"
                    d="M 694.071 118.492 L 678.704 118.492 L 678.704 185.489 L 694.071 185.489 L 694.071 118.492 M 736.113 118.492 L 701.447 118.492 L 701.447 185.489 L 736.113 185.489 L 736.113 118.492 M 694.071 24.450 L 678.704 24.327 L 678.704 118.492 L 694.071 118.492 L 694.071 24.450 M 735.867 26.171 Q 727.631 25.679 719.149 25.310 Q 707.962 24.819 701.447 24.696 L 701.447 118.492 L 736.113 118.492 L 736.113 26.171 L 735.867 26.171 z"
                    fill-opacity="0.19000000000000003" style="opacity: 1;"></path><text style="font-size: 20px;"
                    x="707.409" y="109.908">E3F</text>
                <circle cx="707.409" cy="74.908" fill="#ffeb99" r="10" stroke="#000" stroke-width="2"></circle>
            </g>
            <g sprite-identifier="s109532">
                <path fill="#f1f1f1" stroke="#000000"
                    d="M 563.887 118.492 L 548.397 118.492 L 548.397 185.489 L 563.887 185.489 L 563.887 118.492 M 541.022 118.492 L 502.298 118.492 L 502.298 185.489 L 541.022 185.489 L 541.022 118.492 M 548.397 35.145 L 548.397 118.492 L 563.887 118.492 L 563.887 32.563 L 548.397 35.145 M 541.022 36.620 Q 528.606 39.079 517.050 42.029 Q 514.591 42.644 507.461 44.611 L 502.298 46.086 L 502.298 118.492 L 541.022 118.492 L 541.022 36.620 z"
                    fill-opacity="0.19000000000000003" style="opacity: 1;"></path><text style="font-size: 20px;"
                    x="533.093" y="114.026">E2C</text>
            </g>
            <g sprite-identifier="s109536" data-original-title="">
                <path fill="#f1f1f1" stroke="#000000"
                    d="M 908.340 66.369 Q 900.349 62.436 892.850 59.362 L 892.850 185.489 L 908.340 185.489 L 908.340 66.369 M 885.474 56.412 L 880.680 54.568 Q 866.297 49.159 850.808 44.856 L 850.808 185.489 L 885.474 185.489 L 885.474 56.412 z"
                    fill-opacity="0.19000000000000003" style="opacity: 1;"></path><text style="font-size: 20px;"
                    x="879.574" y="120.173">E5I</text>
            </g>
            <g sprite-identifier="s81240">
                <path fill="#f1f1f1" stroke="#000000"
                    d="M 793.399 118.492 L 778.033 118.492 L 778.033 185.489 L 793.399 185.489 L 793.399 118.492 M 770.657 118.492 L 736.113 118.492 L 736.113 185.489 L 770.657 185.489 L 770.657 118.492 M 793.399 32.563 L 778.033 30.351 L 778.033 118.492 L 793.399 118.492 L 793.399 32.563 M 759.593 28.261 Q 747.792 27.031 736.113 26.171 L 736.113 118.492 L 770.657 118.492 L 770.657 29.490 Q 767.092 28.998 759.593 28.261 z"
                    fill-opacity="0.19000000000000003" style="opacity: 1;"></path><text style="font-size: 20px;"
                    x="764.756" y="110.830">E4G</text>
            </g>
            <g sprite-identifier="s90935" data-original-title="">
                <path fill="#f1f1f1" stroke="#000000"
                    d="M 923.706 74.360 L 920.879 72.762 Q 915.470 69.811 908.340 66.369 L 908.340 185.489 L 923.706 185.489 L 923.706 74.360 M 946.694 86.038 Q 935.384 81.244 931.082 78.662 L 931.082 185.489 L 995.621 185.489 L 1000.169 117.632 Q 999.923 116.525 997.833 116.156 Q 993.777 115.665 991.810 115.050 Q 979.885 111.485 963.167 96.242 L 960.831 94.275 Q 955.914 89.849 946.694 86.038 z"
                    fill-opacity="0.19000000000000003" style="opacity: 1;"></path><text style="font-size: 20px;"
                    x="954.254" y="130.929">E5J</text>
            </g>
            <g sprite-identifier="s81244">
                <path fill="#f1f1f1" stroke="#000000"
                    d="M 391.783 208.355 L 389.325 208.355 Q 381.211 208.355 372.852 209.215 Q 364.493 209.953 357.363 211.182 L 361.788 276.581 L 391.783 276.581 L 391.783 208.355 M 353.675 266.624 Q 337.571 270.066 323.065 276.827 L 346.299 332.023 Q 348.757 331.040 354.658 329.073 L 354.658 280.515 L 353.675 266.624 M 293.684 207.125 Q 313.968 196.799 335.850 191.759 L 334.252 165.329 Q 307.821 170.615 283.112 182.047 L 293.684 207.125 M 349.987 212.657 Q 325.769 218.189 303.519 230.359 L 323.065 276.827 Q 337.571 270.066 353.675 266.624 L 349.987 212.657 z"
                    fill-opacity="0.19000000000000003" style="opacity: 1;"></path><text style="font-size: 20px;"
                    x="337.448" y="253.676">N2H</text>
            </g>
            <g sprite-identifier="s81241" data-original-title="">
                <path fill="#f1f1f1" stroke="#000000"
                    d="M 808.888 118.492 L 793.399 118.492 L 793.399 185.489 L 808.888 185.489 L 808.888 118.492 M 850.808 118.492 L 816.264 118.492 L 816.264 185.489 L 850.808 185.489 L 850.808 118.492 M 808.888 35.145 L 793.399 32.563 L 793.399 118.492 L 808.888 118.492 L 808.888 35.145 M 840.359 42.029 Q 828.680 39.079 816.264 36.620 L 816.264 118.492 L 850.808 118.492 L 850.808 44.856 L 849.947 44.611 Q 843.678 42.889 840.359 42.029 z"
                    fill-opacity="0.19000000000000003" style="opacity: 1;"></path><text style="font-size: 20px;"
                    x="822.103" y="114.026">E4H</text>
            </g>
            <g sprite-identifier="s109539">
                <path fill="#f1f1f1" stroke="#000000"
                    d="M 331.547 342.349 Q 337.448 337.063 341.750 334.236 L 295.282 296.619 Q 284.587 308.789 283.358 324.156 L 330.441 343.333 L 331.547 342.349 M 276.843 329.442 Q 271.803 335.957 268.484 346.160 Q 263.566 360.666 263.075 380.950 L 330.318 380.950 L 330.318 351.323 L 276.843 329.442 M 207.510 297.357 L 180.957 284.080 Q 172.106 303.503 167.557 324.402 Q 165.099 335.465 164.607 339.645 Q 163.869 344.685 163.623 355.134 L 163.500 366.813 L 190.176 366.813 L 190.299 364.477 Q 190.422 354.520 191.160 349.602 Q 191.652 346.160 194.356 335.219 Q 199.027 315.796 207.510 297.357 M 223.491 269.451 Q 230.129 259.740 238.365 250.397 L 215.131 231.589 Q 205.789 241.792 198.413 252.610 L 223.491 269.451 M 238.242 290.350 Q 234.432 296.004 230.744 302.643 L 283.358 324.156 Q 284.587 308.789 295.282 296.619 L 257.543 265.886 Q 246.602 277.565 238.242 290.350 M 227.425 309.158 Q 218.574 326.983 213.779 346.037 Q 209.600 363.125 208.862 380.950 L 263.075 380.950 Q 263.566 360.666 268.484 346.160 Q 271.803 335.957 276.843 329.442 L 227.425 309.158 z"
                    fill-opacity="0.19000000000000003" style="opacity: 1;"></path><text style="font-size: 20px;"
                    x="252.625" y="311.269">N2F</text>
            </g>
            <g sprite-identifier="s81243">
                <path fill="#f1f1f1" stroke="#000000"
                    d="M 342.980 333.621 Q 344.455 332.761 346.299 332.023 L 323.065 276.827 Q 305.486 285.064 295.282 296.619 L 341.750 334.236 L 342.980 333.621 M 215.131 231.589 L 238.365 250.397 Q 262.091 223.352 293.684 207.125 L 283.112 182.047 Q 243.529 200.487 215.131 231.589 M 295.282 296.619 Q 305.486 285.064 323.065 276.827 L 303.519 230.359 Q 277.580 244.496 257.543 265.886 L 295.282 296.619 z"
                    fill-opacity="0.19000000000000003" style="opacity: 1;"></path><text style="font-size: 20px;"
                    x="288.950" y="273.730">N2G</text>
            </g>
            <g sprite-identifier="s95627" data-original-title="" cursor="pointer">
                <path fill="#050505" stroke="#000000"
                    d="M 330.318 430.122 L 330.318 388.326 L 263.075 388.326 L 263.075 430.122 L 330.318 430.122 M 293.070 498.964 L 293.070 437.498 L 263.075 437.498 L 263.075 498.964 L 293.070 498.964 M 330.318 437.498 L 297.126 437.498 Q 297.126 452.373 297.126 498.964 L 330.318 498.964 L 330.318 437.498 M 188.947 430.122 L 188.947 385.252 L 162.271 385.252 L 162.271 430.122 L 188.947 430.122 M 162.271 495.276 L 188.947 495.276 L 188.947 437.498 L 162.271 437.498 L 162.271 495.276 M 263.075 430.122 L 263.075 388.326 L 208.616 388.326 L 208.616 430.122 L 263.075 430.122 M 208.616 437.498 L 208.616 484.827 L 257.051 484.827 L 257.051 498.964 L 263.075 498.964 L 263.075 437.498 L 208.616 437.498 z"
                    fill-opacity="0.19000000000000003" style="opacity: 1;"></path><text style="font-size: 20px;"
                    x="246.294" y="447.108">N2E</text>
                <circle cx="246.294" cy="412.108" fill="#a3d165" r="10" stroke="#000" stroke-width="2"></circle>
            </g>
            <g sprite-identifier="s109538">
                <path fill="#f1f1f1" stroke="#000000"
                    d="M 293.070 560.429 L 293.070 498.964 L 263.075 498.964 L 263.075 560.429 L 293.070 560.429 M 330.318 498.964 L 297.126 498.964 L 297.004 560.429 L 330.318 560.429 L 330.318 498.964 M 330.318 609.602 L 330.318 567.805 L 263.075 567.805 L 263.075 609.602 L 330.318 609.602 M 162.271 567.805 L 162.271 613.044 L 189.070 613.044 L 188.947 567.805 L 162.271 567.805 M 162.271 502.652 L 162.271 560.429 L 188.947 560.429 L 188.947 502.652 L 162.271 502.652 M 263.075 498.964 L 257.051 498.964 L 257.051 513.101 L 208.616 513.101 L 208.616 560.429 L 263.075 560.429 L 263.075 498.964 M 208.616 567.805 L 208.616 609.602 L 263.075 609.602 L 263.075 567.805 L 208.616 567.805 z"
                    fill-opacity="0.19000000000000003" style="opacity: 1;"></path><text style="font-size: 20px;"
                    x="246.294" y="561.004">N1D</text>
            </g>
            <g sprite-identifier="s109537">
                <path fill="#f1f1f1" stroke="#000000"
                    d="M 331.547 655.578 L 330.932 655.086 L 282.375 706.225 Q 295.282 719.502 310.649 720.731 L 323.802 699.341 L 343.594 664.675 L 342.980 664.306 Q 340.152 662.831 335.604 659.143 Q 332.531 656.684 331.547 655.578 M 354.535 719.871 L 328.228 706.102 L 293.807 762.036 L 308.805 770.518 L 324.540 777.525 L 341.136 783.057 L 349.987 785.270 L 354.535 719.871 z"
                    fill-opacity="0.19000000000000003" style="opacity: 1;"></path><text style="font-size: 20px;"
                    x="332.573" y="752.237">N1B</text>
            </g>
            <g sprite-identifier="s90938">
                <path fill="#f1f1f1" stroke="#000000"
                    d="M 1168.339 567.805 L 1168.339 613.044 L 1210.135 613.044 L 1210.135 567.805 L 1168.339 567.805 M 1168.339 560.429 L 1210.135 560.429 L 1210.135 502.652 L 1168.339 502.652 L 1168.339 560.429 M 1148.670 560.429 L 1148.670 498.964 L 1092.982 498.964 L 1092.982 560.429 L 1148.670 560.429 M 1092.982 567.805 L 1092.982 609.602 L 1148.670 609.602 L 1148.670 567.805 L 1092.982 567.805 M 1053.644 498.964 L 1026.968 498.964 L 1026.968 560.429 L 1053.644 560.429 L 1053.644 498.964 M 1092.982 560.429 L 1092.982 498.964 L 1057.701 498.964 L 1057.701 560.429 L 1092.982 560.429 M 1092.982 609.602 L 1092.982 567.805 L 1026.968 567.805 L 1026.968 609.602 L 1092.982 609.602 z"
                    fill-opacity="0.19000000000000003" style="opacity: 1;"></path><text style="font-size: 20px;"
                    x="1118.552" y="561.004">S2E</text>
            </g>
            <g sprite-identifier="s81247">
                <path fill="#f1f1f1" stroke="#000000"
                    d="M 1137.606 286.293 Q 1140.065 290.104 1143.138 295.144 L 1186.655 277.073 Q 1184.197 272.525 1180.509 266.624 Q 1167.355 245.480 1150.268 227.532 L 1115.847 258.019 Q 1128.140 271.787 1137.606 286.293 M 1146.703 301.659 L 1147.317 302.889 Q 1157.767 322.558 1163.053 344.316 Q 1164.528 350.340 1166.495 356.364 Q 1167.970 361.158 1168.216 368.657 L 1210.135 368.657 L 1210.135 366.813 Q 1209.644 345.792 1204.972 325.754 Q 1199.932 303.995 1190.097 283.711 L 1146.703 301.659 M 1126.542 302.643 Q 1122.854 296.004 1119.166 290.350 Q 1110.561 277.073 1099.129 265.149 L 1060.774 300.430 Q 1070.609 310.879 1077.370 322.681 L 1126.542 302.643 M 1129.984 309.158 L 1080.935 329.319 Q 1092.121 352.430 1092.982 380.950 L 1148.547 380.950 Q 1147.686 363.125 1143.630 346.037 Q 1138.835 326.983 1129.984 309.158 M 1025.862 342.349 L 1026.968 343.333 L 1077.370 322.681 Q 1070.609 310.879 1060.774 300.430 L 1020.207 337.678 Q 1024.386 340.874 1025.862 342.349 M 1080.935 329.319 L 1026.968 351.323 L 1026.968 380.950 L 1092.982 380.950 Q 1092.121 352.430 1080.935 329.319 z"
                    fill-opacity="0.19000000000000003" style="opacity: 1;"></path><text style="font-size: 20px;"
                    x="1111.642" y="350.417">S1C</text>
            </g>
            <g sprite-identifier="s95632">
                <path fill="#f1f1f1" stroke="#000000"
                    d="M 1057.086 232.203 Q 1033.360 218.681 1007.299 212.657 L 1003.611 265.763 Q 1014.921 269.083 1026.845 275.352 Q 1046.391 285.678 1060.774 300.430 L 1099.129 265.149 Q 1080.566 245.603 1057.086 232.203 M 1003.611 265.763 L 1002.628 280.515 L 1002.628 329.073 Q 1010.864 331.777 1014.429 333.621 Q 1016.519 334.728 1020.207 337.678 L 1060.774 300.430 Q 1046.391 285.678 1026.845 275.352 Q 1014.921 269.083 1003.611 265.763 z"
                    fill-opacity="0.19000000000000003" style="opacity: 1;"></path><text style="font-size: 20px;"
                    x="1050.878" y="280.168">S1B</text>
            </g>
            <g sprite-identifier="s81242">
                <path fill="#f1f1f1" stroke="#000000"
                    d="M 330.932 655.086 L 330.441 654.717 L 265.656 681.147 Q 272.786 696.268 282.375 706.225 L 330.932 655.086 M 263.075 616.977 L 263.075 674.140 L 330.318 646.727 L 330.318 616.977 L 263.075 616.977 M 189.070 613.658 L 189.070 613.044 L 162.271 613.044 L 162.394 620.051 Q 162.886 642.055 167.557 662.954 Q 170.753 676.845 175.425 689.507 L 203.084 682.746 Q 197.675 668.977 194.356 655.086 Q 189.562 634.802 189.070 613.658 M 186.611 711.266 Q 188.455 715.814 191.283 721.961 Q 195.217 730.443 200.749 739.663 Q 202.715 743.105 206.772 747.284 Q 209.231 749.989 214.763 755.029 Q 219.188 759.332 222.999 763.019 L 243.651 743.228 Q 243.037 742.613 240.947 741.752 Q 238.980 740.892 238.120 740.154 Q 234.432 736.589 232.956 734.745 Q 230.375 731.918 228.285 728.845 L 225.826 724.788 Q 220.540 716.920 218.696 712.864 Q 216.975 709.544 214.517 704.258 L 186.611 711.266 M 238.242 707.701 Q 246.479 720.485 257.543 732.287 L 282.375 706.225 Q 272.786 696.268 265.656 681.147 L 230.744 695.407 Q 234.432 702.046 238.242 707.701 M 263.075 674.140 L 263.075 616.977 L 208.862 616.977 Q 209.600 634.802 213.779 651.890 Q 218.574 671.067 227.425 688.769 L 263.075 674.140 z"
                    fill-opacity="0.19000000000000003" style="opacity: 1;"></path><text style="font-size: 20px;"
                    x="238.367" y="656.561">N1C</text>
            </g>
            <g sprite-identifier="s81248">
                <path fill="#f1f1f1" stroke="#000000"
                    d="M 1210.135 430.122 L 1210.135 385.007 L 1168.339 385.007 L 1168.339 430.122 L 1210.135 430.122 M 1210.135 437.498 L 1168.339 437.498 L 1168.339 495.276 L 1210.135 495.276 L 1210.135 437.498 M 1148.670 430.122 L 1148.670 388.326 L 1092.982 388.326 L 1092.982 430.122 L 1148.670 430.122 M 1148.670 437.498 L 1092.982 437.498 L 1092.982 498.964 L 1148.670 498.964 L 1148.670 437.498 M 1092.982 430.122 L 1092.982 388.326 L 1026.968 388.326 L 1026.968 430.122 L 1092.982 430.122 M 1053.644 437.498 L 1026.968 437.498 L 1026.968 498.964 L 1053.644 498.964 L 1053.644 437.498 M 1092.982 498.964 L 1092.982 437.498 L 1057.701 437.498 L 1057.701 498.964 L 1092.982 498.964 z"
                    fill-opacity="0.19000000000000003" style="opacity: 1;"></path><text style="font-size: 20px;"
                    x="1118.552" y="446.985">S1D</text>
            </g>
            <g sprite-identifier="s90939">
                <path fill="#f1f1f1" stroke="#000000"
                    d="M 1059.176 764.741 L 1059.545 764.495 L 1063.479 762.036 L 1048.358 737.450 L 1025.124 746.670 L 1038.032 775.313 L 1048.481 770.518 L 1059.176 764.741 M 1029.058 706.102 L 1011.110 715.445 L 1025.124 746.670 L 1048.358 737.450 L 1029.058 706.102 z"
                    fill-opacity="0.19000000000000003" style="opacity: 1;"></path><text style="font-size: 16.405px;"
                    x="1037.293" y="744.374">S2G</text>
            </g>
            <g sprite-identifier="s81249">
                <path fill="#f1f1f1" stroke="#000000"
                    d="M 1182.353 709.299 Q 1188.868 693.318 1193.540 681.393 L 1156.046 674.878 L 1148.547 696.022 L 1182.353 709.299 M 1204.972 649.554 Q 1205.710 646.850 1208.045 639.597 Q 1209.398 635.786 1209.766 629.271 L 1168.216 629.271 Q 1167.970 636.769 1166.495 641.564 Q 1165.634 644.637 1163.053 653.611 Q 1162.684 655.086 1162.069 659.143 Q 1161.209 663.445 1159.611 668.363 L 1196.859 674.140 Q 1202.759 659.143 1204.972 649.554 M 1210.135 613.044 L 1168.339 613.044 L 1168.339 621.895 L 1210.135 621.895 L 1210.135 613.044 M 1086.590 657.913 Q 1084.623 665.412 1082.164 669.223 L 1129.984 688.769 Q 1134.410 680.041 1137.606 671.067 L 1086.590 657.913 M 1143.630 651.890 Q 1147.686 634.802 1148.547 616.977 L 1092.736 616.977 Q 1091.261 637.384 1088.311 651.398 L 1140.065 664.306 Q 1141.663 659.389 1143.630 651.890 M 1026.968 642.793 L 1026.968 646.727 L 1082.164 669.223 Q 1084.623 665.412 1086.590 657.913 L 1026.968 642.793 M 1026.968 616.977 L 1026.968 636.278 L 1088.311 651.398 Q 1091.261 637.384 1092.736 616.977 L 1026.968 616.977 z"
                    fill-opacity="0.19000000000000003" style="opacity: 1;"></path><text style="font-size: 20px;"
                    x="1117.375" y="644.995">S2F</text>
            </g>
            <g>
                <path fill="#050505" stroke="#000000"
                    d="M 989.597 331.777 Q 989.597 326.983 986.032 323.664 Q 982.467 320.222 977.427 320.222 L 381.703 320.222 Q 376.663 320.222 372.975 323.664 Q 369.410 326.983 369.410 331.777 L 369.410 668.608 Q 369.410 673.403 372.975 676.722 Q 376.663 680.164 381.703 680.164 L 977.427 680.164 Q 982.467 680.164 986.032 676.722 Q 989.597 673.403 989.597 668.608 L 989.597 331.777 z"
                    fill-opacity="0.19000000000000003"></path>
                <path stroke-width="1.8" fill="#050505" stroke="#000000"
                    d="M 989.597 331.777 L 989.597 668.608 Q 989.597 673.403 986.032 676.722 Q 982.467 680.164 977.427 680.164 L 381.580 680.164 Q 376.540 680.164 372.975 676.722 Q 369.410 673.403 369.410 668.608 L 369.410 331.777 Q 369.410 326.983 372.975 323.664 Q 376.540 320.222 381.580 320.222 L 977.427 320.222 Q 982.467 320.222 986.032 323.664 Q 989.597 326.983 989.597 331.777 z"
                    fill-opacity="0.19000000000000003"></path>
                <path stroke-width="2.25" fill="#050505" stroke="#000000"
                    d="M 966.240 657.791 L 394.611 657.791 L 394.611 342.595 L 966.240 342.595 L 966.240 657.791 z"
                    fill-opacity="0.19000000000000003"></path>
                <path stroke-width="2.25" fill="#050505" stroke="#000000" d="M 680.425 342.964 L 680.425 657.422"
                    fill-opacity="0.19000000000000003"></path>
                <path stroke-width="2.25" fill="#050505" stroke="#000000"
                    d="M 680.302 456.552 Q 699.357 456.552 712.879 469.337 Q 726.279 482.122 726.279 500.193 Q 726.279 518.264 712.879 531.049 Q 699.357 543.833 680.302 543.833 Q 661.248 543.833 647.849 531.049 Q 634.326 518.264 634.326 500.193 Q 634.326 482.122 647.849 469.337 Q 661.248 456.552 680.302 456.552 z"
                    fill-opacity="0.19000000000000003"></path>
                <path stroke-width="2.25" fill="#050505" stroke="#000000"
                    d="M 486.440 463.928 L 486.440 397.300 L 394.980 397.300 L 394.980 603.209 L 486.440 603.209 L 486.440 536.458"
                    fill-opacity="0.19000000000000003"></path>
                <path stroke-width="2.25" fill="#050505" stroke="#000000"
                    d="M 486.440 463.928 L 486.440 536.458 Q 495.783 530.434 501.192 521.091 Q 506.847 511.257 506.847 500.193 Q 506.847 489.006 501.192 479.295 Q 495.783 469.829 486.440 463.928 z"
                    fill-opacity="0.19000000000000003"></path>
                <path stroke-width="2.25" fill="#050505" stroke="#000000"
                    d="M 873.919 463.928 L 873.919 397.300 L 966.117 397.300 L 966.117 603.209 L 873.919 603.209 L 873.919 536.458"
                    fill-opacity="0.19000000000000003"></path>
                <path stroke-width="2.25" fill="#050505" stroke="#000000"
                    d="M 873.919 463.928 L 873.919 536.458 Q 864.330 530.434 858.921 521.091 Q 853.266 511.257 853.266 500.193 Q 853.266 489.006 858.921 479.295 Q 864.330 469.829 873.919 463.928 z"
                    fill-opacity="0.19000000000000003"></path>
                <path fill="#050505" stroke="#000000"
                    d="M 188.947 385.252 L 188.947 374.189 L 162.271 374.189 L 162.271 385.252 L 188.947 385.252 M 1210.135 385.007 L 1210.135 376.033 L 1168.339 376.033 L 1168.339 385.007 L 1210.135 385.007 z"
                    fill-opacity="0.19000000000000003"></path>
            </g>
        </g>
        <defs>
            <style type="text/css">
                .svg-pan-zoom-control {
                    cursor: pointer;
                    fill: white;
                    fill-opacity: 1;
                    stroke-width: 20;
                    stroke: rgb(0, 0, 0);
                }

                .svg-pan-zoom-control-background {
                    fill: grey;
                }
            </style>
        </defs>
        <g id="svg-pan-zoom-controls" transform="translate(-12 7) scale(0.75)" class="svg-pan-zoom-control">
            <g id="svg-pan-zoom-zoom-in" transform="translate(30.5 5) scale(0.015)" class="svg-pan-zoom-control">
                <rect x="100" y="100" width="1200" height="1200" class="svg-pan-zoom-control-background"></rect>
                <path
                    d="M1280 576v128q0 26 -19 45t-45 19h-320v320q0 26 -19 45t-45 19h-128q-26 0 -45 -19t-19 -45v-320h-320q-26 0 -45 -19t-19 -45v-128q0 -26 19 -45t45 -19h320v-320q0 -26 19 -45t45 -19h128q26 0 45 19t19 45v320h320q26 0 45 19t19 45zM1536 1120v-960 q0 -119 -84.5 -203.5t-203.5 -84.5h-960q-119 0 -203.5 84.5t-84.5 203.5v960q0 119 84.5 203.5t203.5 84.5h960q119 0 203.5 -84.5t84.5 -203.5z"
                    class="svg-pan-zoom-control-element"></path>
            </g>
            <g id="svg-pan-zoom-zoom-out" transform="translate(30.5 40) scale(0.015)" class="svg-pan-zoom-control">
                <rect x="100" y="100" width="1200" height="1200" class="svg-pan-zoom-control-background"></rect>
                <path
                    d="M1280 576v128q0 26 -19 45t-45 19h-896q-26 0 -45 -19t-19 -45v-128q0 -26 19 -45t45 -19h896q26 0 45 19t19 45zM1536 1120v-960q0 -119 -84.5 -203.5t-203.5 -84.5h-960q-119 0 -203.5 84.5t-84.5 203.5v960q0 119 84.5 203.5t203.5 84.5h960q119 0 203.5 -84.5 t84.5 -203.5z"
                    class="svg-pan-zoom-control-element"></path>
            </g>
        </g>
    </svg>