<svg style="overflow: hidden; touch-action: none; user-select: none;" version="1.1"
        xmlns="http://www.w3.org/2000/svg" width="455" height="396" xmlns:xlink="http://www.w3.org/1999/xlink"
        xmlns:ev="http://www.w3.org/2001/xml-events">
        <defs>
            <clipPath id="clip-1" fill="#999999">
                <path d="M2993.2,1947.9h-65.4v-482.4h-1730.7v482.4h-64.9v153.1h64.9v483h1730.7v-483h65.4z" fill="none">
                </path>
            </clipPath>
            <clipPath id="clip-2" fill="#999999">
                <path d="M2993.2,1947.9h-65.4v-482.4h-1730.7v482.4h-64.9v153.1h64.9v483h1730.7v-483h65.4z" fill="none">
                </path>
            </clipPath>
            <clipPath id="clip-3" fill="#999999">
                <path d="M2993.2,1947.9h-65.4v-482.4h-1730.7v482.4h-64.9v153.1h64.9v483h1730.7v-483h65.4z" fill="none">
                </path>
            </clipPath>
            <clipPath id="clip-4" fill="#999999">
                <path d="M2993.2,1947.9h-65.4v-482.4h-1730.7v482.4h-64.9v153.1h64.9v483h1730.7v-483h65.4z" fill="none">
                </path>
            </clipPath>
            <clipPath id="clip-5" fill="#999999">
                <path d="M2993.2,1947.9h-65.4v-482.4h-1730.7v482.4h-64.9v153.1h64.9v483h1730.7v-483h65.4z" fill="none">
                </path>
            </clipPath>
            <clipPath id="clip-6" fill="#999999">
                <path d="M2993.2,1947.9h-65.4v-482.4h-1730.7v482.4h-64.9v153.1h64.9v483h1730.7v-483h65.4z" fill="none">
                </path>
            </clipPath>
            <clipPath id="clip-7" fill="#999999">
                <path d="M2993.2,1947.9h-65.4v-482.4h-1730.7v482.4h-64.9v153.1h64.9v483h1730.7v-483h65.4z" fill="none">
                </path>
            </clipPath>
            <clipPath id="clip-8" fill="#999999">
                <path d="M2993.2,1947.9h-65.4v-482.4h-1730.7v482.4h-64.9v153.1h64.9v483h1730.7v-483h65.4z" fill="none">
                </path>
            </clipPath>
            <clipPath id="clip-9" fill="#999999">
                <path d="M2993.2,1947.9h-65.4v-482.4h-1730.7v482.4h-64.9v153.1h64.9v483h1730.7v-483h65.4z" fill="none">
                </path>
            </clipPath>
            <clipPath id="clip-10" fill="#999999">
                <path d="M2993.2,1947.9h-65.4v-482.4h-1730.7v482.4h-64.9v153.1h64.9v483h1730.7v-483h65.4z" fill="none">
                </path>
            </clipPath>
            <clipPath id="clip-11" fill="#999999">
                <path d="M2993.2,1947.9h-65.4v-482.4h-1730.7v482.4h-64.9v153.1h64.9v483h1730.7v-483h65.4z" fill="none">
                </path>
            </clipPath>
            <clipPath id="clip-12" fill="#999999">
                <path d="M2993.2,1947.9h-65.4v-482.4h-1730.7v482.4h-64.9v153.1h64.9v483h1730.7v-483h65.4z" fill="none">
                </path>
            </clipPath>
            <clipPath id="clip-13" fill="#999999">
                <path d="M2993.2,1947.9h-65.4v-482.4h-1730.7v482.4h-64.9v153.1h64.9v483h1730.7v-483h65.4z" fill="none">
                </path>
            </clipPath>
            <clipPath id="clip-14" fill="#999999">
                <path d="M2993.2,1947.9h-65.4v-482.4h-1730.7v482.4h-64.9v153.1h64.9v483h1730.7v-483h65.4z" fill="none">
                </path>
            </clipPath>
            <clipPath id="clip-15" fill="#999999">
                <path d="M2993.2,1947.9h-65.4v-482.4h-1730.7v482.4h-64.9v153.1h64.9v483h1730.7v-483h65.4z" fill="none">
                </path>
            </clipPath>
            <clipPath id="clip-16" fill="#999999">
                <path d="M2993.2,1947.9h-65.4v-482.4h-1730.7v482.4h-64.9v153.1h64.9v483h1730.7v-483h65.4z" fill="none">
                </path>
            </clipPath>
            <clipPath id="clip-17" fill="#999999">
                <path d="M2993.2,1947.9h-65.4v-482.4h-1730.7v482.4h-64.9v153.1h64.9v483h1730.7v-483h65.4z" fill="none">
                </path>
            </clipPath>
            <clipPath id="clip-18" fill="#999999">
                <path d="M2993.2,1947.9h-65.4v-482.4h-1730.7v482.4h-64.9v153.1h64.9v483h1730.7v-483h65.4z" fill="none">
                </path>
            </clipPath>
            <clipPath id="clip-19" fill="#999999">
                <path d="M2993.2,1947.9h-65.4v-482.4h-1730.7v482.4h-64.9v153.1h64.9v483h1730.7v-483h65.4z" fill="none">
                </path>
            </clipPath>
            <clipPath id="clip-20" fill="#999999">
                <path d="M2993.2,1947.9h-65.4v-482.4h-1730.7v482.4h-64.9v153.1h64.9v483h1730.7v-483h65.4z"></path>
            </clipPath>
            <style type="text/css">
                .svg-pan-zoom-control {
                    cursor: pointer;
                    fill: white;
                    fill-opacity: 1;
                    stroke-width: 20;
                    stroke: rgb(0, 0, 0);
                }

                .svg-pan-zoom-control-background {
                    fill: grey;
                }
            </style>
        </defs>
        <g id="viewport-20231030162524552" class="svg-pan-zoom_viewport"
            transform="matrix(0.10554122924804688,0,0,0.10554122924804688,11.35155963897705,-18.148433685302734)">
            <g>
                <g sprite-identifier="s482495" data-original-title="" cursor="pointer">
                    <path
                        d="M3231.4,1208.5l-151.8,159.5c83.7,80.2 148.4,173.6 194.2,280.2c45.8,106.6 68.6,217.3 68.6,332.2v82.8c0,115.7 -23.1,227.3 -69.4,334.7c-46.6,107.1 -112.2,200.8 -197,281l142.5,167.1c120.6,-104.7 214.4,-226.2 281.4,-364.5c70.5,-145.6 105.8,-298.9 105.8,-459.8c0,-157.7 -34.2,-308.4 -102.5,-452.1c-64.7,-136.4 -155.2,-256.7 -271.8,-361.1z"
                        fill="#050505" stroke="#000000" stroke-width="3px" fill-opacity="0.19000000000000003" eid="803"
                        t="tc" style="display: none; opacity: 1;"></path><text x="2036.625" y="-3437.06554"
                        transform="rotate(90)" font-size="64.6982" text-anchor="middle" eid="803" t="tc">Curva A
                        Lower</text>
                    <path
                        d="M3231.4,1208.5l-151.8,159.5c83.7,80.2 148.4,173.6 194.2,280.2c45.8,106.6 68.6,217.3 68.6,332.2v82.8c0,115.7 -23.1,227.3 -69.4,334.7c-46.6,107.1 -112.2,200.8 -197,281l142.5,167.1c120.6,-104.7 214.4,-226.2 281.4,-364.5c70.5,-145.6 105.8,-298.9 105.8,-459.8c0,-157.7 -34.2,-308.4 -102.5,-452.1c-64.7,-136.4 -155.2,-256.7 -271.8,-361.1z"
                        fill="#050505" stroke="#000000" stroke-width="3px" fill-opacity="0.19000000000000003" obs="true"
                        style="opacity: 1;"></path>
                    <circle cx="2036.625" cy="-3494.41464" fill="#a3d165" r="10" stroke="#000" stroke-width="2">
                    </circle>
                </g>
                <g sprite-identifier="s482494" data-original-title="" cursor="pointer">
                    <path
                        d="M3854.3,1445.5c-88.3,-191.9 -213.2,-357.9 -374.6,-498.2l-237,249.9c120.6,107.9 213.8,233.7 279.8,377.5c66.2,143.7 99.3,292.7 99.3,446.9c0,157.7 -34.2,309.5 -102.5,455.4c-68.6,145.9 -165.4,273 -290.3,381.5l248.7,291.9c162,-140.2 287.4,-306.5 376.2,-499c89.1,-191.9 133.6,-393.1 133.6,-603.5c0.1,-209.8 -44.4,-410.5 -133.2,-602.4z"
                        fill="#050505" stroke="#000000" stroke-width="3px" fill-opacity="0.19000000000000003" eid="803"
                        t="tc" style="display: none; opacity: 1;"></path><text x="2055.1" y="-3754.46562"
                        transform="rotate(90)" font-size="64.6982" text-anchor="middle" eid="803" t="tc">Curva A
                        Upper</text>
                    <path
                        d="M3854.3,1445.5c-88.3,-191.9 -213.2,-357.9 -374.6,-498.2l-237,249.9c120.6,107.9 213.8,233.7 279.8,377.5c66.2,143.7 99.3,292.7 99.3,446.9c0,157.7 -34.2,309.5 -102.5,455.4c-68.6,145.9 -165.4,273 -290.3,381.5l248.7,291.9c162,-140.2 287.4,-306.5 376.2,-499c89.1,-191.9 133.6,-393.1 133.6,-603.5c0.1,-209.8 -44.4,-410.5 -133.2,-602.4z"
                        fill="#050505" stroke="#000000" stroke-width="3px" fill-opacity="0.19000000000000003" obs="true"
                        style="opacity: 1;"></path>
                    <circle cx="2055.1" cy="-3811.81472" fill="#f0ad4e" r="10" stroke="#000" stroke-width="2"></circle>
                </g>
                <g sprite-identifier="s482497" data-original-title="" cursor="pointer">
                    <path
                        d="M1018.8,1365.6l-142.1,-167.6c-120,104.4 -213.6,225.8 -280.6,364.1c-70.8,146.1 -106.2,299.3 -106.2,459.4c0,155.3 33,303.7 98.9,445.3c62.7,134.6 150.6,253.7 263.6,357.3l155.4,-157c-82.1,-80.5 -145.1,-172.8 -188.9,-276.9c-43.6,-103.6 -65.4,-212.6 -65.4,-327v-82.8c0,-115.5 23.1,-226.9 69.4,-334.3c46.4,-106.8 111.6,-200.3 195.9,-280.5z"
                        fill="#050505" stroke="#000000" stroke-width="3px" fill-opacity="0.19000000000000003" eid="803"
                        t="tc" style="display: none; opacity: 1;"></path><text x="-2020.425" y="664.38446"
                        transform="rotate(-90)" font-size="64.6982" text-anchor="middle" eid="803" t="tc">Curva B
                        Lower</text>
                    <path
                        d="M1018.8,1365.6l-142.1,-167.6c-120,104.4 -213.6,225.8 -280.6,364.1c-70.8,146.1 -106.2,299.3 -106.2,459.4c0,155.3 33,303.7 98.9,445.3c62.7,134.6 150.6,253.7 263.6,357.3l155.4,-157c-82.1,-80.5 -145.1,-172.8 -188.9,-276.9c-43.6,-103.6 -65.4,-212.6 -65.4,-327v-82.8c0,-115.5 23.1,-226.9 69.4,-334.3c46.4,-106.8 111.6,-200.3 195.9,-280.5z"
                        fill="#050505" stroke="#000000" stroke-width="3px" fill-opacity="0.19000000000000003" obs="true"
                        style="opacity: 1;"></path>
                    <circle cx="-2020.425" cy="607.03536" fill="#a3d165" r="10" stroke="#000" stroke-width="2"></circle>
                </g>
                <g sprite-identifier="s482496" data-original-title="" cursor="pointer">
                    <path
                        d="M644.6,923.1c-170.4,141 -302.4,309.5 -396,505.4c-93.4,196.2 -140.1,402.6 -140.1,619.3c0,205.3 42.1,401.8 126.4,589.4c80.5,178.4 193,335.6 337.5,471.5l268.9,-272.9c-118.4,-109 -209.2,-233.5 -272.5,-373.4c-63.2,-139.9 -94.9,-286.9 -94.9,-440.8c0,-157.4 34.3,-309 102.9,-454.6c68.1,-146.1 164.7,-273.3 289.9,-381.5z"
                        fill="#050505" stroke="#000000" stroke-width="3px" fill-opacity="0.19000000000000003" eid="803"
                        t="tc" style="display: none; opacity: 1;"></path><text x="-2006.525" y="335.13446"
                        transform="rotate(-90)" font-size="64.6982" text-anchor="middle" eid="803" t="tc">Curva B
                        Upper</text>
                    <path
                        d="M644.6,923.1c-170.4,141 -302.4,309.5 -396,505.4c-93.4,196.2 -140.1,402.6 -140.1,619.3c0,205.3 42.1,401.8 126.4,589.4c80.5,178.4 193,335.6 337.5,471.5l268.9,-272.9c-118.4,-109 -209.2,-233.5 -272.5,-373.4c-63.2,-139.9 -94.9,-286.9 -94.9,-440.8c0,-157.4 34.3,-309 102.9,-454.6c68.1,-146.1 164.7,-273.3 289.9,-381.5z"
                        fill="#050505" stroke="#000000" stroke-width="3px" fill-opacity="0.19000000000000003" obs="true"
                        style="opacity: 1;"></path>
                    <circle cx="-2006.525" cy="277.78535999999997" fill="#ffeb99" r="10" stroke="#000" stroke-width="2">
                    </circle>
                </g>
                <g sprite-identifier="s482493" data-original-title="" cursor="pointer">
                    <path
                        d="M3067.9,1357.5l151.4,-159.5c-113.6,-98.8 -242.1,-174.7 -385.5,-227.7c-143.2,-52.5 -292.3,-78.7 -447.3,-78.7h-677.4c-151.8,0 -298.2,25.3 -439.2,75.9c-141,51.1 -268.1,124.5 -381.1,220l142.1,167.1c78.3,-71.6 166.5,-126.5 264.4,-164.7c98.2,-38.2 200.2,-57.3 306,-57.3h893.4c106.3,0 208.7,19.2 307.2,57.7c98.8,38.8 187.4,94.5 266,167.2z"
                        fill="#050505" stroke="#000000" stroke-width="3px" fill-opacity="0.19000000000000003" eid="591"
                        t="tc" style="display: none; opacity: 1;"></path><text x="2057.175" y="1037.70946"
                        font-size="64.6982" text-anchor="middle" eid="591" t="tc">Distinti Lower</text>
                    <path
                        d="M3067.9,1357.5l151.4,-159.5c-113.6,-98.8 -242.1,-174.7 -385.5,-227.7c-143.2,-52.5 -292.3,-78.7 -447.3,-78.7h-677.4c-151.8,0 -298.2,25.3 -439.2,75.9c-141,51.1 -268.1,124.5 -381.1,220l142.1,167.1c78.3,-71.6 166.5,-126.5 264.4,-164.7c98.2,-38.2 200.2,-57.3 306,-57.3h893.4c106.3,0 208.7,19.2 307.2,57.7c98.8,38.8 187.4,94.5 266,167.2z"
                        fill="#050505" stroke="#000000" stroke-width="3px" fill-opacity="0.19000000000000003" obs="true"
                        style="opacity: 1;"></path>
                    <circle cx="2057.175" cy="980.36036" fill="#f0ad4e" r="10" stroke="#000" stroke-width="2"></circle>
                </g>
                <g sprite-identifier="s482492" data-original-title="" cursor="pointer">
                    <path
                        d="M2839.8,955.4c145.1,53.6 275.3,130.5 390.8,230.9l237,-249.1c-137,-116.5 -289.9,-205.8 -458.6,-267.6c-169,-61.9 -343.4,-92.9 -523.2,-92.9h-875.6c-179,0 -351.9,30.3 -518.7,90.8c-158.6,57.9 -303.5,139.7 -434.8,245.5l222,262c114.4,-96.6 242.9,-170.8 385.5,-222.4c142.9,-51.4 291.2,-77.1 444.9,-77.1h677.4c157.2,0 308.3,26.6 453.3,79.9z"
                        fill="#050505" stroke="#000000" stroke-width="3px" fill-opacity="0.19000000000000003" eid="591"
                        t="tc" style="display: none; opacity: 1;"></path><text x="2062.15" y="760.28446"
                        font-size="64.6982" text-anchor="middle" eid="591" t="tc">Distinti Upper</text>
                    <path
                        d="M2839.8,955.4c145.1,53.6 275.3,130.5 390.8,230.9l237,-249.1c-137,-116.5 -289.9,-205.8 -458.6,-267.6c-169,-61.9 -343.4,-92.9 -523.2,-92.9h-875.6c-179,0 -351.9,30.3 -518.7,90.8c-158.6,57.9 -303.5,139.7 -434.8,245.5l222,262c114.4,-96.6 242.9,-170.8 385.5,-222.4c142.9,-51.4 291.2,-77.1 444.9,-77.1h677.4c157.2,0 308.3,26.6 453.3,79.9z"
                        fill="#050505" stroke="#000000" stroke-width="3px" fill-opacity="0.19000000000000003" obs="true"
                        style="opacity: 1;"></path>
                    <circle cx="2062.15" cy="702.93536" fill="#f0ad4e" r="10" stroke="#000" stroke-width="2"></circle>
                </g>
                <g sprite-identifier="s482502" data-original-title="" cursor="pointer">
                    <path
                        d="M1191.6,2804.7c-62.7,-35 -120.2,-77.1 -172.4,-126.4l-154.6,156.7c67.3,60 140.9,112.2 220.8,156.6c80.5,44.7 164.6,80.2 252.3,106.6l51.3,-214.8c-68.9,-17.7 -134.7,-44 -197.4,-78.7z"
                        fill="#050505" stroke="#000000" stroke-width="3px" fill-opacity="0.19000000000000003" eid="485"
                        t="tc" style="display: none; opacity: 1;"></path><text x="2322.6626" y="2018.06147"
                        transform="rotate(26.98274) scale(0.99995,0.99995)" font-size="51.7585" text-anchor="middle"
                        eid="485" t="tc">
                        <tspan x="2322.6626" y="2018.06147">Tribuna </tspan>
                        <tspan x="2322.6626" y="2069.81997">Nisida </tspan>
                        <tspan x="2322.6626" y="2121.57847">Lower</tspan>
                    </text>
                    <path
                        d="M1191.6,2804.7c-62.7,-35 -120.2,-77.1 -172.4,-126.4l-154.6,156.7c67.3,60 140.9,112.2 220.8,156.6c80.5,44.7 164.6,80.2 252.3,106.6l51.3,-214.8c-68.9,-17.7 -134.7,-44 -197.4,-78.7z"
                        fill="#050505" stroke="#000000" stroke-width="3px" fill-opacity="0.19000000000000003" obs="true"
                        style="opacity: 1;"></path>
                    <circle cx="2322.6626" cy="1967.1822200000001" fill="#f0ad4e" r="10" stroke="#000" stroke-width="2">
                    </circle>
                </g>
                <g sprite-identifier="s482501" data-original-title="" cursor="pointer">
                    <path
                        d="M1077.7,3005.8c-81.5,-45.2 -156.4,-98.4 -224.5,-159.5l-269.2,273.3c93.9,86.1 197.1,159.5 309.6,220c112.5,60.3 230.4,105.6 353.6,136l86.4,-362.1c-89,-26.3 -174.3,-62.3 -255.9,-107.7z"
                        fill="#050505" stroke="#000000" stroke-width="3px" fill-opacity="0.19000000000000003" eid="485"
                        t="tc" style="display: none; opacity: 1;"></path><text x="2420.17312" y="2202.18014"
                        transform="rotate(30.23169) scale(1,1)" font-size="51.7585" text-anchor="middle" eid="485"
                        t="tc">
                        <tspan x="2420.17312" y="2202.18014">Tribuna </tspan>
                        <tspan x="2420.17312" y="2253.93864">Nisida </tspan>
                        <tspan x="2420.17312" y="2305.6971399999998">Upper</tspan>
                    </text>
                    <path
                        d="M1077.7,3005.8c-81.5,-45.2 -156.4,-98.4 -224.5,-159.5l-269.2,273.3c93.9,86.1 197.1,159.5 309.6,220c112.5,60.3 230.4,105.6 353.6,136l86.4,-362.1c-89,-26.3 -174.3,-62.3 -255.9,-107.7z"
                        fill="#050505" stroke="#000000" stroke-width="3px" fill-opacity="0.19000000000000003" obs="true"
                        style="opacity: 1;"></path>
                    <circle cx="2420.17312" cy="2151.30089" fill="#f87a44" r="10" stroke="#000" stroke-width="2">
                    </circle>
                </g>
                <g sprite-identifier="s482499" data-original-title="">
                    <path
                        d="M2756.3,3098.6l-66.6,-210.7c-63.8,15.3 -128.8,23 -195,23h-893.4c-67,0 -132.5,-7.8 -196.6,-23.4l-51.3,215.2c115.2,32.8 233.7,49.3 355.7,49.3h677.4c126.8,-0.1 250,-17.9 369.8,-53.4z"
                        fill="#f1f1f1" stroke="#000000" stroke-width="3px" fill-opacity="0.19000000000000003" eid="689"
                        t="tc" style="display: none; opacity: 1;"></path><text x="2054.85" y="3039.15946"
                        font-size="64.6982" text-anchor="middle" eid="689" t="tc">Tribuna Posillipo Lower</text>
                    <path
                        d="M2756.3,3098.6l-66.6,-210.7c-63.8,15.3 -128.8,23 -195,23h-893.4c-67,0 -132.5,-7.8 -196.6,-23.4l-51.3,215.2c115.2,32.8 233.7,49.3 355.7,49.3h677.4c126.8,-0.1 250,-17.9 369.8,-53.4z"
                        fill="#f1f1f1" stroke="#000000" stroke-width="3px" fill-opacity="0.19000000000000003" obs="true"
                        style="opacity: 1;"></path>
                </g>
                <g sprite-identifier="s482500" data-original-title="" cursor="pointer">
                    <path
                        d="M1709.1,3168.1c-123,0 -242.9,-16.6 -359.7,-49.7l-86.8,360.9c114.4,26.6 230.2,40 347.6,40h875.6c131.9,0 260.8,-16.7 386.7,-50.1l-111.4,-355.2c-121.6,36.1 -246.5,54.1 -374.6,54.1z"
                        fill="#050505" stroke="#000000" stroke-width="3px" fill-opacity="0.19000000000000003" eid="689"
                        t="tc" style="display: none; opacity: 1;"></path><text x="2067.55" y="3336.05946"
                        font-size="64.6982" text-anchor="middle" eid="689" t="tc">Tribuna Posillipo Upper</text>
                    <path
                        d="M1709.1,3168.1c-123,0 -242.9,-16.6 -359.7,-49.7l-86.8,360.9c114.4,26.6 230.2,40 347.6,40h875.6c131.9,0 260.8,-16.7 386.7,-50.1l-111.4,-355.2c-121.6,36.1 -246.5,54.1 -374.6,54.1z"
                        fill="#050505" stroke="#000000" stroke-width="3px" fill-opacity="0.19000000000000003" obs="true"
                        style="opacity: 1;"></path>
                    <circle cx="2067.55" cy="3278.71036" fill="#f87a44" r="10" stroke="#000" stroke-width="2"></circle>
                </g>
            </g>
            <g id="Config" fill="none" fill-rule="nonzero" stroke="none" stroke-width="1" stroke-linecap="butt"
                stroke-linejoin="miter" stroke-miterlimit="10" stroke-dasharray="" stroke-dashoffset="0"
                font-family="none" font-weight="none" font-size="none" text-anchor="none"
                style="mix-blend-mode: normal">
                <g fill="#999999">
                    <g>
                        <g fill="#4b8037">
                            <path
                                d="M2884,2649.6h-1643.7c-92.1,0 -166.8,-68 -166.8,-152v-963.4c0,-83.9 74.7,-152 166.8,-152h1643.7c92.1,0 166.8,68 166.8,152v963.4c0,83.9 -74.7,152 -166.8,152z">
                            </path>
                        </g>
                        <g>
                            <g clip-path="url(#clip-1)">
                                <g fill="#2b5e17">
                                    <path d="M1198.2,2768.7v-1443.5h115.5v1443.5z"></path>
                                    <path
                                        d="M1308.5,1330.4v1433.3h-105.2v-1433.3h105.2M1313.6,1325.2h-115.5v1443.5h115.5z">
                                    </path>
                                </g>
                                <g fill="#2b5e17">
                                    <path d="M967.2,2768.7v-1443.5h115.5v1443.5z"></path>
                                    <path
                                        d="M1077.6,1330.4v1433.3h-105.2v-1433.3h105.2M1082.7,1325.2h-115.5v1443.5h115.5z">
                                    </path>
                                </g>
                                <g fill="#4b8037">
                                    <path d="M1313.6,2768.7v-1443.5h115.5v1443.5z"></path>
                                </g>
                                <g fill="#4b8037">
                                    <path d="M1082.7,2768.7v-1443.5h115.5v1443.5z"></path>
                                </g>
                                <g fill="#4b8037">
                                    <path d="M2930.2,2768.7v-1443.5h115.5v1443.5z"></path>
                                </g>
                                <g fill="#2b5e17">
                                    <path d="M1429.1,2768.7v-1443.5h115.5v1443.5z"></path>
                                    <path
                                        d="M1539.5,1330.4v1433.3h-105.2v-1433.3h105.2M1544.6,1325.2h-115.5v1443.5h115.5z">
                                    </path>
                                </g>
                                <g fill="#4b8037">
                                    <path d="M1544.6,2768.7v-1443.5h115.5v1443.5z"></path>
                                </g>
                                <g fill="#2b5e17">
                                    <path d="M1660,2768.7v-1443.5h115.5v1443.5z"></path>
                                    <path
                                        d="M1770.4,1330.4v1433.3h-105.2v-1433.3h105.2M1775.5,1325.2h-115.5v1443.5h115.5z">
                                    </path>
                                </g>
                                <g fill="#4b8037">
                                    <path d="M1775.5,2768.7v-1443.5h115.5v1443.5z"></path>
                                </g>
                                <g fill="#2b5e17">
                                    <path d="M1891,2768.7v-1443.5h115.5v1443.5z"></path>
                                    <path
                                        d="M2001.3,1330.4v1433.3h-105.2v-1433.3h105.2M2006.4,1325.2h-115.4v1443.5h115.5v-1443.5z">
                                    </path>
                                </g>
                                <g fill="#4b8037">
                                    <path d="M2006.4,2768.7v-1443.5h115.5v1443.5z"></path>
                                </g>
                                <g fill="#2b5e17">
                                    <path d="M2121.9,2768.7v-1443.5h115.5v1443.5z"></path>
                                    <path
                                        d="M2232.3,1330.4v1433.3h-105.3v-1433.3h105.3M2237.4,1325.2h-115.5v1443.5h115.5z">
                                    </path>
                                </g>
                                <g fill="#4b8037">
                                    <path d="M2237.4,2768.7v-1443.5h115.5v1443.5z"></path>
                                </g>
                                <g fill="#2b5e17">
                                    <path d="M2352.8,2768.7v-1443.5h115.5v1443.5z"></path>
                                    <path
                                        d="M2463.2,1330.4v1433.3h-105.2v-1433.3h105.2M2468.3,1325.2h-115.5v1443.5h115.5z">
                                    </path>
                                </g>
                                <g fill="#4b8037">
                                    <path d="M2468.3,2768.7v-1443.5h115.5v1443.5z"></path>
                                </g>
                                <g fill="#2b5e17">
                                    <path d="M2583.8,2768.7v-1443.5h115.5v1443.5z"></path>
                                    <path
                                        d="M2694.1,1330.4v1433.3h-105.2v-1433.3h105.2M2699.2,1325.2h-115.5v1443.5h115.5z">
                                    </path>
                                </g>
                                <g fill="#4b8037">
                                    <path d="M2699.2,2768.7v-1443.5h115.5v1443.5z"></path>
                                </g>
                                <g fill="#2b5e17">
                                    <path d="M2814.7,2768.7v-1443.5h115.5v1443.5z"></path>
                                    <path
                                        d="M2925.1,1330.4v1433.3h-105.2v-1433.3h105.2M2930.2,1325.2h-115.5v1443.5h115.5z">
                                    </path>
                                </g>
                                <g fill="#2b5e17">
                                    <path d="M3045.6,2768.7v-1443.5h115.5v1443.5z"></path>
                                    <path
                                        d="M3156,1330.4v1433.3h-105.2v-1433.3h105.2M3161.1,1325.2h-115.5v1443.5h115.5z">
                                    </path>
                                </g>
                            </g>
                            <g clip-path="url(#clip-2)">
                                <path d="M2929.4,2586h-1733.9v-1122h1733.9zM1200.6,2580.9h1723.7v-1111.7h-1723.7z"
                                    fill="#050505" stroke="#000000" fill-opacity="0.19000000000000003"></path>
                            </g>
                            <g clip-path="url(#clip-3)">
                                <path d="M1521.7,2429.6h-325.7v-809.8h325.7zM1201.2,2424.5h315.4v-799.5h-315.4z"
                                    fill="#050505" stroke="#000000" fill-opacity="0.19000000000000003"></path>
                            </g>
                            <g clip-path="url(#clip-4)">
                                <path d="M1326,2211.2h-128.8v-373.5h128.8zM1202.3,2206.1h118.6v-363.3h-118.6z"
                                    fill="#050505" stroke="#000000" fill-opacity="0.19000000000000003"></path>
                            </g>
                            <g clip-path="url(#clip-5)">
                                <path
                                    d="M2073.6,2209.2c-107.1,0 -194.2,-86.9 -194.2,-193.7c0,-106.8 87.1,-193.7 194.2,-193.7c107.1,0 194.2,86.9 194.2,193.7c0.1,106.8 -87.1,193.7 -194.2,193.7zM2073.6,1826.9c-104.3,0 -189.1,84.6 -189.1,188.6c0,104 84.8,188.6 189.1,188.6c104.3,0 189.1,-84.6 189.1,-188.6c0,-104 -84.8,-188.6 -189.1,-188.6z"
                                    fill="#050505" stroke="#000000" fill-opacity="0.19000000000000003"></path>
                            </g>
                            <g clip-path="url(#clip-6)">
                                <path
                                    d="M1520.7,2201l-2.9,-4.2c59.9,-40.7 95.7,-108.2 95.7,-180.4c0,-72.6 -36.1,-140.2 -96.4,-180.9l2.9,-4.2c61.8,41.6 98.7,110.9 98.7,185.2c-0.1,73.8 -36.7,142.8 -98,184.5z"
                                    fill="#050505" stroke="#000000" fill-opacity="0.19000000000000003"></path>
                            </g>
                            <g clip-path="url(#clip-7)">
                                <path
                                    d="M1267.8,2582h-5.1c0,-35.5 -29,-64.4 -64.6,-64.4v-5.1c38.4,0 69.7,31.2 69.7,69.5z"
                                    fill="#050505" stroke="#000000" fill-opacity="0.19000000000000003"></path>
                            </g>
                            <g clip-path="url(#clip-8)">
                                <path
                                    d="M1197.5,1534.1v-5.1c35.6,0 64.6,-28.9 64.6,-64.4h5.1c0,38.3 -31.2,69.5 -69.7,69.5z"
                                    fill="#050505" stroke="#000000" fill-opacity="0.19000000000000003"></path>
                            </g>
                            <g clip-path="url(#clip-9)">
                                <path d="M2928.8,2429.6h-325.7v-809.8h325.7zM2608.2,2424.5h315.4v-799.5h-315.4z"
                                    fill="#050505" stroke="#000000" fill-opacity="0.19000000000000003"></path>
                            </g>
                            <g clip-path="url(#clip-10)">
                                <path d="M2928.8,2211.2h-128.8v-373.5h128.8zM2805.1,2206.1h118.6v-363.3h-118.6z"
                                    fill="#050505" stroke="#000000" fill-opacity="0.19000000000000003"></path>
                            </g>
                            <g clip-path="url(#clip-11)">
                                <path
                                    d="M2604.1,2201c-61.3,-41.7 -97.9,-110.7 -97.9,-184.7c0,-74.3 36.9,-143.5 98.7,-185.2l2.9,4.2c-60.4,40.7 -96.4,108.3 -96.4,180.9c0,72.2 35.8,139.7 95.7,180.4z"
                                    fill="#050505" stroke="#000000" fill-opacity="0.19000000000000003"></path>
                            </g>
                            <g clip-path="url(#clip-12)">
                                <path
                                    d="M2863.9,2582h-5.1c0,-38.4 31.3,-69.6 69.7,-69.6v5.1c-35.7,0.1 -64.6,29 -64.6,64.5z"
                                    fill="#050505" stroke="#000000" fill-opacity="0.19000000000000003"></path>
                            </g>
                            <g clip-path="url(#clip-13)">
                                <path d="M2926.1,1535.3c-38.4,0 -69.7,-31.2 -69.7,-69.6h5.1c0,35.5 29,64.4 64.6,64.4z"
                                    fill="#050505" stroke="#000000" fill-opacity="0.19000000000000003"></path>
                            </g>
                            <g clip-path="url(#clip-14)">
                                <path d="M1200.6,2103.5h-69.9v-158.1h69.9zM1135.8,2098.4h59.6v-147.8h-59.6z"
                                    fill="#050505" stroke="#000000" fill-opacity="0.19000000000000003"></path>
                            </g>
                            <g clip-path="url(#clip-15)">
                                <path d="M1200.6,2103.5h-69.9v-158.1h69.9zM1135.8,2098.4h59.6v-147.8h-59.6z"
                                    fill="#050505" stroke="#000000" fill-opacity="0.19000000000000003"></path>
                            </g>
                            <g clip-path="url(#clip-16)">
                                <path d="M2994.3,2103.5h-69.9v-158.1h69.9zM2929.5,2098.4h59.6v-147.8h-59.6z"
                                    fill="#050505" stroke="#000000" fill-opacity="0.19000000000000003"></path>
                            </g>
                            <g clip-path="url(#clip-17)">
                                <path
                                    d="M2065.7,2021.2c0,-2.54051 2.05949,-4.6 4.6,-4.6c2.54051,0 4.6,2.05949 4.6,4.6c0,2.54051 -2.05949,4.6 -4.6,4.6c-2.54051,0 -4.6,-2.05949 -4.6,-4.6z"
                                    fill="#050505" stroke="#000000" fill-opacity="0.19000000000000003"></path>
                                <path
                                    d="M2070.3,2028.4c-4,0 -7.2,-3.2 -7.2,-7.2c0,-4 3.2,-7.2 7.2,-7.2c4,0 7.2,3.2 7.2,7.2c-0.1,3.9 -3.3,7.2 -7.2,7.2zM2070.3,2019.1c-1.1,0 -2,0.9 -2,2c0,1.1 0.9,2 2,2c1.1,0 2,-0.9 2,-2c0,-1.1 -0.9,-2 -2,-2z"
                                    fill="#050505" stroke="#000000" fill-opacity="0.19000000000000003"></path>
                            </g>
                            <g clip-path="url(#clip-18)">
                                <path
                                    d="M2700.2,2021.2c0,-2.54051 2.05949,-4.6 4.6,-4.6c2.54051,0 4.6,2.05949 4.6,4.6c0,2.54051 -2.05949,4.6 -4.6,4.6c-2.54051,0 -4.6,-2.05949 -4.6,-4.6z"
                                    fill="#050505" stroke="#000000" fill-opacity="0.19000000000000003"></path>
                                <path
                                    d="M2704.8,2028.4c-4,0 -7.2,-3.2 -7.2,-7.2c0,-4 3.2,-7.2 7.2,-7.2c4,0 7.2,3.2 7.2,7.2c0,3.9 -3.2,7.2 -7.2,7.2zM2704.8,2019.1c-1.1,0 -2,0.9 -2,2c0,1.1 0.9,2 2,2c1.1,0 2,-0.9 2,-2c0,-1.1 -0.8,-2 -2,-2z"
                                    fill="#050505" stroke="#000000" fill-opacity="0.19000000000000003"></path>
                            </g>
                            <g clip-path="url(#clip-19)">
                                <path
                                    d="M1400.5,2021.2c0,-2.54051 2.05949,-4.6 4.6,-4.6c2.54051,0 4.6,2.05949 4.6,4.6c0,2.54051 -2.05949,4.6 -4.6,4.6c-2.54051,0 -4.6,-2.05949 -4.6,-4.6z"
                                    fill="#050505" stroke="#000000" fill-opacity="0.19000000000000003"></path>
                                <path
                                    d="M1405.1,2028.4c-4,0 -7.2,-3.2 -7.2,-7.2c0,-4 3.2,-7.2 7.2,-7.2c4,0 7.2,3.2 7.2,7.2c0,3.9 -3.2,7.2 -7.2,7.2zM1405.1,2019.1c-1.1,0 -2,0.9 -2,2c0,1.1 0.9,2 2,2c1.1,0 2,-0.9 2,-2c0,-1.1 -0.9,-2 -2,-2z"
                                    fill="#050505" stroke="#000000" fill-opacity="0.19000000000000003"></path>
                            </g>
                            <g clip-path="url(#clip-20)" fill="none">
                                <g font-family="sans-serif" font-weight="normal" font-size="12" text-anchor="start"></g>
                            </g>
                        </g>
                    </g>
                </g>
            </g>
        </g>
        <g id="svg-pan-zoom-controls" transform="translate(-12 7) scale(0.75)" class="svg-pan-zoom-control">
            <g id="svg-pan-zoom-zoom-in" transform="translate(30.5 5) scale(0.015)" class="svg-pan-zoom-control">
                <rect x="100" y="100" width="1200" height="1200" class="svg-pan-zoom-control-background"></rect>
                <path
                    d="M1280 576v128q0 26 -19 45t-45 19h-320v320q0 26 -19 45t-45 19h-128q-26 0 -45 -19t-19 -45v-320h-320q-26 0 -45 -19t-19 -45v-128q0 -26 19 -45t45 -19h320v-320q0 -26 19 -45t45 -19h128q26 0 45 19t19 45v320h320q26 0 45 19t19 45zM1536 1120v-960 q0 -119 -84.5 -203.5t-203.5 -84.5h-960q-119 0 -203.5 84.5t-84.5 203.5v960q0 119 84.5 203.5t203.5 84.5h960q119 0 203.5 -84.5t84.5 -203.5z"
                    class="svg-pan-zoom-control-element"></path>
            </g>
            <g id="svg-pan-zoom-zoom-out" transform="translate(30.5 40) scale(0.015)" class="svg-pan-zoom-control">
                <rect x="100" y="100" width="1200" height="1200" class="svg-pan-zoom-control-background"></rect>
                <path
                    d="M1280 576v128q0 26 -19 45t-45 19h-896q-26 0 -45 -19t-19 -45v-128q0 -26 19 -45t45 -19h896q26 0 45 19t19 45zM1536 1120v-960q0 -119 -84.5 -203.5t-203.5 -84.5h-960q-119 0 -203.5 84.5t-84.5 203.5v960q0 119 84.5 203.5t203.5 84.5h960q119 0 203.5 -84.5 t84.5 -203.5z"
                    class="svg-pan-zoom-control-element"></path>
            </g>
        </g>
    </svg>