<svg xmlns="http://www.w3.org/2000/svg" version="1.1" width="455" height="396"
        xmlns:xlink="http://www.w3.org/1999/xlink" xmlns:ev="http://www.w3.org/2001/xml-events"
        style="overflow: hidden; touch-action: none; user-select: none;">
        <g class="svg-pan-zoom_viewport"
            transform="matrix(0.3857910633087158,0,0,0.3857910633087158,-33.98404312133789,2.5887184143066406)">
            <g sprite-identifier="s83060" data-original-title="">
                <path stroke="#000000" fill="#f1f1f1"
                    d="M 242.353 262.353 L 245.882 401.176 C 244.706 400 230.588 421.176 235.294 455.294 C 248.235 737.647 214.118 783.529 257.647 827.059 L 257.647 838.824 L 257.647 940 C 165.882 936.471 151.765 849.412 151.765 844.706 L 151.765 842.353 L 147.059 581.176 L 149.412 340 C 151.765 340 165.882 277.647 237.647 265.882 z"
                    fill-opacity="0.19000000000000003" style="opacity: 1;"></path>
                <g transform="matrix(0.035, -0.999, 0.999, 0.035, -403.289, 779.441)"><text style="font-size: 20px;"
                        x="202.353" y="606.176">Tribuna Sur</text></g>
            </g>
            <g sprite-identifier="s87369" data-original-title="">
                <path stroke="#000000" fill="#f1f1f1"
                    d="M 263.529 260 L 1088.235 260 L 1085.882 395.294 L 1062.353 372.941 L 910.588 372.941 L 909.412 327.059 L 464.706 324.706 L 464.706 371.765 L 282.353 372.941 L 262.353 391.765 z"
                    fill-opacity="0.19000000000000003" style="opacity: 1;"></path><text style="font-size: 20px;"
                    x="676.471" y="302.059">Tribuna Preferencia</text>
            </g>
            <g sprite-identifier="s73619" data-original-title="">
                <path stroke="#000000" fill="#f1f1f1"
                    d="M 266.941 847.581 L 1078.941 847.581 L 1078.941 939.478 L 266.941 939.478 z"
                    fill-opacity="0.19000000000000003" style="opacity: 1;"></path><text style="font-size: 20px;"
                    x="672.941" y="898.529">Tribuna Lateral</text>
            </g>
            <g sprite-identifier="s105903" data-original-title="">
                <path stroke="#000000" fill="#f1f1f1"
                    d="M 1105.882 264.706 L 1102.353 403.529 C 1103.529 402.353 1117.647 423.529 1112.941 457.647 C 1100.000 740.000 1134.118 785.882 1090.588 829.412 L 1090.588 841.176 L 1090.588 942.353 C 1182.353 938.824 1211.765 857.647 1208.235 855.294 L 1208.235 842.353 L 1208.235 584.706 L 1208.235 342.353 C 1209.412 343.529 1182.353 280.000 1110.588 268.235 z"
                    fill-opacity="0.19000000000000003" style="opacity: 1;"></path>
                <g transform="matrix(0.017, 1.000, -1.000, 0.017, 1729.702, -558.393)"><text style="font-size: 20px;"
                        x="1149.551" y="608.529">Tribuna Gol</text></g>
            </g>
            <g sprite-identifier="s105902">
                <path stroke="#000000" fill="#f1f1f1"
                    d="M 466.857 328.846 L 907.261 328.846 L 907.261 373.507 L 466.857 373.507 z"
                    fill-opacity="0.19000000000000003" style="opacity: 1;"></path><text style="font-size: 20px;"
                    x="687.059" y="356.176">Palco Tribuna Preferencia</text>
            </g>
            <g sprite-identifier="s105901" data-original-title="" cursor="pointer">
                <path stroke="#000000" fill="#050505"
                    d="M 256.471 408.235 L 331.765 440.000 L 325.882 762.353 L 265.882 820 C 264.706 820 244.706 802.353 241.176 778.824 L 241.176 449.412 C 241.176 450.588 241.176 423.529 256.471 408.235 z"
                    fill-opacity="0.19000000000000003" style="opacity: 1;"></path>
                <g transform="matrix(-1.837e-16, -1, 1, -1.837e-16, -324.848, 898.093)"><text style="font-size: 20px;"
                        x="286.471" y="619.118">Grada Sur</text></g>
                <circle cx="286.471" cy="584.118" fill="#ffeb99" r="10" stroke="#000" stroke-width="2"></circle>
            </g>
            <g sprite-identifier="s83059" data-original-title="" cursor="pointer">
                <path stroke="#000000" fill="#050505"
                    d="M 264.706 402.353 L 323.529 431.765 L 1015.294 434.118 L 1084.706 402.353 L 1057.647 377.647 L 288.235 376.471 z"
                    fill-opacity="0.19000000000000003" style="opacity: 1;"></path><text style="font-size: 20px;"
                    x="674.706" y="410.294">Grada Preferencia</text>
                <circle cx="674.706" cy="375.294" fill="#a3d165" r="10" stroke="#000" stroke-width="2"></circle>
            </g>
            <g sprite-identifier="s73618" data-original-title="" cursor="pointer">
                <path stroke="#000000" fill="#050505"
                    d="M 259.471 70.689 L 1093.471 70.689 L 1093.471 250.487 L 259.471 250.487 z"
                    fill-opacity="0.19000000000000003" style="opacity: 1;"></path><text style="font-size: 20px;"
                    x="676.471" y="165.588">Tribuna Alta</text>
                <circle cx="676.471" cy="130.588" fill="#ffeb99" r="10" stroke="#000" stroke-width="2"></circle>
            </g>
            <g sprite-identifier="s105900" data-original-title="">
                <path stroke="#000000" fill="#f1f1f1"
                    d="M 272.941 816.471 L 325.882 767.059 L 1021.176 768.235 L 1077.647 823.529 L 1043.529 838.824 L 302.353 836.471 z"
                    fill-opacity="0.19000000000000003" style="opacity: 1;"></path><text style="font-size: 20px;"
                    x="675.294" y="807.941">Grada Lateral</text>
            </g>
            <g sprite-identifier="s87368" data-original-title="" cursor="pointer">
                <path stroke="#000000" fill="#050505"
                    d="M 1090.588 408.235 L 1015.294 440.000 L 1021.176 762.353 L 1081.176 820 C 1082.353 820 1102.353 802.353 1105.882 778.824 L 1105.882 449.412 C 1105.882 450.588 1105.882 423.529 1090.588 408.235 z"
                    fill-opacity="0.19000000000000003" style="opacity: 1;"></path>
                <g transform="matrix(6.123e-17, 1, -1, 6.123e-17, 1672.059, -449.118)"><text style="font-size: 20px;"
                        x="1060.588" y="619.118">Grada Gol</text></g>
                <circle cx="1060.588" cy="584.118" fill="#a3d165" r="10" stroke="#000" stroke-width="2"></circle>
            </g>
            <g>
                <path stroke="#000000" fill="#050505"
                    d="M 975.006 450.138 Q 971.578 447.345 966.905 447.345 L 395.810 447.345 Q 390.981 447.345 387.709 450.138 Q 384.281 453.072 384.281 457.122 L 384.281 746.692 Q 384.281 750.604 387.709 753.676 Q 390.981 756.471 395.810 756.471 L 966.905 756.471 Q 971.578 756.471 975.006 753.676 Q 978.433 750.604 978.433 746.692 L 978.433 457.122 Q 978.433 453.072 975.006 450.138 z"
                    fill-opacity="0.19000000000000003"></path>
                <path stroke-width="1.8" stroke="#000000" fill="#050505"
                    d="M 975.006 450.138 Q 978.433 453.072 978.433 457.122 L 978.433 746.692 Q 978.433 750.604 975.006 753.676 Q 971.578 756.471 966.905 756.471 L 395.810 756.471 Q 390.981 756.471 387.709 753.676 Q 384.281 750.604 384.281 746.692 L 384.281 457.122 Q 384.281 453.072 387.709 450.138 Q 390.981 447.345 395.810 447.345 L 966.905 447.345 Q 971.578 447.345 975.006 450.138 z"
                    fill-opacity="0.19000000000000003"></path>
                <path stroke-width="2.25" stroke="#000000" fill="#050505"
                    d="M 956.000 737.333 L 408.273 737.333 L 408.273 466.342 L 956.000 466.342 L 956.000 737.333 z"
                    fill-opacity="0.19000000000000003"></path>
                <path stroke-width="2.25" stroke="#000000" fill="#050505" d="M 682.136 466.761 L 682.136 737.054"
                    fill-opacity="0.19000000000000003"></path>
                <path stroke-width="2.25" stroke="#000000" fill="#050505"
                    d="M 713.293 575.297 Q 726.223 586.333 726.223 601.838 Q 726.223 617.342 713.293 628.378 Q 700.363 639.413 682.136 639.413 Q 663.910 639.413 650.980 628.378 Q 637.895 617.342 637.895 601.838 Q 637.895 586.333 650.980 575.297 Q 663.910 564.262 682.136 564.262 Q 700.363 564.262 713.293 575.297 z"
                    fill-opacity="0.19000000000000003"></path>
                <path stroke-width="2.25" stroke="#000000" fill="#050505"
                    d="M 496.289 570.687 L 496.289 513.416 L 408.740 513.416 L 408.740 690.259 L 496.289 690.259 L 496.289 632.988"
                    fill-opacity="0.19000000000000003"></path>
                <path stroke-width="2.25" stroke="#000000" fill="#050505"
                    d="M 496.289 570.687 L 496.289 632.988 Q 505.324 627.959 510.465 619.718 Q 515.917 611.475 515.917 601.838 Q 515.917 592.339 510.465 583.958 Q 505.324 575.856 496.289 570.687 z"
                    fill-opacity="0.19000000000000003"></path>
                <path stroke-width="2.25" stroke="#000000" fill="#050505"
                    d="M 867.517 570.687 L 867.517 513.416 L 956.000 513.416 L 956.000 690.259 L 867.517 690.259 L 867.517 632.988"
                    fill-opacity="0.19000000000000003"></path>
                <path stroke-width="2.25" stroke="#000000" fill="#050505"
                    d="M 867.517 570.687 L 867.517 632.988 Q 858.481 627.959 853.185 619.718 Q 847.732 611.475 847.732 601.838 Q 847.732 592.339 853.185 583.958 Q 858.481 575.856 867.517 570.687 z"
                    fill-opacity="0.19000000000000003"></path>
                <path stroke-width="2.25" stroke="#000000" fill="#050505"
                    d="M 443.167 566.776 L 443.167 636.759 L 409.674 636.759 L 409.674 566.776 L 443.167 566.776 z"
                    fill-opacity="0.19000000000000003"></path>
                <path stroke-width="2.25" stroke="#000000" fill="#050505"
                    d="M 954.443 566.776 L 954.443 636.759 L 920.794 636.759 L 920.794 566.776 L 954.443 566.776 z"
                    fill-opacity="0.19000000000000003"></path>
            </g>
        </g>
        <defs>
            <style type="text/css">
                .svg-pan-zoom-control {
                    cursor: pointer;
                    fill: white;
                    fill-opacity: 1;
                    stroke-width: 20;
                    stroke: rgb(0, 0, 0);
                }

                .svg-pan-zoom-control-background {
                    fill: grey;
                }
            </style>
        </defs>
        <g id="svg-pan-zoom-controls" transform="translate(-12 7) scale(0.75)" class="svg-pan-zoom-control">
            <g id="svg-pan-zoom-zoom-in" transform="translate(30.5 5) scale(0.015)" class="svg-pan-zoom-control">
                <rect x="100" y="100" width="1200" height="1200" class="svg-pan-zoom-control-background"></rect>
                <path
                    d="M1280 576v128q0 26 -19 45t-45 19h-320v320q0 26 -19 45t-45 19h-128q-26 0 -45 -19t-19 -45v-320h-320q-26 0 -45 -19t-19 -45v-128q0 -26 19 -45t45 -19h320v-320q0 -26 19 -45t45 -19h128q26 0 45 19t19 45v320h320q26 0 45 19t19 45zM1536 1120v-960 q0 -119 -84.5 -203.5t-203.5 -84.5h-960q-119 0 -203.5 84.5t-84.5 203.5v960q0 119 84.5 203.5t203.5 84.5h960q119 0 203.5 -84.5t84.5 -203.5z"
                    class="svg-pan-zoom-control-element"></path>
            </g>
            <g id="svg-pan-zoom-zoom-out" transform="translate(30.5 40) scale(0.015)" class="svg-pan-zoom-control">
                <rect x="100" y="100" width="1200" height="1200" class="svg-pan-zoom-control-background"></rect>
                <path
                    d="M1280 576v128q0 26 -19 45t-45 19h-896q-26 0 -45 -19t-19 -45v-128q0 -26 19 -45t45 -19h896q26 0 45 19t19 45zM1536 1120v-960q0 -119 -84.5 -203.5t-203.5 -84.5h-960q-119 0 -203.5 84.5t-84.5 203.5v960q0 119 84.5 203.5t203.5 84.5h960q119 0 203.5 -84.5 t84.5 -203.5z"
                    class="svg-pan-zoom-control-element"></path>
            </g>
        </g>
    </svg>