<?xml version="1.0" standalone="no"?>
<!DOCTYPE svg PUBLIC "-//W3C//DTD SVG 20010904//EN"
 "http://www.w3.org/TR/2001/REC-SVG-20010904/DTD/svg10.dtd">
<svg version="1.0" xmlns="http://www.w3.org/2000/svg"
 width="512.000000pt" height="512.000000pt" viewBox="0 0 512.000000 512.000000"
 preserveAspectRatio="xMidYMid meet">

<g transform="translate(0.000000,512.000000) scale(0.100000,-0.100000)"
fill="#000000" stroke="none">
<path d="M2425 4955 c-185 -35 -360 -144 -469 -294 -19 -25 -449 -809 -957
-1741 -639 -1173 -932 -1720 -951 -1777 -57 -166 -57 -330 1 -492 37 -105 82
-180 161 -264 79 -85 155 -138 257 -178 151 -61 58 -58 2105 -59 2038 0 1939
-3 2080 54 218 88 379 275 445 517 12 44 17 100 17 179 0 131 -16 207 -68 315
-50 107 -1823 3363 -1865 3424 -166 248 -461 371 -756 316z m278 -305 c72 -22
167 -87 209 -142 47 -61 1861 -3399 1885 -3468 74 -211 -27 -444 -236 -548
l-75 -37 -1926 0 -1926 0 -75 37 c-121 60 -211 169 -243 293 -20 75 -20 155
-1 229 10 40 294 571 911 1704 493 906 914 1678 937 1716 66 113 152 184 272
222 63 20 193 17 268 -6z"/>
<path d="M2509 3740 c-95 -17 -178 -82 -221 -175 l-23 -50 -3 -780 c-2 -552 0
-798 8 -840 53 -281 423 -334 558 -80 l27 50 3 817 c2 806 2 817 -18 872 -50
132 -190 211 -331 186z"/>
<path d="M2509 1340 c-162 -28 -271 -188 -239 -347 57 -279 428 -331 557 -78
111 216 -77 468 -318 425z"/>
</g>
</svg>
