<svg xmlns="http://www.w3.org/2000/svg" version="1.1" width="455" height="396"
        xmlns:xlink="http://www.w3.org/1999/xlink" xmlns:ev="http://www.w3.org/2001/xml-events"
        style="overflow: hidden; touch-action: none; user-select: none;">
        <g class="svg-pan-zoom_viewport"
            transform="matrix(0.3806080222129822,0,0,0.3806080222129822,-31.1041259765625,8.185833930969238)">
            <g sprite-identifier="s84950" data-original-title="" cursor="pointer">
                <path stroke="#000000" fill="#050505"
                    d="M 957.891 235.103 Q 938.530 228.774 916.686 223.561 L 903.779 286.361 Q 923.016 291.077 941.260 299.517 L 957.891 235.103 M 442.338 223.561 Q 420.494 228.774 401.009 235.103 L 417.640 299.517 Q 435.884 291.077 455.245 286.361 L 442.338 223.561 M 544.108 239.944 L 529.339 244.908 L 536.289 279.038 Q 547.831 278.666 571.536 278.170 L 563.842 204.200 Q 553.416 205.193 538.895 206.930 L 544.108 239.944 M 909.364 221.948 Q 891.120 217.728 871.883 214.501 L 860.092 280.528 Q 873.000 281.272 880.322 282.141 Q 886.155 282.513 896.456 284.623 L 909.364 221.948 M 823.231 234.979 L 838.249 239.944 L 830.182 279.162 Q 848.674 279.907 852.521 280.155 L 864.560 213.260 Q 848.426 210.530 827.451 207.799 L 823.231 234.979 M 531.573 207.799 Q 510.474 210.530 494.340 213.260 L 506.379 280.155 Q 510.350 279.907 528.718 279.162 L 520.651 239.944 L 535.793 234.979 L 531.573 207.799 M 487.017 214.501 Q 467.904 217.728 449.536 221.948 L 462.444 284.623 Q 472.869 282.513 478.702 282.141 Q 486.025 281.272 498.932 280.528 L 487.017 214.501 M 713.022 198.491 L 707.437 198.367 Q 695.646 197.994 683.235 197.746 L 683.235 277.177 L 710.788 277.177 L 713.022 198.491 M 675.789 197.746 Q 663.502 197.994 651.587 198.367 L 646.002 198.491 L 648.236 277.177 L 675.789 277.177 L 675.789 197.746 M 752.985 200.725 Q 735.362 199.484 720.344 198.863 L 718.234 277.301 L 745.166 277.549 L 752.985 200.725 M 598.592 201.221 L 571.288 203.455 L 579.107 278.045 L 606.287 277.673 L 598.592 201.221 M 638.680 198.863 Q 623.663 199.484 606.039 200.725 L 613.734 277.549 L 640.790 277.301 L 638.680 198.863 M 820.005 206.930 Q 805.484 205.193 795.058 204.200 L 787.364 278.170 Q 811.193 278.666 822.611 279.038 L 829.685 244.908 L 814.916 239.944 L 820.005 206.930 M 787.736 203.455 Q 773.587 202.090 760.432 201.221 L 752.613 277.673 L 779.917 278.045 L 787.736 203.455 z"
                    fill-opacity="0.19000000000000003" style="opacity: 1;"></path><text style="font-size: 30px;"
                    x="679.450" y="253.631">Tribuna Principal Baja</text>
                <circle cx="679.450" cy="213.631" fill="#f0ad4e" r="10" stroke="#000" stroke-width="2"></circle>
            </g>
            <g sprite-identifier="s84949" data-original-title="" cursor="pointer">
                <path stroke="#000000" fill="#050505"
                    d="M 675.789 71.154 L 642.527 71.775 L 644.637 146.241 Q 663.254 145.620 675.789 145.620 L 675.789 71.154 M 589.160 73.636 Q 573.398 74.381 555.650 75.374 L 565.579 151.081 Q 577.494 149.964 595.490 148.723 L 589.160 73.636 M 937.413 85.675 Q 921.403 84.061 895.836 81.828 L 881.315 162.251 Q 901.297 165.602 920.161 169.697 L 937.413 85.675 M 604.301 73.016 L 596.607 73.388 L 602.936 148.226 Q 620.436 147.109 637.191 146.489 L 635.081 72.023 Q 618.326 72.395 604.301 73.016 M 716.497 71.775 L 683.235 71.154 L 683.235 145.620 Q 695.770 145.620 714.387 146.241 L 716.497 71.775 M 888.389 81.207 Q 872.751 79.842 847.433 78.104 L 835.518 155.549 Q 853.018 157.659 873.992 161.010 L 888.389 81.207 M 839.986 77.608 Q 822.983 76.367 810.696 75.746 L 800.768 151.701 Q 817.026 153.315 828.072 154.680 L 839.986 77.608 M 803.250 75.374 Q 785.626 74.381 769.864 73.636 L 763.535 148.723 Q 781.531 149.964 793.445 151.081 L 803.250 75.374 M 723.943 72.023 L 721.834 146.489 Q 738.340 147.109 756.088 148.226 L 762.418 73.388 Q 743.181 72.519 723.943 72.023 M 438.739 169.697 Q 457.603 165.602 477.585 162.251 L 463.064 81.828 Q 437.622 84.061 421.487 85.675 L 438.739 169.697 M 511.467 78.104 Q 486.149 79.842 470.511 81.207 L 484.908 161.010 Q 506.006 157.659 523.506 155.549 L 511.467 78.104 M 518.914 77.608 L 530.828 154.680 Q 541.874 153.315 558.132 151.701 L 548.204 75.746 Q 536.041 76.367 518.914 77.608 M 937.785 121.294 L 927.484 171.311 Q 952.182 177.020 971.419 183.101 L 984.575 132.092 Q 972.164 128.989 954.664 125.018 L 937.785 121.294 M 421.239 121.294 L 404.360 125.018 Q 386.736 128.989 374.450 132.092 L 387.605 183.101 Q 407.091 176.896 431.540 171.311 L 421.239 121.294 z"
                    fill-opacity="0.19000000000000003" style="opacity: 1;"></path><text style="font-size: 30px;"
                    x="679.512" y="132.128">Tribuna Principal Alta</text>
                <circle cx="679.512" cy="92.12799999999999" fill="#f0ad4e" r="10" stroke="#000" stroke-width="2">
                </circle>
            </g>
            <g sprite-identifier="s84948" data-original-title="" cursor="pointer">
                <path stroke="#000000" fill="#050505"
                    d="M 880.322 736.260 Q 873.000 737.253 860.092 737.997 L 871.883 804.024 Q 891.120 800.673 909.364 796.577 L 896.456 733.778 Q 886.155 736.011 880.322 736.260 M 710.664 741.224 L 683.235 741.224 L 683.235 820.655 Q 695.646 820.530 707.437 820.158 L 712.898 819.910 L 710.664 741.224 M 779.917 740.479 L 752.613 740.852 L 760.432 817.304 L 787.736 815.070 L 779.917 740.479 M 720.344 819.662 Q 735.362 818.917 752.985 817.800 L 745.166 740.976 L 718.110 741.100 L 720.344 819.662 M 822.611 739.487 Q 811.193 739.859 787.364 740.355 L 795.058 814.325 Q 809.703 812.960 819.881 811.594 L 814.916 778.457 L 829.685 773.493 L 822.611 739.487 M 528.718 739.238 Q 510.350 738.494 506.379 738.370 L 494.340 805.265 Q 510.722 807.995 530.952 810.602 L 535.669 783.546 L 520.651 778.581 L 528.718 739.238 M 571.536 740.355 Q 547.831 739.859 536.289 739.487 L 529.339 773.493 L 544.108 778.457 L 538.399 811.470 Q 551.306 813.084 563.842 814.325 L 571.536 740.355 M 606.287 740.852 L 579.107 740.479 L 571.288 815.070 Q 585.437 816.311 598.592 817.304 L 606.287 740.852 M 675.789 741.224 L 648.485 741.224 L 646.251 819.910 L 651.587 820.158 Q 663.502 820.530 675.789 820.655 L 675.789 741.224 M 641.038 741.100 L 613.734 740.976 L 606.039 817.800 Q 620.312 818.793 638.804 819.662 L 641.038 741.100 M 478.702 736.260 Q 472.869 736.011 462.444 733.778 L 449.536 796.577 Q 467.904 800.673 487.017 804.024 L 498.932 737.997 Q 486.025 737.253 478.702 736.260 M 852.521 738.370 Q 848.798 738.494 830.182 739.238 L 838.249 778.581 L 823.231 783.546 L 827.203 810.726 Q 846.936 808.244 864.560 805.265 L 852.521 738.370 M 941.260 719.008 Q 923.016 727.324 903.779 732.040 L 916.686 794.964 Q 938.530 789.751 957.891 783.297 L 941.260 719.008 M 455.245 732.040 Q 435.884 727.324 417.640 719.008 L 401.009 783.297 Q 420.494 789.751 442.338 794.964 L 455.245 732.040 z"
                    fill-opacity="0.19000000000000003" style="opacity: 1;"></path><text style="font-size: 30px;"
                    x="679.450" y="774.831">Tribuna Este Baja</text>
                <circle cx="679.450" cy="734.831" fill="#f0ad4e" r="10" stroke="#000" stroke-width="2"></circle>
            </g>
            <g sprite-identifier="s71983" data-original-title="" cursor="pointer">
                <path stroke="#000000" fill="#050505"
                    d="M 431.540 847.214 Q 407.091 841.629 387.605 835.424 L 374.450 886.433 Q 386.736 889.536 404.360 893.507 L 421.239 897.230 L 431.540 847.214 M 954.664 893.507 Q 972.164 889.536 984.575 886.433 L 971.419 835.424 Q 952.182 841.505 927.484 847.214 L 937.785 897.230 L 954.664 893.507 M 793.445 867.444 Q 776.318 868.933 763.162 869.802 L 767.878 926.272 L 801.016 926.272 L 793.445 867.444 M 550.438 926.272 L 558.132 866.823 Q 541.874 865.210 530.828 863.845 L 521.272 926.272 L 550.438 926.272 M 523.506 862.976 Q 506.006 860.866 484.908 857.515 L 472.621 926.272 L 513.701 926.272 L 523.506 862.976 M 845.323 926.272 L 886.403 926.272 L 873.992 857.515 Q 853.018 860.866 835.518 862.976 L 845.323 926.272 M 638.183 872.036 Q 621.304 871.416 603.184 870.299 L 598.468 926.272 L 636.570 926.272 L 638.183 872.036 M 675.789 872.905 Q 664.122 872.905 645.630 872.284 L 644.141 926.272 L 675.789 926.272 L 675.789 872.905 M 720.841 872.036 L 722.330 926.272 L 760.432 926.272 L 755.716 870.299 Q 737.720 871.416 720.841 872.036 M 713.394 872.284 Q 694.902 872.905 683.235 872.905 L 683.235 926.272 L 714.883 926.272 L 713.394 872.284 M 828.072 863.845 Q 817.026 865.210 800.768 866.823 L 808.586 926.272 L 837.752 926.272 L 828.072 863.845 M 595.862 869.802 Q 582.582 868.933 565.579 867.444 L 557.884 926.272 L 591.022 926.272 L 595.862 869.802 M 477.585 856.274 Q 457.603 852.923 438.739 848.828 L 422.853 926.272 L 465.050 926.272 L 477.585 856.274 M 920.161 848.828 Q 901.297 852.923 881.315 856.274 L 893.974 926.272 L 936.047 926.272 L 920.161 848.828 z"
                    fill-opacity="0.19000000000000003" style="opacity: 1;"></path><text style="font-size: 30px;"
                    x="688.924" y="905.848">Tribuna Este Alta</text>
                <circle cx="688.924" cy="865.848" fill="#ffeb99" r="10" stroke="#000" stroke-width="2"></circle>
            </g>
            <g sprite-identifier="s71981">
                <path stroke="#000000" fill="#f1f1f1"
                    d="M 886.652 170.690 Q 879.950 169.449 873.248 168.456 L 866.794 206.062 L 879.329 208.172 L 886.652 170.690 M 865.925 167.215 L 853.266 165.354 L 846.812 202.959 L 859.472 204.821 L 865.925 167.215 M 828.568 200.477 L 839.490 201.842 L 845.819 164.361 Q 838.125 163.368 834.401 162.871 L 828.568 200.477 M 969.557 190.300 Q 965.462 188.934 957.022 186.452 L 947.590 224.058 Q 953.051 225.671 959.753 227.905 L 969.557 190.300 M 926.491 218.224 Q 933.814 220.086 940.391 221.948 L 949.824 184.467 Q 943.122 182.729 935.923 180.991 L 926.491 218.224 M 928.601 179.254 Q 919.541 177.144 914.949 176.151 L 906.633 213.632 Q 915.073 215.494 919.293 216.611 L 928.601 179.254 M 907.626 174.662 Q 901.048 173.297 893.974 172.055 L 886.652 209.537 L 899.311 212.019 L 907.626 174.662 M 524.623 162.871 L 513.081 164.361 L 519.534 201.842 L 530.456 200.477 L 524.623 162.871 M 465.050 172.055 Q 457.976 173.297 451.274 174.662 L 459.589 212.019 L 472.248 209.537 L 465.050 172.055 M 505.758 165.354 L 493.099 167.215 L 499.553 204.821 L 512.088 202.959 L 505.758 165.354 M 485.776 168.456 Q 479.074 169.449 472.372 170.690 L 479.571 208.172 L 492.230 206.062 L 485.776 168.456 M 402.002 186.452 L 389.467 190.300 L 399.147 227.905 Q 405.849 225.671 411.434 224.058 L 402.002 186.452 M 809.579 198.243 Q 813.427 198.615 821.122 199.484 L 826.955 162.003 Q 820.377 161.258 813.675 160.513 L 809.579 198.243 M 556.891 197.374 L 568.309 196.257 L 566.200 158.528 L 552.672 159.769 L 556.891 197.374 M 629.123 191.789 Q 635.081 191.541 638.432 191.417 L 637.315 153.935 L 628.131 154.308 L 629.123 191.789 M 532.069 162.003 L 537.778 199.484 Q 541.750 199.111 549.445 198.243 L 545.225 160.513 Q 538.275 161.258 532.069 162.003 M 594.248 194.023 L 605.542 193.278 L 603.433 155.673 L 592.263 156.418 L 594.248 194.023 M 612.865 192.782 Q 619.319 192.410 621.677 192.285 L 620.684 154.680 L 610.879 155.177 L 612.865 192.782 M 575.756 195.512 L 586.926 194.644 L 584.816 156.914 L 573.646 157.783 L 575.756 195.512 M 738.340 154.680 L 737.223 192.285 Q 739.705 192.410 746.035 192.782 L 748.145 155.177 L 738.340 154.680 M 753.482 193.278 L 764.652 194.023 L 766.761 156.418 L 755.592 155.673 L 753.482 193.278 M 713.146 191.044 L 714.263 153.687 Q 695.274 153.067 681.250 153.067 L 677.775 153.067 Q 663.750 153.067 644.761 153.687 L 645.878 191.044 Q 666.729 190.300 679.512 190.300 L 688.572 190.424 Q 700.114 190.672 713.146 191.044 M 720.592 191.417 Q 723.943 191.541 729.901 191.789 L 730.894 154.308 L 721.709 153.935 L 720.592 191.417 M 772.098 194.644 L 783.268 195.512 L 785.378 157.783 L 774.208 156.914 L 772.098 194.644 M 790.715 196.257 L 802.133 197.374 L 806.353 159.769 L 792.825 158.528 L 790.715 196.257 M 439.731 216.611 Q 443.827 215.494 452.267 213.632 L 443.951 176.151 Q 439.359 177.144 430.299 179.254 L 439.731 216.611 M 423.101 180.991 Q 415.778 182.729 409.200 184.467 L 418.509 221.948 Q 425.211 220.086 432.409 218.224 L 423.101 180.991 z"
                    fill-opacity="0.19000000000000003" style="opacity: 1;"></path><text style="font-size: 30px;"
                    x="685.394" y="187.251">Palcos Principal</text>
            </g>
            <g sprite-identifier="s80584">
                <path stroke="#000000" fill="#f1f1f1"
                    d="M 502.779 814.201 L 493.099 812.587 L 486.273 850.193 L 496.326 851.806 L 502.779 814.201 M 783.020 822.889 L 786.247 860.618 L 797.541 859.501 L 794.314 821.896 L 783.020 822.889 M 738.340 826.239 L 727.294 826.860 L 729.404 864.217 L 740.450 863.721 L 738.340 826.239 M 775.573 823.509 L 764.403 824.502 L 767.506 861.983 L 778.800 861.239 L 775.573 823.509 M 757.081 824.998 L 745.787 825.743 L 747.897 863.224 L 760.184 862.604 L 757.081 824.998 M 701.355 827.853 L 691.303 828.101 L 692.295 865.334 L 702.348 865.086 L 701.355 827.853 M 719.848 827.108 L 708.802 827.605 L 709.795 864.962 L 721.958 864.465 L 719.848 827.108 M 865.925 812.587 L 856.121 814.201 L 862.574 851.806 L 872.627 850.193 L 865.925 812.587 M 683.856 828.225 L 675.168 828.225 L 674.175 865.458 L 684.849 865.458 L 683.856 828.225 M 521.272 816.931 L 510.226 815.318 L 503.772 852.799 L 515.811 854.537 L 521.272 816.931 M 811.937 820.034 L 801.760 821.151 L 804.987 858.880 L 816.281 857.639 L 811.937 820.034 M 830.306 817.800 L 819.384 819.165 L 823.604 856.895 L 835.767 855.405 L 830.306 817.800 M 855.252 852.799 L 848.798 815.318 L 837.752 816.931 L 843.089 854.537 L 855.252 852.799 M 575.880 822.889 L 564.710 821.896 L 561.483 859.501 L 572.653 860.618 L 575.880 822.889 M 557.264 821.151 L 547.087 820.034 L 542.743 857.639 L 554.037 858.880 L 557.264 821.151 M 583.327 823.509 L 580.100 861.239 L 591.394 861.983 L 594.497 824.502 L 583.327 823.509 M 523.258 855.405 L 535.296 856.895 L 539.640 819.165 L 528.594 817.800 L 523.258 855.405 M 613.237 825.743 L 601.943 824.998 L 598.841 862.604 L 611.127 863.224 L 613.237 825.743 M 649.229 864.962 L 650.346 827.605 L 639.176 827.108 L 637.066 864.465 L 649.229 864.962 M 667.722 828.101 L 657.793 827.853 L 656.676 865.086 L 666.729 865.334 L 667.722 828.101 M 631.730 826.860 Q 624.283 826.488 620.684 826.239 L 618.574 863.721 L 629.744 864.217 L 631.730 826.860 M 959.753 790.620 Q 952.678 792.978 948.210 794.219 L 956.898 832.073 L 969.557 828.225 L 959.753 790.620 M 941.136 796.205 L 929.842 799.308 L 937.289 837.161 L 949.700 834.058 L 941.136 796.205 M 922.644 801.169 L 911.101 803.900 L 917.803 841.753 L 929.966 839.023 L 922.644 801.169 M 903.903 805.513 L 892.361 807.871 L 898.939 845.601 L 910.481 843.243 L 903.903 805.513 M 485.652 811.346 L 473.986 809.236 L 467.284 846.966 Q 472.745 847.959 478.950 848.952 L 485.652 811.346 M 429.058 799.308 L 417.888 796.205 L 409.200 834.058 L 421.736 837.161 L 429.058 799.308 M 466.663 807.871 L 455.121 805.513 L 448.419 843.243 L 459.961 845.601 L 466.663 807.871 M 885.038 809.236 L 873.248 811.346 L 880.074 848.952 Q 886.155 847.959 891.616 846.966 L 885.038 809.236 M 441.221 841.753 L 447.799 803.900 L 436.381 801.169 L 428.934 839.023 L 441.221 841.753 M 410.690 794.219 Q 406.346 792.978 399.147 790.620 L 389.467 828.225 L 402.002 832.073 L 410.690 794.219 z"
                    fill-opacity="0.19000000000000003" style="opacity: 1;"></path><text style="font-size: 30px;"
                    x="688.924" y="855.392">Palcos Este</text>
            </g>
            <g sprite-identifier="s71980" data-original-title="" cursor="pointer">
                <path stroke="#000000" fill="#050505"
                    d="M 398.899 256.823 L 396.541 258.560 Q 387.978 264.517 379.538 271.219 L 375.691 274.446 L 393.438 312.548 Q 401.630 307.335 410.814 302.743 L 398.899 256.823 M 312.270 340.597 Q 300.356 356.483 290.551 373.238 L 320.586 396.819 Q 327.784 380.809 336.844 367.529 L 312.270 340.597 M 341.188 361.199 Q 350.372 348.664 361.294 337.867 L 339.699 307.956 Q 333.369 314.534 328.032 320.863 Q 321.331 328.682 316.863 334.516 L 341.188 361.199 M 369.733 279.411 Q 357.198 289.960 345.036 302.495 L 366.755 332.778 Q 376.684 323.842 387.109 316.768 L 369.733 279.411 M 308.671 430.453 Q 312.395 416.552 317.607 403.893 L 286.952 379.816 Q 277.520 397.067 270.569 415.311 L 308.671 430.453 M 302.218 462.597 Q 304.079 449.566 306.810 437.775 L 267.963 422.385 Q 261.758 440.133 258.034 458.750 L 302.218 462.597 M 306.810 580.750 Q 304.079 568.959 302.218 556.052 L 258.034 559.775 Q 261.758 578.392 267.963 596.139 L 306.810 580.750 M 301.225 548.605 Q 299.239 530.858 299.115 512.365 L 253.194 512.365 Q 253.442 532.347 256.669 552.329 L 301.225 548.605 M 369.733 739.114 L 387.109 701.881 Q 376.559 694.559 366.755 685.747 L 345.036 716.030 Q 357.198 728.565 369.733 739.114 M 256.669 466.196 Q 253.442 485.557 253.194 504.919 L 299.115 504.919 Q 299.363 486.178 301.225 469.920 L 256.669 466.196 M 361.294 680.658 Q 350.372 669.861 341.188 657.326 L 316.863 684.009 L 320.958 689.222 Q 329.770 700.144 339.699 710.569 L 361.294 680.658 M 317.607 614.632 Q 312.395 601.849 308.671 588.072 L 270.569 603.214 Q 277.520 621.458 286.952 638.709 L 317.607 614.632 M 312.146 677.928 L 336.844 650.996 Q 327.784 637.716 320.586 621.706 L 290.551 645.287 Q 300.232 661.918 312.146 677.928 M 410.814 715.782 Q 401.630 711.189 393.438 705.977 L 375.691 744.079 Q 388.226 754.504 398.899 761.702 L 410.814 715.782 z"
                    fill-opacity="0.19000000000000003" style="opacity: 1;"></path>
                <g transform="matrix(-1.837e-16, -1, 1, -1.837e-16, -208.719, 773.922)"><text style="font-size: 30px;"
                        x="282.592" y="502.498">Gol Sur Baja</text></g>
                <circle cx="282.592" cy="462.498" fill="#ffeb99" r="10" stroke="#000" stroke-width="2"></circle>
            </g>
            <g sprite-identifier="s84946" data-original-title="" cursor="pointer">
                <path stroke="#000000" fill="#050505"
                    d="M 369.733 794.343 Q 379.414 801.169 387.481 805.885 L 396.914 769.273 Q 380.159 758.227 360.922 741.348 L 340.071 771.631 Q 354.716 783.918 369.733 794.343 M 382.517 215.618 Q 372.588 221.824 361.542 229.891 Q 350.372 238.082 340.071 246.770 L 360.922 277.053 Q 380.159 260.298 396.914 249.128 L 387.481 212.515 L 382.517 215.618 M 250.340 559.279 Q 245.996 536.194 245.747 512.365 L 206.032 512.365 Q 206.281 538.304 210.873 563.499 L 250.340 559.279 M 210.873 455.026 Q 206.405 479.104 206.032 504.919 L 245.747 504.919 Q 246.120 481.834 250.340 459.246 L 210.873 455.026 M 316.863 322.477 L 290.551 295.049 Q 274.169 314.037 260.392 334.391 L 291.296 357.724 Q 302.838 339.604 316.863 322.477 M 321.703 316.768 L 322.323 316.023 Q 337.341 298.524 355.337 282.017 L 334.362 251.610 Q 314.629 268.737 298.122 286.733 L 295.516 289.464 L 321.703 316.768 M 228.620 394.088 Q 217.823 420.772 212.238 447.704 L 251.829 451.924 Q 256.793 429.832 264.736 409.602 L 228.620 394.088 M 287.324 364.178 L 256.421 340.721 Q 241.776 363.433 231.475 387.262 L 267.591 402.652 Q 275.906 383.043 287.324 364.178 M 321.703 701.757 L 295.516 728.937 Q 313.387 748.671 334.362 766.791 L 355.337 736.384 Q 337.341 719.877 322.323 702.502 L 321.703 701.757 M 290.551 723.352 L 316.863 695.924 Q 302.838 678.921 291.296 660.677 L 260.517 684.009 Q 273.424 703.495 289.558 722.111 L 290.551 723.352 M 256.421 677.804 L 287.324 654.347 Q 275.782 635.110 267.591 615.873 L 231.475 631.263 Q 241.776 654.968 256.421 677.804 M 264.736 608.923 Q 256.793 588.569 251.829 566.601 L 212.238 570.821 Q 217.947 598.001 228.620 624.437 L 264.736 608.923 z"
                    fill-opacity="0.19000000000000003" style="opacity: 1;"></path>
                <g transform="matrix(0.017, -1.000, 1.000, 0.017, -247.625, 697.593)"><text style="font-size: 30px;"
                        x="230.885" y="485.965">Gol Sur</text></g>
                <circle cx="230.885" cy="445.965" fill="#f0ad4e" r="10" stroke="#000" stroke-width="2"></circle>
            </g>
            <g sprite-identifier="s80583" data-original-title="" cursor="pointer">
                <path stroke="#000000" fill="#050505"
                    d="M 142.364 485.557 Q 141.495 496.603 141.495 504.919 L 198.586 504.919 Q 198.834 481.586 202.557 459.246 L 146.335 452.420 Q 143.481 469.423 142.364 485.557 M 278.016 213.756 Q 257.414 231.628 239.914 251.610 L 280.002 295.917 Q 285.835 288.967 292.661 281.521 Q 301.473 272.088 311.153 262.780 L 278.016 213.756 M 217.450 616.245 Q 208.639 592.044 203.798 566.601 L 147.576 573.427 Q 153.534 606.068 164.704 637.468 L 217.450 616.245 M 202.557 559.279 Q 198.834 535.822 198.586 512.365 L 141.495 512.365 L 141.495 512.862 Q 141.495 536.318 146.335 565.981 L 202.557 559.279 M 246.244 342.831 Q 258.779 322.105 275.286 301.750 L 234.950 257.319 Q 214.968 281.148 198.834 308.080 L 246.244 342.831 M 203.798 451.924 Q 208.639 426.481 217.450 402.155 L 164.704 381.057 Q 153.534 412.457 147.576 445.098 L 203.798 451.924 M 173.640 357.724 Q 170.785 364.550 167.186 373.983 L 220.181 395.205 Q 229.489 371.376 242.397 349.161 L 194.986 314.410 Q 183.072 335.508 173.640 357.724 M 167.186 644.542 Q 170.785 653.975 173.640 660.801 Q 183.072 683.017 194.986 703.991 L 242.397 669.364 Q 229.489 647.149 220.181 623.320 L 167.186 644.542 M 385.495 813.456 Q 371.099 804.893 354.220 792.357 L 330.391 843.243 Q 349.752 855.281 371.967 866.079 L 385.495 813.456 M 283.725 809.609 Q 302.714 825.371 324.061 839.147 L 348.138 787.765 Q 331.508 774.858 316.614 760.833 L 283.725 809.609 M 275.286 716.774 Q 258.779 696.296 246.244 675.694 L 198.834 710.445 Q 214.968 737.377 234.950 761.206 L 275.286 716.774 M 292.661 736.880 Q 285.835 729.434 280.002 722.608 L 239.914 766.915 Q 257.414 786.897 278.016 804.768 L 311.153 755.745 Q 301.473 746.437 292.661 736.880 M 283.725 208.916 L 316.614 257.567 Q 331.508 243.667 348.138 230.760 L 324.061 179.378 Q 302.714 193.154 283.725 208.916 M 354.220 226.167 Q 371.099 213.508 385.495 205.069 L 371.967 152.446 Q 349.752 163.244 330.391 175.282 L 354.220 226.167 z"
                    fill-opacity="0.19000000000000003" style="opacity: 1;"></path>
                <g transform="matrix(6.123e-17, -1, 1, 6.123e-17, -304.289, 666.586)"><text style="font-size: 30px;"
                        x="181.142" y="496.615">Gol Sur Alta</text></g>
                <circle cx="181.142" cy="456.615" fill="#ffeb99" r="10" stroke="#000" stroke-width="2"></circle>
            </g>
            <g sprite-identifier="s84945" data-original-title="" cursor="pointer">
                <path stroke="#000000" fill="#050505"
                    d="M 965.586 312.548 L 983.333 274.446 Q 970.674 264.021 960.001 256.823 L 948.210 302.743 Q 957.519 307.460 965.586 312.548 M 1052.090 580.750 L 1090.937 596.139 Q 1097.142 578.392 1100.866 559.775 L 1056.682 556.052 Q 1054.821 568.959 1052.090 580.750 M 1057.675 469.920 Q 1059.537 486.178 1059.785 504.919 L 1105.706 504.919 Q 1105.458 485.557 1102.231 466.196 L 1057.675 469.920 M 1090.937 422.385 L 1052.090 437.775 Q 1054.821 449.566 1056.682 462.597 L 1100.866 458.750 Q 1097.142 440.133 1090.937 422.385 M 997.730 337.867 Q 1008.652 348.664 1017.712 361.199 L 1042.162 334.516 L 1037.942 329.303 Q 1029.130 318.381 1019.201 307.956 L 997.730 337.867 M 1068.349 373.238 Q 1058.668 356.607 1046.754 340.597 L 1022.056 367.529 Q 1031.364 381.181 1038.314 396.819 L 1068.349 373.238 M 1050.229 430.453 L 1088.331 415.311 Q 1081.380 397.067 1071.948 379.816 L 1041.293 403.893 Q 1046.505 416.552 1050.229 430.453 M 1102.231 552.329 Q 1105.458 532.347 1105.706 512.365 L 1059.785 512.365 Q 1059.661 530.858 1057.675 548.605 L 1102.231 552.329 M 1046.630 677.928 Q 1058.544 662.166 1068.349 645.287 L 1038.314 621.706 Q 1031.364 637.344 1022.056 650.996 L 1046.630 677.928 M 989.167 279.411 L 971.791 316.768 Q 982.341 323.842 992.269 332.778 L 1013.864 302.495 Q 1001.702 289.960 989.167 279.411 M 1088.331 603.214 L 1050.229 588.072 Q 1046.505 601.849 1041.293 614.632 L 1071.948 638.709 Q 1081.380 621.458 1088.331 603.214 M 1017.712 657.326 Q 1008.652 669.861 997.730 680.658 L 1019.201 710.569 Q 1025.531 703.991 1030.868 697.661 Q 1037.445 689.967 1042.162 684.009 L 1017.712 657.326 M 971.791 701.881 L 989.167 739.114 Q 1001.702 728.565 1013.864 716.030 L 992.269 685.747 Q 982.465 694.559 971.791 701.881 M 965.586 705.977 Q 957.519 711.065 948.210 715.782 L 960.001 761.702 L 962.483 759.965 Q 970.922 754.132 979.362 747.305 L 983.333 744.079 L 965.586 705.977 z"
                    fill-opacity="0.19000000000000003" style="opacity: 1;"></path>
                <g transform="matrix(-0.017, 1.000, -1.000, -0.017, 1608.705, -548.823)"><text style="font-size: 30px;"
                        x="1074.017" y="527.204">Gol Norte Baja</text></g>
                <circle cx="1074.017" cy="487.20399999999995" fill="#a3d165" r="10" stroke="#000" stroke-width="2">
                </circle>
            </g>
            <g sprite-identifier="s80582" data-original-title="" cursor="pointer">
                <path stroke="#000000" fill="#050505"
                    d="M 1191.714 373.983 Q 1187.743 363.557 1185.260 357.724 Q 1175.828 335.508 1163.914 314.410 L 1116.503 349.161 Q 1129.411 371.376 1138.719 395.205 L 1191.714 373.983 M 1118.986 251.610 Q 1101.486 231.628 1080.884 213.756 L 1047.747 262.780 Q 1057.427 272.088 1066.239 281.521 Q 1073.065 288.967 1078.898 295.917 L 1118.986 251.610 M 1083.614 301.750 Q 1099.873 321.856 1112.656 342.831 L 1160.066 308.080 Q 1143.932 281.148 1123.950 257.319 L 1083.614 301.750 M 1156.343 459.246 Q 1160.066 481.586 1160.314 504.919 L 1217.405 504.919 Q 1217.405 482.206 1212.565 452.420 L 1156.343 459.246 M 1155.102 451.924 L 1211.324 445.098 Q 1205.366 412.457 1194.196 381.057 L 1141.450 402.155 Q 1150.261 426.481 1155.102 451.924 M 1034.839 179.378 L 1010.762 230.760 Q 1027.392 243.667 1042.286 257.567 L 1075.175 208.916 Q 1056.434 193.278 1034.839 179.378 M 1004.804 226.167 L 1028.509 175.282 Q 1009.148 163.244 987.057 152.446 L 973.405 205.069 Q 987.925 213.508 1004.804 226.167 M 1004.804 792.357 Q 987.925 804.893 973.405 813.456 L 987.057 866.079 Q 1009.148 855.281 1028.509 843.243 L 1004.804 792.357 M 1075.175 809.609 L 1042.286 760.833 Q 1027.392 774.858 1010.762 787.765 L 1034.839 839.147 Q 1056.434 825.247 1075.175 809.609 M 1185.260 660.801 Q 1188.115 653.975 1191.714 644.542 L 1138.719 623.320 Q 1129.411 647.149 1116.503 669.364 L 1163.914 703.991 Q 1175.828 683.017 1185.260 660.801 M 1211.324 573.427 L 1155.102 566.601 Q 1150.261 592.044 1141.450 616.245 L 1194.196 637.468 Q 1205.366 606.068 1211.324 573.427 M 1078.898 722.608 Q 1073.065 729.434 1066.239 736.880 Q 1057.427 746.437 1047.747 755.745 L 1080.884 804.768 Q 1101.486 786.897 1118.986 766.915 L 1078.898 722.608 M 1112.656 675.694 Q 1100.121 696.296 1083.614 716.774 L 1123.950 761.206 Q 1143.932 737.377 1160.066 710.445 L 1112.656 675.694 M 1217.405 512.862 L 1217.405 512.365 L 1160.314 512.365 Q 1160.066 536.443 1156.343 559.279 L 1212.565 565.981 Q 1217.405 536.318 1217.405 512.862 z"
                    fill-opacity="0.19000000000000003" style="opacity: 1;"></path>
                <g transform="matrix(-0.017, 1.000, -1.000, -0.017, 1730.794, -642.909)"><text style="font-size: 30px;"
                        x="1181.287" y="540.145">Gol Norte Alta</text></g>
                <circle cx="1181.287" cy="500.145" fill="#a3d165" r="10" stroke="#000" stroke-width="2"></circle>
            </g>
            <g sprite-identifier="s84944" data-original-title="" cursor="pointer">
                <path stroke="#000000" fill="#050505"
                    d="M 1148.152 563.499 Q 1152.619 538.056 1152.868 512.365 L 1113.153 512.365 Q 1112.904 536.194 1108.560 559.279 L 1148.152 563.499 M 971.419 212.515 L 961.986 249.128 Q 978.741 260.298 997.978 277.053 L 1018.829 246.770 Q 1004.308 234.607 989.291 224.182 Q 979.610 217.356 971.419 212.515 M 1152.868 504.919 Q 1152.495 479.600 1148.027 455.026 L 1108.560 459.246 Q 1112.780 481.834 1113.153 504.919 L 1152.868 504.919 M 1036.577 316.023 L 1037.197 316.768 L 1063.384 289.464 Q 1045.513 269.730 1024.538 251.610 L 1003.563 282.017 Q 1021.559 298.524 1036.577 316.023 M 1130.280 394.088 L 1094.164 409.602 Q 1102.107 429.832 1107.071 451.924 L 1146.662 447.704 Q 1140.953 420.276 1130.280 394.088 M 1102.479 340.721 L 1071.576 364.178 Q 1082.994 383.043 1091.309 402.652 L 1127.425 387.262 Q 1117.124 363.433 1102.479 340.721 M 1068.349 295.049 L 1042.037 322.477 Q 1056.062 339.604 1067.604 357.724 L 1098.508 334.516 Q 1085.476 315.030 1069.466 296.290 L 1068.349 295.049 M 997.358 788.510 Q 1009.024 779.946 1018.829 771.631 L 997.978 741.348 Q 978.741 758.227 961.986 769.273 L 971.419 805.885 L 976.507 802.783 Q 986.188 796.701 997.358 788.510 M 1042.037 695.924 L 1068.349 723.352 Q 1084.731 704.488 1098.508 684.133 L 1067.604 660.677 Q 1056.062 678.921 1042.037 695.924 M 1102.479 677.804 Q 1117.000 655.340 1127.425 631.263 L 1091.309 615.873 Q 1082.994 635.358 1071.576 654.347 L 1102.479 677.804 M 1094.164 608.923 L 1130.280 624.437 Q 1141.077 597.753 1146.662 570.821 L 1107.071 566.601 Q 1102.107 588.569 1094.164 608.923 M 1037.197 701.757 L 1036.577 702.502 Q 1021.559 719.877 1003.563 736.384 L 1024.538 766.791 Q 1044.271 749.788 1060.778 731.792 L 1063.384 728.937 L 1037.197 701.757 z"
                    fill-opacity="0.19000000000000003" style="opacity: 1;"></path>
                <g transform="matrix(-0.035, 0.999, -0.999, -0.035, 1690.171, -590.836)"><text style="font-size: 30px;"
                        x="1130.368" y="531.847">Gol Norte</text></g>
                <circle cx="1130.368" cy="491.847" fill="#ffeb99" r="10" stroke="#000" stroke-width="2"></circle>
            </g>
            <g>
                <path stroke="#000000" fill="#050505"
                    d="M 951.666 338.673 Q 948.427 335.728 944.009 335.728 L 404.226 335.728 Q 399.661 335.728 396.569 338.673 Q 393.329 341.765 393.329 346.035 L 393.329 651.264 Q 393.329 655.388 396.569 658.626 Q 399.661 661.572 404.226 661.572 L 944.009 661.572 Q 948.427 661.572 951.666 658.626 Q 954.905 655.388 954.905 651.264 L 954.905 346.035 Q 954.905 341.765 951.666 338.673 z"
                    fill-opacity="0.19000000000000003"></path>
                <path stroke-width="1.8" stroke="#000000" fill="#050505"
                    d="M 951.666 338.673 Q 954.905 341.765 954.905 346.035 L 954.905 651.264 Q 954.905 655.388 951.666 658.626 Q 948.427 661.572 944.009 661.572 L 404.226 661.572 Q 399.661 661.572 396.569 658.626 Q 393.329 655.388 393.329 651.264 L 393.329 346.035 Q 393.329 341.765 396.569 338.673 Q 399.661 335.728 404.226 335.728 L 944.009 335.728 Q 948.427 335.728 951.666 338.673 z"
                    fill-opacity="0.19000000000000003"></path>
                <path stroke-width="2.25" stroke="#000000" fill="#050505"
                    d="M 933.703 641.399 L 416.005 641.399 L 416.005 355.753 L 933.703 355.753 L 933.703 641.399 z"
                    fill-opacity="0.19000000000000003"></path>
                <path stroke-width="2.25" stroke="#000000" fill="#050505" d="M 674.854 356.194 L 674.854 641.105"
                    fill-opacity="0.19000000000000003"></path>
                <path stroke-width="2.25" stroke="#000000" fill="#050505"
                    d="M 704.302 470.600 Q 716.523 482.233 716.523 498.576 Q 716.523 514.919 704.302 526.552 Q 692.081 538.183 674.854 538.183 Q 657.627 538.183 645.406 526.552 Q 633.038 514.919 633.038 498.576 Q 633.038 482.233 645.406 470.600 Q 657.627 458.968 674.854 458.968 Q 692.081 458.968 704.302 470.600 z"
                    fill-opacity="0.19000000000000003"></path>
                <path stroke-width="2.25" stroke="#000000" fill="#050505"
                    d="M 499.196 465.741 L 499.196 405.373 L 416.447 405.373 L 416.447 591.779 L 499.196 591.779 L 499.196 531.411"
                    fill-opacity="0.19000000000000003"></path>
                <path stroke-width="2.25" stroke="#000000" fill="#050505"
                    d="M 499.196 465.741 L 499.196 531.411 Q 507.736 526.110 512.595 517.423 Q 517.748 508.735 517.748 498.576 Q 517.748 488.563 512.595 479.730 Q 507.736 471.189 499.196 465.741 z"
                    fill-opacity="0.19000000000000003"></path>
                <path stroke-width="2.25" stroke="#000000" fill="#050505"
                    d="M 850.070 465.741 L 850.070 405.373 L 933.703 405.373 L 933.703 591.779 L 850.070 591.779 L 850.070 531.411"
                    fill-opacity="0.19000000000000003"></path>
                <path stroke-width="2.25" stroke="#000000" fill="#050505"
                    d="M 850.070 465.741 L 850.070 531.411 Q 841.530 526.110 836.524 517.423 Q 831.370 508.735 831.370 498.576 Q 831.370 488.563 836.524 479.730 Q 841.530 471.189 850.070 465.741 z"
                    fill-opacity="0.19000000000000003"></path>
                <path stroke-width="2.25" stroke="#000000" fill="#050505"
                    d="M 448.986 461.618 L 448.986 535.385 L 417.330 535.385 L 417.330 461.618 L 448.986 461.618 z"
                    fill-opacity="0.19000000000000003"></path>
                <path stroke-width="2.25" stroke="#000000" fill="#050505"
                    d="M 932.231 461.618 L 932.231 535.385 L 900.426 535.385 L 900.426 461.618 L 932.231 461.618 z"
                    fill-opacity="0.19000000000000003"></path>
            </g>
        </g>
        <defs>
            <style type="text/css">
                .svg-pan-zoom-control {
                    cursor: pointer;
                    fill: white;
                    fill-opacity: 1;
                    stroke-width: 20;
                    stroke: rgb(0, 0, 0);
                }

                .svg-pan-zoom-control-background {
                    fill: grey;
                }
            </style>
        </defs>
        <g id="svg-pan-zoom-controls" transform="translate(-12 7) scale(0.75)" class="svg-pan-zoom-control">
            <g id="svg-pan-zoom-zoom-in" transform="translate(30.5 5) scale(0.015)" class="svg-pan-zoom-control">
                <rect x="100" y="100" width="1200" height="1200" class="svg-pan-zoom-control-background"></rect>
                <path
                    d="M1280 576v128q0 26 -19 45t-45 19h-320v320q0 26 -19 45t-45 19h-128q-26 0 -45 -19t-19 -45v-320h-320q-26 0 -45 -19t-19 -45v-128q0 -26 19 -45t45 -19h320v-320q0 -26 19 -45t45 -19h128q26 0 45 19t19 45v320h320q26 0 45 19t19 45zM1536 1120v-960 q0 -119 -84.5 -203.5t-203.5 -84.5h-960q-119 0 -203.5 84.5t-84.5 203.5v960q0 119 84.5 203.5t203.5 84.5h960q119 0 203.5 -84.5t84.5 -203.5z"
                    class="svg-pan-zoom-control-element"></path>
            </g>
            <g id="svg-pan-zoom-zoom-out" transform="translate(30.5 40) scale(0.015)" class="svg-pan-zoom-control">
                <rect x="100" y="100" width="1200" height="1200" class="svg-pan-zoom-control-background"></rect>
                <path
                    d="M1280 576v128q0 26 -19 45t-45 19h-896q-26 0 -45 -19t-19 -45v-128q0 -26 19 -45t45 -19h896q26 0 45 19t19 45zM1536 1120v-960q0 -119 -84.5 -203.5t-203.5 -84.5h-960q-119 0 -203.5 84.5t-84.5 203.5v960q0 119 84.5 203.5t203.5 84.5h960q119 0 203.5 -84.5 t84.5 -203.5z"
                    class="svg-pan-zoom-control-element"></path>
            </g>
        </g>
    </svg>