<svg xmlns="http://www.w3.org/2000/svg" version="1.1" width="455" height="396"
        xmlns:xlink="http://www.w3.org/1999/xlink" xmlns:ev="http://www.w3.org/2001/xml-events"
        style="overflow: hidden; touch-action: none; user-select: none;">
        <g class="svg-pan-zoom_viewport"
            transform="matrix(0.3540479242801666,0,0,0.3540479242801666,-5.017625331878662,25.32320785522461)">
            <path stroke="#000000" d="M 555.233 771.910 L 761.355 771.910 L 761.355 851.502 L 555.233 851.502 z"></path>
            <g>
                <path fill="#050505" stroke="#000000"
                    d="M 952.927 322.071 Q 949.494 318.951 944.813 318.951 L 372.833 318.951 Q 367.997 318.951 364.720 322.071 Q 361.287 325.348 361.287 329.873 L 361.287 653.308 Q 361.287 657.678 364.720 661.109 Q 367.997 664.231 372.833 664.231 L 944.813 664.231 Q 949.494 664.231 952.927 661.109 Q 956.360 657.678 956.360 653.308 L 956.360 329.873 Q 956.360 325.348 952.927 322.071 z"
                    fill-opacity="0.19000000000000003"></path>
                <path stroke-width="1.8" fill="#050505" stroke="#000000"
                    d="M 952.927 322.071 Q 956.360 325.348 956.360 329.873 L 956.360 653.308 Q 956.360 657.678 952.927 661.109 Q 949.494 664.231 944.813 664.231 L 372.833 664.231 Q 367.997 664.231 364.720 661.109 Q 361.287 657.678 361.287 653.308 L 361.287 329.873 Q 361.287 325.348 364.720 322.071 Q 367.997 318.951 372.833 318.951 L 944.813 318.951 Q 949.494 318.951 952.927 322.071 z"
                    fill-opacity="0.19000000000000003"></path>
                <path stroke-width="2.25" fill="#050505" stroke="#000000"
                    d="M 933.892 642.855 L 385.315 642.855 L 385.315 340.170 L 933.892 340.170 L 933.892 642.855 z"
                    fill-opacity="0.19000000000000003"></path>
                <path stroke-width="2.25" fill="#050505" stroke="#000000" d="M 659.604 340.638 L 659.604 642.543"
                    fill-opacity="0.19000000000000003"></path>
                <path stroke-width="2.25" fill="#050505" stroke="#000000"
                    d="M 690.808 461.868 Q 703.758 474.194 703.758 491.513 Q 703.758 508.831 690.808 521.157 Q 677.858 533.482 659.604 533.482 Q 641.349 533.482 628.399 521.157 Q 615.293 508.831 615.293 491.513 Q 615.293 474.194 628.399 461.868 Q 641.349 449.543 659.604 449.543 Q 677.858 449.543 690.808 461.868 z"
                    fill-opacity="0.19000000000000003"></path>
                <path stroke-width="2.25" fill="#050505" stroke="#000000"
                    d="M 473.468 456.719 L 473.468 392.750 L 385.783 392.750 L 385.783 590.275 L 473.468 590.275 L 473.468 526.306"
                    fill-opacity="0.19000000000000003"></path>
                <path stroke-width="2.25" fill="#050505" stroke="#000000"
                    d="M 473.468 456.719 L 473.468 526.306 Q 482.518 520.689 487.667 511.484 Q 493.127 502.278 493.127 491.513 Q 493.127 480.903 487.667 471.542 Q 482.518 462.493 473.468 456.719 z"
                    fill-opacity="0.19000000000000003"></path>
                <path stroke-width="2.25" fill="#050505" stroke="#000000"
                    d="M 845.271 456.719 L 845.271 392.750 L 933.892 392.750 L 933.892 590.275 L 845.271 590.275 L 845.271 526.306"
                    fill-opacity="0.19000000000000003"></path>
                <path stroke-width="2.25" fill="#050505" stroke="#000000"
                    d="M 845.271 456.719 L 845.271 526.306 Q 836.222 520.689 830.917 511.484 Q 825.456 502.278 825.456 491.513 Q 825.456 480.903 830.917 471.542 Q 836.222 462.493 845.271 456.719 z"
                    fill-opacity="0.19000000000000003"></path>
                <path stroke-width="2.25" fill="#050505" stroke="#000000"
                    d="M 420.264 452.350 L 420.264 530.518 L 386.719 530.518 L 386.719 452.350 L 420.264 452.350 z"
                    fill-opacity="0.19000000000000003"></path>
                <path stroke-width="2.25" fill="#050505" stroke="#000000"
                    d="M 932.333 452.350 L 932.333 530.518 L 898.631 530.518 L 898.631 452.350 L 932.333 452.350 z"
                    fill-opacity="0.19000000000000003"></path>
            </g>
            <g sprite-identifier="s507254" data-original-title="">
                <path fill="#f1f1f1" stroke="#000000"
                    d="M 79.606 140.982 L 205.488 218.629 L 205.488 257.453 L 78.429 257.453 z"
                    fill-opacity="0.19000000000000003" style="opacity: 1;"></path><text style="font-size: 20px;"
                    x="141.959" y="204.218">Visiteurs 30</text>
            </g>
            <g sprite-identifier="s507253" data-original-title="">
                <path fill="#f1f1f1" stroke="#000000"
                    d="M 81.418 268.074 L 203.641 268.074 L 203.641 341.455 L 81.418 341.455 z"
                    fill-opacity="0.19000000000000003" style="opacity: 1;"></path><text style="font-size: 20px;"
                    x="142.529" y="309.765">Visiteurs 29</text>
            </g>
            <g sprite-identifier="s507234" data-original-title="">
                <path fill="#f1f1f1" stroke="#000000"
                    d="M 342.455 299.536 L 218.168 219.550 L 218.168 346.297 L 342.455 346.297 L 342.455 346.297 z"
                    fill-opacity="0.19000000000000003" style="opacity: 1;"></path><text style="font-size: 20px;"
                    x="280.312" y="287.924">Visiteurs 10</text>
            </g>
            <g sprite-identifier="s507229">
                <path fill="#f1f1f1" stroke="#000000"
                    d="M 464.056 686.301 L 542.650 686.301 L 542.650 758.523 L 464.056 758.523 z"
                    fill-opacity="0.19000000000000003" style="opacity: 1;"></path><text style="font-size: 20px;"
                    x="503.353" y="727.412">5</text>
            </g>
            <g sprite-identifier="s507228" data-original-title="">
                <path fill="#f1f1f1" stroke="#000000"
                    d="M 552.232 688.830 L 657.297 688.830 L 657.297 761.052 L 552.232 761.052 z"
                    fill-opacity="0.19000000000000003" style="opacity: 1;"></path><text style="font-size: 20px;"
                    x="604.765" y="729.941">VIP 4</text>
            </g>
            <g sprite-identifier="s507263" data-original-title="">
                <path fill="#f1f1f1" stroke="#000000"
                    d="M 1112.654 431.804 L 1234.876 431.804 L 1234.876 543.490 L 1112.654 543.490 z"
                    fill-opacity="0.19000000000000003" style="opacity: 1;"></path><text style="font-size: 20px;"
                    x="1173.765" y="492.647">39</text>
            </g>
            <g sprite-identifier="s507262" data-original-title="">
                <path fill="#f1f1f1" stroke="#000000"
                    d="M 1112.830 313.157 L 1235.052 313.157 L 1235.052 424.843 L 1112.830 424.843 z"
                    fill-opacity="0.19000000000000003" style="opacity: 1;"></path><text style="font-size: 20px;"
                    x="1173.941" y="374.000">38</text>
            </g>
            <g sprite-identifier="s507261">
                <path fill="#f1f1f1" stroke="#000000"
                    d="M 1114.547 220.806 L 1234.547 145.512 L 1234.547 299.629 L 1114.547 299.629 z"
                    fill-opacity="0.19000000000000003" style="opacity: 1;"></path><text style="font-size: 20px;"
                    x="1174.547" y="227.571">37</text>
            </g>
            <g sprite-identifier="s507227" data-original-title="">
                <path fill="#f1f1f1" stroke="#000000"
                    d="M 658.848 688.654 L 761.976 688.654 L 761.976 760.876 L 658.848 760.876 z"
                    fill-opacity="0.19000000000000003" style="opacity: 1;"></path><text style="font-size: 20px;"
                    x="710.412" y="729.765">VIP 3</text>
            </g>
            <g sprite-identifier="s507260" data-original-title="">
                <path fill="#f1f1f1" stroke="#000000"
                    d="M 1229.018 125.512 L 1011.371 125.512 L 1011.371 199.629 L 1118.429 199.629 z"
                    fill-opacity="0.19000000000000003" style="opacity: 1;"></path><text style="font-size: 20px;"
                    x="1120.194" y="167.571">36</text>
            </g>
            <g sprite-identifier="s507259">
                <path fill="#f1f1f1" stroke="#000000"
                    d="M 837.213 126.173 L 995.728 126.173 L 995.728 199.357 L 837.213 199.357 z"
                    fill-opacity="0.19000000000000003" style="opacity: 1;"></path><text style="font-size: 20px;"
                    x="916.471" y="167.765">35</text>
            </g>
            <g sprite-identifier="s507258">
                <path fill="#f1f1f1" stroke="#000000"
                    d="M 665.625 127.173 L 824.140 127.173 L 824.140 200.357 L 665.625 200.357 z"
                    fill-opacity="0.19000000000000003" style="opacity: 1;"></path><text style="font-size: 20px;"
                    x="744.882" y="168.765">34</text>
            </g>
            <g sprite-identifier="s507233" data-original-title="">
                <path fill="#f1f1f1" stroke="#000000"
                    d="M 219.712 357.583 L 341.935 357.583 L 341.935 479.241 L 219.712 479.241 z"
                    fill-opacity="0.19000000000000003" style="opacity: 1;"></path><text style="font-size: 20px;"
                    x="280.824" y="423.412">9</text>
            </g>
            <g sprite-identifier="s507257">
                <path fill="#f1f1f1" stroke="#000000"
                    d="M 496.213 127.349 L 654.728 127.349 L 654.728 200.533 L 496.213 200.533 z"
                    fill-opacity="0.19000000000000003" style="opacity: 1;"></path><text style="font-size: 20px;"
                    x="575.471" y="168.941">33</text>
            </g>
            <g sprite-identifier="s507256" data-original-title="" cursor="pointer">
                <path fill="#050505" stroke="#000000"
                    d="M 319.566 127.349 L 478.081 127.349 L 478.081 200.533 L 319.566 200.533 z"
                    fill-opacity="0.19000000000000003" style="opacity: 1;"></path><text style="font-size: 20px;"
                    x="398.824" y="168.941">32</text>
                <circle cx="398.824" cy="133.941" fill="#a3d165" r="10" stroke="#000" stroke-width="2"></circle>
            </g>
            <g sprite-identifier="s507255">
                <path fill="#f1f1f1" stroke="#000000"
                    d="M 91.371 126.865 L 309.018 126.865 L 309.018 200.982 L 201.959 200.982 z"
                    fill-opacity="0.19000000000000003" style="opacity: 1;"></path><text style="font-size: 20px;"
                    x="200.194" y="168.924">31</text>
            </g>
            <g sprite-identifier="s507232" data-original-title="">
                <path fill="#f1f1f1" stroke="#000000"
                    d="M 219.889 494.053 L 342.111 494.053 L 342.111 615.711 L 219.889 615.711 z"
                    fill-opacity="0.19000000000000003" style="opacity: 1;"></path><text style="font-size: 20px;" x="281"
                    y="559.882">8</text>
            </g>
            <g sprite-identifier="s507252">
                <path fill="#f1f1f1" stroke="#000000"
                    d="M 82.595 358.045 L 204.817 358.045 L 204.817 499.014 L 82.595 499.014 z"
                    fill-opacity="0.19000000000000003" style="opacity: 1;"></path><text style="font-size: 20px;"
                    x="143.706" y="433.529">28</text>
            </g>
            <g sprite-identifier="s507250" data-original-title="">
                <path fill="#f1f1f1" stroke="#000000"
                    d="M 202.782 757.453 L 82.782 832.747 L 82.782 678.629 L 202.782 678.629 z"
                    fill-opacity="0.19000000000000003" style="opacity: 1;"></path><text style="font-size: 20px;"
                    x="142.782" y="760.688">26</text>
            </g>
            <g sprite-identifier="s507251" data-original-title="">
                <path fill="#f1f1f1" stroke="#000000"
                    d="M 81.771 518.045 L 203.993 518.045 L 203.993 659.014 L 81.771 659.014 z"
                    fill-opacity="0.19000000000000003" style="opacity: 1;"></path><text style="font-size: 20px;"
                    x="142.882" y="593.529">27</text>
            </g>
            <g sprite-identifier="s507231" data-original-title="">
                <path fill="#f1f1f1" stroke="#000000"
                    d="M 341.632 676.546 L 217.345 756.533 L 217.345 629.785 L 341.632 629.785 L 341.632 629.785 z"
                    fill-opacity="0.19000000000000003" style="opacity: 1;"></path><text style="font-size: 20px;"
                    x="279.488" y="698.159">7</text>
            </g>
            <g sprite-identifier="s507266">
                <path fill="#f1f1f1" stroke="#000000"
                    d="M 239.606 757.453 L 351.371 686.865 L 351.371 757.453 L 343.135 757.453 z"
                    fill-opacity="0.19000000000000003" style="opacity: 1;"></path><text style="font-size: 20px;"
                    x="295.488" y="727.159">6 bis</text>
            </g>
            <g sprite-identifier="s507249">
                <path fill="#f1f1f1" stroke="#000000"
                    d="M 210.194 773.924 L 352.547 773.924 L 352.547 845.688 L 96.076 845.688 z"
                    fill-opacity="0.19000000000000003" style="opacity: 1;"></path><text style="font-size: 20px;"
                    x="224.312" y="814.806">25</text>
            </g>
            <g sprite-identifier="s507230">
                <path fill="#f1f1f1" stroke="#000000"
                    d="M 368.761 685.654 L 447.356 685.654 L 447.356 757.876 L 368.761 757.876 z"
                    fill-opacity="0.19000000000000003" style="opacity: 1;"></path><text style="font-size: 20px;"
                    x="408.059" y="726.765">6</text>
            </g>
            <g sprite-identifier="s507265">
                <path fill="#f1f1f1" stroke="#000000"
                    d="M 1114.547 756.100 L 1234.547 831.394 L 1234.547 677.276 L 1114.547 677.276 z"
                    fill-opacity="0.19000000000000003" style="opacity: 1;"></path><text style="font-size: 20px;"
                    x="1174.547" y="759.335">41</text>
            </g>
            <g sprite-identifier="s507264">
                <path fill="#f1f1f1" stroke="#000000"
                    d="M 1112.654 553.157 L 1234.876 553.157 L 1234.876 664.843 L 1112.654 664.843 z"
                    fill-opacity="0.19000000000000003" style="opacity: 1;"></path><text style="font-size: 20px;"
                    x="1173.765" y="614">40</text>
            </g>
            <g sprite-identifier="s507248" data-original-title="" cursor="pointer">
                <path fill="#050505" stroke="#000000"
                    d="M 367.585 773.359 L 446.180 773.359 L 446.180 845.582 L 367.585 845.582 z"
                    fill-opacity="0.19000000000000003" style="opacity: 1;"></path><text style="font-size: 20px;"
                    x="406.882" y="814.471">24</text>
                <circle cx="406.882" cy="779.471" fill="#f87a44" r="10" stroke="#000" stroke-width="2"></circle>
            </g>
            <g sprite-identifier="s507247" data-original-title="">
                <path fill="#f1f1f1" stroke="#000000"
                    d="M 464.056 773.359 L 542.650 773.359 L 542.650 845.582 L 464.056 845.582 z"
                    fill-opacity="0.19000000000000003" style="opacity: 1;"></path><text style="font-size: 20px;"
                    x="503.353" y="814.471">23</text>
            </g>
            <g sprite-identifier="s507246" data-original-title="">
                <path fill="#f1f1f1" stroke="#000000"
                    d="M 775.644 774.536 L 854.239 774.536 L 854.239 846.758 L 775.644 846.758 z"
                    fill-opacity="0.19000000000000003" style="opacity: 1;"></path><text style="font-size: 20px;"
                    x="814.941" y="815.647">22</text>
            </g>
            <g sprite-identifier="s507245" data-original-title="" cursor="pointer">
                <path fill="#050505" stroke="#000000"
                    d="M 870.761 774.536 L 949.356 774.536 L 949.356 846.758 L 870.761 846.758 z"
                    fill-opacity="0.19000000000000003" style="opacity: 1;"></path><text style="font-size: 20px;"
                    x="910.059" y="815.647">21</text>
                <circle cx="910.059" cy="780.647" fill="#f0ad4e" r="10" stroke="#000" stroke-width="2"></circle>
            </g>
            <g sprite-identifier="s507244" data-original-title="" cursor="pointer">
                <path fill="#050505" stroke="#000000"
                    d="M 1106.488 773.571 L 964.135 773.571 L 964.135 845.335 L 1220.606 845.335 z"
                    fill-opacity="0.19000000000000003" style="opacity: 1;"></path><text style="font-size: 20px;"
                    x="1092.371" y="814.453">20</text>
                <circle cx="1092.371" cy="779.453" fill="#a3d165" r="10" stroke="#000" stroke-width="2"></circle>
            </g>
            <g sprite-identifier="s507226">
                <path fill="#f1f1f1" stroke="#000000"
                    d="M 775.467 686.124 L 854.062 686.124 L 854.062 758.346 L 775.467 758.346 z"
                    fill-opacity="0.19000000000000003" style="opacity: 1;"></path><text style="font-size: 20px;"
                    x="814.765" y="727.235">2</text>
            </g>
            <g sprite-identifier="s507243">
                <path fill="#f1f1f1" stroke="#000000"
                    d="M 974.521 668.487 L 1098.808 748.474 L 1098.808 621.726 L 974.521 621.726 L 974.521 621.726 z"
                    fill-opacity="0.19000000000000003" style="opacity: 1;"></path><text style="font-size: 20px;"
                    x="1036.665" y="690.100">19</text>
            </g>
            <g sprite-identifier="s507242" data-original-title="">
                <path fill="#f1f1f1" stroke="#000000"
                    d="M 977.359 494.334 L 1099.582 494.334 L 1099.582 606.019 L 977.359 606.019 z"
                    fill-opacity="0.19000000000000003" style="opacity: 1;"></path><text style="font-size: 20px;"
                    x="1038.471" y="555.176">18</text>
            </g>
            <g sprite-identifier="s507241" data-original-title="">
                <path fill="#f1f1f1" stroke="#000000"
                    d="M 976.183 368.451 L 1098.405 368.451 L 1098.405 480.137 L 976.183 480.137 z"
                    fill-opacity="0.19000000000000003" style="opacity: 1;"></path><text style="font-size: 20px;"
                    x="1037.294" y="429.294">17</text>
            </g>
            <g sprite-identifier="s507240">
                <path fill="#f1f1f1" stroke="#000000"
                    d="M 974.521 306.418 L 1098.808 226.432 L 1098.808 353.180 L 974.521 353.180 L 974.521 353.180 z"
                    fill-opacity="0.19000000000000003" style="opacity: 1;"></path><text style="font-size: 20px;"
                    x="1036.665" y="294.806">16</text>
            </g>
            <g sprite-identifier="s507239" data-original-title="" cursor="pointer">
                <path fill="#050505" stroke="#000000"
                    d="M 1083.312 216.276 L 925.665 216.276 L 925.665 288.041 L 970.371 288.041 z"
                    fill-opacity="0.19000000000000003" style="opacity: 1;"></path><text style="font-size: 20px;"
                    x="1004.488" y="257.159">15</text>
                <circle cx="1004.488" cy="222.159" fill="#f0ad4e" r="10" stroke="#000" stroke-width="2"></circle>
            </g>
            <g sprite-identifier="s507238" data-original-title="" cursor="pointer">
                <path fill="#050505" stroke="#000000"
                    d="M 752.631 216.114 L 907.133 216.114 L 907.133 289.298 L 752.631 289.298 z"
                    fill-opacity="0.19000000000000003" style="opacity: 1;"></path><text style="font-size: 20px;"
                    x="829.882" y="257.706">14</text>
                <circle cx="829.882" cy="222.70600000000002" fill="#f0ad4e" r="10" stroke="#000" stroke-width="2">
                </circle>
            </g>
            <g sprite-identifier="s507237" data-original-title="" cursor="pointer">
                <path fill="#050505" stroke="#000000"
                    d="M 580.043 215.938 L 734.545 215.938 L 734.545 289.121 L 580.043 289.121 z"
                    fill-opacity="0.19000000000000003" style="opacity: 1;"></path><text style="font-size: 20px;"
                    x="657.294" y="257.529">13</text>
                <circle cx="657.294" cy="222.529" fill="#e53935" r="10" stroke="#000" stroke-width="2"></circle>
            </g>
            <g sprite-identifier="s507236" data-original-title="" cursor="pointer">
                <path fill="#050505" stroke="#000000"
                    d="M 409.631 215.938 L 564.133 215.938 L 564.133 289.121 L 409.631 289.121 z"
                    fill-opacity="0.19000000000000003" style="opacity: 1;"></path><text style="font-size: 20px;"
                    x="486.882" y="257.529">12</text>
                <circle cx="486.882" cy="222.529" fill="#f87a44" r="10" stroke="#000" stroke-width="2"></circle>
            </g>
            <g sprite-identifier="s507235">
                <path fill="#f1f1f1" stroke="#000000"
                    d="M 234.900 217.806 L 392.547 217.806 L 392.547 289.571 L 347.841 289.571 z"
                    fill-opacity="0.19000000000000003" style="opacity: 1;"></path><text style="font-size: 20px;"
                    x="313.724" y="258.688">11</text>
            </g>
            <g sprite-identifier="s507267">
                <path fill="#f1f1f1" stroke="#000000"
                    d="M 1077.253 757.453 L 965.488 686.865 L 965.488 757.453 L 973.724 757.453 z"
                    fill-opacity="0.19000000000000003" style="opacity: 1;"></path><text style="font-size: 20px;"
                    x="1021.371" y="727.159">1 bis</text>
            </g>
            <g sprite-identifier="s507225" data-original-title="" cursor="pointer">
                <path fill="#050505" stroke="#000000"
                    d="M 870.761 686.301 L 949.356 686.301 L 949.356 758.523 L 870.761 758.523 z"
                    fill-opacity="0.19000000000000003" style="opacity: 1;"></path><text style="font-size: 20px;"
                    x="910.059" y="727.412">1</text>
                <circle cx="910.059" cy="692.412" fill="#f0ad4e" r="10" stroke="#000" stroke-width="2"></circle>
            </g>
        </g>
        <defs>
            <style type="text/css">
                .svg-pan-zoom-control {
                    cursor: pointer;
                    fill: white;
                    fill-opacity: 1;
                    stroke-width: 20;
                    stroke: rgb(0, 0, 0);
                }

                .svg-pan-zoom-control-background {
                    fill: grey;
                }
            </style>
        </defs>
        <g id="svg-pan-zoom-controls" transform="translate(-12 7) scale(0.75)" class="svg-pan-zoom-control">
            <g id="svg-pan-zoom-zoom-in" transform="translate(30.5 5) scale(0.015)" class="svg-pan-zoom-control">
                <rect x="100" y="100" width="1200" height="1200" class="svg-pan-zoom-control-background"></rect>
                <path
                    d="M1280 576v128q0 26 -19 45t-45 19h-320v320q0 26 -19 45t-45 19h-128q-26 0 -45 -19t-19 -45v-320h-320q-26 0 -45 -19t-19 -45v-128q0 -26 19 -45t45 -19h320v-320q0 -26 19 -45t45 -19h128q26 0 45 19t19 45v320h320q26 0 45 19t19 45zM1536 1120v-960 q0 -119 -84.5 -203.5t-203.5 -84.5h-960q-119 0 -203.5 84.5t-84.5 203.5v960q0 119 84.5 203.5t203.5 84.5h960q119 0 203.5 -84.5t84.5 -203.5z"
                    class="svg-pan-zoom-control-element"></path>
            </g>
            <g id="svg-pan-zoom-zoom-out" transform="translate(30.5 40) scale(0.015)" class="svg-pan-zoom-control">
                <rect x="100" y="100" width="1200" height="1200" class="svg-pan-zoom-control-background"></rect>
                <path
                    d="M1280 576v128q0 26 -19 45t-45 19h-896q-26 0 -45 -19t-19 -45v-128q0 -26 19 -45t45 -19h896q26 0 45 19t19 45zM1536 1120v-960q0 -119 -84.5 -203.5t-203.5 -84.5h-960q-119 0 -203.5 84.5t-84.5 203.5v960q0 119 84.5 203.5t203.5 84.5h960q119 0 203.5 -84.5 t84.5 -203.5z"
                    class="svg-pan-zoom-control-element"></path>
            </g>
        </g>
    </svg>