    <svg xmlns="http://www.w3.org/2000/svg" version="1.1" width="455" height="396"
        xmlns:xlink="http://www.w3.org/1999/xlink" xmlns:ev="http://www.w3.org/2001/xml-events"
        style="overflow: hidden; touch-action: none; user-select: none;">
        <g class="svg-pan-zoom_viewport"
            transform="matrix(0.34048670530319214,0,0,0.34048670530319214,-1.2900582551956177,27.331031799316406)">
            <path fill="#050505" stroke="#000000"
                d="M 1057.733 320.936 Q 1057.733 315.400 1053.662 311.656 Q 1049.592 307.748 1043.731 307.748 L 362.852 307.748 Q 357.153 307.748 353.083 311.656 Q 349.013 315.400 349.013 320.936 L 349.013 705.986 Q 349.013 711.359 353.083 715.266 Q 357.153 719.011 362.852 719.011 L 1043.731 719.011 Q 1049.592 719.011 1053.662 715.266 Q 1057.733 711.359 1057.733 705.986 L 1057.733 320.936 z"
                fill-opacity="0.19000000000000003"></path>
            <g sprite-identifier="s181698">
                <path fill="#f1f1f1" stroke="#000000"
                    d="M 674.636 791.136 L 674.636 812.139 L 735.202 812.139 L 735.202 791.136 L 674.636 791.136 M 674.636 758.411 L 674.636 787.880 L 735.202 787.880 L 735.202 758.411 L 674.636 758.411 M 630.514 815.395 L 630.514 857.075 L 671.380 857.075 L 671.380 815.395 L 630.514 815.395 M 782.743 815.395 L 738.459 815.395 L 738.459 857.075 L 782.743 857.075 L 782.743 815.395 M 738.459 812.139 L 782.743 812.139 L 782.743 758.411 L 738.459 758.411 L 738.459 812.139 M 630.514 758.411 L 630.514 812.139 L 671.380 812.139 L 671.380 758.411 L 630.514 758.411 z"
                    fill-opacity="0.19000000000000003" style="opacity: 1;"></path><text style="font-size: 15px;"
                    x="706.629" y="780.743">VIP</text>
            </g>
            <g sprite-identifier="s181716">
                <path fill="#f1f1f1" stroke="#000000"
                    d="M 1002.051 857.075 L 1067.338 857.075 L 1067.338 815.395 L 1002.051 815.395 L 1002.051 857.075 M 1067.338 812.139 L 1067.338 758.411 L 1002.051 758.411 L 1002.051 812.139 L 1067.338 812.139 z"
                    fill-opacity="0.19000000000000003" style="opacity: 1;"></path><text style="font-size: 15px;"
                    x="1034.695" y="793.920">
                    <tspan dy="1.2em" x="1034.695">Tribuna</tspan>
                    <tspan dy="1.2em" x="1034.695">Lateral</tspan>
                </text>
            </g>
            <g sprite-identifier="s181717">
                <path fill="#f1f1f1" stroke="#000000"
                    d="M 346.896 809.534 L 345.431 852.842 L 413.975 854.145 L 413.975 811.325 L 346.896 809.534 M 349.013 751.573 L 347.059 806.278 L 413.975 808.069 L 413.975 753.690 L 349.013 751.573 z"
                    fill-opacity="0.19000000000000003" style="opacity: 1;"></path><text style="font-size: 15px;"
                    x="381.526" y="790.212">
                    <tspan dy="1.2em" x="381.526">Tribuna </tspan>
                    <tspan dy="1.2em" x="381.526">Lateral</tspan>
                </text>
            </g>
            <g sprite-identifier="s181710">
                <path fill="#f1f1f1" stroke="#000000"
                    d="M 998.795 812.139 L 998.795 782.833 L 845.914 782.833 L 845.914 812.139 L 998.795 812.139 M 998.795 779.577 L 998.795 758.411 L 845.914 758.411 L 845.914 779.577 L 998.795 779.577 M 998.795 857.075 L 998.795 815.395 L 845.914 815.395 L 845.914 857.075 L 998.795 857.075 M 842.658 815.395 L 786.000 815.395 L 786.000 857.075 L 842.658 857.075 L 842.658 815.395 M 786.000 812.139 L 842.658 812.139 L 842.658 758.411 L 786.000 758.411 L 786.000 812.139 z"
                    fill-opacity="0.19000000000000003" style="opacity: 1;"></path><text style="font-size: 15px;"
                    x="915.397" y="804.743">TRIBUNA </text>
            </g>
            <g sprite-identifier="s181711">
                <path fill="#f1f1f1" stroke="#000000"
                    d="M 577.275 758.411 L 577.275 812.139 L 627.258 812.139 L 627.258 758.411 L 577.275 758.411 M 627.258 815.395 L 577.275 815.395 L 577.275 857.075 L 627.258 857.075 L 627.258 815.395 M 567.018 778.926 L 567.018 758.411 L 417.231 753.690 L 417.231 775.181 L 567.018 778.926 M 567.018 811.976 L 567.018 782.182 L 417.231 778.437 L 417.231 808.232 L 567.018 811.976 M 417.231 854.145 L 567.018 857.075 L 567.018 815.233 L 417.231 811.488 L 417.231 854.145 z"
                    fill-opacity="0.19000000000000003" style="opacity: 1;"></path><text style="font-size: 15px;"
                    x="501.245" y="804.382">TRIBUNA </text>
            </g>
            <g sprite-identifier="s181706">
                <path fill="#f1f1f1" stroke="#000000"
                    d="M 575.972 114.816 L 575.972 182.546 L 693.685 182.546 L 693.685 114.816 L 575.972 114.816 M 635.562 247.996 L 635.562 195.896 L 575.484 195.896 L 575.484 247.996 L 635.562 247.996 M 638.818 195.896 L 638.818 247.996 L 692.383 247.996 L 692.383 195.896 L 638.818 195.896 z"
                    fill-opacity="0.19000000000000003" style="opacity: 1;"></path><text style="font-size: 12px;"
                    x="636.938" y="155.818">PREFERNCIA </text>
            </g>
            <g sprite-identifier="s181709">
                <path fill="#f1f1f1" stroke="#000000"
                    d="M 935.461 182.546 L 935.461 114.816 L 817.748 114.816 L 817.748 182.546 L 935.461 182.546 M 938.717 114.816 L 938.717 182.546 L 1020.449 182.546 L 1020.449 114.816 L 938.717 114.816 M 893.781 247.996 L 893.781 195.896 L 817.422 195.896 L 817.422 247.996 L 893.781 247.996 M 1020.449 247.996 L 1020.449 195.896 L 897.037 195.896 L 897.037 247.996 L 1020.449 247.996 z"
                    fill-opacity="0.19000000000000003" style="opacity: 1;"></path><text style="font-size: 12px;"
                    x="878.935" y="159.347">PREFERENCIA </text>
            </g>
            <g sprite-identifier="s181708">
                <path fill="#f1f1f1" stroke="#000000"
                    d="M 390.367 182.546 L 451.910 182.546 L 451.910 114.816 L 390.367 114.816 L 390.367 182.546 M 572.716 182.546 L 572.716 114.816 L 455.166 114.816 L 455.166 182.546 L 572.716 182.546 M 513.778 247.996 L 513.778 195.896 L 390.367 195.896 L 390.367 247.996 L 513.778 247.996 M 517.035 195.896 L 517.035 247.996 L 572.228 247.996 L 572.228 195.896 L 517.035 195.896 z"
                    fill-opacity="0.19000000000000003" style="opacity: 1;"></path><text style="font-size: 12px;"
                    x="509.306" y="157.524">PREFERENCIA </text>
            </g>
            <g sprite-identifier="s181705">
                <path fill="#f1f1f1" stroke="#000000"
                    d="M 1056.267 182.546 L 1056.267 114.816 L 1023.705 114.816 L 1023.705 182.546 L 1056.267 182.546 M 1059.523 182.546 L 1083.945 182.546 L 1083.945 114.816 L 1059.523 114.816 L 1059.523 182.546 M 1023.705 195.896 L 1023.705 247.996 L 1076.619 247.996 L 1076.619 195.896 L 1023.705 195.896 z"
                    fill-opacity="0.19000000000000003" style="opacity: 1;"></path><text style="font-size: 9px;"
                    x="1051.472" y="204.524">
                    <tspan dy="1.2em" x="1051.472">Preferencia </tspan>
                    <tspan dy="1.2em" x="1051.472">Joven</tspan>
                </text>
            </g>
            <g sprite-identifier="s181704">
                <path fill="#f1f1f1" stroke="#000000"
                    d="M 334.197 182.546 L 387.111 182.546 L 387.111 114.816 L 334.197 114.816 L 334.197 182.546 M 334.197 247.996 L 387.111 247.996 L 387.111 195.896 L 334.197 195.896 L 334.197 247.996 z"
                    fill-opacity="0.19000000000000003" style="opacity: 1;"></path><text style="font-size: 9px;"
                    x="360.654" y="204.347">
                    <tspan dy="1.2em" x="360.654">Preferencia</tspan>
                    <tspan dy="1.2em" x="360.654"> Joven</tspan>
                </text>
            </g>
            <g sprite-identifier="s181718">
                <path fill="#f1f1f1" stroke="#000000"
                    d="M 374.737 251.252 L 334.197 251.252 L 334.197 275.511 L 374.737 275.511 L 374.737 251.252 M 418.696 275.511 L 418.696 251.252 L 377.993 251.252 L 377.993 275.511 L 418.696 275.511 M 421.952 275.511 L 462.493 275.511 L 462.493 251.252 L 421.952 251.252 L 421.952 275.511 M 506.452 251.252 L 465.749 251.252 L 465.749 275.511 L 506.452 275.511 L 506.452 251.252 M 509.708 251.252 L 509.708 275.511 L 550.248 275.511 L 550.248 251.252 L 509.708 251.252 z"
                    fill-opacity="0.19000000000000003" style="opacity: 1;"></path><text style="font-size: 12px;"
                    x="442.223" y="268.382">PREFERENCIA CUBI PAR</text>
            </g>
            <g sprite-identifier="s181720">
                <path fill="#f1f1f1" stroke="#000000"
                    d="M 553.504 275.511 L 594.045 275.511 L 594.045 251.252 L 553.504 251.252 L 553.504 275.511 M 637.841 251.252 L 597.301 251.252 L 597.301 275.511 L 637.841 275.511 L 637.841 251.252 M 641.097 251.252 L 641.097 275.511 L 681.800 275.511 L 681.800 251.252 L 641.097 251.252 M 703.780 251.252 L 685.056 251.252 L 685.056 275.511 L 703.780 275.511 L 703.780 251.252 z"
                    fill-opacity="0.19000000000000003" style="opacity: 1;"></path><text style="font-size: 12px;"
                    x="628.642" y="268.382">PREFERENCIA BAJA</text>
            </g>
            <g sprite-identifier="s181707" data-original-title="" cursor="pointer">
                <path fill="#050505" stroke="#000000"
                    d="M 814.492 182.546 L 814.492 114.816 L 696.942 114.816 L 696.942 182.546 L 814.492 182.546 M 754.089 247.996 L 754.089 195.896 L 695.639 195.896 L 695.639 247.996 L 754.089 247.996 M 757.345 195.896 L 757.345 247.996 L 814.166 247.996 L 814.166 195.896 L 757.345 195.896 z"
                    fill-opacity="0.19000000000000003" style="opacity: 1;"></path><text style="font-size: 12px;"
                    x="757.418" y="158.171">PREFERENCIA </text>
                <circle cx="757.418" cy="127.17099999999999" fill="#a3d165" r="10" stroke="#000" stroke-width="2">
                </circle>
            </g>
            <g sprite-identifier="s181719">
                <path fill="#f1f1f1" stroke="#000000"
                    d="M 901.108 251.252 L 860.567 251.252 L 860.567 275.511 L 901.108 275.511 L 901.108 251.252 M 945.067 275.511 L 945.067 251.252 L 904.364 251.252 L 904.364 275.511 L 945.067 275.511 M 948.323 275.511 L 988.863 275.511 L 988.863 251.252 L 948.323 251.252 L 948.323 275.511 M 1032.660 251.252 L 992.119 251.252 L 992.119 275.511 L 1032.660 275.511 L 1032.660 251.252 M 1035.916 251.252 L 1035.916 275.511 L 1076.619 275.511 L 1076.619 251.252 L 1035.916 251.252 z"
                    fill-opacity="0.19000000000000003" style="opacity: 1;"></path><text style="font-size: 12px;"
                    x="968.593" y="268.382">PREFERENCIA CUBI</text>
            </g>
            <g sprite-identifier="s181721">
                <path fill="#f1f1f1" stroke="#000000"
                    d="M 707.036 275.511 L 725.759 275.511 L 725.759 251.252 L 707.036 251.252 L 707.036 275.511 M 769.556 251.252 L 729.016 251.252 L 729.016 275.511 L 769.556 275.511 L 769.556 251.252 M 772.812 251.252 L 772.812 275.511 L 813.352 275.511 L 813.352 251.252 L 772.812 251.252 M 816.608 275.511 L 857.311 275.511 L 857.311 251.252 L 816.608 251.252 L 816.608 275.511 z"
                    fill-opacity="0.19000000000000003" style="opacity: 1;"></path><text style="font-size: 12px;"
                    x="782.174" y="268.382">PREFERENCIA BAJA</text>
            </g>
            <g sprite-identifier="s181714">
                <path fill="#f1f1f1" stroke="#000000"
                    d="M 1182.935 291.793 L 1273.295 291.793 L 1273.295 241.809 L 1182.935 241.809 L 1182.935 291.793 M 1179.679 241.809 L 1137.999 241.809 L 1137.999 291.793 L 1179.679 291.793 L 1179.679 241.809 M 1134.743 241.809 L 1115.531 241.809 L 1115.531 270.953 L 1093.226 270.953 L 1093.226 291.793 L 1134.743 291.793 L 1134.743 241.809 z"
                    fill-opacity="0.19000000000000003" style="opacity: 1;"></path><text style="font-size: 15px;"
                    x="1183.260" y="271.801">LATERAL SUR</text>
            </g>
            <g sprite-identifier="s181722">
                <path fill="#f1f1f1" stroke="#000000"
                    d="M 1092.863 734.804 L 1090.584 741.804 L 1122.006 759.062 L 1132.915 734.804 L 1092.863 734.804 M 1247.534 828.583 L 1271.630 734.804 L 1181.270 734.804 L 1167.268 784.135 L 1247.534 828.583 M 1178.014 734.804 L 1136.497 734.804 L 1124.774 760.691 L 1164.337 782.507 L 1178.014 734.804 z"
                    fill-opacity="0.19000000000000003" style="opacity: 1;"></path><text style="font-size: 12px;"
                    x="1198.460" y="760.693">LATERAL FONDO SUR</text>
            </g>
            <g sprite-identifier="s218065">
                <path fill="#f1f1f1" stroke="#000000"
                    d="M 111.308 271.278 L 70.605 271.278 L 70.605 743.433 L 111.308 743.433 L 111.308 271.278 z"
                    fill-opacity="0.19000000000000003" style="opacity: 1;"></path>
                <g transform="matrix(6.123e-17, -1, 1, 6.123e-17, -414.039, 595.977)"><text style="font-size: 15px;"
                        x="90.956" y="510.355">Grada Visitantes Away Fans Sector</text></g>
            </g>
            <g sprite-identifier="s181703">
                <path fill="#f1f1f1" stroke="#000000"
                    d="M 272.491 753.690 L 289.424 793.090 L 298.541 782.345 L 283.725 753.690 L 272.491 753.690 M 200.691 753.690 L 128.891 753.690 L 173.176 847.958 L 214.693 819.140 L 235.045 857.889 L 243.674 847.632 L 200.691 753.690 M 287.144 796.021 L 268.909 753.690 L 204.273 753.690 L 246.116 844.864 L 287.144 796.021 M 339.244 812.628 L 297.401 799.277 L 264.676 840.143 L 336.476 863.913 L 339.244 812.628 M 339.407 809.209 L 342.012 762.156 L 329.964 758.737 L 299.681 796.509 L 339.407 809.209 z"
                    fill-opacity="0.19000000000000003" style="opacity: 1;"></path><text style="font-size: 15px;"
                    x="235.452" y="807.801">LATERAL FONDO NORTE</text>
            </g>
            <g sprite-identifier="s181713">
                <path fill="#f1f1f1" stroke="#000000"
                    d="M 1179.679 305.469 L 1137.999 305.469 L 1137.999 409.017 L 1179.679 409.017 L 1179.679 305.469 M 1134.743 305.469 L 1093.226 305.469 L 1093.226 409.017 L 1134.743 409.017 L 1134.743 305.469 M 1179.679 412.273 L 1137.999 412.273 L 1137.999 515.984 L 1179.679 515.984 L 1179.679 412.273 M 1134.743 412.273 L 1093.226 412.273 L 1093.226 515.984 L 1134.743 515.984 L 1134.743 412.273 M 1179.679 519.241 L 1137.999 519.241 L 1137.999 622.789 L 1179.679 622.789 L 1179.679 519.241 M 1093.226 622.789 L 1134.743 622.789 L 1134.743 519.241 L 1093.226 519.241 L 1093.226 622.789 M 1179.679 626.045 L 1137.999 626.045 L 1137.999 729.594 L 1179.679 729.594 L 1179.679 626.045 M 1134.743 626.045 L 1093.226 626.045 L 1093.226 729.594 L 1134.743 729.594 L 1134.743 626.045 z"
                    fill-opacity="0.19000000000000003" style="opacity: 1;"></path>
                <g transform="matrix(6.123e-17, 1, -1, 6.123e-17, 1640.695, -603.961)"><text style="font-size: 15px;"
                        x="1122.334" y="523.708">FONDO SUR DESCUBIERTO</text></g>
            </g>
            <g sprite-identifier="s181712">
                <path fill="#f1f1f1" stroke="#000000"
                    d="M 1273.295 305.469 L 1182.935 305.469 L 1182.935 409.017 L 1273.295 409.017 L 1273.295 305.469 M 1273.295 412.273 L 1182.935 412.273 L 1182.935 515.984 L 1273.295 515.984 L 1273.295 412.273 M 1182.935 622.789 L 1273.295 622.789 L 1273.295 519.241 L 1182.935 519.241 L 1182.935 622.789 M 1273.295 626.045 L 1182.935 626.045 L 1182.935 729.594 L 1273.295 729.594 L 1273.295 626.045 z"
                    fill-opacity="0.19000000000000003" style="opacity: 1;"></path>
                <g transform="matrix(6.123e-17, 1, -1, 6.123e-17, 1745.281, -710.922)"><text style="font-size: 15px;"
                        x="1228.115" y="522.531">FONDO SUR SCUBIERTO</text></g>
            </g>
            <g sprite-identifier="s147513" data-original-title="" cursor="pointer">
                <path fill="#050505" stroke="#000000"
                    d="M 321.335 271.278 L 263.537 271.278 L 263.537 386.875 L 321.335 386.875 L 321.335 271.278 M 260.280 271.278 L 202.482 271.278 L 202.482 386.875 L 260.280 386.875 L 260.280 271.278 M 199.226 271.278 L 141.102 271.278 L 141.102 386.875 L 199.226 386.875 L 199.226 271.278 M 321.335 390.131 L 263.537 390.131 L 263.537 505.727 L 321.335 505.727 L 321.335 390.131 M 260.280 505.727 L 260.280 390.131 L 202.482 390.131 L 202.482 505.727 L 260.280 505.727 M 141.102 505.727 L 199.226 505.727 L 199.226 390.131 L 141.102 390.131 L 141.102 505.727 M 321.335 508.984 L 263.537 508.984 L 263.537 624.580 L 321.335 624.580 L 321.335 508.984 M 202.482 508.984 L 202.482 624.580 L 260.280 624.580 L 260.280 508.984 L 202.482 508.984 M 141.102 624.580 L 199.226 624.580 L 199.226 508.984 L 141.102 508.984 L 141.102 624.580 M 321.335 627.836 L 263.537 627.836 L 263.537 743.433 L 321.335 743.433 L 321.335 627.836 M 260.280 627.836 L 202.482 627.836 L 202.482 743.433 L 260.280 743.433 L 260.280 627.836 M 199.226 627.836 L 141.102 627.836 L 141.102 743.433 L 199.226 743.433 L 199.226 627.836 z"
                    fill-opacity="0.19000000000000003" style="opacity: 1;"></path><text style="font-size: 15px;"
                    x="231.218" y="512.355">FONDO NORTE</text>
                <circle cx="231.218" cy="479.855" fill="#a3d165" r="10" stroke="#000" stroke-width="2"></circle>
            </g>
            <g sprite-identifier="s181723">
                <path fill="#f1f1f1" stroke="#000000"
                    d="M 1085.085 750.271 L 1105.925 783.810 L 1118.624 767.529 L 1087.527 749.131 L 1085.085 750.271 M 1163.235 793.904 L 1133.603 828.746 L 1147.767 851.214 L 1140.929 857.075 L 1167.793 894.359 L 1226.406 831.351 L 1163.235 793.904 M 1131.975 825.815 L 1160.467 792.276 L 1121.392 769.157 L 1107.716 786.740 L 1131.975 825.815 M 1073.851 754.992 L 1073.851 800.254 L 1101.855 788.694 L 1079.875 752.876 L 1073.851 754.992 M 1073.851 803.673 L 1073.851 816.047 L 1110.158 802.533 L 1103.483 791.462 L 1073.851 803.673 M 1073.851 819.466 L 1073.851 826.467 L 1118.461 815.884 L 1111.949 805.301 L 1073.851 819.466 z"
                    fill-opacity="0.19000000000000003" style="opacity: 1;"></path>
                <g transform="matrix(0.656, 0.755, -0.755, 0.656, 1011.046, -585.366)"><text style="font-size: 12px;"
                        x="1147.775" y="820.863">ESQUINA FONDO SUR</text></g>
            </g>
            <g sprite-identifier="s181715">
                <path fill="#f1f1f1" stroke="#000000"
                    d="M 260.118 206.642 L 311.892 258.416 L 311.892 185.802 L 297.401 185.802 L 261.583 204.688 L 260.118 206.642 M 235.859 242.623 L 235.859 260.696 L 309.612 260.696 L 258.327 209.410 L 235.859 242.623 M 208.669 155.031 L 246.441 131.097 L 230.974 108.141 L 189.294 135.819 L 208.669 155.031 M 137.195 260.696 L 162.105 260.696 L 162.105 227.970 L 180.503 197.199 L 158.197 184.011 L 137.195 219.993 L 137.195 260.696 M 186.527 137.610 L 184.573 139.075 L 159.826 181.243 L 182.294 194.431 L 204.436 157.799 L 205.738 156.984 L 186.527 137.610 M 296.587 182.546 L 311.892 182.546 L 311.892 114.816 L 279.329 114.816 L 210.948 157.473 L 257.838 204.363 L 259.141 202.246 L 296.587 182.546 M 208.181 159.264 L 206.715 160.241 L 165.361 228.947 L 165.361 260.696 L 232.602 260.696 L 232.602 241.484 L 255.884 206.968 L 208.181 159.264 z"
                    fill-opacity="0.19000000000000003" style="opacity: 1;"></path><text style="font-size: 15px;"
                    x="235.131" y="196.477">CORNER JOVEN</text>
            </g>
            <g sprite-identifier="s217609">
                <path fill="#f1f1f1" stroke="#000000"
                    d="M 137.846 410.157 L 137.846 394.201 L 114.564 394.201 L 114.564 410.157 L 137.846 410.157 z"
                    fill-opacity="0.19000000000000003" style="opacity: 1;"></path><text style="font-size: 12px;"
                    x="126.205" y="407.179">8</text>
            </g>
            <g sprite-identifier="s217610">
                <path fill="#f1f1f1" stroke="#000000"
                    d="M 137.846 427.578 L 137.846 411.785 L 114.564 411.785 L 114.564 427.578 L 137.846 427.578 z"
                    fill-opacity="0.19000000000000003" style="opacity: 1;"></path><text style="font-size: 12px;"
                    x="126.205" y="424.681">9</text>
            </g>
            <g sprite-identifier="s217608">
                <path fill="#f1f1f1" stroke="#000000"
                    d="M 137.846 392.573 L 137.846 376.618 L 114.564 376.618 L 114.564 392.573 L 137.846 392.573 z"
                    fill-opacity="0.19000000000000003" style="opacity: 1;"></path><text style="font-size: 12px;"
                    x="126.205" y="389.595">7</text>
            </g>
            <g sprite-identifier="s217607">
                <path fill="#f1f1f1" stroke="#000000"
                    d="M 137.846 374.989 L 137.846 359.034 L 114.564 359.034 L 114.564 374.989 L 137.846 374.989 z"
                    fill-opacity="0.19000000000000003" style="opacity: 1;"></path><text style="font-size: 12px;"
                    x="126.205" y="372.012">6</text>
            </g>
            <g sprite-identifier="s217606">
                <path fill="#f1f1f1" stroke="#000000"
                    d="M 137.846 341.450 L 114.564 341.450 L 114.564 357.406 L 137.846 357.406 L 137.846 341.450 z"
                    fill-opacity="0.19000000000000003" style="opacity: 1;"></path><text style="font-size: 12px;"
                    x="126.205" y="354.428">5</text>
            </g>
            <g sprite-identifier="s217627">
                <path fill="#f1f1f1" stroke="#000000"
                    d="M 114.564 710.056 L 114.564 726.012 L 137.846 726.012 L 137.846 710.056 L 114.564 710.056 z"
                    fill-opacity="0.19000000000000003" style="opacity: 1;"></path><text style="font-size: 12px;"
                    x="126.205" y="723.034">26</text>
            </g>
            <g sprite-identifier="s217605">
                <path fill="#f1f1f1" stroke="#000000"
                    d="M 114.564 324.029 L 114.564 339.822 L 137.846 339.822 L 137.846 324.029 L 114.564 324.029 z"
                    fill-opacity="0.19000000000000003" style="opacity: 1;"></path><text style="font-size: 12px;"
                    x="126.205" y="336.926">4</text>
            </g>
            <g sprite-identifier="s217628">
                <path fill="#f1f1f1" stroke="#000000"
                    d="M 114.564 727.640 L 114.564 743.433 L 137.846 743.433 L 137.846 727.640 L 114.564 727.640 z"
                    fill-opacity="0.19000000000000003" style="opacity: 1;"></path><text style="font-size: 12px;"
                    x="126.205" y="740.536">27</text>
            </g>
            <g sprite-identifier="s217604">
                <path fill="#f1f1f1" stroke="#000000"
                    d="M 114.564 306.446 L 114.564 322.401 L 137.846 322.401 L 137.846 306.446 L 114.564 306.446 z"
                    fill-opacity="0.19000000000000003" style="opacity: 1;"></path><text style="font-size: 12px;"
                    x="126.205" y="319.423">3</text>
            </g>
            <g sprite-identifier="s217626">
                <path fill="#f1f1f1" stroke="#000000"
                    d="M 114.564 692.472 L 114.564 708.428 L 137.846 708.428 L 137.846 692.472 L 114.564 692.472 z"
                    fill-opacity="0.19000000000000003" style="opacity: 1;"></path><text style="font-size: 12px;"
                    x="126.205" y="705.450">25</text>
            </g>
            <g sprite-identifier="s217625">
                <path fill="#f1f1f1" stroke="#000000"
                    d="M 114.564 674.889 L 114.564 690.844 L 137.846 690.844 L 137.846 674.889 L 114.564 674.889 z"
                    fill-opacity="0.19000000000000003" style="opacity: 1;"></path><text style="font-size: 12px;"
                    x="126.205" y="687.867">24</text>
            </g>
            <g sprite-identifier="s217624">
                <path fill="#f1f1f1" stroke="#000000"
                    d="M 114.564 657.468 L 114.564 673.261 L 137.846 673.261 L 137.846 657.468 L 114.564 657.468 z"
                    fill-opacity="0.19000000000000003" style="opacity: 1;"></path><text style="font-size: 12px;"
                    x="126.205" y="670.364">23</text>
            </g>
            <g sprite-identifier="s217623">
                <path fill="#f1f1f1" stroke="#000000"
                    d="M 137.846 655.840 L 137.846 639.721 L 114.564 639.721 L 114.564 655.840 L 137.846 655.840 z"
                    fill-opacity="0.19000000000000003" style="opacity: 1;"></path><text style="font-size: 12px;"
                    x="126.205" y="652.781">22</text>
            </g>
            <g sprite-identifier="s217603">
                <path fill="#f1f1f1" stroke="#000000"
                    d="M 114.564 288.862 L 114.564 304.818 L 137.846 304.818 L 137.846 288.862 L 114.564 288.862 z"
                    fill-opacity="0.19000000000000003" style="opacity: 1;"></path><text style="font-size: 12px;"
                    x="126.205" y="301.840">2</text>
            </g>
            <g sprite-identifier="s217621">
                <path fill="#f1f1f1" stroke="#000000"
                    d="M 137.846 620.672 L 137.846 604.717 L 114.564 604.717 L 114.564 620.672 L 137.846 620.672 z"
                    fill-opacity="0.19000000000000003" style="opacity: 1;"></path><text style="font-size: 12px;"
                    x="126.205" y="617.695">20</text>
            </g>
            <g sprite-identifier="s217620">
                <path fill="#f1f1f1" stroke="#000000"
                    d="M 137.846 603.089 L 137.846 587.133 L 114.564 587.133 L 114.564 603.089 L 137.846 603.089 z"
                    fill-opacity="0.19000000000000003" style="opacity: 1;"></path><text style="font-size: 12px;"
                    x="126.205" y="600.111">19</text>
            </g>
            <g sprite-identifier="s217619">
                <path fill="#f1f1f1" stroke="#000000"
                    d="M 137.846 585.505 L 137.846 569.712 L 114.564 569.712 L 114.564 585.505 L 137.846 585.505 z"
                    fill-opacity="0.19000000000000003" style="opacity: 1;"></path><text style="font-size: 12px;"
                    x="126.205" y="582.609">18</text>
            </g>
            <g sprite-identifier="s217618">
                <path fill="#f1f1f1" stroke="#000000"
                    d="M 137.846 568.084 L 137.846 552.129 L 114.564 552.129 L 114.564 568.084 L 137.846 568.084 z"
                    fill-opacity="0.19000000000000003" style="opacity: 1;"></path><text style="font-size: 12px;"
                    x="126.205" y="565.106">17</text>
            </g>
            <g sprite-identifier="s217617">
                <path fill="#f1f1f1" stroke="#000000"
                    d="M 137.846 550.501 L 137.846 534.545 L 114.564 534.545 L 114.564 550.501 L 137.846 550.501 z"
                    fill-opacity="0.19000000000000003" style="opacity: 1;"></path><text style="font-size: 12px;"
                    x="126.205" y="547.523">16</text>
            </g>
            <g sprite-identifier="s217616">
                <path fill="#f1f1f1" stroke="#000000"
                    d="M 137.846 532.917 L 137.846 516.961 L 114.564 516.961 L 114.564 532.917 L 137.846 532.917 z"
                    fill-opacity="0.19000000000000003" style="opacity: 1;"></path><text style="font-size: 12px;"
                    x="126.205" y="529.939">15</text>
            </g>
            <g sprite-identifier="s217615">
                <path fill="#f1f1f1" stroke="#000000"
                    d="M 137.846 515.333 L 137.846 499.378 L 114.564 499.378 L 114.564 515.333 L 137.846 515.333 z"
                    fill-opacity="0.19000000000000003" style="opacity: 1;"></path><text style="font-size: 12px;"
                    x="126.205" y="512.355">14</text>
            </g>
            <g sprite-identifier="s217614">
                <path fill="#f1f1f1" stroke="#000000"
                    d="M 137.846 497.750 L 137.846 481.957 L 114.564 481.957 L 114.564 497.750 L 137.846 497.750 z"
                    fill-opacity="0.19000000000000003" style="opacity: 1;"></path><text style="font-size: 12px;"
                    x="126.205" y="494.853">13</text>
            </g>
            <g sprite-identifier="s217613">
                <path fill="#f1f1f1" stroke="#000000"
                    d="M 137.846 480.329 L 137.846 464.373 L 114.564 464.373 L 114.564 480.329 L 137.846 480.329 z"
                    fill-opacity="0.19000000000000003" style="opacity: 1;"></path><text style="font-size: 12px;"
                    x="126.205" y="477.351">12</text>
            </g>
            <g sprite-identifier="s217612">
                <path fill="#f1f1f1" stroke="#000000"
                    d="M 137.846 462.745 L 137.846 446.789 L 114.564 446.789 L 114.564 462.745 L 137.846 462.745 z"
                    fill-opacity="0.19000000000000003" style="opacity: 1;"></path><text style="font-size: 12px;"
                    x="126.205" y="459.767">11</text>
            </g>
            <g sprite-identifier="s217611">
                <path fill="#f1f1f1" stroke="#000000"
                    d="M 137.846 445.161 L 137.846 429.206 L 114.564 429.206 L 114.564 445.161 L 137.846 445.161 z"
                    fill-opacity="0.19000000000000003" style="opacity: 1;"></path><text style="font-size: 12px;"
                    x="126.205" y="442.184">10</text>
            </g>
            <g sprite-identifier="s217602">
                <path fill="#f1f1f1" stroke="#000000"
                    d="M 114.564 271.278 L 114.564 287.234 L 137.846 287.234 L 137.846 271.278 L 114.564 271.278 z"
                    fill-opacity="0.19000000000000003" style="opacity: 1;"></path><text style="font-size: 12px;"
                    x="126.205" y="284.256">1</text>
            </g>
            <g sprite-identifier="s217622">
                <path fill="#f1f1f1" stroke="#000000"
                    d="M 137.846 638.093 L 137.846 622.301 L 114.564 622.301 L 114.564 638.093 L 137.846 638.093 z"
                    fill-opacity="0.19000000000000003" style="opacity: 1;"></path><text style="font-size: 12px;"
                    x="126.205" y="635.197">21</text>
            </g>
        </g>
        <defs>
            <style type="text/css">
                .svg-pan-zoom-control {
                    cursor: pointer;
                    fill: white;
                    fill-opacity: 1;
                    stroke-width: 20;
                    stroke: rgb(0, 0, 0);
                }

                .svg-pan-zoom-control-background {
                    fill: grey;
                }
            </style>
        </defs>
        <g id="svg-pan-zoom-controls" transform="translate(-12 7) scale(0.75)" class="svg-pan-zoom-control">
            <g id="svg-pan-zoom-zoom-in" transform="translate(30.5 5) scale(0.015)" class="svg-pan-zoom-control">
                <rect x="100" y="100" width="1200" height="1200" class="svg-pan-zoom-control-background"></rect>
                <path
                    d="M1280 576v128q0 26 -19 45t-45 19h-320v320q0 26 -19 45t-45 19h-128q-26 0 -45 -19t-19 -45v-320h-320q-26 0 -45 -19t-19 -45v-128q0 -26 19 -45t45 -19h320v-320q0 -26 19 -45t45 -19h128q26 0 45 19t19 45v320h320q26 0 45 19t19 45zM1536 1120v-960 q0 -119 -84.5 -203.5t-203.5 -84.5h-960q-119 0 -203.5 84.5t-84.5 203.5v960q0 119 84.5 203.5t203.5 84.5h960q119 0 203.5 -84.5t84.5 -203.5z"
                    class="svg-pan-zoom-control-element"></path>
            </g>
            <g id="svg-pan-zoom-zoom-out" transform="translate(30.5 40) scale(0.015)" class="svg-pan-zoom-control">
                <rect x="100" y="100" width="1200" height="1200" class="svg-pan-zoom-control-background"></rect>
                <path
                    d="M1280 576v128q0 26 -19 45t-45 19h-896q-26 0 -45 -19t-19 -45v-128q0 -26 19 -45t45 -19h896q26 0 45 19t19 45zM1536 1120v-960q0 -119 -84.5 -203.5t-203.5 -84.5h-960q-119 0 -203.5 84.5t-84.5 203.5v960q0 119 84.5 203.5t203.5 84.5h960q119 0 203.5 -84.5 t84.5 -203.5z"
                    class="svg-pan-zoom-control-element"></path>
            </g>
        </g>
    </svg>